<?xml version="1.0" encoding="UTF-8" standalone="no"?>
<!DOCTYPE svg PUBLIC "-//W3C//DTD SVG 1.1//EN"
 "http://www.w3.org/Graphics/SVG/1.1/DTD/svg11.dtd">
<!-- Generated by graphviz version 14.0.1 (20251006.0113)
 -->
<!-- Title: C:/Users/Kefle/Desktop/ExpositoTOP/src/es/ull/esit/utilities/ExpositoUtilities.java Pages: 1 -->
<svg width="1591pt" height="108pt"
 viewBox="0.00 0.00 1591.00 108.00" xmlns="http://www.w3.org/2000/svg" xmlns:xlink="http://www.w3.org/1999/xlink">
<g id="graph0" class="graph" transform="scale(1 1) rotate(0) translate(4 104)">
<title>C:/Users/Kefle/Desktop/ExpositoTOP/src/es/ull/esit/utilities/ExpositoUtilities.java</title>
<!-- Node1 -->
<g id="Node000001" class="node">
<title>Node1</title>
<g id="a_Node000001"><a xlink:title="Contiene una colección de métodos de utilidad estáticos para diversas tareas.">
<polygon fill="#999999" stroke="#666666" points="902.38,-100 738.62,-100 738.62,-56 902.38,-56 902.38,-100"/>
<text xml:space="preserve" text-anchor="start" x="746.62" y="-86.5" font-family="Helvetica,sans-Serif" font-size="10.00">C:/Users/Kefle/Desktop</text>
<text xml:space="preserve" text-anchor="start" x="746.62" y="-74.5" font-family="Helvetica,sans-Serif" font-size="10.00">/ExpositoTOP/src/es/ull</text>
<text xml:space="preserve" text-anchor="middle" x="820.5" y="-62.5" font-family="Helvetica,sans-Serif" font-size="10.00">/esit/utilities/ExpositoUtilities.java</text>
</a>
</g>
</g>
<!-- Node2 -->
<g id="Node000002" class="node">
<title>Node2</title>
<g id="a_Node000002"><a xlink:title=" ">
<polygon fill="#e0e0e0" stroke="#999999" points="115,-20 0,-20 0,0 115,0 115,-20"/>
<text xml:space="preserve" text-anchor="middle" x="57.5" y="-6.5" font-family="Helvetica,sans-Serif" font-size="10.00">java.io.BufferedReader</text>
</a>
</g>
</g>
<!-- Node1&#45;&gt;Node2 -->
<g id="edge1_Node000001_Node000002" class="edge">
<title>Node1&#45;&gt;Node2</title>
<g id="a_edge1_Node000001_Node000002"><a xlink:title=" ">
<path fill="none" stroke="#63b8ff" d="M738.28,-71.72C609.88,-63.15 353.7,-44.78 126.56,-20.29"/>
<polygon fill="#63b8ff" stroke="#63b8ff" points="127.25,-16.84 116.93,-19.24 126.5,-23.8 127.25,-16.84"/>
</a>
</g>
</g>
<!-- Node3 -->
<g id="Node000003" class="node">
<title>Node3</title>
<g id="a_Node000003"><a xlink:title=" ">
<polygon fill="#e0e0e0" stroke="#999999" points="242,-20 133,-20 133,0 242,0 242,-20"/>
<text xml:space="preserve" text-anchor="middle" x="187.5" y="-6.5" font-family="Helvetica,sans-Serif" font-size="10.00">java.io.BufferedWriter</text>
</a>
</g>
</g>
<!-- Node1&#45;&gt;Node3 -->
<g id="edge2_Node000001_Node000003" class="edge">
<title>Node1&#45;&gt;Node3</title>
<g id="a_edge2_Node000001_Node000003"><a xlink:title=" ">
<path fill="none" stroke="#63b8ff" d="M738.41,-69.81C629.98,-60.09 432.78,-41.6 253.53,-20.2"/>
<polygon fill="#63b8ff" stroke="#63b8ff" points="254.14,-16.75 243.8,-19.03 253.31,-23.7 254.14,-16.75"/>
</a>
</g>
</g>
<!-- Node4 -->
<g id="Node000004" class="node">
<title>Node4</title>
<g id="a_Node000004"><a xlink:title=" ">
<polygon fill="#e0e0e0" stroke="#999999" points="354.88,-20 260.12,-20 260.12,0 354.88,0 354.88,-20"/>
<text xml:space="preserve" text-anchor="middle" x="307.5" y="-6.5" font-family="Helvetica,sans-Serif" font-size="10.00">java.io.FileReader</text>
</a>
</g>
</g>
<!-- Node1&#45;&gt;Node4 -->
<g id="edge3_Node000001_Node000004" class="edge">
<title>Node1&#45;&gt;Node4</title>
<g id="a_edge3_Node000001_Node000004"><a xlink:title=" ">
<path fill="none" stroke="#63b8ff" d="M738.43,-67.55C649.47,-57.12 503.02,-39.42 366.16,-20.19"/>
<polygon fill="#63b8ff" stroke="#63b8ff" points="366.96,-16.77 356.57,-18.84 365.98,-23.7 366.96,-16.77"/>
</a>
</g>
</g>
<!-- Node5 -->
<g id="Node000005" class="node">
<title>Node5</title>
<g id="a_Node000005"><a xlink:title=" ">
<polygon fill="#e0e0e0" stroke="#999999" points="461.88,-20 373.12,-20 373.12,0 461.88,0 461.88,-20"/>
<text xml:space="preserve" text-anchor="middle" x="417.5" y="-6.5" font-family="Helvetica,sans-Serif" font-size="10.00">java.io.FileWriter</text>
</a>
</g>
</g>
<!-- Node1&#45;&gt;Node5 -->
<g id="edge4_Node000001_Node000005" class="edge">
<title>Node1&#45;&gt;Node5</title>
<g id="a_edge4_Node000001_Node000005"><a xlink:title=" ">
<path fill="none" stroke="#63b8ff" d="M738.44,-63.8C670.13,-52.77 569.97,-36.51 473.46,-20.48"/>
<polygon fill="#63b8ff" stroke="#63b8ff" points="474.25,-17.07 463.81,-18.88 473.1,-23.97 474.25,-17.07"/>
</a>
</g>
</g>
<!-- Node6 -->
<g id="Node000006" class="node">
<title>Node6</title>
<g id="a_Node000006"><a xlink:title=" ">
<polygon fill="#e0e0e0" stroke="#999999" points="581.25,-20 479.75,-20 479.75,0 581.25,0 581.25,-20"/>
<text xml:space="preserve" text-anchor="middle" x="530.5" y="-6.5" font-family="Helvetica,sans-Serif" font-size="10.00">java.io.IOException</text>
</a>
</g>
</g>
<!-- Node1&#45;&gt;Node6 -->
<g id="edge5_Node000001_Node000006" class="edge">
<title>Node1&#45;&gt;Node6</title>
<g id="a_edge5_Node000001_Node000006"><a xlink:title=" ">
<path fill="none" stroke="#63b8ff" d="M738.17,-58.26C688.37,-46.93 626.35,-32.81 583.11,-22.97"/>
<polygon fill="#63b8ff" stroke="#63b8ff" points="584,-19.59 573.47,-20.78 582.44,-26.41 584,-19.59"/>
</a>
</g>
</g>
<!-- Node7 -->
<g id="Node000007" class="node">
<title>Node7</title>
<g id="a_Node000007"><a xlink:title=" ">
<polygon fill="#e0e0e0" stroke="#999999" points="722.12,-20 598.88,-20 598.88,0 722.12,0 722.12,-20"/>
<text xml:space="preserve" text-anchor="middle" x="660.5" y="-6.5" font-family="Helvetica,sans-Serif" font-size="10.00">java.text.DecimalFormat</text>
</a>
</g>
</g>
<!-- Node1&#45;&gt;Node7 -->
<g id="edge6_Node000001_Node000007" class="edge">
<title>Node1&#45;&gt;Node7</title>
<g id="a_edge6_Node000001_Node000007"><a xlink:title=" ">
<path fill="none" stroke="#63b8ff" d="M768.55,-55.57C744,-45.44 715.41,-33.65 693.8,-24.74"/>
<polygon fill="#63b8ff" stroke="#63b8ff" points="695.18,-21.52 684.6,-20.94 692.51,-27.99 695.18,-21.52"/>
</a>
</g>
</g>
<!-- Node8 -->
<g id="Node000008" class="node">
<title>Node8</title>
<g id="a_Node000008"><a xlink:title=" ">
<polygon fill="#e0e0e0" stroke="#999999" points="901.25,-20 739.75,-20 739.75,0 901.25,0 901.25,-20"/>
<text xml:space="preserve" text-anchor="middle" x="820.5" y="-6.5" font-family="Helvetica,sans-Serif" font-size="10.00">java.text.DecimalFormatSymbols</text>
</a>
</g>
</g>
<!-- Node1&#45;&gt;Node8 -->
<g id="edge7_Node000001_Node000008" class="edge">
<title>Node1&#45;&gt;Node8</title>
<g id="a_edge7_Node000001_Node000008"><a xlink:title=" ">
<path fill="none" stroke="#63b8ff" d="M820.5,-55.75C820.5,-48.13 820.5,-39.53 820.5,-31.93"/>
<polygon fill="#63b8ff" stroke="#63b8ff" points="824,-31.93 820.5,-21.93 817,-31.93 824,-31.93"/>
</a>
</g>
</g>
<!-- Node9 -->
<g id="Node000009" class="node">
<title>Node9</title>
<g id="a_Node000009"><a xlink:title=" ">
<polygon fill="#e0e0e0" stroke="#999999" points="1011.38,-20 919.62,-20 919.62,0 1011.38,0 1011.38,-20"/>
<text xml:space="preserve" text-anchor="middle" x="965.5" y="-6.5" font-family="Helvetica,sans-Serif" font-size="10.00">java.util.ArrayList</text>
</a>
</g>
</g>
<!-- Node1&#45;&gt;Node9 -->
<g id="edge8_Node000001_Node000009" class="edge">
<title>Node1&#45;&gt;Node9</title>
<g id="a_edge8_Node000001_Node000009"><a xlink:title=" ">
<path fill="none" stroke="#63b8ff" d="M867.58,-55.57C889.52,-45.58 915.03,-33.97 934.51,-25.11"/>
<polygon fill="#63b8ff" stroke="#63b8ff" points="935.9,-28.32 943.55,-20.99 933,-21.95 935.9,-28.32"/>
</a>
</g>
</g>
<!-- Node10 -->
<g id="Node000010" class="node">
<title>Node10</title>
<g id="a_Node000010"><a xlink:title=" ">
<polygon fill="#e0e0e0" stroke="#999999" points="1111.12,-20 1029.88,-20 1029.88,0 1111.12,0 1111.12,-20"/>
<text xml:space="preserve" text-anchor="middle" x="1070.5" y="-6.5" font-family="Helvetica,sans-Serif" font-size="10.00">java.util.Arrays</text>
</a>
</g>
</g>
<!-- Node1&#45;&gt;Node10 -->
<g id="edge9_Node000001_Node000010" class="edge">
<title>Node1&#45;&gt;Node10</title>
<g id="a_edge9_Node000001_Node000010"><a xlink:title=" ">
<path fill="none" stroke="#63b8ff" d="M901.67,-55.57C942.02,-44.92 989.34,-32.43 1023.61,-23.38"/>
<polygon fill="#63b8ff" stroke="#63b8ff" points="1024.46,-26.78 1033.23,-20.84 1022.67,-20.01 1024.46,-26.78"/>
</a>
</g>
</g>
<!-- Node11 -->
<g id="Node000011" class="node">
<title>Node11</title>
<g id="a_Node000011"><a xlink:title=" ">
<polygon fill="#e0e0e0" stroke="#999999" points="1220,-20 1129,-20 1129,0 1220,0 1220,-20"/>
<text xml:space="preserve" text-anchor="middle" x="1174.5" y="-6.5" font-family="Helvetica,sans-Serif" font-size="10.00">java.util.HashSet</text>
</a>
</g>
</g>
<!-- Node1&#45;&gt;Node11 -->
<g id="edge10_Node000001_Node000011" class="edge">
<title>Node1&#45;&gt;Node11</title>
<g id="a_edge10_Node000001_Node000011"><a xlink:title=" ">
<path fill="none" stroke="#63b8ff" d="M902.6,-61.69C968.47,-49.41 1059.24,-32.49 1117.4,-21.65"/>
<polygon fill="#63b8ff" stroke="#63b8ff" points="1117.91,-25.11 1127.1,-19.84 1116.62,-18.23 1117.91,-25.11"/>
</a>
</g>
</g>
<!-- Node12 -->
<g id="Node000012" class="node">
<title>Node12</title>
<g id="a_Node000012"><a xlink:title=" ">
<polygon fill="#e0e0e0" stroke="#999999" points="1321.25,-20 1237.75,-20 1237.75,0 1321.25,0 1321.25,-20"/>
<text xml:space="preserve" text-anchor="middle" x="1279.5" y="-6.5" font-family="Helvetica,sans-Serif" font-size="10.00">java.util.Iterator</text>
</a>
</g>
</g>
<!-- Node1&#45;&gt;Node12 -->
<g id="edge11_Node000001_Node000012" class="edge">
<title>Node1&#45;&gt;Node12</title>
<g id="a_edge11_Node000001_Node000012"><a xlink:title=" ">
<path fill="none" stroke="#63b8ff" d="M902.51,-66.54C982.69,-56.1 1108.5,-39.12 1226.48,-20.44"/>
<polygon fill="#63b8ff" stroke="#63b8ff" points="1226.69,-23.95 1236.01,-18.92 1225.59,-17.04 1226.69,-23.95"/>
</a>
</g>
</g>
<!-- Node13 -->
<g id="Node000013" class="node">
<title>Node13</title>
<g id="a_Node000013"><a xlink:title=" ">
<polygon fill="#e0e0e0" stroke="#999999" points="1449.38,-20 1339.62,-20 1339.62,0 1449.38,0 1449.38,-20"/>
<text xml:space="preserve" text-anchor="middle" x="1394.5" y="-6.5" font-family="Helvetica,sans-Serif" font-size="10.00">java.util.logging.Level</text>
</a>
</g>
</g>
<!-- Node1&#45;&gt;Node13 -->
<g id="edge12_Node000001_Node000013" class="edge">
<title>Node1&#45;&gt;Node13</title>
<g id="a_edge12_Node000001_Node000013"><a xlink:title=" ">
<path fill="none" stroke="#63b8ff" d="M902.73,-68.54C1001.24,-58.23 1171.57,-39.9 1328.11,-20.27"/>
<polygon fill="#63b8ff" stroke="#63b8ff" points="1328.37,-23.77 1337.85,-19.05 1327.49,-16.82 1328.37,-23.77"/>
</a>
</g>
</g>
<!-- Node14 -->
<g id="Node000014" class="node">
<title>Node14</title>
<g id="a_Node000014"><a xlink:title=" ">
<polygon fill="#e0e0e0" stroke="#999999" points="1583.38,-20 1467.62,-20 1467.62,0 1583.38,0 1583.38,-20"/>
<text xml:space="preserve" text-anchor="middle" x="1525.5" y="-6.5" font-family="Helvetica,sans-Serif" font-size="10.00">java.util.logging.Logger</text>
</a>
</g>
</g>
<!-- Node1&#45;&gt;Node14 -->
<g id="edge13_Node000001_Node000014" class="edge">
<title>Node1&#45;&gt;Node14</title>
<g id="a_edge13_Node000001_Node000014"><a xlink:title=" ">
<path fill="none" stroke="#63b8ff" d="M902.7,-70.83C1022.12,-61.61 1250.84,-42.96 1456.11,-20.22"/>
<polygon fill="#63b8ff" stroke="#63b8ff" points="1456.36,-23.72 1465.91,-19.13 1455.58,-16.76 1456.36,-23.72"/>
</a>
</g>
</g>
</g>
</svg>
