<?xml version="1.0" encoding="UTF-8" standalone="no"?>
<!DOCTYPE svg PUBLIC "-//W3C//DTD SVG 1.1//EN"
 "http://www.w3.org/Graphics/SVG/1.1/DTD/svg11.dtd">
<!-- Generated by graphviz version 14.0.1 (20251006.0113)
 -->
<!-- Title: C:/Users/Kefle/Desktop/ExpositoTOP/src/es/ull/esit/utilities/PowerSet.java Pages: 1 -->
<svg width="568pt" height="108pt"
 viewBox="0.00 0.00 568.00 108.00" xmlns="http://www.w3.org/2000/svg" xmlns:xlink="http://www.w3.org/1999/xlink">
<g id="graph0" class="graph" transform="scale(1 1) rotate(0) translate(4 104)">
<title>C:/Users/Kefle/Desktop/ExpositoTOP/src/es/ull/esit/utilities/PowerSet.java</title>
<!-- Node1 -->
<g id="Node000001" class="node">
<title>Node1</title>
<g id="a_Node000001"><a xlink:title="Contiene la implementación de un iterador para generar el conjunto potencia de un conjunto dado.">
<polygon fill="#999999" stroke="#666666" points="351.5,-100 216.25,-100 216.25,-56 351.5,-56 351.5,-100"/>
<text xml:space="preserve" text-anchor="start" x="224.25" y="-86.5" font-family="Helvetica,sans-Serif" font-size="10.00">C:/Users/Kefle/Desktop</text>
<text xml:space="preserve" text-anchor="start" x="224.25" y="-74.5" font-family="Helvetica,sans-Serif" font-size="10.00">/ExpositoTOP/src/es/ull</text>
<text xml:space="preserve" text-anchor="middle" x="283.88" y="-62.5" font-family="Helvetica,sans-Serif" font-size="10.00">/esit/utilities/PowerSet.java</text>
</a>
</g>
</g>
<!-- Node2 -->
<g id="Node000002" class="node">
<title>Node2</title>
<g id="a_Node000002"><a xlink:title=" ">
<polygon fill="#e0e0e0" stroke="#999999" points="79.75,-20 0,-20 0,0 79.75,0 79.75,-20"/>
<text xml:space="preserve" text-anchor="middle" x="39.88" y="-6.5" font-family="Helvetica,sans-Serif" font-size="10.00">java.util.BitSet</text>
</a>
</g>
</g>
<!-- Node1&#45;&gt;Node2 -->
<g id="edge1_Node000001_Node000002" class="edge">
<title>Node1&#45;&gt;Node2</title>
<g id="a_edge1_Node000001_Node000002"><a xlink:title=" ">
<path fill="none" stroke="#63b8ff" d="M215.91,-58.62C174.38,-47.38 122.37,-33.32 85.69,-23.39"/>
<polygon fill="#63b8ff" stroke="#63b8ff" points="86.86,-20.08 76.29,-20.85 85.03,-26.84 86.86,-20.08"/>
</a>
</g>
</g>
<!-- Node3 -->
<g id="Node000003" class="node">
<title>Node3</title>
<g id="a_Node000003"><a xlink:title=" ">
<polygon fill="#e0e0e0" stroke="#999999" points="181.62,-20 98.12,-20 98.12,0 181.62,0 181.62,-20"/>
<text xml:space="preserve" text-anchor="middle" x="139.88" y="-6.5" font-family="Helvetica,sans-Serif" font-size="10.00">java.util.Iterator</text>
</a>
</g>
</g>
<!-- Node1&#45;&gt;Node3 -->
<g id="edge2_Node000001_Node000003" class="edge">
<title>Node1&#45;&gt;Node3</title>
<g id="a_edge2_Node000001_Node000003"><a xlink:title=" ">
<path fill="none" stroke="#63b8ff" d="M237.12,-55.57C215.33,-45.58 190,-33.97 170.66,-25.11"/>
<polygon fill="#63b8ff" stroke="#63b8ff" points="172.23,-21.98 161.68,-21 169.32,-28.34 172.23,-21.98"/>
</a>
</g>
</g>
<!-- Node4 -->
<g id="Node000004" class="node">
<title>Node4</title>
<g id="a_Node000004"><a xlink:title=" ">
<polygon fill="#e0e0e0" stroke="#999999" points="367.62,-20 200.12,-20 200.12,0 367.62,0 367.62,-20"/>
<text xml:space="preserve" text-anchor="middle" x="283.88" y="-6.5" font-family="Helvetica,sans-Serif" font-size="10.00">java.util.NoSuchElementException</text>
</a>
</g>
</g>
<!-- Node1&#45;&gt;Node4 -->
<g id="edge3_Node000001_Node000004" class="edge">
<title>Node1&#45;&gt;Node4</title>
<g id="a_edge3_Node000001_Node000004"><a xlink:title=" ">
<path fill="none" stroke="#63b8ff" d="M283.88,-55.75C283.88,-48.13 283.88,-39.53 283.88,-31.93"/>
<polygon fill="#63b8ff" stroke="#63b8ff" points="287.38,-31.93 283.88,-21.93 280.38,-31.93 287.38,-31.93"/>
</a>
</g>
</g>
<!-- Node5 -->
<g id="Node000005" class="node">
<title>Node5</title>
<g id="a_Node000005"><a xlink:title=" ">
<polygon fill="#e0e0e0" stroke="#999999" points="453.75,-20 386,-20 386,0 453.75,0 453.75,-20"/>
<text xml:space="preserve" text-anchor="middle" x="419.88" y="-6.5" font-family="Helvetica,sans-Serif" font-size="10.00">java.util.Set</text>
</a>
</g>
</g>
<!-- Node1&#45;&gt;Node5 -->
<g id="edge4_Node000001_Node000005" class="edge">
<title>Node1&#45;&gt;Node5</title>
<g id="a_edge4_Node000001_Node000005"><a xlink:title=" ">
<path fill="none" stroke="#63b8ff" d="M328.03,-55.57C348.42,-45.68 372.09,-34.19 390.29,-25.36"/>
<polygon fill="#63b8ff" stroke="#63b8ff" points="391.75,-28.54 399.22,-21.03 388.69,-22.24 391.75,-28.54"/>
</a>
</g>
</g>
<!-- Node6 -->
<g id="Node000006" class="node">
<title>Node6</title>
<g id="a_Node000006"><a xlink:title=" ">
<polygon fill="#e0e0e0" stroke="#999999" points="559.5,-20 472.25,-20 472.25,0 559.5,0 559.5,-20"/>
<text xml:space="preserve" text-anchor="middle" x="515.88" y="-6.5" font-family="Helvetica,sans-Serif" font-size="10.00">java.util.TreeSet</text>
</a>
</g>
</g>
<!-- Node1&#45;&gt;Node6 -->
<g id="edge5_Node000001_Node000006" class="edge">
<title>Node1&#45;&gt;Node6</title>
<g id="a_edge5_Node000001_Node000006"><a xlink:title=" ">
<path fill="none" stroke="#63b8ff" d="M351.92,-57.64C390.6,-46.64 437.91,-33.18 471.75,-23.55"/>
<polygon fill="#63b8ff" stroke="#63b8ff" points="472.57,-26.96 481.23,-20.86 470.65,-20.23 472.57,-26.96"/>
</a>
</g>
</g>
</g>
</svg>
