<?xml version="1.0" encoding="UTF-8" standalone="no"?>
<!DOCTYPE svg PUBLIC "-//W3C//DTD SVG 1.1//EN"
 "http://www.w3.org/Graphics/SVG/1.1/DTD/svg11.dtd">
<!-- Generated by graphviz version 14.0.1 (20251006.0113)
 -->
<!-- Title: C:/Users/Kefle/Desktop/ExpositoTOP/src/top/TOPTWSolution.java Pages: 1 -->
<svg width="240pt" height="108pt"
 viewBox="0.00 0.00 240.00 108.00" xmlns="http://www.w3.org/2000/svg" xmlns:xlink="http://www.w3.org/1999/xlink">
<g id="graph0" class="graph" transform="scale(1 1) rotate(0) translate(4 104)">
<title>C:/Users/Kefle/Desktop/ExpositoTOP/src/top/TOPTWSolution.java</title>
<!-- Node1 -->
<g id="Node000001" class="node">
<title>Node1</title>
<g id="a_Node000001"><a xlink:title="Contiene la definición de la clase TOPTWSolution, que representa una solución para el problema TOPTW.">
<polygon fill="#999999" stroke="#666666" points="205.75,-100 0,-100 0,-68 205.75,-68 205.75,-100"/>
<text xml:space="preserve" text-anchor="start" x="8" y="-86.5" font-family="Helvetica,sans-Serif" font-size="10.00">C:/Users/Kefle/Desktop</text>
<text xml:space="preserve" text-anchor="middle" x="102.88" y="-74.5" font-family="Helvetica,sans-Serif" font-size="10.00">/ExpositoTOP/src/top/TOPTWSolution.java</text>
</a>
</g>
</g>
<!-- Node2 -->
<g id="Node000002" class="node">
<title>Node2</title>
<g id="a_Node000002"><a xlink:title=" ">
<polygon fill="#e0e0e0" stroke="#999999" points="81.5,-26 0.25,-26 0.25,-6 81.5,-6 81.5,-26"/>
<text xml:space="preserve" text-anchor="middle" x="40.88" y="-12.5" font-family="Helvetica,sans-Serif" font-size="10.00">java.util.Arrays</text>
</a>
</g>
</g>
<!-- Node1&#45;&gt;Node2 -->
<g id="edge1_Node000001_Node000002" class="edge">
<title>Node1&#45;&gt;Node2</title>
<g id="a_edge1_Node000001_Node000002"><a xlink:title=" ">
<path fill="none" stroke="#63b8ff" d="M88.5,-67.69C79.2,-57.8 67.07,-44.89 57.38,-34.57"/>
<polygon fill="#63b8ff" stroke="#63b8ff" points="60.06,-32.31 50.66,-27.42 54.96,-37.1 60.06,-32.31"/>
</a>
</g>
</g>
<!-- Node3 -->
<g id="Node000003" class="node">
<title>Node3</title>
<g id="a_Node000003"><a xlink:title=" ">
<polygon fill="#e0e0e0" stroke="#999999" points="232.38,-32 99.38,-32 99.38,0 232.38,0 232.38,-32"/>
<text xml:space="preserve" text-anchor="start" x="107.38" y="-18.5" font-family="Helvetica,sans-Serif" font-size="10.00">es.ull.esit.utilities.Exposito</text>
<text xml:space="preserve" text-anchor="middle" x="165.88" y="-6.5" font-family="Helvetica,sans-Serif" font-size="10.00">Utilities</text>
</a>
</g>
</g>
<!-- Node1&#45;&gt;Node3 -->
<g id="edge2_Node000001_Node000003" class="edge">
<title>Node1&#45;&gt;Node3</title>
<g id="a_edge2_Node000001_Node000003"><a xlink:title=" ">
<path fill="none" stroke="#63b8ff" d="M117.49,-67.69C125.2,-59.61 134.83,-49.52 143.46,-40.48"/>
<polygon fill="#63b8ff" stroke="#63b8ff" points="145.92,-42.97 150.3,-33.32 140.86,-38.14 145.92,-42.97"/>
</a>
</g>
</g>
</g>
</svg>
