<?xml version="1.0" encoding="UTF-8" standalone="no"?>
<!DOCTYPE svg PUBLIC "-//W3C//DTD SVG 1.1//EN"
 "http://www.w3.org/Graphics/SVG/1.1/DTD/svg11.dtd">
<!-- Generated by graphviz version 14.0.1 (20251006.0113)
 -->
<!-- Title: C:/Users/Kefle/Desktop/ExpositoTOP/src/top/TOPTWGRASP.java Pages: 1 -->
<svg width="609pt" height="96pt"
 viewBox="0.00 0.00 609.00 96.00" xmlns="http://www.w3.org/2000/svg" xmlns:xlink="http://www.w3.org/1999/xlink">
<g id="graph0" class="graph" transform="scale(1 1) rotate(0) translate(4 92)">
<title>C:/Users/Kefle/Desktop/ExpositoTOP/src/top/TOPTWGRASP.java</title>
<!-- Node1 -->
<g id="Node000001" class="node">
<title>Node1</title>
<g id="a_Node000001"><a xlink:title="Contiene la implementación de la metaheurística GRASP para el problema TOPTW.">
<polygon fill="#999999" stroke="#666666" points="384,-88 179.75,-88 179.75,-56 384,-56 384,-88"/>
<text xml:space="preserve" text-anchor="start" x="187.75" y="-74.5" font-family="Helvetica,sans-Serif" font-size="10.00">C:/Users/Kefle/Desktop</text>
<text xml:space="preserve" text-anchor="middle" x="281.88" y="-62.5" font-family="Helvetica,sans-Serif" font-size="10.00">/ExpositoTOP/src/top/TOPTWGRASP.java</text>
</a>
</g>
</g>
<!-- Node2 -->
<g id="Node000002" class="node">
<title>Node2</title>
<g id="a_Node000002"><a xlink:title=" ">
<polygon fill="#e0e0e0" stroke="#999999" points="91.75,-20 0,-20 0,0 91.75,0 91.75,-20"/>
<text xml:space="preserve" text-anchor="middle" x="45.88" y="-6.5" font-family="Helvetica,sans-Serif" font-size="10.00">java.util.ArrayList</text>
</a>
</g>
</g>
<!-- Node1&#45;&gt;Node2 -->
<g id="edge1_Node000001_Node000002" class="edge">
<title>Node1&#45;&gt;Node2</title>
<g id="a_edge1_Node000001_Node000002"><a xlink:title=" ">
<path fill="none" stroke="#63b8ff" d="M221.1,-55.55C181.62,-45.51 130.86,-32.61 94.14,-23.27"/>
<polygon fill="#63b8ff" stroke="#63b8ff" points="95.25,-19.94 84.69,-20.87 93.52,-26.73 95.25,-19.94"/>
</a>
</g>
</g>
<!-- Node3 -->
<g id="Node000003" class="node">
<title>Node3</title>
<g id="a_Node000003"><a xlink:title=" ">
<polygon fill="#e0e0e0" stroke="#999999" points="211.62,-20 110.12,-20 110.12,0 211.62,0 211.62,-20"/>
<text xml:space="preserve" text-anchor="middle" x="160.88" y="-6.5" font-family="Helvetica,sans-Serif" font-size="10.00">java.util.Collections</text>
</a>
</g>
</g>
<!-- Node1&#45;&gt;Node3 -->
<g id="edge2_Node000001_Node000003" class="edge">
<title>Node1&#45;&gt;Node3</title>
<g id="a_edge2_Node000001_Node000003"><a xlink:title=" ">
<path fill="none" stroke="#63b8ff" d="M250.71,-55.55C231.98,-46.26 208.3,-34.52 189.96,-25.42"/>
<polygon fill="#63b8ff" stroke="#63b8ff" points="191.72,-22.39 181.2,-21.08 188.61,-28.66 191.72,-22.39"/>
</a>
</g>
</g>
<!-- Node4 -->
<g id="Node000004" class="node">
<title>Node4</title>
<g id="a_Node000004"><a xlink:title=" ">
<polygon fill="#e0e0e0" stroke="#999999" points="333.75,-20 230,-20 230,0 333.75,0 333.75,-20"/>
<text xml:space="preserve" text-anchor="middle" x="281.88" y="-6.5" font-family="Helvetica,sans-Serif" font-size="10.00">java.util.Comparator</text>
</a>
</g>
</g>
<!-- Node1&#45;&gt;Node4 -->
<g id="edge3_Node000001_Node000004" class="edge">
<title>Node1&#45;&gt;Node4</title>
<g id="a_edge3_Node000001_Node000004"><a xlink:title=" ">
<path fill="none" stroke="#63b8ff" d="M281.88,-55.55C281.88,-48.34 281.88,-39.66 281.88,-31.88"/>
<polygon fill="#63b8ff" stroke="#63b8ff" points="285.38,-31.92 281.88,-21.92 278.38,-31.92 285.38,-31.92"/>
</a>
</g>
</g>
<!-- Node5 -->
<g id="Node000005" class="node">
<title>Node5</title>
<g id="a_Node000005"><a xlink:title=" ">
<polygon fill="#e0e0e0" stroke="#999999" points="493.5,-20 352.25,-20 352.25,0 493.5,0 493.5,-20"/>
<text xml:space="preserve" text-anchor="middle" x="422.88" y="-6.5" font-family="Helvetica,sans-Serif" font-size="10.00">java.security.SecureRandom</text>
</a>
</g>
</g>
<!-- Node1&#45;&gt;Node5 -->
<g id="edge4_Node000001_Node000005" class="edge">
<title>Node1&#45;&gt;Node5</title>
<g id="a_edge4_Node000001_Node000005"><a xlink:title=" ">
<path fill="none" stroke="#63b8ff" d="M318.19,-55.55C340.42,-46.09 368.64,-34.08 390.18,-24.91"/>
<polygon fill="#63b8ff" stroke="#63b8ff" points="391.54,-28.14 399.37,-21 388.8,-21.7 391.54,-28.14"/>
</a>
</g>
</g>
<!-- Node6 -->
<g id="Node000006" class="node">
<title>Node6</title>
<g id="a_Node000006"><a xlink:title=" ">
<polygon fill="#e0e0e0" stroke="#999999" points="600.62,-20 511.12,-20 511.12,0 600.62,0 600.62,-20"/>
<text xml:space="preserve" text-anchor="middle" x="555.88" y="-6.5" font-family="Helvetica,sans-Serif" font-size="10.00">java.util.Random</text>
</a>
</g>
</g>
<!-- Node1&#45;&gt;Node6 -->
<g id="edge5_Node000001_Node000006" class="edge">
<title>Node1&#45;&gt;Node6</title>
<g id="a_edge5_Node000001_Node000006"><a xlink:title=" ">
<path fill="none" stroke="#63b8ff" d="M352.44,-55.55C398.87,-45.38 458.74,-32.27 501.48,-22.91"/>
<polygon fill="#63b8ff" stroke="#63b8ff" points="502.01,-26.38 511.03,-20.82 500.51,-19.54 502.01,-26.38"/>
</a>
</g>
</g>
</g>
</svg>
