<?xml version="1.0" encoding="UTF-8" standalone="no"?>
<!DOCTYPE svg PUBLIC "-//W3C//DTD SVG 1.1//EN"
 "http://www.w3.org/Graphics/SVG/1.1/DTD/svg11.dtd">
<!-- Generated by graphviz version 14.0.1 (20251006.0113)
 -->
<!-- Title: C:/Users/Kefle/Desktop/ExpositoTOP/src/top/TOPTW.java Pages: 1 -->
<svg width="350pt" height="108pt"
 viewBox="0.00 0.00 350.00 108.00" xmlns="http://www.w3.org/2000/svg" xmlns:xlink="http://www.w3.org/1999/xlink">
<g id="graph0" class="graph" transform="scale(1 1) rotate(0) translate(4 104)">
<title>C:/Users/Kefle/Desktop/ExpositoTOP/src/top/TOPTW.java</title>
<!-- Node1 -->
<g id="Node000001" class="node">
<title>Node1</title>
<g id="a_Node000001"><a xlink:title="Contiene la definición de la clase TOPTW, que modela una instancia del Team Orienteering Problem with...">
<polygon fill="#999999" stroke="#666666" points="235.75,-100 66,-100 66,-68 235.75,-68 235.75,-100"/>
<text xml:space="preserve" text-anchor="start" x="74" y="-86.5" font-family="Helvetica,sans-Serif" font-size="10.00">C:/Users/Kefle/Desktop</text>
<text xml:space="preserve" text-anchor="middle" x="150.88" y="-74.5" font-family="Helvetica,sans-Serif" font-size="10.00">/ExpositoTOP/src/top/TOPTW.java</text>
</a>
</g>
</g>
<!-- Node2 -->
<g id="Node000002" class="node">
<title>Node2</title>
<g id="a_Node000002"><a xlink:title=" ">
<polygon fill="#e0e0e0" stroke="#999999" points="91.75,-26 0,-26 0,-6 91.75,-6 91.75,-26"/>
<text xml:space="preserve" text-anchor="middle" x="45.88" y="-12.5" font-family="Helvetica,sans-Serif" font-size="10.00">java.util.ArrayList</text>
</a>
</g>
</g>
<!-- Node1&#45;&gt;Node2 -->
<g id="edge1_Node000001_Node000002" class="edge">
<title>Node1&#45;&gt;Node2</title>
<g id="a_edge1_Node000001_Node000002"><a xlink:title=" ">
<path fill="none" stroke="#63b8ff" d="M126.26,-67.53C109.49,-56.99 87.38,-43.09 70.59,-32.54"/>
<polygon fill="#63b8ff" stroke="#63b8ff" points="72.54,-29.62 62.21,-27.27 68.81,-35.55 72.54,-29.62"/>
</a>
</g>
</g>
<!-- Node3 -->
<g id="Node000003" class="node">
<title>Node3</title>
<g id="a_Node000003"><a xlink:title=" ">
<polygon fill="#e0e0e0" stroke="#999999" points="191.5,-26 110.25,-26 110.25,-6 191.5,-6 191.5,-26"/>
<text xml:space="preserve" text-anchor="middle" x="150.88" y="-12.5" font-family="Helvetica,sans-Serif" font-size="10.00">java.util.Arrays</text>
</a>
</g>
</g>
<!-- Node1&#45;&gt;Node3 -->
<g id="edge2_Node000001_Node000003" class="edge">
<title>Node1&#45;&gt;Node3</title>
<g id="a_edge2_Node000001_Node000003"><a xlink:title=" ">
<path fill="none" stroke="#63b8ff" d="M150.88,-67.69C150.88,-58.8 150.88,-47.46 150.88,-37.77"/>
<polygon fill="#63b8ff" stroke="#63b8ff" points="154.38,-37.83 150.88,-27.83 147.38,-37.83 154.38,-37.83"/>
</a>
</g>
</g>
<!-- Node4 -->
<g id="Node000004" class="node">
<title>Node4</title>
<g id="a_Node000004"><a xlink:title=" ">
<polygon fill="#e0e0e0" stroke="#999999" points="342.38,-32 209.38,-32 209.38,0 342.38,0 342.38,-32"/>
<text xml:space="preserve" text-anchor="start" x="217.38" y="-18.5" font-family="Helvetica,sans-Serif" font-size="10.00">es.ull.esit.utilities.Exposito</text>
<text xml:space="preserve" text-anchor="middle" x="275.88" y="-6.5" font-family="Helvetica,sans-Serif" font-size="10.00">Utilities</text>
</a>
</g>
</g>
<!-- Node1&#45;&gt;Node4 -->
<g id="edge3_Node000001_Node000004" class="edge">
<title>Node1&#45;&gt;Node4</title>
<g id="a_edge3_Node000001_Node000004"><a xlink:title=" ">
<path fill="none" stroke="#63b8ff" d="M180.18,-67.53C197.03,-58.63 218.41,-47.34 236.69,-37.69"/>
<polygon fill="#63b8ff" stroke="#63b8ff" points="238.2,-40.85 245.41,-33.08 234.94,-34.66 238.2,-40.85"/>
</a>
</g>
</g>
</g>
</svg>
