<?xml version="1.0" encoding="UTF-8" standalone="no"?>
<!DOCTYPE svg PUBLIC "-//W3C//DTD SVG 1.1//EN"
 "http://www.w3.org/Graphics/SVG/1.1/DTD/svg11.dtd">
<!-- Generated by graphviz version 14.0.1 (20251006.0113)
 -->
<!-- Title: C:/Users/Kefle/Desktop/ExpositoTOP/src/top/TOPTWReader.java Pages: 1 -->
<svg width="587pt" height="108pt"
 viewBox="0.00 0.00 587.00 108.00" xmlns="http://www.w3.org/2000/svg" xmlns:xlink="http://www.w3.org/1999/xlink">
<g id="graph0" class="graph" transform="scale(1 1) rotate(0) translate(4 104)">
<title>C:/Users/Kefle/Desktop/ExpositoTOP/src/top/TOPTWReader.java</title>
<!-- Node1 -->
<g id="Node000001" class="node">
<title>Node1</title>
<g id="a_Node000001"><a xlink:title="Contiene la clase TOPTWReader para leer instancias del problema TOPTW desde archivos.">
<polygon fill="#999999" stroke="#666666" points="362.5,-100 160.5,-100 160.5,-68 362.5,-68 362.5,-100"/>
<text xml:space="preserve" text-anchor="start" x="168.5" y="-86.5" font-family="Helvetica,sans-Serif" font-size="10.00">C:/Users/Kefle/Desktop</text>
<text xml:space="preserve" text-anchor="middle" x="261.5" y="-74.5" font-family="Helvetica,sans-Serif" font-size="10.00">/ExpositoTOP/src/top/TOPTWReader.java</text>
</a>
</g>
</g>
<!-- Node2 -->
<g id="Node000002" class="node">
<title>Node2</title>
<g id="a_Node000002"><a xlink:title=" ">
<polygon fill="#e0e0e0" stroke="#999999" points="115,-26 0,-26 0,-6 115,-6 115,-26"/>
<text xml:space="preserve" text-anchor="middle" x="57.5" y="-12.5" font-family="Helvetica,sans-Serif" font-size="10.00">java.io.BufferedReader</text>
</a>
</g>
</g>
<!-- Node1&#45;&gt;Node2 -->
<g id="edge1_Node000001_Node000002" class="edge">
<title>Node1&#45;&gt;Node2</title>
<g id="a_edge1_Node000001_Node000002"><a xlink:title=" ">
<path fill="none" stroke="#63b8ff" d="M213.67,-67.53C178.33,-56.09 130.77,-40.71 97.45,-29.93"/>
<polygon fill="#63b8ff" stroke="#63b8ff" points="98.77,-26.67 88.18,-26.93 96.62,-33.33 98.77,-26.67"/>
</a>
</g>
</g>
<!-- Node3 -->
<g id="Node000003" class="node">
<title>Node3</title>
<g id="a_Node000003"><a xlink:title=" ">
<polygon fill="#e0e0e0" stroke="#999999" points="196.12,-26 132.88,-26 132.88,-6 196.12,-6 196.12,-26"/>
<text xml:space="preserve" text-anchor="middle" x="164.5" y="-12.5" font-family="Helvetica,sans-Serif" font-size="10.00">java.io.File</text>
</a>
</g>
</g>
<!-- Node1&#45;&gt;Node3 -->
<g id="edge2_Node000001_Node000003" class="edge">
<title>Node1&#45;&gt;Node3</title>
<g id="a_edge2_Node000001_Node000003"><a xlink:title=" ">
<path fill="none" stroke="#63b8ff" d="M239,-67.69C223.58,-57.2 203.17,-43.31 187.61,-32.73"/>
<polygon fill="#63b8ff" stroke="#63b8ff" points="189.68,-29.9 179.44,-27.17 185.74,-35.69 189.68,-29.9"/>
</a>
</g>
</g>
<!-- Node4 -->
<g id="Node000004" class="node">
<title>Node4</title>
<g id="a_Node000004"><a xlink:title=" ">
<polygon fill="#e0e0e0" stroke="#999999" points="308.88,-26 214.12,-26 214.12,-6 308.88,-6 308.88,-26"/>
<text xml:space="preserve" text-anchor="middle" x="261.5" y="-12.5" font-family="Helvetica,sans-Serif" font-size="10.00">java.io.FileReader</text>
</a>
</g>
</g>
<!-- Node1&#45;&gt;Node4 -->
<g id="edge3_Node000001_Node000004" class="edge">
<title>Node1&#45;&gt;Node4</title>
<g id="a_edge3_Node000001_Node000004"><a xlink:title=" ">
<path fill="none" stroke="#63b8ff" d="M261.5,-67.69C261.5,-58.8 261.5,-47.46 261.5,-37.77"/>
<polygon fill="#63b8ff" stroke="#63b8ff" points="265,-37.83 261.5,-27.83 258,-37.83 265,-37.83"/>
</a>
</g>
</g>
<!-- Node5 -->
<g id="Node000005" class="node">
<title>Node5</title>
<g id="a_Node000005"><a xlink:title=" ">
<polygon fill="#e0e0e0" stroke="#999999" points="428.25,-26 326.75,-26 326.75,-6 428.25,-6 428.25,-26"/>
<text xml:space="preserve" text-anchor="middle" x="377.5" y="-12.5" font-family="Helvetica,sans-Serif" font-size="10.00">java.io.IOException</text>
</a>
</g>
</g>
<!-- Node1&#45;&gt;Node5 -->
<g id="edge4_Node000001_Node000005" class="edge">
<title>Node1&#45;&gt;Node5</title>
<g id="a_edge4_Node000001_Node000005"><a xlink:title=" ">
<path fill="none" stroke="#63b8ff" d="M288.7,-67.53C307.48,-56.84 332.34,-42.7 350.97,-32.09"/>
<polygon fill="#63b8ff" stroke="#63b8ff" points="352.6,-35.2 359.56,-27.21 349.14,-29.11 352.6,-35.2"/>
</a>
</g>
</g>
<!-- Node6 -->
<g id="Node000006" class="node">
<title>Node6</title>
<g id="a_Node000006"><a xlink:title=" ">
<polygon fill="#e0e0e0" stroke="#999999" points="579,-32 446,-32 446,0 579,0 579,-32"/>
<text xml:space="preserve" text-anchor="start" x="454" y="-18.5" font-family="Helvetica,sans-Serif" font-size="10.00">es.ull.esit.utilities.Exposito</text>
<text xml:space="preserve" text-anchor="middle" x="512.5" y="-6.5" font-family="Helvetica,sans-Serif" font-size="10.00">Utilities</text>
</a>
</g>
</g>
<!-- Node1&#45;&gt;Node6 -->
<g id="edge5_Node000001_Node000006" class="edge">
<title>Node1&#45;&gt;Node6</title>
<g id="a_edge5_Node000001_Node000006"><a xlink:title=" ">
<path fill="none" stroke="#63b8ff" d="M320.35,-67.53C356.88,-57.92 404.02,-45.52 442.47,-35.41"/>
<polygon fill="#63b8ff" stroke="#63b8ff" points="443.34,-38.8 452.12,-32.88 441.56,-32.03 443.34,-38.8"/>
</a>
</g>
</g>
</g>
</svg>
