<?xml version="1.0" encoding="UTF-8" standalone="no"?>
<!DOCTYPE svg PUBLIC "-//W3C//DTD SVG 1.1//EN"
 "http://www.w3.org/Graphics/SVG/1.1/DTD/svg11.dtd">
<!-- Generated by graphviz version 14.0.1 (20251006.0113)
 -->
<!-- Title: top.TOPTWGRASP.fuzzySelectionBestFDRCL Pages: 1 -->
<svg width="710pt" height="66pt"
 viewBox="0.00 0.00 710.00 66.00" xmlns="http://www.w3.org/2000/svg" xmlns:xlink="http://www.w3.org/1999/xlink">
<g id="graph0" class="graph" transform="scale(1 1) rotate(0) translate(4 62)">
<title>top.TOPTWGRASP.fuzzySelectionBestFDRCL</title>
<!-- Node1 -->
<g id="Node000001" class="node">
<title>Node1</title>
<g id="a_Node000001"><a xlink:title="Selecciona un candidato de la RCL utilizando una función de pertenencia difusa.">
<polygon fill="#999999" stroke="#666666" points="169.75,-45 0,-45 0,-13 169.75,-13 169.75,-45"/>
<text xml:space="preserve" text-anchor="start" x="8" y="-31.5" font-family="Helvetica,sans-Serif" font-size="10.00">top.TOPTWGRASP.fuzzySelection</text>
<text xml:space="preserve" text-anchor="middle" x="84.88" y="-19.5" font-family="Helvetica,sans-Serif" font-size="10.00">BestFDRCL</text>
</a>
</g>
</g>
<!-- Node2 -->
<g id="Node000002" class="node">
<title>Node2</title>
<g id="a_Node000002"><a xlink:href="classtop_1_1_t_o_p_t_w_g_r_a_s_p.html#ae0fad47956718e9e96ee5fb6022d9f5b" target="_top" xlink:title="Obtiene la máxima puntuación posible entre todos los nodos del problema.">
<polygon fill="white" stroke="#666666" points="368.75,-39 205.75,-39 205.75,-19 368.75,-19 368.75,-39"/>
<text xml:space="preserve" text-anchor="middle" x="287.25" y="-25.5" font-family="Helvetica,sans-Serif" font-size="10.00">top.TOPTWGRASP.getMaxScore</text>
</a>
</g>
</g>
<!-- Node1&#45;&gt;Node2 -->
<g id="edge1_Node000001_Node000002" class="edge">
<title>Node1&#45;&gt;Node2</title>
<g id="a_edge1_Node000001_Node000002"><a xlink:title=" ">
<path fill="none" stroke="#63b8ff" d="M169.98,-29C177.99,-29 186.14,-29 194.21,-29"/>
<polygon fill="#63b8ff" stroke="#63b8ff" points="194.05,-32.5 204.05,-29 194.05,-25.5 194.05,-32.5"/>
</a>
</g>
</g>
<!-- Node3 -->
<g id="Node000003" class="node">
<title>Node3</title>
<g id="a_Node000003"><a xlink:href="classtop_1_1_t_o_p_t_w_solution.html#a4ed9a239d683e7770681aba78e8121a3" target="_top" xlink:title="Obtiene la instancia del problema asociada a esta solución.">
<polygon fill="white" stroke="#666666" points="561,-58 404.75,-58 404.75,-38 561,-38 561,-58"/>
<text xml:space="preserve" text-anchor="middle" x="482.88" y="-44.5" font-family="Helvetica,sans-Serif" font-size="10.00">top.TOPTWSolution.getProblem</text>
</a>
</g>
</g>
<!-- Node2&#45;&gt;Node3 -->
<g id="edge2_Node000002_Node000003" class="edge">
<title>Node2&#45;&gt;Node3</title>
<g id="a_edge2_Node000002_Node000003"><a xlink:title=" ">
<path fill="none" stroke="#63b8ff" d="M369.24,-36.95C377.04,-37.71 384.98,-38.49 392.85,-39.26"/>
<polygon fill="#63b8ff" stroke="#63b8ff" points="392.51,-42.75 402.8,-40.24 393.19,-35.78 392.51,-42.75"/>
</a>
</g>
</g>
<!-- Node4 -->
<g id="Node000004" class="node">
<title>Node4</title>
<g id="a_Node000004"><a xlink:href="classtop_1_1_t_o_p_t_w.html#ad028d42f72214373efca074483462837" target="_top" xlink:title="Obtiene la puntuación (score) de un nodo.">
<polygon fill="white" stroke="#666666" points="537.75,-20 428,-20 428,0 537.75,0 537.75,-20"/>
<text xml:space="preserve" text-anchor="middle" x="482.88" y="-6.5" font-family="Helvetica,sans-Serif" font-size="10.00">top.TOPTW.getScore</text>
</a>
</g>
</g>
<!-- Node2&#45;&gt;Node4 -->
<g id="edge3_Node000002_Node000004" class="edge">
<title>Node2&#45;&gt;Node4</title>
<g id="a_edge3_Node000002_Node000004"><a xlink:title=" ">
<path fill="none" stroke="#63b8ff" d="M369.24,-21.05C384.93,-19.51 401.19,-17.92 416.31,-16.43"/>
<polygon fill="#63b8ff" stroke="#63b8ff" points="416.51,-19.93 426.12,-15.47 415.83,-12.96 416.51,-19.93"/>
</a>
</g>
</g>
<!-- Node5 -->
<g id="Node000005" class="node">
<title>Node5</title>
<g id="a_Node000005"><a xlink:href="classtop_1_1_t_o_p_t_w.html#a642e958056dc77c10d72831d633e2f49" target="_top" xlink:title="Comprueba si un índice de nodo corresponde a un depósito.">
<polygon fill="white" stroke="#666666" points="701.5,-20 597,-20 597,0 701.5,0 701.5,-20"/>
<text xml:space="preserve" text-anchor="middle" x="649.25" y="-6.5" font-family="Helvetica,sans-Serif" font-size="10.00">top.TOPTW.isDepot</text>
</a>
</g>
</g>
<!-- Node4&#45;&gt;Node5 -->
<g id="edge4_Node000004_Node000005" class="edge">
<title>Node4&#45;&gt;Node5</title>
<g id="a_edge4_Node000004_Node000005"><a xlink:title=" ">
<path fill="none" stroke="#63b8ff" d="M538.15,-10C553.28,-10 569.83,-10 585.41,-10"/>
<polygon fill="#63b8ff" stroke="#63b8ff" points="585.03,-13.5 595.03,-10 585.03,-6.5 585.03,-13.5"/>
</a>
</g>
</g>
</g>
</svg>
