<?xml version="1.0" encoding="UTF-8" standalone="no"?>
<!DOCTYPE svg PUBLIC "-//W3C//DTD SVG 1.1//EN"
 "http://www.w3.org/Graphics/SVG/1.1/DTD/svg11.dtd">
<!-- Generated by graphviz version 14.0.1 (20251006.0113)
 -->
<!-- Title: es.ull.esit.utilities.ExpositoUtilities.getFormat Pages: 1 -->
<svg width="310pt" height="90pt"
 viewBox="0.00 0.00 310.00 90.00" xmlns="http://www.w3.org/2000/svg" xmlns:xlink="http://www.w3.org/1999/xlink">
<g id="graph0" class="graph" transform="scale(1 1) rotate(0) translate(4 86)">
<title>es.ull.esit.utilities.ExpositoUtilities.getFormat</title>
<!-- Node1 -->
<g id="Node000001" class="node">
<title>Node1</title>
<g id="a_Node000001"><a xlink:title="Formatea una cadena que representa un número.">
<polygon fill="#999999" stroke="#666666" points="133,-57 0,-57 0,-25 133,-25 133,-57"/>
<text xml:space="preserve" text-anchor="start" x="8" y="-43.5" font-family="Helvetica,sans-Serif" font-size="10.00">es.ull.esit.utilities.Exposito</text>
<text xml:space="preserve" text-anchor="middle" x="66.5" y="-31.5" font-family="Helvetica,sans-Serif" font-size="10.00">Utilities.getFormat</text>
</a>
</g>
</g>
<!-- Node1&#45;&gt;Node1 -->
<g id="edge1_Node000001_Node000001" class="edge">
<title>Node1&#45;&gt;Node1</title>
<g id="a_edge1_Node000001_Node000001"><a xlink:title=" ">
<path fill="none" stroke="#63b8ff" d="M36.33,-57.44C30.7,-66.58 40.75,-75 66.5,-75 80.58,-75 89.97,-72.48 94.66,-68.71"/>
<polygon fill="#63b8ff" stroke="#63b8ff" points="98.1,-69.39 96.41,-58.93 91.2,-68.16 98.1,-69.39"/>
</a>
</g>
</g>
<!-- Node2 -->
<g id="Node000002" class="node">
<title>Node2</title>
<g id="a_Node000002"><a xlink:href="classes_1_1ull_1_1esit_1_1utilities_1_1_exposito_utilities.html#aea4db414c92e2fc046f76ef43fcf1214" target="_top" xlink:title="Comprueba si una cadena puede ser parseada como un doble.">
<polygon fill="white" stroke="#666666" points="302,-82 169,-82 169,-50 302,-50 302,-82"/>
<text xml:space="preserve" text-anchor="start" x="177" y="-68.5" font-family="Helvetica,sans-Serif" font-size="10.00">es.ull.esit.utilities.Exposito</text>
<text xml:space="preserve" text-anchor="middle" x="235.5" y="-56.5" font-family="Helvetica,sans-Serif" font-size="10.00">Utilities.isDouble</text>
</a>
</g>
</g>
<!-- Node1&#45;&gt;Node2 -->
<g id="edge2_Node000001_Node000002" class="edge">
<title>Node1&#45;&gt;Node2</title>
<g id="a_edge2_Node000001_Node000002"><a xlink:title=" ">
<path fill="none" stroke="#63b8ff" d="M133.02,-50.81C140.97,-52 149.15,-53.22 157.25,-54.44"/>
<polygon fill="#63b8ff" stroke="#63b8ff" points="156.71,-57.89 167.12,-55.91 157.75,-50.97 156.71,-57.89"/>
</a>
</g>
</g>
<!-- Node3 -->
<g id="Node000003" class="node">
<title>Node3</title>
<g id="a_Node000003"><a xlink:href="classes_1_1ull_1_1esit_1_1utilities_1_1_exposito_utilities.html#a3aa6195e3bb8c5393a84ab3ff7b3f18a" target="_top" xlink:title="Comprueba si una cadena puede ser parseada como un entero.">
<polygon fill="white" stroke="#666666" points="302,-32 169,-32 169,0 302,0 302,-32"/>
<text xml:space="preserve" text-anchor="start" x="177" y="-18.5" font-family="Helvetica,sans-Serif" font-size="10.00">es.ull.esit.utilities.Exposito</text>
<text xml:space="preserve" text-anchor="middle" x="235.5" y="-6.5" font-family="Helvetica,sans-Serif" font-size="10.00">Utilities.isInteger</text>
</a>
</g>
</g>
<!-- Node1&#45;&gt;Node3 -->
<g id="edge3_Node000001_Node000003" class="edge">
<title>Node1&#45;&gt;Node3</title>
<g id="a_edge3_Node000001_Node000003"><a xlink:title=" ">
<path fill="none" stroke="#63b8ff" d="M133.02,-31.19C140.97,-30 149.15,-28.78 157.25,-27.56"/>
<polygon fill="#63b8ff" stroke="#63b8ff" points="157.75,-31.03 167.12,-26.09 156.71,-24.11 157.75,-31.03"/>
</a>
</g>
</g>
</g>
</svg>
