<?xml version="1.0" encoding="UTF-8" standalone="no"?>
<!DOCTYPE svg PUBLIC "-//W3C//DTD SVG 1.1//EN"
 "http://www.w3.org/Graphics/SVG/1.1/DTD/svg11.dtd">
<!-- Generated by graphviz version 14.0.1 (20251006.0113)
 -->
<!-- Title: top.TOPTWGRASP Pages: 1 -->
<svg width="112pt" height="176pt"
 viewBox="0.00 0.00 112.00 176.00" xmlns="http://www.w3.org/2000/svg" xmlns:xlink="http://www.w3.org/1999/xlink">
<g id="graph0" class="graph" transform="scale(1 1) rotate(0) translate(4 172)">
<title>top.TOPTWGRASP</title>
<!-- Node1 -->
<g id="Node000001" class="node">
<title>Node1</title>
<g id="a_Node000001"><a xlink:title="Implementa la metaheurística GRASP (Greedy Randomized Adaptive Search Procedure) para resolver el TOP...">
<polygon fill="#999999" stroke="#666666" points="103.75,-20 0,-20 0,0 103.75,0 103.75,-20"/>
<text xml:space="preserve" text-anchor="middle" x="51.88" y="-6.5" font-family="Helvetica,sans-Serif" font-size="10.00">top.TOPTWGRASP</text>
</a>
</g>
</g>
<!-- Node2 -->
<g id="Node000002" class="node">
<title>Node2</title>
<g id="a_Node000002"><a xlink:href="classtop_1_1_t_o_p_t_w_solution.html" target="_top" xlink:title="Representa una solución a una instancia del problema TOPTW.">
<polygon fill="white" stroke="#666666" points="103.75,-94 0,-94 0,-74 103.75,-74 103.75,-94"/>
<text xml:space="preserve" text-anchor="middle" x="51.88" y="-80.5" font-family="Helvetica,sans-Serif" font-size="10.00">top.TOPTWSolution</text>
</a>
</g>
</g>
<!-- Node2&#45;&gt;Node1 -->
<g id="edge1_Node000001_Node000002" class="edge">
<title>Node2&#45;&gt;Node1</title>
<g id="a_edge1_Node000001_Node000002"><a xlink:title=" ">
<path fill="none" stroke="#9a32cd" stroke-dasharray="5,2" d="M51.88,-62.18C51.88,-48.29 51.88,-30.71 51.88,-20.19"/>
<polygon fill="#9a32cd" stroke="#9a32cd" points="48.38,-62.07 51.88,-72.07 55.38,-62.07 48.38,-62.07"/>
</a>
</g>
<text xml:space="preserve" text-anchor="start" x="54.88" y="-43.5" font-family="Helvetica,sans-Serif" font-size="10.00" fill="grey">solution</text>
</g>
<!-- Node3 -->
<g id="Node000003" class="node">
<title>Node3</title>
<g id="a_Node000003"><a xlink:href="classtop_1_1_t_o_p_t_w.html" target="_top" xlink:title="Modela una instancia del problema TOPTW (Team Orienteering Problem with Time Windows).">
<polygon fill="white" stroke="#666666" points="86.12,-168 17.62,-168 17.62,-148 86.12,-148 86.12,-168"/>
<text xml:space="preserve" text-anchor="middle" x="51.88" y="-154.5" font-family="Helvetica,sans-Serif" font-size="10.00">top.TOPTW</text>
</a>
</g>
</g>
<!-- Node3&#45;&gt;Node2 -->
<g id="edge2_Node000002_Node000003" class="edge">
<title>Node3&#45;&gt;Node2</title>
<g id="a_edge2_Node000002_Node000003"><a xlink:title=" ">
<path fill="none" stroke="#9a32cd" stroke-dasharray="5,2" d="M51.88,-136.18C51.88,-122.29 51.88,-104.71 51.88,-94.19"/>
<polygon fill="#9a32cd" stroke="#9a32cd" points="48.38,-136.07 51.88,-146.07 55.38,-136.07 48.38,-136.07"/>
</a>
</g>
<text xml:space="preserve" text-anchor="start" x="54.88" y="-117.5" font-family="Helvetica,sans-Serif" font-size="10.00" fill="grey">problem</text>
</g>
</g>
</svg>
