<?xml version="1.0" encoding="UTF-8" standalone="no"?>
<!DOCTYPE svg PUBLIC "-//W3C//DTD SVG 1.1//EN"
 "http://www.w3.org/Graphics/SVG/1.1/DTD/svg11.dtd">
<!-- Generated by graphviz version 14.0.1 (20251006.0113)
 -->
<!-- Title: top.TOPTWSolution.addRoute Pages: 1 -->
<svg width="329pt" height="66pt"
 viewBox="0.00 0.00 329.00 66.00" xmlns="http://www.w3.org/2000/svg" xmlns:xlink="http://www.w3.org/1999/xlink">
<g id="graph0" class="graph" transform="scale(1 1) rotate(0) translate(4 62)">
<title>top.TOPTWSolution.addRoute</title>
<!-- Node1 -->
<g id="Node000001" class="node">
<title>Node1</title>
<g id="a_Node000001"><a xlink:title="Añade una nueva ruta a la solución.">
<polygon fill="#999999" stroke="#666666" points="148.75,-39 0,-39 0,-19 148.75,-19 148.75,-39"/>
<text xml:space="preserve" text-anchor="middle" x="74.38" y="-25.5" font-family="Helvetica,sans-Serif" font-size="10.00">top.TOPTWSolution.addRoute</text>
</a>
</g>
</g>
<!-- Node2 -->
<g id="Node000002" class="node">
<title>Node2</title>
<g id="a_Node000002"><a xlink:href="classtop_1_1_t_o_p_t_w.html#abc8ba9eecbd30ef1941a21418259045f" target="_top" xlink:title="Incrementa el contador de depósitos.">
<polygon fill="white" stroke="#666666" points="320.75,-58 184.75,-58 184.75,-38 320.75,-38 320.75,-58"/>
<text xml:space="preserve" text-anchor="middle" x="252.75" y="-44.5" font-family="Helvetica,sans-Serif" font-size="10.00">top.TOPTW.addNodeDepot</text>
</a>
</g>
</g>
<!-- Node1&#45;&gt;Node2 -->
<g id="edge1_Node000001_Node000002" class="edge">
<title>Node1&#45;&gt;Node2</title>
<g id="a_edge1_Node000001_Node000002"><a xlink:title=" ">
<path fill="none" stroke="#63b8ff" d="M149.15,-36.95C157.11,-37.8 165.22,-38.68 173.23,-39.54"/>
<polygon fill="#63b8ff" stroke="#63b8ff" points="172.63,-43 182.95,-40.59 173.38,-36.04 172.63,-43"/>
</a>
</g>
</g>
<!-- Node3 -->
<g id="Node000003" class="node">
<title>Node3</title>
<g id="a_Node000003"><a xlink:href="classtop_1_1_t_o_p_t_w.html#a98907c6bbeba9aba86727ecad5058261" target="_top" xlink:title="Obtiene el número de Puntos de Interés (POIs), sin contar el depósito.">
<polygon fill="white" stroke="#666666" points="306.12,-20 199.38,-20 199.38,0 306.12,0 306.12,-20"/>
<text xml:space="preserve" text-anchor="middle" x="252.75" y="-6.5" font-family="Helvetica,sans-Serif" font-size="10.00">top.TOPTW.getPOIs</text>
</a>
</g>
</g>
<!-- Node1&#45;&gt;Node3 -->
<g id="edge2_Node000001_Node000003" class="edge">
<title>Node1&#45;&gt;Node3</title>
<g id="a_edge2_Node000001_Node000003"><a xlink:title=" ">
<path fill="none" stroke="#63b8ff" d="M149.15,-21.05C161.94,-19.67 175.15,-18.25 187.66,-16.9"/>
<polygon fill="#63b8ff" stroke="#63b8ff" points="187.85,-20.4 197.41,-15.85 187.1,-13.44 187.85,-20.4"/>
</a>
</g>
</g>
</g>
</svg>
