<?xml version="1.0" encoding="UTF-8" standalone="no"?>
<!DOCTYPE svg PUBLIC "-//W3C//DTD SVG 1.1//EN"
 "http://www.w3.org/Graphics/SVG/1.1/DTD/svg11.dtd">
<!-- Generated by graphviz version 14.0.1 (20251006.0113)
 -->
<!-- Title: top.TOPTWGRASP.computeGreedySolution Pages: 1 -->
<svg width="785pt" height="792pt"
 viewBox="0.00 0.00 785.00 792.00" xmlns="http://www.w3.org/2000/svg" xmlns:xlink="http://www.w3.org/1999/xlink">
<g id="graph0" class="graph" transform="scale(1 1) rotate(0) translate(4 788)">
<title>top.TOPTWGRASP.computeGreedySolution</title>
<!-- Node1 -->
<g id="Node000001" class="node">
<title>Node1</title>
<g id="a_Node000001"><a xlink:title="Construye una solución greedy aleatorizada.">
<polygon fill="#999999" stroke="#666666" points="174.25,-396 0,-396 0,-364 174.25,-364 174.25,-396"/>
<text xml:space="preserve" text-anchor="start" x="8" y="-382.5" font-family="Helvetica,sans-Serif" font-size="10.00">top.TOPTWGRASP.computeGreedy</text>
<text xml:space="preserve" text-anchor="middle" x="87.12" y="-370.5" font-family="Helvetica,sans-Serif" font-size="10.00">Solution</text>
</a>
</g>
</g>
<!-- Node2 -->
<g id="Node000002" class="node">
<title>Node2</title>
<g id="a_Node000002"><a xlink:href="classtop_1_1_t_o_p_t_w_solution.html#a74df6b4b5c27f611de4a25e34d0bd907" target="_top" xlink:title="Añade una nueva ruta a la solución.">
<polygon fill="white" stroke="#666666" points="370.25,-746 221.5,-746 221.5,-726 370.25,-726 370.25,-746"/>
<text xml:space="preserve" text-anchor="middle" x="295.88" y="-732.5" font-family="Helvetica,sans-Serif" font-size="10.00">top.TOPTWSolution.addRoute</text>
</a>
</g>
</g>
<!-- Node1&#45;&gt;Node2 -->
<g id="edge1_Node000001_Node000002" class="edge">
<title>Node1&#45;&gt;Node2</title>
<g id="a_edge1_Node000001_Node000002"><a xlink:title=" ">
<path fill="none" stroke="#63b8ff" d="M93.75,-396.21C108.89,-438.67 153.2,-555.79 210.25,-642 229.31,-670.8 256.89,-699.69 275.33,-717.69"/>
<polygon fill="#63b8ff" stroke="#63b8ff" points="272.84,-720.15 282.47,-724.56 277.69,-715.1 272.84,-720.15"/>
</a>
</g>
</g>
<!-- Node5 -->
<g id="Node000005" class="node">
<title>Node5</title>
<g id="a_Node000005"><a xlink:href="classtop_1_1_t_o_p_t_w_g_r_a_s_p.html#a2c07bc597fa781b81a53ad1017e24a4f" target="_top" xlink:title="Selecciona un elemento aleatorio de la Lista Restringida de Candidatos (RCL).">
<polygon fill="white" stroke="#666666" points="618,-20 417.5,-20 417.5,0 618,0 618,-20"/>
<text xml:space="preserve" text-anchor="middle" x="517.75" y="-6.5" font-family="Helvetica,sans-Serif" font-size="10.00">top.TOPTWGRASP.aleatorySelectionRCL</text>
</a>
</g>
</g>
<!-- Node1&#45;&gt;Node5 -->
<g id="edge4_Node000001_Node000005" class="edge">
<title>Node1&#45;&gt;Node5</title>
<g id="a_edge4_Node000001_Node000005"><a xlink:title=" ">
<path fill="none" stroke="#63b8ff" d="M95.99,-363.85C112.43,-331.87 153.68,-260.54 210.25,-225 276.27,-183.53 326.22,-241.97 381.5,-187 432.57,-136.22 365.69,-79.03 417.5,-29 418.27,-28.25 419.07,-27.53 419.88,-26.83"/>
<polygon fill="#63b8ff" stroke="#63b8ff" points="421.82,-29.75 427.97,-21.12 417.79,-24.03 421.82,-29.75"/>
</a>
</g>
</g>
<!-- Node6 -->
<g id="Node000006" class="node">
<title>Node6</title>
<g id="a_Node000006"><a xlink:href="classtop_1_1_t_o_p_t_w_g_r_a_s_p.html#ae706fe2d8478acf0a026bb40e8fc9df7" target="_top" xlink:title="Evalúa de forma exhaustiva todos los posibles movimientos de inserción para los clientes disponibles.">
<polygon fill="white" stroke="#666666" points="381.5,-374 210.25,-374 210.25,-342 381.5,-342 381.5,-374"/>
<text xml:space="preserve" text-anchor="start" x="218.25" y="-360.5" font-family="Helvetica,sans-Serif" font-size="10.00">top.TOPTWGRASP.comprehensive</text>
<text xml:space="preserve" text-anchor="middle" x="295.88" y="-348.5" font-family="Helvetica,sans-Serif" font-size="10.00">Evaluation</text>
</a>
</g>
</g>
<!-- Node1&#45;&gt;Node6 -->
<g id="edge5_Node000001_Node000006" class="edge">
<title>Node1&#45;&gt;Node6</title>
<g id="a_edge5_Node000001_Node000006"><a xlink:title=" ">
<path fill="none" stroke="#63b8ff" d="M174.61,-370.8C182.58,-369.95 190.69,-369.09 198.74,-368.23"/>
<polygon fill="#63b8ff" stroke="#63b8ff" points="198.99,-371.72 208.56,-367.18 198.24,-364.76 198.99,-371.72"/>
</a>
</g>
</g>
<!-- Node7 -->
<g id="Node000007" class="node">
<title>Node7</title>
<g id="a_Node000007"><a xlink:href="classtop_1_1_t_o_p_t_w_solution.html#a42484d84c9770ebbb8778fc149abbb58" target="_top" xlink:title="Obtiene el número de rutas que han sido creadas en la solución.">
<polygon fill="white" stroke="#666666" points="595.12,-538 440.38,-538 440.38,-506 595.12,-506 595.12,-538"/>
<text xml:space="preserve" text-anchor="start" x="448.38" y="-524.5" font-family="Helvetica,sans-Serif" font-size="10.00">top.TOPTWSolution.getCreated</text>
<text xml:space="preserve" text-anchor="middle" x="517.75" y="-512.5" font-family="Helvetica,sans-Serif" font-size="10.00">Routes</text>
</a>
</g>
</g>
<!-- Node1&#45;&gt;Node7 -->
<g id="edge26_Node000001_Node000007" class="edge">
<title>Node1&#45;&gt;Node7</title>
<g id="a_edge26_Node000001_Node000007"><a xlink:title=" ">
<path fill="none" stroke="#63b8ff" d="M130.34,-396.44C192.59,-420.36 312.96,-465.34 417.5,-497 423.76,-498.9 430.28,-500.77 436.85,-502.57"/>
<polygon fill="#63b8ff" stroke="#63b8ff" points="435.88,-505.94 446.45,-505.16 437.7,-499.18 435.88,-505.94"/>
</a>
</g>
</g>
<!-- Node8 -->
<g id="Node000008" class="node">
<title>Node8</title>
<g id="a_Node000008"><a xlink:href="classtop_1_1_t_o_p_t_w.html#abfba541876921de9ec5a63373c056446" target="_top" xlink:title="Obtiene el número de vehículos disponibles.">
<polygon fill="white" stroke="#666666" points="776.12,-595 655.12,-595 655.12,-575 776.12,-575 776.12,-595"/>
<text xml:space="preserve" text-anchor="middle" x="715.62" y="-581.5" font-family="Helvetica,sans-Serif" font-size="10.00">top.TOPTW.getVehicles</text>
</a>
</g>
</g>
<!-- Node1&#45;&gt;Node8 -->
<g id="edge28_Node000001_Node000008" class="edge">
<title>Node1&#45;&gt;Node8</title>
<g id="a_edge28_Node000001_Node000008"><a xlink:title=" ">
<path fill="none" stroke="#63b8ff" d="M106.42,-396.32C129.35,-416.11 170.48,-449.48 210.25,-471 296.54,-517.69 322.19,-523.74 417.5,-547 493.44,-565.53 582.64,-575.4 643.34,-580.39"/>
<polygon fill="#63b8ff" stroke="#63b8ff" points="642.96,-583.87 653.21,-581.18 643.52,-576.9 642.96,-583.87"/>
</a>
</g>
</g>
<!-- Node15 -->
<g id="Node000015" class="node">
<title>Node15</title>
<g id="a_Node000015"><a xlink:href="classtop_1_1_t_o_p_t_w_solution.html#a4ed9a239d683e7770681aba78e8121a3" target="_top" xlink:title="Obtiene la instancia del problema asociada a esta solución.">
<polygon fill="white" stroke="#666666" points="595.88,-412 439.62,-412 439.62,-392 595.88,-392 595.88,-412"/>
<text xml:space="preserve" text-anchor="middle" x="517.75" y="-398.5" font-family="Helvetica,sans-Serif" font-size="10.00">top.TOPTWSolution.getProblem</text>
</a>
</g>
</g>
<!-- Node1&#45;&gt;Node15 -->
<g id="edge27_Node000001_Node000015" class="edge">
<title>Node1&#45;&gt;Node15</title>
<g id="a_edge27_Node000001_Node000015"><a xlink:title=" ">
<path fill="none" stroke="#63b8ff" d="M174.61,-384.44C248.34,-388.22 353.89,-393.64 428.21,-397.46"/>
<polygon fill="#63b8ff" stroke="#63b8ff" points="427.72,-400.93 437.89,-397.95 428.08,-393.94 427.72,-400.93"/>
</a>
</g>
</g>
<!-- Node20 -->
<g id="Node000020" class="node">
<title>Node20</title>
<g id="a_Node000020"><a xlink:href="classtop_1_1_t_o_p_t_w_g_r_a_s_p.html#a717d4390dfb843bed804afb598e27a87" target="_top" xlink:title="Selecciona un candidato de la RCL utilizando un corte alfa sobre la función de pertenencia difusa.">
<polygon fill="white" stroke="#666666" points="380.75,-178 211,-178 211,-146 380.75,-146 380.75,-178"/>
<text xml:space="preserve" text-anchor="start" x="219" y="-164.5" font-family="Helvetica,sans-Serif" font-size="10.00">top.TOPTWGRASP.fuzzySelection</text>
<text xml:space="preserve" text-anchor="middle" x="295.88" y="-152.5" font-family="Helvetica,sans-Serif" font-size="10.00">AlphaCutRCL</text>
</a>
</g>
</g>
<!-- Node1&#45;&gt;Node20 -->
<g id="edge23_Node000001_Node000020" class="edge">
<title>Node1&#45;&gt;Node20</title>
<g id="a_edge23_Node000001_Node000020"><a xlink:title=" ">
<path fill="none" stroke="#63b8ff" d="M94.44,-363.6C109.17,-327.39 149.28,-240.08 210.25,-192 214.21,-188.88 218.53,-186.06 223.04,-183.53"/>
<polygon fill="#63b8ff" stroke="#63b8ff" points="224.47,-186.73 231.83,-179.11 221.32,-180.48 224.47,-186.73"/>
</a>
</g>
</g>
<!-- Node21 -->
<g id="Node000021" class="node">
<title>Node21</title>
<g id="a_Node000021"><a xlink:href="classtop_1_1_t_o_p_t_w_g_r_a_s_p.html#aa921b046fab55b437ea10e5cc286c014" target="_top" xlink:title="Selecciona un candidato de la RCL utilizando una función de pertenencia difusa.">
<polygon fill="white" stroke="#666666" points="380.75,-128 211,-128 211,-96 380.75,-96 380.75,-128"/>
<text xml:space="preserve" text-anchor="start" x="219" y="-114.5" font-family="Helvetica,sans-Serif" font-size="10.00">top.TOPTWGRASP.fuzzySelection</text>
<text xml:space="preserve" text-anchor="middle" x="295.88" y="-102.5" font-family="Helvetica,sans-Serif" font-size="10.00">BestFDRCL</text>
</a>
</g>
</g>
<!-- Node1&#45;&gt;Node21 -->
<g id="edge25_Node000001_Node000021" class="edge">
<title>Node1&#45;&gt;Node21</title>
<g id="a_edge25_Node000001_Node000021"><a xlink:title=" ">
<path fill="none" stroke="#63b8ff" d="M91.59,-363.59C101.69,-319.87 135.26,-199.68 210.25,-137 211.22,-136.19 212.21,-135.41 213.23,-134.65"/>
<polygon fill="#63b8ff" stroke="#63b8ff" points="215.1,-137.61 221.66,-129.29 211.34,-131.7 215.1,-137.61"/>
</a>
</g>
</g>
<!-- Node22 -->
<g id="Node000022" class="node">
<title>Node22</title>
<g id="a_Node000022"><a xlink:href="classtop_1_1_t_o_p_t_w_solution.html#ae2cebb1c58169b05b0dcccd65eabc654" target="_top" xlink:title="Inicializa o resetea la solución a un estado básico.">
<polygon fill="white" stroke="#666666" points="373.25,-633 218.5,-633 218.5,-613 373.25,-613 373.25,-633"/>
<text xml:space="preserve" text-anchor="middle" x="295.88" y="-619.5" font-family="Helvetica,sans-Serif" font-size="10.00">top.TOPTWSolution.initSolution</text>
</a>
</g>
</g>
<!-- Node1&#45;&gt;Node22 -->
<g id="edge29_Node000001_Node000022" class="edge">
<title>Node1&#45;&gt;Node22</title>
<g id="a_edge29_Node000001_Node000022"><a xlink:title=" ">
<path fill="none" stroke="#63b8ff" d="M94.41,-396.32C109.37,-433.3 150.36,-524.62 210.25,-580 223.03,-591.82 239.67,-601.2 254.81,-608.15"/>
<polygon fill="#63b8ff" stroke="#63b8ff" points="253.03,-611.2 263.6,-611.97 255.82,-604.78 253.03,-611.2"/>
</a>
</g>
</g>
<!-- Node24 -->
<g id="Node000024" class="node">
<title>Node24</title>
<g id="a_Node000024"><a xlink:href="classtop_1_1_t_o_p_t_w_g_r_a_s_p.html#adaccdd26e4ad89ffb3e86c780dcd90d7" target="_top" xlink:title="Actualiza la solución insertando un candidato seleccionado.">
<polygon fill="white" stroke="#666666" points="380.75,-254 211,-254 211,-234 380.75,-234 380.75,-254"/>
<text xml:space="preserve" text-anchor="middle" x="295.88" y="-240.5" font-family="Helvetica,sans-Serif" font-size="10.00">top.TOPTWGRASP.updateSolution</text>
</a>
</g>
</g>
<!-- Node1&#45;&gt;Node24 -->
<g id="edge36_Node000001_Node000024" class="edge">
<title>Node1&#45;&gt;Node24</title>
<g id="a_edge36_Node000001_Node000024"><a xlink:title=" ">
<path fill="none" stroke="#63b8ff" d="M113.06,-363.6C152.68,-337.53 229.59,-286.94 269.49,-260.7"/>
<polygon fill="#63b8ff" stroke="#63b8ff" points="271.32,-263.68 277.75,-255.26 267.47,-257.83 271.32,-263.68"/>
</a>
</g>
</g>
<!-- Node3 -->
<g id="Node000003" class="node">
<title>Node3</title>
<g id="a_Node000003"><a xlink:href="classtop_1_1_t_o_p_t_w.html#abc8ba9eecbd30ef1941a21418259045f" target="_top" xlink:title="Incrementa el contador de depósitos.">
<polygon fill="white" stroke="#666666" points="585.75,-784 449.75,-784 449.75,-764 585.75,-764 585.75,-784"/>
<text xml:space="preserve" text-anchor="middle" x="517.75" y="-770.5" font-family="Helvetica,sans-Serif" font-size="10.00">top.TOPTW.addNodeDepot</text>
</a>
</g>
</g>
<!-- Node2&#45;&gt;Node3 -->
<g id="edge2_Node000002_Node000003" class="edge">
<title>Node2&#45;&gt;Node3</title>
<g id="a_edge2_Node000002_Node000003"><a xlink:title=" ">
<path fill="none" stroke="#63b8ff" d="M357.54,-746.48C384.7,-751.18 416.91,-756.74 445.23,-761.64"/>
<polygon fill="#63b8ff" stroke="#63b8ff" points="444.34,-765.04 454.79,-763.29 445.53,-758.14 444.34,-765.04"/>
</a>
</g>
</g>
<!-- Node4 -->
<g id="Node000004" class="node">
<title>Node4</title>
<g id="a_Node000004"><a xlink:href="classtop_1_1_t_o_p_t_w.html#a98907c6bbeba9aba86727ecad5058261" target="_top" xlink:title="Obtiene el número de Puntos de Interés (POIs), sin contar el depósito.">
<polygon fill="white" stroke="#666666" points="769,-708 662.25,-708 662.25,-688 769,-688 769,-708"/>
<text xml:space="preserve" text-anchor="middle" x="715.62" y="-694.5" font-family="Helvetica,sans-Serif" font-size="10.00">top.TOPTW.getPOIs</text>
</a>
</g>
</g>
<!-- Node2&#45;&gt;Node4 -->
<g id="edge3_Node000002_Node000004" class="edge">
<title>Node2&#45;&gt;Node4</title>
<g id="a_edge3_Node000002_Node000004"><a xlink:title=" ">
<path fill="none" stroke="#63b8ff" d="M370.66,-731.94C435.84,-728.01 533.39,-721.28 618,-712 628.57,-710.84 639.76,-709.41 650.63,-707.91"/>
<polygon fill="#63b8ff" stroke="#63b8ff" points="650.89,-711.41 660.3,-706.54 649.91,-704.48 650.89,-711.41"/>
</a>
</g>
</g>
<!-- Node6&#45;&gt;Node7 -->
<g id="edge6_Node000006_Node000007" class="edge">
<title>Node6&#45;&gt;Node7</title>
<g id="a_edge6_Node000006_Node000007"><a xlink:title=" ">
<path fill="none" stroke="#63b8ff" d="M308.87,-374.12C333.71,-407.09 390.69,-480.51 417.5,-497 421.31,-499.34 425.33,-501.46 429.47,-503.39"/>
<polygon fill="#63b8ff" stroke="#63b8ff" points="428.04,-506.58 438.62,-507.19 430.73,-500.12 428.04,-506.58"/>
</a>
</g>
</g>
<!-- Node9 -->
<g id="Node000009" class="node">
<title>Node9</title>
<g id="a_Node000009"><a xlink:href="classtop_1_1_t_o_p_t_w_solution.html#a822040f322ba94a35ed101f6c53f0b33" target="_top" xlink:title="Obtiene la distancia entre dos nodos consultando el problema asociado.">
<polygon fill="white" stroke="#666666" points="597.38,-172 438.12,-172 438.12,-152 597.38,-152 597.38,-172"/>
<text xml:space="preserve" text-anchor="middle" x="517.75" y="-158.5" font-family="Helvetica,sans-Serif" font-size="10.00">top.TOPTWSolution.getDistance</text>
</a>
</g>
</g>
<!-- Node6&#45;&gt;Node9 -->
<g id="edge8_Node000006_Node000009" class="edge">
<title>Node6&#45;&gt;Node9</title>
<g id="a_edge8_Node000006_Node000009"><a xlink:title=" ">
<path fill="none" stroke="#63b8ff" d="M314.23,-341.82C332.7,-323.9 361.93,-293.48 381.5,-263 403,-229.51 386.38,-205.81 417.5,-181 420.61,-178.52 423.95,-176.33 427.46,-174.4"/>
<polygon fill="#63b8ff" stroke="#63b8ff" points="428.75,-177.65 436.33,-170.25 425.79,-171.31 428.75,-177.65"/>
</a>
</g>
</g>
<!-- Node11 -->
<g id="Node000011" class="node">
<title>Node11</title>
<g id="a_Node000011"><a xlink:href="classtop_1_1_t_o_p_t_w.html#a0d14aca2e33a8fb1eb08013c3d55abfa" target="_top" xlink:title="Obtiene el tiempo de fin de la ventana de tiempo (due time) de un nodo.">
<polygon fill="white" stroke="#666666" points="579.75,-488 455.75,-488 455.75,-468 579.75,-468 579.75,-488"/>
<text xml:space="preserve" text-anchor="middle" x="517.75" y="-474.5" font-family="Helvetica,sans-Serif" font-size="10.00">top.TOPTW.getDueTime</text>
</a>
</g>
</g>
<!-- Node6&#45;&gt;Node11 -->
<g id="edge11_Node000006_Node000011" class="edge">
<title>Node6&#45;&gt;Node11</title>
<g id="a_edge11_Node000006_Node000011"><a xlink:title=" ">
<path fill="none" stroke="#63b8ff" d="M311.06,-374.23C331.96,-397.01 373.33,-438.04 417.5,-459 425.93,-463 435.14,-466.16 444.45,-468.65"/>
<polygon fill="#63b8ff" stroke="#63b8ff" points="443.36,-471.99 453.9,-470.93 445,-465.19 443.36,-471.99"/>
</a>
</g>
</g>
<!-- Node13 -->
<g id="Node000013" class="node">
<title>Node13</title>
<g id="a_Node000013"><a xlink:href="classtop_1_1_t_o_p_t_w_solution.html#a0c4692927923549f0e137ea74850a8b6" target="_top" xlink:title="Obtiene el índice del nodo que actúa como depósito para una ruta específica.">
<polygon fill="white" stroke="#666666" points="589.88,-260 445.62,-260 445.62,-228 589.88,-228 589.88,-260"/>
<text xml:space="preserve" text-anchor="start" x="453.62" y="-246.5" font-family="Helvetica,sans-Serif" font-size="10.00">top.TOPTWSolution.getIndex</text>
<text xml:space="preserve" text-anchor="middle" x="517.75" y="-234.5" font-family="Helvetica,sans-Serif" font-size="10.00">Route</text>
</a>
</g>
</g>
<!-- Node6&#45;&gt;Node13 -->
<g id="edge13_Node000006_Node000013" class="edge">
<title>Node6&#45;&gt;Node13</title>
<g id="a_edge13_Node000006_Node000013"><a xlink:title=" ">
<path fill="none" stroke="#63b8ff" d="M314.24,-341.72C336.49,-321.72 377.02,-288.12 417.5,-269 422.97,-266.42 428.75,-264.08 434.64,-261.96"/>
<polygon fill="#63b8ff" stroke="#63b8ff" points="435.54,-265.35 443.92,-258.87 433.33,-258.71 435.54,-265.35"/>
</a>
</g>
</g>
<!-- Node14 -->
<g id="Node000014" class="node">
<title>Node14</title>
<g id="a_Node000014"><a xlink:href="classtop_1_1_t_o_p_t_w.html#a9363c6b94f247ce746510fe1036d143a" target="_top" xlink:title="Obtiene el tiempo máximo permitido por ruta.">
<polygon fill="white" stroke="#666666" points="600.75,-374 434.75,-374 434.75,-354 600.75,-354 600.75,-374"/>
<text xml:space="preserve" text-anchor="middle" x="517.75" y="-360.5" font-family="Helvetica,sans-Serif" font-size="10.00">top.TOPTW.getMaxTimePerRoute</text>
</a>
</g>
</g>
<!-- Node6&#45;&gt;Node14 -->
<g id="edge14_Node000006_Node000014" class="edge">
<title>Node6&#45;&gt;Node14</title>
<g id="a_edge14_Node000006_Node000014"><a xlink:title=" ">
<path fill="none" stroke="#63b8ff" d="M381.88,-360.32C395.39,-360.69 409.42,-361.07 423.1,-361.44"/>
<polygon fill="#63b8ff" stroke="#63b8ff" points="422.89,-364.94 432.98,-361.71 423.08,-357.94 422.89,-364.94"/>
</a>
</g>
</g>
<!-- Node6&#45;&gt;Node15 -->
<g id="edge15_Node000006_Node000015" class="edge">
<title>Node6&#45;&gt;Node15</title>
<g id="a_edge15_Node000006_Node000015"><a xlink:title=" ">
<path fill="none" stroke="#63b8ff" d="M375.35,-374.45C389.38,-377.33 403.87,-380.28 417.5,-383 428.03,-385.1 439.21,-387.28 450.11,-389.39"/>
<polygon fill="#63b8ff" stroke="#63b8ff" points="449.37,-392.81 459.85,-391.26 450.69,-385.94 449.37,-392.81"/>
</a>
</g>
</g>
<!-- Node16 -->
<g id="Node000016" class="node">
<title>Node16</title>
<g id="a_Node000016"><a xlink:href="classtop_1_1_t_o_p_t_w.html#a4e74b10708b232a801a4ad147892b70a" target="_top" xlink:title="Obtiene el tiempo de inicio de la ventana de tiempo (ready time) de un nodo.">
<polygon fill="white" stroke="#666666" points="585,-336 450.5,-336 450.5,-316 585,-316 585,-336"/>
<text xml:space="preserve" text-anchor="middle" x="517.75" y="-322.5" font-family="Helvetica,sans-Serif" font-size="10.00">top.TOPTW.getReadyTime</text>
</a>
</g>
</g>
<!-- Node6&#45;&gt;Node16 -->
<g id="edge16_Node000006_Node000016" class="edge">
<title>Node6&#45;&gt;Node16</title>
<g id="a_edge16_Node000006_Node000016"><a xlink:title=" ">
<path fill="none" stroke="#63b8ff" d="M381.88,-345.63C400.6,-342.9 420.33,-340.03 438.75,-337.35"/>
<polygon fill="#63b8ff" stroke="#63b8ff" points="439.14,-340.83 448.53,-335.93 438.13,-333.9 439.14,-340.83"/>
</a>
</g>
</g>
<!-- Node17 -->
<g id="Node000017" class="node">
<title>Node17</title>
<g id="a_Node000017"><a xlink:href="classtop_1_1_t_o_p_t_w.html#ad028d42f72214373efca074483462837" target="_top" xlink:title="Obtiene la puntuación (score) de un nodo.">
<polygon fill="white" stroke="#666666" points="572.62,-450 462.88,-450 462.88,-430 572.62,-430 572.62,-450"/>
<text xml:space="preserve" text-anchor="middle" x="517.75" y="-436.5" font-family="Helvetica,sans-Serif" font-size="10.00">top.TOPTW.getScore</text>
</a>
</g>
</g>
<!-- Node6&#45;&gt;Node17 -->
<g id="edge18_Node000006_Node000017" class="edge">
<title>Node6&#45;&gt;Node17</title>
<g id="a_edge18_Node000006_Node000017"><a xlink:title=" ">
<path fill="none" stroke="#63b8ff" d="M322.7,-374.33C346.47,-388.66 383.14,-409.03 417.5,-421 428.19,-424.72 439.79,-427.78 451.17,-430.26"/>
<polygon fill="#63b8ff" stroke="#63b8ff" points="450.44,-433.69 460.94,-432.26 451.84,-426.83 450.44,-433.69"/>
</a>
</g>
</g>
<!-- Node18 -->
<g id="Node000018" class="node">
<title>Node18</title>
<g id="a_Node000018"><a xlink:href="classtop_1_1_t_o_p_t_w.html#a06b2b40d137f16bdda21c734d3ea8ac7" target="_top" xlink:title="Obtiene el tiempo de servicio requerido en un nodo.">
<polygon fill="white" stroke="#666666" points="587.25,-210 448.25,-210 448.25,-190 587.25,-190 587.25,-210"/>
<text xml:space="preserve" text-anchor="middle" x="517.75" y="-196.5" font-family="Helvetica,sans-Serif" font-size="10.00">top.TOPTW.getServiceTime</text>
</a>
</g>
</g>
<!-- Node6&#45;&gt;Node18 -->
<g id="edge20_Node000006_Node000018" class="edge">
<title>Node6&#45;&gt;Node18</title>
<g id="a_edge20_Node000006_Node000018"><a xlink:title=" ">
<path fill="none" stroke="#63b8ff" d="M311.76,-341.71C328.83,-322.93 357.55,-291.05 381.5,-263 397.91,-243.78 395.79,-231.93 417.5,-219 423.58,-215.38 430.22,-212.42 437.07,-210.02"/>
<polygon fill="#63b8ff" stroke="#63b8ff" points="438,-213.4 446.54,-207.12 435.95,-206.7 438,-213.4"/>
</a>
</g>
</g>
<!-- Node19 -->
<g id="Node000019" class="node">
<title>Node19</title>
<g id="a_Node000019"><a xlink:href="classtop_1_1_t_o_p_t_w_solution.html#a559f4d8cc4b93d998243d7479fd6da8d" target="_top" xlink:title="Obtiene el sucesor de un cliente en su ruta.">
<polygon fill="white" stroke="#666666" points="601.12,-298 434.38,-298 434.38,-278 601.12,-278 601.12,-298"/>
<text xml:space="preserve" text-anchor="middle" x="517.75" y="-284.5" font-family="Helvetica,sans-Serif" font-size="10.00">top.TOPTWSolution.getSuccessor</text>
</a>
</g>
</g>
<!-- Node6&#45;&gt;Node19 -->
<g id="edge22_Node000006_Node000019" class="edge">
<title>Node6&#45;&gt;Node19</title>
<g id="a_edge22_Node000006_Node000019"><a xlink:title=" ">
<path fill="none" stroke="#63b8ff" d="M330.48,-341.53C354.29,-330.42 387.26,-316.18 417.5,-307 424.86,-304.77 432.61,-302.74 440.4,-300.92"/>
<polygon fill="#63b8ff" stroke="#63b8ff" points="440.92,-304.39 449.93,-298.8 439.41,-297.55 440.92,-304.39"/>
</a>
</g>
</g>
<!-- Node7&#45;&gt;Node8 -->
<g id="edge7_Node000007_Node000008" class="edge">
<title>Node7&#45;&gt;Node8</title>
<g id="a_edge7_Node000007_Node000008"><a xlink:title=" ">
<path fill="none" stroke="#63b8ff" d="M574.5,-538.47C588.72,-542.78 603.95,-547.48 618,-552 636.55,-557.97 656.98,-564.9 674.26,-570.86"/>
<polygon fill="#63b8ff" stroke="#63b8ff" points="673.09,-574.15 683.68,-574.12 675.38,-567.54 673.09,-574.15"/>
</a>
</g>
</g>
<!-- Node10 -->
<g id="Node000010" class="node">
<title>Node10</title>
<g id="a_Node000010"><a xlink:href="classtop_1_1_t_o_p_t_w.html#a137f100c5711b4b93cb5ae1711ddaf9a" target="_top" xlink:title="Calcula la distancia total de una ruta representada por un array de enteros.">
<polygon fill="white" stroke="#666666" points="777.25,-172 654,-172 654,-152 777.25,-152 777.25,-172"/>
<text xml:space="preserve" text-anchor="middle" x="715.62" y="-158.5" font-family="Helvetica,sans-Serif" font-size="10.00">top.TOPTW.getDistance</text>
</a>
</g>
</g>
<!-- Node9&#45;&gt;Node10 -->
<g id="edge9_Node000009_Node000010" class="edge">
<title>Node9&#45;&gt;Node10</title>
<g id="a_edge9_Node000009_Node000010"><a xlink:title=" ">
<path fill="none" stroke="#63b8ff" d="M597.86,-162C612.52,-162 627.76,-162 642.21,-162"/>
<polygon fill="#63b8ff" stroke="#63b8ff" points="642.09,-165.5 652.09,-162 642.09,-158.5 642.09,-165.5"/>
</a>
</g>
</g>
<!-- Node10&#45;&gt;Node10 -->
<g id="edge10_Node000010_Node000010" class="edge">
<title>Node10&#45;&gt;Node10</title>
<g id="a_edge10_Node000010_Node000010"><a xlink:title=" ">
<path fill="none" stroke="#63b8ff" d="M684.18,-172.34C670.75,-180.98 681.23,-190 715.62,-190 734.97,-190 746.75,-187.14 750.97,-183.11"/>
<polygon fill="#63b8ff" stroke="#63b8ff" points="754.28,-181.97 747.58,-173.76 747.7,-184.36 754.28,-181.97"/>
</a>
</g>
</g>
<!-- Node12 -->
<g id="Node000012" class="node">
<title>Node12</title>
<g id="a_Node000012"><a xlink:href="classtop_1_1_t_o_p_t_w.html#a642e958056dc77c10d72831d633e2f49" target="_top" xlink:title="Comprueba si un índice de nodo corresponde a un depósito.">
<polygon fill="white" stroke="#666666" points="767.88,-393 663.38,-393 663.38,-373 767.88,-373 767.88,-393"/>
<text xml:space="preserve" text-anchor="middle" x="715.62" y="-379.5" font-family="Helvetica,sans-Serif" font-size="10.00">top.TOPTW.isDepot</text>
</a>
</g>
</g>
<!-- Node11&#45;&gt;Node12 -->
<g id="edge12_Node000011_Node000012" class="edge">
<title>Node11&#45;&gt;Node12</title>
<g id="a_edge12_Node000011_Node000012"><a xlink:title=" ">
<path fill="none" stroke="#63b8ff" d="M580,-471.01C592.91,-468.25 606.19,-464.39 618,-459 649.04,-444.85 678.99,-418.74 697.11,-401.12"/>
<polygon fill="#63b8ff" stroke="#63b8ff" points="699.32,-403.85 703.93,-394.31 694.38,-398.9 699.32,-403.85"/>
</a>
</g>
</g>
<!-- Node16&#45;&gt;Node12 -->
<g id="edge17_Node000016_Node000012" class="edge">
<title>Node16&#45;&gt;Node12</title>
<g id="a_edge17_Node000016_Node000012"><a xlink:title=" ">
<path fill="none" stroke="#63b8ff" d="M582.97,-336.48C594.71,-338.91 606.79,-341.75 618,-345 639.46,-351.22 662.8,-360.32 681.16,-368.06"/>
<polygon fill="#63b8ff" stroke="#63b8ff" points="679.66,-371.23 690.22,-371.95 682.41,-364.79 679.66,-371.23"/>
</a>
</g>
</g>
<!-- Node17&#45;&gt;Node12 -->
<g id="edge19_Node000017_Node000012" class="edge">
<title>Node17&#45;&gt;Node12</title>
<g id="a_edge19_Node000017_Node000012"><a xlink:title=" ">
<path fill="none" stroke="#63b8ff" d="M573.01,-431.5C587.74,-428.68 603.59,-425.17 618,-421 639.46,-414.78 662.8,-405.68 681.16,-397.94"/>
<polygon fill="#63b8ff" stroke="#63b8ff" points="682.41,-401.21 690.22,-394.05 679.66,-394.77 682.41,-401.21"/>
</a>
</g>
</g>
<!-- Node18&#45;&gt;Node12 -->
<g id="edge21_Node000018_Node000012" class="edge">
<title>Node18&#45;&gt;Node12</title>
<g id="a_edge21_Node000018_Node000012"><a xlink:title=" ">
<path fill="none" stroke="#63b8ff" d="M587.52,-205.26C598.37,-208.25 608.96,-212.63 618,-219 668.75,-254.75 697.05,-326.34 708.52,-361.92"/>
<polygon fill="#63b8ff" stroke="#63b8ff" points="705.16,-362.91 711.44,-371.44 711.85,-360.86 705.16,-362.91"/>
</a>
</g>
</g>
<!-- Node20&#45;&gt;Node5 -->
<g id="edge24_Node000020_Node000005" class="edge">
<title>Node20&#45;&gt;Node5</title>
<g id="a_edge24_Node000020_Node000005"><a xlink:title=" ">
<path fill="none" stroke="#63b8ff" d="M370.16,-145.66C374.26,-143.17 378.08,-140.3 381.5,-137 417.89,-101.85 379.43,-62.33 417.5,-29 418.46,-28.16 419.44,-27.36 420.44,-26.58"/>
<polygon fill="#63b8ff" stroke="#63b8ff" points="422.26,-29.58 428.79,-21.24 418.48,-23.68 422.26,-29.58"/>
</a>
</g>
</g>
<!-- Node22&#45;&gt;Node4 -->
<g id="edge30_Node000022_Node000004" class="edge">
<title>Node22&#45;&gt;Node4</title>
<g id="a_edge30_Node000022_Node000004"><a xlink:title=" ">
<path fill="none" stroke="#63b8ff" d="M313.7,-633.28C336.35,-646.52 378.34,-669.03 417.5,-679 495.97,-698.97 589.67,-701.62 650.57,-700.66"/>
<polygon fill="#63b8ff" stroke="#63b8ff" points="650.48,-704.16 660.41,-700.47 650.34,-697.16 650.48,-704.16"/>
</a>
</g>
</g>
<!-- Node22&#45;&gt;Node8 -->
<g id="edge31_Node000022_Node000008" class="edge">
<title>Node22&#45;&gt;Node8</title>
<g id="a_edge31_Node000022_Node000008"><a xlink:title=" ">
<path fill="none" stroke="#63b8ff" d="M373.5,-616.03C450.57,-609.02 568.45,-598.3 643.51,-591.47"/>
<polygon fill="#63b8ff" stroke="#63b8ff" points="643.57,-594.98 653.21,-590.59 642.93,-588.01 643.57,-594.98"/>
</a>
</g>
</g>
<!-- Node23 -->
<g id="Node000023" class="node">
<title>Node23</title>
<g id="a_Node000023"><a xlink:href="classtop_1_1_t_o_p_t_w_solution.html#a45192e5d12a12ec58030397041b4a369" target="_top" xlink:title="Constructor de la clase TOPTWSolution.">
<polygon fill="white" stroke="#666666" points="606.75,-652 428.75,-652 428.75,-632 606.75,-632 606.75,-652"/>
<text xml:space="preserve" text-anchor="middle" x="517.75" y="-638.5" font-family="Helvetica,sans-Serif" font-size="10.00">top.TOPTWSolution.TOPTWSolution</text>
</a>
</g>
</g>
<!-- Node22&#45;&gt;Node23 -->
<g id="edge32_Node000022_Node000023" class="edge">
<title>Node22&#45;&gt;Node23</title>
<g id="a_edge32_Node000022_Node000023"><a xlink:title=" ">
<path fill="none" stroke="#63b8ff" d="M373.47,-629.62C387.59,-630.84 402.52,-632.13 417.21,-633.4"/>
<polygon fill="#63b8ff" stroke="#63b8ff" points="416.6,-636.86 426.86,-634.23 417.2,-629.88 416.6,-636.86"/>
</a>
</g>
</g>
<!-- Node23&#45;&gt;Node4 -->
<g id="edge33_Node000023_Node000004" class="edge">
<title>Node23&#45;&gt;Node4</title>
<g id="a_edge33_Node000023_Node000004"><a xlink:title=" ">
<path fill="none" stroke="#63b8ff" d="M555.13,-652.4C586.78,-661.45 632.85,-674.62 667.34,-684.48"/>
<polygon fill="#63b8ff" stroke="#63b8ff" points="666.07,-687.76 676.65,-687.14 668,-681.03 666.07,-687.76"/>
</a>
</g>
</g>
<!-- Node23&#45;&gt;Node8 -->
<g id="edge34_Node000023_Node000008" class="edge">
<title>Node23&#45;&gt;Node8</title>
<g id="a_edge34_Node000023_Node000008"><a xlink:title=" ">
<path fill="none" stroke="#63b8ff" d="M565.94,-631.52C582.49,-627.6 601.15,-622.9 618,-618 637.31,-612.38 658.48,-605.26 676.07,-599.07"/>
<polygon fill="#63b8ff" stroke="#63b8ff" points="676.84,-602.52 685.09,-595.87 674.49,-595.92 676.84,-602.52"/>
</a>
</g>
</g>
<!-- Node23&#45;&gt;Node23 -->
<g id="edge35_Node000023_Node000023" class="edge">
<title>Node23&#45;&gt;Node23</title>
<g id="a_edge35_Node000023_Node000023"><a xlink:title=" ">
<path fill="none" stroke="#63b8ff" d="M486.31,-652.34C472.87,-660.98 483.35,-670 517.75,-670 537.1,-670 548.88,-667.14 553.09,-663.11"/>
<polygon fill="#63b8ff" stroke="#63b8ff" points="556.4,-661.97 549.71,-653.76 549.82,-664.36 556.4,-661.97"/>
</a>
</g>
</g>
<!-- Node24&#45;&gt;Node9 -->
<g id="edge37_Node000024_Node000009" class="edge">
<title>Node24&#45;&gt;Node9</title>
<g id="a_edge37_Node000024_Node000009"><a xlink:title=" ">
<path fill="none" stroke="#63b8ff" d="M350.66,-233.55C361.34,-230.17 372.13,-225.76 381.5,-220 401.6,-207.65 396.88,-192.46 417.5,-181 420.55,-179.31 423.72,-177.76 426.97,-176.35"/>
<polygon fill="#63b8ff" stroke="#63b8ff" points="428.11,-179.67 436.21,-172.84 425.62,-173.12 428.11,-179.67"/>
</a>
</g>
</g>
<!-- Node24&#45;&gt;Node13 -->
<g id="edge38_Node000024_Node000013" class="edge">
<title>Node24&#45;&gt;Node13</title>
<g id="a_edge38_Node000024_Node000013"><a xlink:title=" ">
<path fill="none" stroke="#63b8ff" d="M380.94,-244C398.35,-244 416.67,-244 434.02,-244"/>
<polygon fill="#63b8ff" stroke="#63b8ff" points="433.75,-247.5 443.75,-244 433.75,-240.5 433.75,-247.5"/>
</a>
</g>
</g>
<!-- Node24&#45;&gt;Node15 -->
<g id="edge39_Node000024_Node000015" class="edge">
<title>Node24&#45;&gt;Node15</title>
<g id="a_edge39_Node000024_Node000015"><a xlink:title=" ">
<path fill="none" stroke="#63b8ff" d="M307.52,-254.26C324.06,-270.39 356.6,-302.96 381.5,-333 398.97,-354.08 394.42,-368.27 417.5,-383 421.04,-385.26 424.78,-387.26 428.65,-389.03"/>
<polygon fill="#63b8ff" stroke="#63b8ff" points="427.19,-392.22 437.78,-392.65 429.78,-385.71 427.19,-392.22"/>
</a>
</g>
</g>
<!-- Node24&#45;&gt;Node16 -->
<g id="edge40_Node000024_Node000016" class="edge">
<title>Node24&#45;&gt;Node16</title>
<g id="a_edge40_Node000024_Node000016"><a xlink:title=" ">
<path fill="none" stroke="#63b8ff" d="M312.96,-254.37C335.46,-268.39 378.01,-293.24 417.5,-307 424.38,-309.4 431.63,-311.51 438.96,-313.38"/>
<polygon fill="#63b8ff" stroke="#63b8ff" points="438.1,-316.77 448.63,-315.68 439.71,-309.96 438.1,-316.77"/>
</a>
</g>
</g>
<!-- Node24&#45;&gt;Node18 -->
<g id="edge41_Node000024_Node000018" class="edge">
<title>Node24&#45;&gt;Node18</title>
<g id="a_edge41_Node000024_Node000018"><a xlink:title=" ">
<path fill="none" stroke="#63b8ff" d="M346.43,-233.55C368.22,-229.01 394.11,-223.66 417.5,-219 428.03,-216.9 439.21,-214.72 450.11,-212.61"/>
<polygon fill="#63b8ff" stroke="#63b8ff" points="450.69,-216.06 459.85,-210.74 449.37,-209.19 450.69,-216.06"/>
</a>
</g>
</g>
<!-- Node24&#45;&gt;Node19 -->
<g id="edge42_Node000024_Node000019" class="edge">
<title>Node24&#45;&gt;Node19</title>
<g id="a_edge42_Node000024_Node000019"><a xlink:title=" ">
<path fill="none" stroke="#63b8ff" d="M346.43,-254.45C368.22,-258.99 394.11,-264.34 417.5,-269 428.03,-271.1 439.21,-273.28 450.11,-275.39"/>
<polygon fill="#63b8ff" stroke="#63b8ff" points="449.37,-278.81 459.85,-277.26 450.69,-271.94 449.37,-278.81"/>
</a>
</g>
</g>
<!-- Node25 -->
<g id="Node000025" class="node">
<title>Node25</title>
<g id="a_Node000025"><a xlink:href="classtop_1_1_t_o_p_t_w_solution.html#a56640aeccb436bb9dbb33381c274443f" target="_top" xlink:title="Comprueba si un nodo es un depósito.">
<polygon fill="white" stroke="#666666" points="588,-134 447.5,-134 447.5,-114 588,-114 588,-134"/>
<text xml:space="preserve" text-anchor="middle" x="517.75" y="-120.5" font-family="Helvetica,sans-Serif" font-size="10.00">top.TOPTWSolution.isDepot</text>
</a>
</g>
</g>
<!-- Node24&#45;&gt;Node25 -->
<g id="edge43_Node000024_Node000025" class="edge">
<title>Node24&#45;&gt;Node25</title>
<g id="a_edge43_Node000024_Node000025"><a xlink:title=" ">
<path fill="none" stroke="#63b8ff" d="M357.9,-233.61C366.44,-230.26 374.64,-225.84 381.5,-220 410.27,-195.52 387.69,-166.2 417.5,-143 423.18,-138.58 429.59,-135.09 436.34,-132.34"/>
<polygon fill="#63b8ff" stroke="#63b8ff" points="437.44,-135.67 445.76,-129.11 435.16,-129.05 437.44,-135.67"/>
</a>
</g>
</g>
<!-- Node26 -->
<g id="Node000026" class="node">
<title>Node26</title>
<g id="a_Node000026"><a xlink:href="classtop_1_1_t_o_p_t_w_solution.html#a77bd60e16c5a4672e71d5f525cbe5e25" target="_top" xlink:title="Establece el predecesor de un nodo.">
<polygon fill="white" stroke="#666666" points="605.25,-96 430.25,-96 430.25,-76 605.25,-76 605.25,-96"/>
<text xml:space="preserve" text-anchor="middle" x="517.75" y="-82.5" font-family="Helvetica,sans-Serif" font-size="10.00">top.TOPTWSolution.setPredecessor</text>
</a>
</g>
</g>
<!-- Node24&#45;&gt;Node26 -->
<g id="edge44_Node000024_Node000026" class="edge">
<title>Node24&#45;&gt;Node26</title>
<g id="a_edge44_Node000024_Node000026"><a xlink:title=" ">
<path fill="none" stroke="#63b8ff" d="M360.33,-233.68C368.14,-230.31 375.48,-225.86 381.5,-220 419.88,-182.64 377.53,-140.65 417.5,-105 418.45,-104.15 419.42,-103.34 420.42,-102.56"/>
<polygon fill="#63b8ff" stroke="#63b8ff" points="422.25,-105.55 428.72,-97.16 418.43,-99.68 422.25,-105.55"/>
</a>
</g>
</g>
<!-- Node27 -->
<g id="Node000027" class="node">
<title>Node27</title>
<g id="a_Node000027"><a xlink:href="classtop_1_1_t_o_p_t_w_solution.html#a2b1fb005fd139112ce576687b1dd7c34" target="_top" xlink:title="Establece el sucesor de un nodo.">
<polygon fill="white" stroke="#666666" points="601.12,-58 434.38,-58 434.38,-38 601.12,-38 601.12,-58"/>
<text xml:space="preserve" text-anchor="middle" x="517.75" y="-44.5" font-family="Helvetica,sans-Serif" font-size="10.00">top.TOPTWSolution.setSuccessor</text>
</a>
</g>
</g>
<!-- Node24&#45;&gt;Node27 -->
<g id="edge45_Node000024_Node000027" class="edge">
<title>Node24&#45;&gt;Node27</title>
<g id="a_edge45_Node000024_Node000027"><a xlink:title=" ">
<path fill="none" stroke="#63b8ff" d="M361.99,-233.5C369.26,-230.14 376.01,-225.74 381.5,-220 429.77,-169.5 367.08,-115.35 417.5,-67 419.53,-65.05 421.69,-63.28 423.97,-61.65"/>
<polygon fill="#63b8ff" stroke="#63b8ff" points="425.73,-64.68 432.57,-56.6 422.18,-58.65 425.73,-64.68"/>
</a>
</g>
</g>
</g>
</svg>
