<?xml version="1.0" encoding="UTF-8" standalone="no"?>
<!DOCTYPE svg PUBLIC "-//W3C//DTD SVG 1.1//EN"
 "http://www.w3.org/Graphics/SVG/1.1/DTD/svg11.dtd">
<!-- Generated by graphviz version 14.0.1 (20251006.0113)
 -->
<!-- Title: top.TOPTWGRASP.getMaxScore Pages: 1 -->
<svg width="912pt" height="90pt"
 viewBox="0.00 0.00 912.00 90.00" xmlns="http://www.w3.org/2000/svg" xmlns:xlink="http://www.w3.org/1999/xlink">
<g id="graph0" class="graph" transform="scale(1 1) rotate(0) translate(4 86)">
<title>top.TOPTWGRASP.getMaxScore</title>
<!-- Node1 -->
<g id="Node000001" class="node">
<title>Node1</title>
<g id="a_Node000001"><a xlink:title="Obtiene la máxima puntuación posible entre todos los nodos del problema.">
<polygon fill="#999999" stroke="#666666" points="904.25,-51 741.25,-51 741.25,-31 904.25,-31 904.25,-51"/>
<text xml:space="preserve" text-anchor="middle" x="822.75" y="-37.5" font-family="Helvetica,sans-Serif" font-size="10.00">top.TOPTWGRASP.getMaxScore</text>
</a>
</g>
</g>
<!-- Node2 -->
<g id="Node000002" class="node">
<title>Node2</title>
<g id="a_Node000002"><a xlink:href="classtop_1_1_t_o_p_t_w_g_r_a_s_p.html#a717d4390dfb843bed804afb598e27a87" target="_top" xlink:title="Selecciona un candidato de la RCL utilizando un corte alfa sobre la función de pertenencia difusa.">
<polygon fill="white" stroke="#666666" points="705.25,-82 535.5,-82 535.5,-50 705.25,-50 705.25,-82"/>
<text xml:space="preserve" text-anchor="start" x="543.5" y="-68.5" font-family="Helvetica,sans-Serif" font-size="10.00">top.TOPTWGRASP.fuzzySelection</text>
<text xml:space="preserve" text-anchor="middle" x="620.38" y="-56.5" font-family="Helvetica,sans-Serif" font-size="10.00">AlphaCutRCL</text>
</a>
</g>
</g>
<!-- Node1&#45;&gt;Node2 -->
<g id="edge1_Node000001_Node000002" class="edge">
<title>Node1&#45;&gt;Node2</title>
<g id="a_edge1_Node000001_Node000002"><a xlink:title=" ">
<path fill="none" stroke="#63b8ff" d="M729.57,-52.5C721.56,-53.5 713.48,-54.51 705.54,-55.5"/>
<polygon fill="#63b8ff" stroke="#63b8ff" points="729.84,-56 739.33,-51.28 728.97,-49.05 729.84,-56"/>
</a>
</g>
</g>
<!-- Node6 -->
<g id="Node000006" class="node">
<title>Node6</title>
<g id="a_Node000006"><a xlink:href="classtop_1_1_t_o_p_t_w_g_r_a_s_p.html#aa921b046fab55b437ea10e5cc286c014" target="_top" xlink:title="Selecciona un candidato de la RCL utilizando una función de pertenencia difusa.">
<polygon fill="white" stroke="#666666" points="705.25,-32 535.5,-32 535.5,0 705.25,0 705.25,-32"/>
<text xml:space="preserve" text-anchor="start" x="543.5" y="-18.5" font-family="Helvetica,sans-Serif" font-size="10.00">top.TOPTWGRASP.fuzzySelection</text>
<text xml:space="preserve" text-anchor="middle" x="620.38" y="-6.5" font-family="Helvetica,sans-Serif" font-size="10.00">BestFDRCL</text>
</a>
</g>
</g>
<!-- Node1&#45;&gt;Node6 -->
<g id="edge5_Node000001_Node000006" class="edge">
<title>Node1&#45;&gt;Node6</title>
<g id="a_edge5_Node000001_Node000006"><a xlink:title=" ">
<path fill="none" stroke="#63b8ff" d="M729.57,-29.5C721.56,-28.5 713.48,-27.49 705.54,-26.5"/>
<polygon fill="#63b8ff" stroke="#63b8ff" points="728.97,-32.95 739.33,-30.72 729.84,-26 728.97,-32.95"/>
</a>
</g>
</g>
<!-- Node3 -->
<g id="Node000003" class="node">
<title>Node3</title>
<g id="a_Node000003"><a xlink:href="classtop_1_1_t_o_p_t_w_g_r_a_s_p.html#ade97c51a7d20660d7d306b756b4a6302" target="_top" xlink:title="Construye una solución greedy aleatorizada.">
<polygon fill="white" stroke="#666666" points="499.5,-57 325.25,-57 325.25,-25 499.5,-25 499.5,-57"/>
<text xml:space="preserve" text-anchor="start" x="333.25" y="-43.5" font-family="Helvetica,sans-Serif" font-size="10.00">top.TOPTWGRASP.computeGreedy</text>
<text xml:space="preserve" text-anchor="middle" x="412.38" y="-31.5" font-family="Helvetica,sans-Serif" font-size="10.00">Solution</text>
</a>
</g>
</g>
<!-- Node2&#45;&gt;Node3 -->
<g id="edge2_Node000002_Node000003" class="edge">
<title>Node2&#45;&gt;Node3</title>
<g id="a_edge2_Node000002_Node000003"><a xlink:title=" ">
<path fill="none" stroke="#63b8ff" d="M523.98,-54.42C515.94,-53.45 507.84,-52.46 499.87,-51.5"/>
<polygon fill="#63b8ff" stroke="#63b8ff" points="523.44,-57.88 533.79,-55.61 524.28,-50.93 523.44,-57.88"/>
</a>
</g>
</g>
<!-- Node4 -->
<g id="Node000004" class="node">
<title>Node4</title>
<g id="a_Node000004"><a xlink:href="classtop_1_1_t_o_p_t_w_g_r_a_s_p.html#a11242fc809f6a16ff81136c4785fdc3e" target="_top" xlink:title="Ejecuta el algoritmo GRASP durante un número determinado de iteraciones.">
<polygon fill="white" stroke="#666666" points="289.25,-51 148.75,-51 148.75,-31 289.25,-31 289.25,-51"/>
<text xml:space="preserve" text-anchor="middle" x="219" y="-37.5" font-family="Helvetica,sans-Serif" font-size="10.00">top.TOPTWGRASP.GRASP</text>
</a>
</g>
</g>
<!-- Node3&#45;&gt;Node4 -->
<g id="edge3_Node000003_Node000004" class="edge">
<title>Node3&#45;&gt;Node4</title>
<g id="a_edge3_Node000003_Node000004"><a xlink:title=" ">
<path fill="none" stroke="#63b8ff" d="M313.56,-41C305.52,-41 297.5,-41 289.72,-41"/>
<polygon fill="#63b8ff" stroke="#63b8ff" points="313.41,-44.5 323.41,-41 313.41,-37.5 313.41,-44.5"/>
</a>
</g>
</g>
<!-- Node5 -->
<g id="Node000005" class="node">
<title>Node5</title>
<g id="a_Node000005"><a xlink:href="classtop_1_1main_t_o_p_t_w.html#a6b155cf80c78f50335adf5a91762e0eb" target="_top" xlink:title="Método principal que ejecuta el solver TOPTW GRASP.">
<polygon fill="white" stroke="#666666" points="112.75,-51 0,-51 0,-31 112.75,-31 112.75,-51"/>
<text xml:space="preserve" text-anchor="middle" x="56.38" y="-37.5" font-family="Helvetica,sans-Serif" font-size="10.00">top.mainTOPTW.main</text>
</a>
</g>
</g>
<!-- Node4&#45;&gt;Node5 -->
<g id="edge4_Node000004_Node000005" class="edge">
<title>Node4&#45;&gt;Node5</title>
<g id="a_edge4_Node000004_Node000005"><a xlink:title=" ">
<path fill="none" stroke="#63b8ff" d="M137.01,-41C128.88,-41 120.75,-41 112.97,-41"/>
<polygon fill="#63b8ff" stroke="#63b8ff" points="136.97,-44.5 146.97,-41 136.97,-37.5 136.97,-44.5"/>
</a>
</g>
</g>
<!-- Node6&#45;&gt;Node3 -->
<g id="edge6_Node000006_Node000003" class="edge">
<title>Node6&#45;&gt;Node3</title>
<g id="a_edge6_Node000006_Node000003"><a xlink:title=" ">
<path fill="none" stroke="#63b8ff" d="M523.98,-27.58C515.94,-28.55 507.84,-29.54 499.87,-30.5"/>
<polygon fill="#63b8ff" stroke="#63b8ff" points="524.28,-31.07 533.79,-26.39 523.44,-24.12 524.28,-31.07"/>
</a>
</g>
</g>
</g>
</svg>
