<?xml version="1.0" encoding="UTF-8" standalone="no"?>
<!DOCTYPE svg PUBLIC "-//W3C//DTD SVG 1.1//EN"
 "http://www.w3.org/Graphics/SVG/1.1/DTD/svg11.dtd">
<!-- Generated by graphviz version 14.0.1 (20251006.0113)
 -->
<!-- Title: es.ull.esit.utilities.ExpositoUtilities.getFormat Pages: 1 -->
<svg width="639pt" height="428pt"
 viewBox="0.00 0.00 639.00 428.00" xmlns="http://www.w3.org/2000/svg" xmlns:xlink="http://www.w3.org/1999/xlink">
<g id="graph0" class="graph" transform="scale(1 1) rotate(0) translate(4 424)">
<title>es.ull.esit.utilities.ExpositoUtilities.getFormat</title>
<!-- Node1 -->
<g id="Node000001" class="node">
<title>Node1</title>
<g id="a_Node000001"><a xlink:title="Formatea una cadena que representa un número.">
<polygon fill="#999999" stroke="#666666" points="631,-220 498,-220 498,-188 631,-188 631,-220"/>
<text xml:space="preserve" text-anchor="start" x="506" y="-206.5" font-family="Helvetica,sans-Serif" font-size="10.00">es.ull.esit.utilities.Exposito</text>
<text xml:space="preserve" text-anchor="middle" x="564.5" y="-194.5" font-family="Helvetica,sans-Serif" font-size="10.00">Utilities.getFormat</text>
</a>
</g>
</g>
<!-- Node1&#45;&gt;Node1 -->
<g id="edge2_Node000001_Node000001" class="edge">
<title>Node1&#45;&gt;Node1</title>
<g id="a_edge2_Node000001_Node000001"><a xlink:title=" ">
<path fill="none" stroke="#63b8ff" d="M592.98,-231.71C588.23,-235.48 578.74,-238 564.5,-238 538.47,-238 528.3,-229.58 533.99,-220.44"/>
<polygon fill="#63b8ff" stroke="#63b8ff" points="596.41,-232.39 594.74,-221.93 589.52,-231.15 596.41,-232.39"/>
</a>
</g>
</g>
<!-- Node2 -->
<g id="Node000002" class="node">
<title>Node2</title>
<g id="a_Node000002"><a xlink:href="classes_1_1ull_1_1esit_1_1utilities_1_1_exposito_utilities.html#aead770697be0d448bd91cd8427a90216" target="_top" xlink:title="Formatea una lista de cadenas, cada una con un ancho fijo.">
<polygon fill="white" stroke="#666666" points="460.12,-420 327.12,-420 327.12,-388 460.12,-388 460.12,-420"/>
<text xml:space="preserve" text-anchor="start" x="335.12" y="-406.5" font-family="Helvetica,sans-Serif" font-size="10.00">es.ull.esit.utilities.Exposito</text>
<text xml:space="preserve" text-anchor="middle" x="393.62" y="-394.5" font-family="Helvetica,sans-Serif" font-size="10.00">Utilities.getFormat</text>
</a>
</g>
</g>
<!-- Node1&#45;&gt;Node2 -->
<g id="edge1_Node000001_Node000002" class="edge">
<title>Node1&#45;&gt;Node2</title>
<g id="a_edge1_Node000001_Node000002"><a xlink:title=" ">
<path fill="none" stroke="#63b8ff" d="M554.41,-231.28C540.38,-269.43 509.95,-338.59 462,-379 458.18,-382.22 453.92,-385.04 449.43,-387.51"/>
<polygon fill="#63b8ff" stroke="#63b8ff" points="557.69,-232.52 557.74,-221.92 551.09,-230.17 557.69,-232.52"/>
</a>
</g>
</g>
<!-- Node3 -->
<g id="Node000003" class="node">
<title>Node3</title>
<g id="a_Node000003"><a xlink:href="classes_1_1ull_1_1esit_1_1utilities_1_1_exposito_utilities.html#a4c018a651b6159a3e2561b49455a134b" target="_top" xlink:title="Formatea una cadena para que ocupe un ancho fijo, con alineación a la derecha.">
<polygon fill="white" stroke="#666666" points="460.12,-370 327.12,-370 327.12,-338 460.12,-338 460.12,-370"/>
<text xml:space="preserve" text-anchor="start" x="335.12" y="-356.5" font-family="Helvetica,sans-Serif" font-size="10.00">es.ull.esit.utilities.Exposito</text>
<text xml:space="preserve" text-anchor="middle" x="393.62" y="-344.5" font-family="Helvetica,sans-Serif" font-size="10.00">Utilities.getFormat</text>
</a>
</g>
</g>
<!-- Node1&#45;&gt;Node3 -->
<g id="edge3_Node000001_Node000003" class="edge">
<title>Node1&#45;&gt;Node3</title>
<g id="a_edge3_Node000001_Node000003"><a xlink:title=" ">
<path fill="none" stroke="#63b8ff" d="M548.56,-229.63C531.06,-257.61 499.63,-302.02 462,-329 457.54,-332.2 452.62,-335.04 447.53,-337.54"/>
<polygon fill="#63b8ff" stroke="#63b8ff" points="551.35,-231.78 553.57,-221.42 545.37,-228.13 551.35,-231.78"/>
</a>
</g>
</g>
<!-- Node4 -->
<g id="Node000004" class="node">
<title>Node4</title>
<g id="a_Node000004"><a xlink:href="classes_1_1ull_1_1esit_1_1utilities_1_1_exposito_utilities.html#af00a27e34df90c5cc645e1a669063b5c" target="_top" xlink:title="Formatea un array de cadenas con el ancho de columna por defecto.">
<polygon fill="white" stroke="#666666" points="460.12,-320 327.12,-320 327.12,-288 460.12,-288 460.12,-320"/>
<text xml:space="preserve" text-anchor="start" x="335.12" y="-306.5" font-family="Helvetica,sans-Serif" font-size="10.00">es.ull.esit.utilities.Exposito</text>
<text xml:space="preserve" text-anchor="middle" x="393.62" y="-294.5" font-family="Helvetica,sans-Serif" font-size="10.00">Utilities.getFormat</text>
</a>
</g>
</g>
<!-- Node1&#45;&gt;Node4 -->
<g id="edge4_Node000001_Node000004" class="edge">
<title>Node1&#45;&gt;Node4</title>
<g id="a_edge4_Node000001_Node000004"><a xlink:title=" ">
<path fill="none" stroke="#63b8ff" d="M536.06,-227.6C516.4,-243.65 488.79,-264.51 462,-279 456.29,-282.09 450.13,-284.95 443.92,-287.56"/>
<polygon fill="#63b8ff" stroke="#63b8ff" points="538.13,-230.43 543.59,-221.35 533.66,-225.04 538.13,-230.43"/>
</a>
</g>
</g>
<!-- Node5 -->
<g id="Node000005" class="node">
<title>Node5</title>
<g id="a_Node000005"><a xlink:href="classes_1_1ull_1_1esit_1_1utilities_1_1_exposito_utilities.html#a1d9fa26973acad259f8b3b605aa8713c" target="_top" xlink:title="Formatea un array de cadenas, cada una con un ancho fijo.">
<polygon fill="white" stroke="#666666" points="460.12,-270 327.12,-270 327.12,-238 460.12,-238 460.12,-270"/>
<text xml:space="preserve" text-anchor="start" x="335.12" y="-256.5" font-family="Helvetica,sans-Serif" font-size="10.00">es.ull.esit.utilities.Exposito</text>
<text xml:space="preserve" text-anchor="middle" x="393.62" y="-244.5" font-family="Helvetica,sans-Serif" font-size="10.00">Utilities.getFormat</text>
</a>
</g>
</g>
<!-- Node1&#45;&gt;Node5 -->
<g id="edge5_Node000001_Node000005" class="edge">
<title>Node1&#45;&gt;Node5</title>
<g id="a_edge5_Node000001_Node000005"><a xlink:title=" ">
<path fill="none" stroke="#63b8ff" d="M497.56,-223.52C481.95,-228.15 465.44,-233.03 450.33,-237.51"/>
<polygon fill="#63b8ff" stroke="#63b8ff" points="498.16,-227 506.75,-220.8 496.17,-220.28 498.16,-227"/>
</a>
</g>
</g>
<!-- Node6 -->
<g id="Node000006" class="node">
<title>Node6</title>
<g id="a_Node000006"><a xlink:href="classes_1_1ull_1_1esit_1_1utilities_1_1_exposito_utilities.html#ac0e30df31555f720f6f3cc93d8d2c066" target="_top" xlink:title="Formatea un array de cadenas con anchos de columna individuales.">
<polygon fill="white" stroke="#666666" points="460.12,-220 327.12,-220 327.12,-188 460.12,-188 460.12,-220"/>
<text xml:space="preserve" text-anchor="start" x="335.12" y="-206.5" font-family="Helvetica,sans-Serif" font-size="10.00">es.ull.esit.utilities.Exposito</text>
<text xml:space="preserve" text-anchor="middle" x="393.62" y="-194.5" font-family="Helvetica,sans-Serif" font-size="10.00">Utilities.getFormat</text>
</a>
</g>
</g>
<!-- Node1&#45;&gt;Node6 -->
<g id="edge6_Node000001_Node000006" class="edge">
<title>Node1&#45;&gt;Node6</title>
<g id="a_edge6_Node000001_Node000006"><a xlink:title=" ">
<path fill="none" stroke="#63b8ff" d="M486.43,-204C477.77,-204 469,-204 460.5,-204"/>
<polygon fill="#63b8ff" stroke="#63b8ff" points="486.21,-207.5 496.21,-204 486.21,-200.5 486.21,-207.5"/>
</a>
</g>
</g>
<!-- Node7 -->
<g id="Node000007" class="node">
<title>Node7</title>
<g id="a_Node000007"><a xlink:href="classes_1_1ull_1_1esit_1_1utilities_1_1_exposito_utilities.html#a08684483087c8a7fcb91e158588391dc" target="_top" xlink:title="Formatea un array de cadenas con anchos y alineaciones individuales.">
<polygon fill="white" stroke="#666666" points="460.12,-170 327.12,-170 327.12,-138 460.12,-138 460.12,-170"/>
<text xml:space="preserve" text-anchor="start" x="335.12" y="-156.5" font-family="Helvetica,sans-Serif" font-size="10.00">es.ull.esit.utilities.Exposito</text>
<text xml:space="preserve" text-anchor="middle" x="393.62" y="-144.5" font-family="Helvetica,sans-Serif" font-size="10.00">Utilities.getFormat</text>
</a>
</g>
</g>
<!-- Node1&#45;&gt;Node7 -->
<g id="edge7_Node000001_Node000007" class="edge">
<title>Node1&#45;&gt;Node7</title>
<g id="a_edge7_Node000001_Node000007"><a xlink:title=" ">
<path fill="none" stroke="#63b8ff" d="M497.56,-184.48C481.95,-179.85 465.44,-174.97 450.33,-170.49"/>
<polygon fill="#63b8ff" stroke="#63b8ff" points="496.17,-187.72 506.75,-187.2 498.16,-181 496.17,-187.72"/>
</a>
</g>
</g>
<!-- Node8 -->
<g id="Node000008" class="node">
<title>Node8</title>
<g id="a_Node000008"><a xlink:href="classes_1_1ull_1_1esit_1_1utilities_1_1_exposito_utilities.html#a8804995e2e567d18859062fa9d29345b" target="_top" xlink:title="Formatea una matriz de cadenas en una tabla.">
<polygon fill="white" stroke="#666666" points="460.12,-120 327.12,-120 327.12,-88 460.12,-88 460.12,-120"/>
<text xml:space="preserve" text-anchor="start" x="335.12" y="-106.5" font-family="Helvetica,sans-Serif" font-size="10.00">es.ull.esit.utilities.Exposito</text>
<text xml:space="preserve" text-anchor="middle" x="393.62" y="-94.5" font-family="Helvetica,sans-Serif" font-size="10.00">Utilities.getFormat</text>
</a>
</g>
</g>
<!-- Node1&#45;&gt;Node8 -->
<g id="edge8_Node000001_Node000008" class="edge">
<title>Node1&#45;&gt;Node8</title>
<g id="a_edge8_Node000001_Node000008"><a xlink:title=" ">
<path fill="none" stroke="#63b8ff" d="M536.06,-180.4C516.4,-164.35 488.79,-143.49 462,-129 456.29,-125.91 450.13,-123.05 443.92,-120.44"/>
<polygon fill="#63b8ff" stroke="#63b8ff" points="533.66,-182.96 543.59,-186.65 538.13,-177.57 533.66,-182.96"/>
</a>
</g>
</g>
<!-- Node9 -->
<g id="Node000009" class="node">
<title>Node9</title>
<g id="a_Node000009"><a xlink:href="classtop_1_1_t_o_p_t_w_solution.html#a82688039e6f671f6d2f57a1888fe3c21" target="_top" xlink:title="Genera una cadena con información detallada de la solución.">
<polygon fill="white" stroke="#666666" points="462,-70 325.25,-70 325.25,-38 462,-38 462,-70"/>
<text xml:space="preserve" text-anchor="start" x="333.25" y="-56.5" font-family="Helvetica,sans-Serif" font-size="10.00">top.TOPTWSolution.getInfo</text>
<text xml:space="preserve" text-anchor="middle" x="393.62" y="-44.5" font-family="Helvetica,sans-Serif" font-size="10.00">Solution</text>
</a>
</g>
</g>
<!-- Node1&#45;&gt;Node9 -->
<g id="edge9_Node000001_Node000009" class="edge">
<title>Node1&#45;&gt;Node9</title>
<g id="a_edge9_Node000001_Node000009"><a xlink:title=" ">
<path fill="none" stroke="#63b8ff" d="M548.56,-178.37C531.06,-150.39 499.63,-105.98 462,-79 457.54,-75.8 452.62,-72.96 447.53,-70.46"/>
<polygon fill="#63b8ff" stroke="#63b8ff" points="545.37,-179.87 553.57,-186.58 551.35,-176.22 545.37,-179.87"/>
</a>
</g>
</g>
<!-- Node12 -->
<g id="Node000012" class="node">
<title>Node12</title>
<g id="a_Node000012"><a xlink:href="classtop_1_1_t_o_p_t_w.html#a339572ea7e09f0b54ee9221710a41e3d" target="_top" xlink:title="Genera una representación en formato de cadena de la instancia del problema.">
<polygon fill="white" stroke="#666666" points="445.88,-20 341.38,-20 341.38,0 445.88,0 445.88,-20"/>
<text xml:space="preserve" text-anchor="middle" x="393.62" y="-6.5" font-family="Helvetica,sans-Serif" font-size="10.00">top.TOPTW.toString</text>
</a>
</g>
</g>
<!-- Node1&#45;&gt;Node12 -->
<g id="edge12_Node000001_Node000012" class="edge">
<title>Node1&#45;&gt;Node12</title>
<g id="a_edge12_Node000001_Node000012"><a xlink:title=" ">
<path fill="none" stroke="#63b8ff" d="M555.05,-176.77C541.65,-138.09 511.79,-67.64 462,-29 457.3,-25.35 451.92,-22.4 446.31,-20.02"/>
<polygon fill="#63b8ff" stroke="#63b8ff" points="551.73,-177.87 558.21,-186.25 558.37,-175.66 551.73,-177.87"/>
</a>
</g>
</g>
<!-- Node10 -->
<g id="Node000010" class="node">
<title>Node10</title>
<g id="a_Node000010"><a xlink:href="classtop_1_1_t_o_p_t_w_g_r_a_s_p.html#a11242fc809f6a16ff81136c4785fdc3e" target="_top" xlink:title="Ejecuta el algoritmo GRASP durante un número determinado de iteraciones.">
<polygon fill="white" stroke="#666666" points="289.25,-64 148.75,-64 148.75,-44 289.25,-44 289.25,-64"/>
<text xml:space="preserve" text-anchor="middle" x="219" y="-50.5" font-family="Helvetica,sans-Serif" font-size="10.00">top.TOPTWGRASP.GRASP</text>
</a>
</g>
</g>
<!-- Node9&#45;&gt;Node10 -->
<g id="edge10_Node000009_Node000010" class="edge">
<title>Node9&#45;&gt;Node10</title>
<g id="a_edge10_Node000009_Node000010"><a xlink:title=" ">
<path fill="none" stroke="#63b8ff" d="M313.61,-54C305.57,-54 297.45,-54 289.52,-54"/>
<polygon fill="#63b8ff" stroke="#63b8ff" points="313.38,-57.5 323.38,-54 313.38,-50.5 313.38,-57.5"/>
</a>
</g>
</g>
<!-- Node11 -->
<g id="Node000011" class="node">
<title>Node11</title>
<g id="a_Node000011"><a xlink:href="classtop_1_1main_t_o_p_t_w.html#a6b155cf80c78f50335adf5a91762e0eb" target="_top" xlink:title="Método principal que ejecuta el solver TOPTW GRASP.">
<polygon fill="white" stroke="#666666" points="112.75,-64 0,-64 0,-44 112.75,-44 112.75,-64"/>
<text xml:space="preserve" text-anchor="middle" x="56.38" y="-50.5" font-family="Helvetica,sans-Serif" font-size="10.00">top.mainTOPTW.main</text>
</a>
</g>
</g>
<!-- Node10&#45;&gt;Node11 -->
<g id="edge11_Node000010_Node000011" class="edge">
<title>Node10&#45;&gt;Node11</title>
<g id="a_edge11_Node000010_Node000011"><a xlink:title=" ">
<path fill="none" stroke="#63b8ff" d="M137.01,-54C128.88,-54 120.75,-54 112.97,-54"/>
<polygon fill="#63b8ff" stroke="#63b8ff" points="136.97,-57.5 146.97,-54 136.97,-50.5 136.97,-57.5"/>
</a>
</g>
</g>
</g>
</svg>
