<?xml version="1.0" encoding="UTF-8" standalone="no"?>
<!DOCTYPE svg PUBLIC "-//W3C//DTD SVG 1.1//EN"
 "http://www.w3.org/Graphics/SVG/1.1/DTD/svg11.dtd">
<!-- Generated by graphviz version 14.0.1 (20251006.0113)
 -->
<!-- Title: top.TOPTWReader.readProblem Pages: 1 -->
<svg width="508pt" height="432pt"
 viewBox="0.00 0.00 508.00 432.00" xmlns="http://www.w3.org/2000/svg" xmlns:xlink="http://www.w3.org/1999/xlink">
<g id="graph0" class="graph" transform="scale(1 1) rotate(0) translate(4 428)">
<title>top.TOPTWReader.readProblem</title>
<!-- Node1 -->
<g id="Node000001" class="node">
<title>Node1</title>
<g id="a_Node000001"><a xlink:title="Lee una instancia del problema TOPTW desde un archivo.">
<polygon fill="#999999" stroke="#666666" points="157.75,-222 0,-222 0,-202 157.75,-202 157.75,-222"/>
<text xml:space="preserve" text-anchor="middle" x="78.88" y="-208.5" font-family="Helvetica,sans-Serif" font-size="10.00">top.TOPTWReader.readProblem</text>
</a>
</g>
</g>
<!-- Node2 -->
<g id="Node000002" class="node">
<title>Node2</title>
<g id="a_Node000002"><a xlink:href="classtop_1_1_t_o_p_t_w.html#ad541e0a7d1aafc2b061e024c066dd662" target="_top" xlink:title="Calcula y almacena la matriz de distancias euclidianas entre todos los nodos.">
<polygon fill="white" stroke="#666666" points="351.12,-424 202.38,-424 202.38,-392 351.12,-392 351.12,-424"/>
<text xml:space="preserve" text-anchor="start" x="210.38" y="-410.5" font-family="Helvetica,sans-Serif" font-size="10.00">top.TOPTW.calculateDistance</text>
<text xml:space="preserve" text-anchor="middle" x="276.75" y="-398.5" font-family="Helvetica,sans-Serif" font-size="10.00">Matrix</text>
</a>
</g>
</g>
<!-- Node1&#45;&gt;Node2 -->
<g id="edge1_Node000001_Node000002" class="edge">
<title>Node1&#45;&gt;Node2</title>
<g id="a_edge1_Node000001_Node000002"><a xlink:title=" ">
<path fill="none" stroke="#63b8ff" d="M83.76,-222.25C95.52,-251.86 133.65,-338.29 193.75,-383 195.27,-384.13 196.84,-385.21 198.45,-386.24"/>
<polygon fill="#63b8ff" stroke="#63b8ff" points="196.34,-389.07 206.77,-390.89 199.75,-382.96 196.34,-389.07"/>
</a>
</g>
</g>
<!-- Node3 -->
<g id="Node000003" class="node">
<title>Node3</title>
<g id="a_Node000003"><a xlink:href="classtop_1_1_t_o_p_t_w.html#a0d14aca2e33a8fb1eb08013c3d55abfa" target="_top" xlink:title="Obtiene el tiempo de fin de la ventana de tiempo (due time) de un nodo.">
<polygon fill="white" stroke="#666666" points="338.75,-374 214.75,-374 214.75,-354 338.75,-354 338.75,-374"/>
<text xml:space="preserve" text-anchor="middle" x="276.75" y="-360.5" font-family="Helvetica,sans-Serif" font-size="10.00">top.TOPTW.getDueTime</text>
</a>
</g>
</g>
<!-- Node1&#45;&gt;Node3 -->
<g id="edge2_Node000001_Node000003" class="edge">
<title>Node1&#45;&gt;Node3</title>
<g id="a_edge2_Node000001_Node000003"><a xlink:title=" ">
<path fill="none" stroke="#63b8ff" d="M85.5,-222.25C99.9,-247.48 140.73,-312.84 193.75,-345 196.94,-346.93 200.3,-348.67 203.78,-350.23"/>
<polygon fill="#63b8ff" stroke="#63b8ff" points="202.48,-353.48 213.07,-353.85 205.02,-346.96 202.48,-353.48"/>
</a>
</g>
</g>
<!-- Node5 -->
<g id="Node000005" class="node">
<title>Node5</title>
<g id="a_Node000005"><a xlink:href="classtop_1_1_t_o_p_t_w.html#a98907c6bbeba9aba86727ecad5058261" target="_top" xlink:title="Obtiene el número de Puntos de Interés (POIs), sin contar el depósito.">
<polygon fill="white" stroke="#666666" points="330.12,-336 223.38,-336 223.38,-316 330.12,-316 330.12,-336"/>
<text xml:space="preserve" text-anchor="middle" x="276.75" y="-322.5" font-family="Helvetica,sans-Serif" font-size="10.00">top.TOPTW.getPOIs</text>
</a>
</g>
</g>
<!-- Node1&#45;&gt;Node5 -->
<g id="edge4_Node000001_Node000005" class="edge">
<title>Node1&#45;&gt;Node5</title>
<g id="a_edge4_Node000001_Node000005"><a xlink:title=" ">
<path fill="none" stroke="#63b8ff" d="M89.09,-222.41C107.13,-242.11 149.26,-284.87 193.75,-307 199.62,-309.92 205.95,-312.4 212.39,-314.5"/>
<polygon fill="#63b8ff" stroke="#63b8ff" points="211.26,-317.82 221.84,-317.27 213.23,-311.1 211.26,-317.82"/>
</a>
</g>
</g>
<!-- Node6 -->
<g id="Node000006" class="node">
<title>Node6</title>
<g id="a_Node000006"><a xlink:href="classtop_1_1_t_o_p_t_w.html#a0576cf2e4c066aae858a2487ada18785" target="_top" xlink:title="Establece el tiempo de fin de la ventana de tiempo (due time) de un nodo.">
<polygon fill="white" stroke="#666666" points="338.75,-298 214.75,-298 214.75,-278 338.75,-278 338.75,-298"/>
<text xml:space="preserve" text-anchor="middle" x="276.75" y="-284.5" font-family="Helvetica,sans-Serif" font-size="10.00">top.TOPTW.setDueTime</text>
</a>
</g>
</g>
<!-- Node1&#45;&gt;Node6 -->
<g id="edge5_Node000001_Node000006" class="edge">
<title>Node1&#45;&gt;Node6</title>
<g id="a_edge5_Node000001_Node000006"><a xlink:title=" ">
<path fill="none" stroke="#63b8ff" d="M97.44,-222.44C119.32,-235.06 158.18,-256.18 193.75,-269 199.42,-271.04 205.39,-272.92 211.42,-274.64"/>
<polygon fill="#63b8ff" stroke="#63b8ff" points="210.26,-277.95 220.82,-277.15 212.07,-271.18 210.26,-277.95"/>
</a>
</g>
</g>
<!-- Node7 -->
<g id="Node000007" class="node">
<title>Node7</title>
<g id="a_Node000007"><a xlink:href="classtop_1_1_t_o_p_t_w.html#afbe8fd7e4e3b3d702768e01643558ddf" target="_top" xlink:title="Establece el tiempo máximo permitido por ruta.">
<polygon fill="white" stroke="#666666" points="359.75,-260 193.75,-260 193.75,-240 359.75,-240 359.75,-260"/>
<text xml:space="preserve" text-anchor="middle" x="276.75" y="-246.5" font-family="Helvetica,sans-Serif" font-size="10.00">top.TOPTW.setMaxTimePerRoute</text>
</a>
</g>
</g>
<!-- Node1&#45;&gt;Node7 -->
<g id="edge6_Node000001_Node000007" class="edge">
<title>Node1&#45;&gt;Node7</title>
<g id="a_edge6_Node000001_Node000007"><a xlink:title=" ">
<path fill="none" stroke="#63b8ff" d="M133.92,-222.48C157.68,-227.09 185.79,-232.55 210.7,-237.38"/>
<polygon fill="#63b8ff" stroke="#63b8ff" points="209.91,-240.79 220.4,-239.26 211.25,-233.92 209.91,-240.79"/>
</a>
</g>
</g>
<!-- Node8 -->
<g id="Node000008" class="node">
<title>Node8</title>
<g id="a_Node000008"><a xlink:href="classtop_1_1_t_o_p_t_w.html#a97c54405c2ffff1b04371ee42acb1dff" target="_top" xlink:title="Establece el tiempo de inicio de la ventana de tiempo (ready time) de un nodo.">
<polygon fill="white" stroke="#666666" points="344,-222 209.5,-222 209.5,-202 344,-202 344,-222"/>
<text xml:space="preserve" text-anchor="middle" x="276.75" y="-208.5" font-family="Helvetica,sans-Serif" font-size="10.00">top.TOPTW.setReadyTime</text>
</a>
</g>
</g>
<!-- Node1&#45;&gt;Node8 -->
<g id="edge7_Node000001_Node000008" class="edge">
<title>Node1&#45;&gt;Node8</title>
<g id="a_edge7_Node000001_Node000008"><a xlink:title=" ">
<path fill="none" stroke="#63b8ff" d="M158.13,-212C171.24,-212 184.83,-212 197.93,-212"/>
<polygon fill="#63b8ff" stroke="#63b8ff" points="197.77,-215.5 207.77,-212 197.77,-208.5 197.77,-215.5"/>
</a>
</g>
</g>
<!-- Node9 -->
<g id="Node000009" class="node">
<title>Node9</title>
<g id="a_Node000009"><a xlink:href="classtop_1_1_t_o_p_t_w.html#af9ea3e6941f3ebf4c4415a563d824d89" target="_top" xlink:title="Establece la puntuación de un nodo.">
<polygon fill="white" stroke="#666666" points="331.62,-184 221.88,-184 221.88,-164 331.62,-164 331.62,-184"/>
<text xml:space="preserve" text-anchor="middle" x="276.75" y="-170.5" font-family="Helvetica,sans-Serif" font-size="10.00">top.TOPTW.setScore</text>
</a>
</g>
</g>
<!-- Node1&#45;&gt;Node9 -->
<g id="edge8_Node000001_Node000009" class="edge">
<title>Node1&#45;&gt;Node9</title>
<g id="a_edge8_Node000001_Node000009"><a xlink:title=" ">
<path fill="none" stroke="#63b8ff" d="M133.92,-201.52C157.68,-196.91 185.79,-191.45 210.7,-186.62"/>
<polygon fill="#63b8ff" stroke="#63b8ff" points="211.25,-190.08 220.4,-184.74 209.91,-183.21 211.25,-190.08"/>
</a>
</g>
</g>
<!-- Node10 -->
<g id="Node000010" class="node">
<title>Node10</title>
<g id="a_Node000010"><a xlink:href="classtop_1_1_t_o_p_t_w.html#adce95dbc2b525cbbde383e0b950f874e" target="_top" xlink:title="Establece el tiempo de servicio de un nodo.">
<polygon fill="white" stroke="#666666" points="346.25,-146 207.25,-146 207.25,-126 346.25,-126 346.25,-146"/>
<text xml:space="preserve" text-anchor="middle" x="276.75" y="-132.5" font-family="Helvetica,sans-Serif" font-size="10.00">top.TOPTW.setServiceTime</text>
</a>
</g>
</g>
<!-- Node1&#45;&gt;Node10 -->
<g id="edge9_Node000001_Node000010" class="edge">
<title>Node1&#45;&gt;Node10</title>
<g id="a_edge9_Node000001_Node000010"><a xlink:title=" ">
<path fill="none" stroke="#63b8ff" d="M97.44,-201.56C119.32,-188.94 158.18,-167.82 193.75,-155 199.42,-152.96 205.39,-151.08 211.42,-149.36"/>
<polygon fill="#63b8ff" stroke="#63b8ff" points="212.07,-152.82 220.82,-146.85 210.26,-146.05 212.07,-152.82"/>
</a>
</g>
</g>
<!-- Node11 -->
<g id="Node000011" class="node">
<title>Node11</title>
<g id="a_Node000011"><a xlink:href="classtop_1_1_t_o_p_t_w.html#a14a7fc055b07f3fb564666ad4ff12084" target="_top" xlink:title="Establece la coordenada X de un nodo.">
<polygon fill="white" stroke="#666666" points="322.25,-108 231.25,-108 231.25,-88 322.25,-88 322.25,-108"/>
<text xml:space="preserve" text-anchor="middle" x="276.75" y="-94.5" font-family="Helvetica,sans-Serif" font-size="10.00">top.TOPTW.setX</text>
</a>
</g>
</g>
<!-- Node1&#45;&gt;Node11 -->
<g id="edge10_Node000001_Node000011" class="edge">
<title>Node1&#45;&gt;Node11</title>
<g id="a_edge10_Node000001_Node000011"><a xlink:title=" ">
<path fill="none" stroke="#63b8ff" d="M89.09,-201.59C107.13,-181.89 149.26,-139.13 193.75,-117 201.94,-112.93 211.02,-109.71 220.07,-107.18"/>
<polygon fill="#63b8ff" stroke="#63b8ff" points="220.73,-110.62 229.57,-104.78 219.01,-103.83 220.73,-110.62"/>
</a>
</g>
</g>
<!-- Node12 -->
<g id="Node000012" class="node">
<title>Node12</title>
<g id="a_Node000012"><a xlink:href="classtop_1_1_t_o_p_t_w.html#a8318436161579a8b9050a657ca63c5e0" target="_top" xlink:title="Establece la coordenada Y de un nodo.">
<polygon fill="white" stroke="#666666" points="322.25,-70 231.25,-70 231.25,-50 322.25,-50 322.25,-70"/>
<text xml:space="preserve" text-anchor="middle" x="276.75" y="-56.5" font-family="Helvetica,sans-Serif" font-size="10.00">top.TOPTW.setY</text>
</a>
</g>
</g>
<!-- Node1&#45;&gt;Node12 -->
<g id="edge11_Node000001_Node000012" class="edge">
<title>Node1&#45;&gt;Node12</title>
<g id="a_edge11_Node000001_Node000012"><a xlink:title=" ">
<path fill="none" stroke="#63b8ff" d="M85.5,-201.75C99.9,-176.52 140.73,-111.16 193.75,-79 201.66,-74.2 210.66,-70.62 219.74,-67.94"/>
<polygon fill="#63b8ff" stroke="#63b8ff" points="220.51,-71.36 229.32,-65.47 218.77,-64.58 220.51,-71.36"/>
</a>
</g>
</g>
<!-- Node13 -->
<g id="Node000013" class="node">
<title>Node13</title>
<g id="a_Node000013"><a xlink:href="classes_1_1ull_1_1esit_1_1utilities_1_1_exposito_utilities.html#a7ae7bdc68d2eac0de896cbe56878fd64" target="_top" xlink:title="Simplifica una cadena de texto.">
<polygon fill="white" stroke="#666666" points="343.25,-32 210.25,-32 210.25,0 343.25,0 343.25,-32"/>
<text xml:space="preserve" text-anchor="start" x="218.25" y="-18.5" font-family="Helvetica,sans-Serif" font-size="10.00">es.ull.esit.utilities.Exposito</text>
<text xml:space="preserve" text-anchor="middle" x="276.75" y="-6.5" font-family="Helvetica,sans-Serif" font-size="10.00">Utilities.simplifyString</text>
</a>
</g>
</g>
<!-- Node1&#45;&gt;Node13 -->
<g id="edge12_Node000001_Node000013" class="edge">
<title>Node1&#45;&gt;Node13</title>
<g id="a_edge12_Node000001_Node000013"><a xlink:title=" ">
<path fill="none" stroke="#63b8ff" d="M83.76,-201.75C95.52,-172.14 133.65,-85.71 193.75,-41 195.79,-39.48 197.92,-38.06 200.12,-36.72"/>
<polygon fill="#63b8ff" stroke="#63b8ff" points="201.64,-39.88 208.82,-32.09 198.35,-33.7 201.64,-39.88"/>
</a>
</g>
</g>
<!-- Node4 -->
<g id="Node000004" class="node">
<title>Node4</title>
<g id="a_Node000004"><a xlink:href="classtop_1_1_t_o_p_t_w.html#a642e958056dc77c10d72831d633e2f49" target="_top" xlink:title="Comprueba si un índice de nodo corresponde a un depósito.">
<polygon fill="white" stroke="#666666" points="500.25,-374 395.75,-374 395.75,-354 500.25,-354 500.25,-374"/>
<text xml:space="preserve" text-anchor="middle" x="448" y="-360.5" font-family="Helvetica,sans-Serif" font-size="10.00">top.TOPTW.isDepot</text>
</a>
</g>
</g>
<!-- Node3&#45;&gt;Node4 -->
<g id="edge3_Node000003_Node000004" class="edge">
<title>Node3&#45;&gt;Node4</title>
<g id="a_edge3_Node000003_Node000004"><a xlink:title=" ">
<path fill="none" stroke="#63b8ff" d="M338.85,-364C353.64,-364 369.47,-364 384.33,-364"/>
<polygon fill="#63b8ff" stroke="#63b8ff" points="383.96,-367.5 393.96,-364 383.96,-360.5 383.96,-367.5"/>
</a>
</g>
</g>
</g>
</svg>
