<?xml version="1.0" encoding="UTF-8" standalone="no"?>
<!DOCTYPE svg PUBLIC "-//W3C//DTD SVG 1.1//EN"
 "http://www.w3.org/Graphics/SVG/1.1/DTD/svg11.dtd">
<!-- Generated by graphviz version 14.0.1 (20251006.0113)
 -->
<!-- Title: top.TOPTW.toString Pages: 1 -->
<svg width="451pt" height="90pt"
 viewBox="0.00 0.00 451.00 90.00" xmlns="http://www.w3.org/2000/svg" xmlns:xlink="http://www.w3.org/1999/xlink">
<g id="graph0" class="graph" transform="scale(1 1) rotate(0) translate(4 86)">
<title>top.TOPTW.toString</title>
<!-- Node1 -->
<g id="Node000001" class="node">
<title>Node1</title>
<g id="a_Node000001"><a xlink:title="Genera una representación en formato de cadena de la instancia del problema.">
<polygon fill="#999999" stroke="#666666" points="104.5,-51 0,-51 0,-31 104.5,-31 104.5,-51"/>
<text xml:space="preserve" text-anchor="middle" x="52.25" y="-37.5" font-family="Helvetica,sans-Serif" font-size="10.00">top.TOPTW.toString</text>
</a>
</g>
</g>
<!-- Node2 -->
<g id="Node000002" class="node">
<title>Node2</title>
<g id="a_Node000002"><a xlink:href="classes_1_1ull_1_1esit_1_1utilities_1_1_exposito_utilities.html#a1dc633979b918d55db1eb7308f864d6c" target="_top" xlink:title="Formatea una cadena que representa un número.">
<polygon fill="white" stroke="#666666" points="273.5,-57 140.5,-57 140.5,-25 273.5,-25 273.5,-57"/>
<text xml:space="preserve" text-anchor="start" x="148.5" y="-43.5" font-family="Helvetica,sans-Serif" font-size="10.00">es.ull.esit.utilities.Exposito</text>
<text xml:space="preserve" text-anchor="middle" x="207" y="-31.5" font-family="Helvetica,sans-Serif" font-size="10.00">Utilities.getFormat</text>
</a>
</g>
</g>
<!-- Node1&#45;&gt;Node2 -->
<g id="edge1_Node000001_Node000002" class="edge">
<title>Node1&#45;&gt;Node2</title>
<g id="a_edge1_Node000001_Node000002"><a xlink:title=" ">
<path fill="none" stroke="#63b8ff" d="M104.96,-41C112.67,-41 120.75,-41 128.85,-41"/>
<polygon fill="#63b8ff" stroke="#63b8ff" points="128.74,-44.5 138.74,-41 128.74,-37.5 128.74,-44.5"/>
</a>
</g>
</g>
<!-- Node2&#45;&gt;Node2 -->
<g id="edge2_Node000002_Node000002" class="edge">
<title>Node2&#45;&gt;Node2</title>
<g id="a_edge2_Node000002_Node000002"><a xlink:title=" ">
<path fill="none" stroke="#63b8ff" d="M179.37,-57.44C174.22,-66.58 183.42,-75 207,-75 219.89,-75 228.49,-72.48 232.79,-68.71"/>
<polygon fill="#63b8ff" stroke="#63b8ff" points="236.23,-69.37 234.38,-58.94 229.32,-68.24 236.23,-69.37"/>
</a>
</g>
</g>
<!-- Node3 -->
<g id="Node000003" class="node">
<title>Node3</title>
<g id="a_Node000003"><a xlink:href="classes_1_1ull_1_1esit_1_1utilities_1_1_exposito_utilities.html#aea4db414c92e2fc046f76ef43fcf1214" target="_top" xlink:title="Comprueba si una cadena puede ser parseada como un doble.">
<polygon fill="white" stroke="#666666" points="442.5,-82 309.5,-82 309.5,-50 442.5,-50 442.5,-82"/>
<text xml:space="preserve" text-anchor="start" x="317.5" y="-68.5" font-family="Helvetica,sans-Serif" font-size="10.00">es.ull.esit.utilities.Exposito</text>
<text xml:space="preserve" text-anchor="middle" x="376" y="-56.5" font-family="Helvetica,sans-Serif" font-size="10.00">Utilities.isDouble</text>
</a>
</g>
</g>
<!-- Node2&#45;&gt;Node3 -->
<g id="edge3_Node000002_Node000003" class="edge">
<title>Node2&#45;&gt;Node3</title>
<g id="a_edge3_Node000002_Node000003"><a xlink:title=" ">
<path fill="none" stroke="#63b8ff" d="M273.52,-50.81C281.47,-52 289.65,-53.22 297.75,-54.44"/>
<polygon fill="#63b8ff" stroke="#63b8ff" points="297.21,-57.89 307.62,-55.91 298.25,-50.97 297.21,-57.89"/>
</a>
</g>
</g>
<!-- Node4 -->
<g id="Node000004" class="node">
<title>Node4</title>
<g id="a_Node000004"><a xlink:href="classes_1_1ull_1_1esit_1_1utilities_1_1_exposito_utilities.html#a3aa6195e3bb8c5393a84ab3ff7b3f18a" target="_top" xlink:title="Comprueba si una cadena puede ser parseada como un entero.">
<polygon fill="white" stroke="#666666" points="442.5,-32 309.5,-32 309.5,0 442.5,0 442.5,-32"/>
<text xml:space="preserve" text-anchor="start" x="317.5" y="-18.5" font-family="Helvetica,sans-Serif" font-size="10.00">es.ull.esit.utilities.Exposito</text>
<text xml:space="preserve" text-anchor="middle" x="376" y="-6.5" font-family="Helvetica,sans-Serif" font-size="10.00">Utilities.isInteger</text>
</a>
</g>
</g>
<!-- Node2&#45;&gt;Node4 -->
<g id="edge4_Node000002_Node000004" class="edge">
<title>Node2&#45;&gt;Node4</title>
<g id="a_edge4_Node000002_Node000004"><a xlink:title=" ">
<path fill="none" stroke="#63b8ff" d="M273.52,-31.19C281.47,-30 289.65,-28.78 297.75,-27.56"/>
<polygon fill="#63b8ff" stroke="#63b8ff" points="298.25,-31.03 307.62,-26.09 297.21,-24.11 298.25,-31.03"/>
</a>
</g>
</g>
</g>
</svg>
