<?xml version="1.0" encoding="UTF-8" standalone="no"?>
<!DOCTYPE svg PUBLIC "-//W3C//DTD SVG 1.1//EN"
 "http://www.w3.org/Graphics/SVG/1.1/DTD/svg11.dtd">
<!-- Generated by graphviz version 14.0.1 (20251006.0113)
 -->
<!-- Title: es.ull.esit.utilities.PowerSet.PowerSetIterator.next Pages: 1 -->
<svg width="479pt" height="62pt"
 viewBox="0.00 0.00 479.00 62.00" xmlns="http://www.w3.org/2000/svg" xmlns:xlink="http://www.w3.org/1999/xlink">
<g id="graph0" class="graph" transform="scale(1 1) rotate(0) translate(4 58)">
<title>es.ull.esit.utilities.PowerSet.PowerSetIterator.next</title>
<!-- Node1 -->
<g id="Node000001" class="node">
<title>Node1</title>
<g id="a_Node000001"><a xlink:title="Devuelve el siguiente subconjunto en la secuencia.">
<polygon fill="#999999" stroke="#666666" points="129.25,-32 0,-32 0,0 129.25,0 129.25,-32"/>
<text xml:space="preserve" text-anchor="start" x="8" y="-18.5" font-family="Helvetica,sans-Serif" font-size="10.00">es.ull.esit.utilities.Power</text>
<text xml:space="preserve" text-anchor="middle" x="64.62" y="-6.5" font-family="Helvetica,sans-Serif" font-size="10.00">Set.PowerSetIterator.next</text>
</a>
</g>
</g>
<!-- Node2 -->
<g id="Node000002" class="node">
<title>Node2</title>
<g id="a_Node000002"><a xlink:href="classes_1_1ull_1_1esit_1_1utilities_1_1_power_set_1_1_power_set_iterator.html#af7cf9371b132e46892db37df30afe626" target="_top" xlink:title="Comprueba si hay más subconjuntos para generar.">
<polygon fill="white" stroke="#666666" points="312.5,-54 165.25,-54 165.25,-22 312.5,-22 312.5,-54"/>
<text xml:space="preserve" text-anchor="start" x="173.25" y="-40.5" font-family="Helvetica,sans-Serif" font-size="10.00">es.ull.esit.utilities.Power</text>
<text xml:space="preserve" text-anchor="middle" x="238.88" y="-28.5" font-family="Helvetica,sans-Serif" font-size="10.00">Set.PowerSetIterator.hasNext</text>
</a>
</g>
</g>
<!-- Node1&#45;&gt;Node2 -->
<g id="edge1_Node000001_Node000002" class="edge">
<title>Node1&#45;&gt;Node2</title>
<g id="a_edge1_Node000001_Node000002"><a xlink:title=" ">
<path fill="none" stroke="#63b8ff" d="M129.28,-24.13C137.25,-25.15 145.5,-26.2 153.72,-27.25"/>
<polygon fill="#63b8ff" stroke="#63b8ff" points="153.03,-30.69 163.39,-28.49 153.92,-23.75 153.03,-30.69"/>
</a>
</g>
</g>
<!-- Node3 -->
<g id="Node000003" class="node">
<title>Node3</title>
<g id="a_Node000003"><a xlink:href="classes_1_1ull_1_1esit_1_1utilities_1_1_power_set.html#a6b7dcc9f679ec5fd47c9267e00b35750" target="_top" xlink:title="Constructor de la clase PowerSet.">
<polygon fill="white" stroke="#666666" points="471,-32 348.5,-32 348.5,0 471,0 471,-32"/>
<text xml:space="preserve" text-anchor="start" x="356.5" y="-18.5" font-family="Helvetica,sans-Serif" font-size="10.00">es.ull.esit.utilities.Power</text>
<text xml:space="preserve" text-anchor="middle" x="409.75" y="-6.5" font-family="Helvetica,sans-Serif" font-size="10.00">Set.PowerSet</text>
</a>
</g>
</g>
<!-- Node1&#45;&gt;Node3 -->
<g id="edge4_Node000001_Node000003" class="edge">
<title>Node1&#45;&gt;Node3</title>
<g id="a_edge4_Node000001_Node000003"><a xlink:title=" ">
<path fill="none" stroke="#63b8ff" d="M129.66,-13.79C141.49,-13.46 153.74,-13.17 165.25,-13 230.69,-12.01 247.06,-11.98 312.5,-13 320.34,-13.12 328.54,-13.3 336.7,-13.51"/>
<polygon fill="#63b8ff" stroke="#63b8ff" points="336.57,-17.01 346.66,-13.78 336.76,-10.01 336.57,-17.01"/>
</a>
</g>
</g>
<!-- Node2&#45;&gt;Node3 -->
<g id="edge2_Node000002_Node000003" class="edge">
<title>Node2&#45;&gt;Node3</title>
<g id="a_edge2_Node000002_Node000003"><a xlink:title=" ">
<path fill="none" stroke="#63b8ff" d="M312.96,-28.48C320.96,-27.44 329.1,-26.38 337.08,-25.34"/>
<polygon fill="#63b8ff" stroke="#63b8ff" points="337.26,-28.84 346.72,-24.08 336.36,-21.9 337.26,-28.84"/>
</a>
</g>
</g>
<!-- Node3&#45;&gt;Node3 -->
<g id="edge3_Node000003_Node000003" class="edge">
<title>Node3&#45;&gt;Node3</title>
<g id="a_edge3_Node000003_Node000003"><a xlink:title=" ">
<path fill="none" stroke="#63b8ff" d="M379.24,-32.44C373.55,-41.58 383.72,-50 409.75,-50 423.99,-50 433.48,-47.48 438.23,-43.71"/>
<polygon fill="#63b8ff" stroke="#63b8ff" points="441.66,-44.39 439.99,-33.93 434.77,-43.15 441.66,-44.39"/>
</a>
</g>
</g>
</g>
</svg>
