<?xml version="1.0" encoding="UTF-8" standalone="no"?>
<!DOCTYPE svg PUBLIC "-//W3C//DTD SVG 1.1//EN"
 "http://www.w3.org/Graphics/SVG/1.1/DTD/svg11.dtd">
<!-- Generated by graphviz version 14.0.1 (20251006.0113)
 -->
<!-- Title: top.TOPTWGRASP.getMaxScore Pages: 1 -->
<svg width="504pt" height="66pt"
 viewBox="0.00 0.00 504.00 66.00" xmlns="http://www.w3.org/2000/svg" xmlns:xlink="http://www.w3.org/1999/xlink">
<g id="graph0" class="graph" transform="scale(1 1) rotate(0) translate(4 62)">
<title>top.TOPTWGRASP.getMaxScore</title>
<!-- Node1 -->
<g id="Node000001" class="node">
<title>Node1</title>
<g id="a_Node000001"><a xlink:title="Obtiene la máxima puntuación posible entre todos los nodos del problema.">
<polygon fill="#999999" stroke="#666666" points="163,-39 0,-39 0,-19 163,-19 163,-39"/>
<text xml:space="preserve" text-anchor="middle" x="81.5" y="-25.5" font-family="Helvetica,sans-Serif" font-size="10.00">top.TOPTWGRASP.getMaxScore</text>
</a>
</g>
</g>
<!-- Node2 -->
<g id="Node000002" class="node">
<title>Node2</title>
<g id="a_Node000002"><a xlink:href="classtop_1_1_t_o_p_t_w_solution.html#a4ed9a239d683e7770681aba78e8121a3" target="_top" xlink:title="Obtiene la instancia del problema asociada a esta solución.">
<polygon fill="white" stroke="#666666" points="355.25,-58 199,-58 199,-38 355.25,-38 355.25,-58"/>
<text xml:space="preserve" text-anchor="middle" x="277.12" y="-44.5" font-family="Helvetica,sans-Serif" font-size="10.00">top.TOPTWSolution.getProblem</text>
</a>
</g>
</g>
<!-- Node1&#45;&gt;Node2 -->
<g id="edge1_Node000001_Node000002" class="edge">
<title>Node1&#45;&gt;Node2</title>
<g id="a_edge1_Node000001_Node000002"><a xlink:title=" ">
<path fill="none" stroke="#63b8ff" d="M163.49,-36.95C171.29,-37.71 179.23,-38.49 187.1,-39.26"/>
<polygon fill="#63b8ff" stroke="#63b8ff" points="186.76,-42.75 197.05,-40.24 187.44,-35.78 186.76,-42.75"/>
</a>
</g>
</g>
<!-- Node3 -->
<g id="Node000003" class="node">
<title>Node3</title>
<g id="a_Node000003"><a xlink:href="classtop_1_1_t_o_p_t_w.html#ad028d42f72214373efca074483462837" target="_top" xlink:title="Obtiene la puntuación (score) de un nodo.">
<polygon fill="white" stroke="#666666" points="332,-20 222.25,-20 222.25,0 332,0 332,-20"/>
<text xml:space="preserve" text-anchor="middle" x="277.12" y="-6.5" font-family="Helvetica,sans-Serif" font-size="10.00">top.TOPTW.getScore</text>
</a>
</g>
</g>
<!-- Node1&#45;&gt;Node3 -->
<g id="edge2_Node000001_Node000003" class="edge">
<title>Node1&#45;&gt;Node3</title>
<g id="a_edge2_Node000001_Node000003"><a xlink:title=" ">
<path fill="none" stroke="#63b8ff" d="M163.49,-21.05C179.18,-19.51 195.44,-17.92 210.56,-16.43"/>
<polygon fill="#63b8ff" stroke="#63b8ff" points="210.76,-19.93 220.37,-15.47 210.08,-12.96 210.76,-19.93"/>
</a>
</g>
</g>
<!-- Node4 -->
<g id="Node000004" class="node">
<title>Node4</title>
<g id="a_Node000004"><a xlink:href="classtop_1_1_t_o_p_t_w.html#a642e958056dc77c10d72831d633e2f49" target="_top" xlink:title="Comprueba si un índice de nodo corresponde a un depósito.">
<polygon fill="white" stroke="#666666" points="495.75,-20 391.25,-20 391.25,0 495.75,0 495.75,-20"/>
<text xml:space="preserve" text-anchor="middle" x="443.5" y="-6.5" font-family="Helvetica,sans-Serif" font-size="10.00">top.TOPTW.isDepot</text>
</a>
</g>
</g>
<!-- Node3&#45;&gt;Node4 -->
<g id="edge3_Node000003_Node000004" class="edge">
<title>Node3&#45;&gt;Node4</title>
<g id="a_edge3_Node000003_Node000004"><a xlink:title=" ">
<path fill="none" stroke="#63b8ff" d="M332.4,-10C347.53,-10 364.08,-10 379.66,-10"/>
<polygon fill="#63b8ff" stroke="#63b8ff" points="379.28,-13.5 389.28,-10 379.28,-6.5 379.28,-13.5"/>
</a>
</g>
</g>
</g>
</svg>
