<?xml version="1.0" encoding="UTF-8" standalone="no"?>
<!DOCTYPE svg PUBLIC "-//W3C//DTD SVG 1.1//EN"
 "http://www.w3.org/Graphics/SVG/1.1/DTD/svg11.dtd">
<!-- Generated by graphviz version 14.0.1 (20251006.0113)
 -->
<!-- Title: top.TOPTWSolution.getInfoSolution Pages: 1 -->
<svg width="517pt" height="620pt"
 viewBox="0.00 0.00 517.00 620.00" xmlns="http://www.w3.org/2000/svg" xmlns:xlink="http://www.w3.org/1999/xlink">
<g id="graph0" class="graph" transform="scale(1 1) rotate(0) translate(4 616)">
<title>top.TOPTWSolution.getInfoSolution</title>
<!-- Node1 -->
<g id="Node000001" class="node">
<title>Node1</title>
<g id="a_Node000001"><a xlink:title="Genera una cadena con información detallada de la solución.">
<polygon fill="#999999" stroke="#666666" points="136.75,-292 0,-292 0,-260 136.75,-260 136.75,-292"/>
<text xml:space="preserve" text-anchor="start" x="8" y="-278.5" font-family="Helvetica,sans-Serif" font-size="10.00">top.TOPTWSolution.getInfo</text>
<text xml:space="preserve" text-anchor="middle" x="68.38" y="-266.5" font-family="Helvetica,sans-Serif" font-size="10.00">Solution</text>
</a>
</g>
</g>
<!-- Node2 -->
<g id="Node000002" class="node">
<title>Node2</title>
<g id="a_Node000002"><a xlink:href="classtop_1_1_t_o_p_t_w_solution.html#a42484d84c9770ebbb8778fc149abbb58" target="_top" xlink:title="Obtiene el número de rutas que han sido creadas en la solución.">
<polygon fill="white" stroke="#666666" points="333.5,-612 178.75,-612 178.75,-580 333.5,-580 333.5,-612"/>
<text xml:space="preserve" text-anchor="start" x="186.75" y="-598.5" font-family="Helvetica,sans-Serif" font-size="10.00">top.TOPTWSolution.getCreated</text>
<text xml:space="preserve" text-anchor="middle" x="256.12" y="-586.5" font-family="Helvetica,sans-Serif" font-size="10.00">Routes</text>
</a>
</g>
</g>
<!-- Node1&#45;&gt;Node2 -->
<g id="edge1_Node000001_Node000002" class="edge">
<title>Node1&#45;&gt;Node2</title>
<g id="a_edge1_Node000001_Node000002"><a xlink:title=" ">
<path fill="none" stroke="#63b8ff" d="M70.53,-292.22C74.8,-340.49 93.9,-484.85 172.75,-565 175.91,-568.22 179.45,-571.1 183.22,-573.69"/>
<polygon fill="#63b8ff" stroke="#63b8ff" points="181.33,-576.64 191.71,-578.77 184.92,-570.63 181.33,-576.64"/>
</a>
</g>
</g>
<!-- Node4 -->
<g id="Node000004" class="node">
<title>Node4</title>
<g id="a_Node000004"><a xlink:href="classtop_1_1_t_o_p_t_w_solution.html#a822040f322ba94a35ed101f6c53f0b33" target="_top" xlink:title="Obtiene la distancia entre dos nodos consultando el problema asociado.">
<polygon fill="white" stroke="#666666" points="335.75,-556 176.5,-556 176.5,-536 335.75,-536 335.75,-556"/>
<text xml:space="preserve" text-anchor="middle" x="256.12" y="-542.5" font-family="Helvetica,sans-Serif" font-size="10.00">top.TOPTWSolution.getDistance</text>
</a>
</g>
</g>
<!-- Node1&#45;&gt;Node4 -->
<g id="edge3_Node000001_Node000004" class="edge">
<title>Node1&#45;&gt;Node4</title>
<g id="a_edge3_Node000001_Node000004"><a xlink:title=" ">
<path fill="none" stroke="#63b8ff" d="M71.03,-292.48C76.47,-337.52 97.99,-463.6 172.75,-527 173.88,-527.96 175.06,-528.88 176.26,-529.75"/>
<polygon fill="#63b8ff" stroke="#63b8ff" points="174.42,-532.72 184.81,-534.82 177.99,-526.7 174.42,-532.72"/>
</a>
</g>
</g>
<!-- Node6 -->
<g id="Node000006" class="node">
<title>Node6</title>
<g id="a_Node000006"><a xlink:href="classtop_1_1_t_o_p_t_w.html#a0d14aca2e33a8fb1eb08013c3d55abfa" target="_top" xlink:title="Obtiene el tiempo de fin de la ventana de tiempo (due time) de un nodo.">
<polygon fill="white" stroke="#666666" points="318.12,-450 194.12,-450 194.12,-430 318.12,-430 318.12,-450"/>
<text xml:space="preserve" text-anchor="middle" x="256.12" y="-436.5" font-family="Helvetica,sans-Serif" font-size="10.00">top.TOPTW.getDueTime</text>
</a>
</g>
</g>
<!-- Node1&#45;&gt;Node6 -->
<g id="edge6_Node000001_Node000006" class="edge">
<title>Node1&#45;&gt;Node6</title>
<g id="a_edge6_Node000001_Node000006"><a xlink:title=" ">
<path fill="none" stroke="#63b8ff" d="M76.27,-292.47C89.92,-322.95 123.4,-388.02 172.75,-421 176.02,-423.19 179.51,-425.12 183.14,-426.84"/>
<polygon fill="#63b8ff" stroke="#63b8ff" points="181.67,-430.02 192.25,-430.54 184.3,-423.53 181.67,-430.02"/>
</a>
</g>
</g>
<!-- Node8 -->
<g id="Node000008" class="node">
<title>Node8</title>
<g id="a_Node000008"><a xlink:href="classes_1_1ull_1_1esit_1_1utilities_1_1_exposito_utilities.html#a1dc633979b918d55db1eb7308f864d6c" target="_top" xlink:title="Formatea una cadena que representa un número.">
<polygon fill="white" stroke="#666666" points="322.62,-500 189.62,-500 189.62,-468 322.62,-468 322.62,-500"/>
<text xml:space="preserve" text-anchor="start" x="197.62" y="-486.5" font-family="Helvetica,sans-Serif" font-size="10.00">es.ull.esit.utilities.Exposito</text>
<text xml:space="preserve" text-anchor="middle" x="256.12" y="-474.5" font-family="Helvetica,sans-Serif" font-size="10.00">Utilities.getFormat</text>
</a>
</g>
</g>
<!-- Node1&#45;&gt;Node8 -->
<g id="edge8_Node000001_Node000008" class="edge">
<title>Node1&#45;&gt;Node8</title>
<g id="a_edge8_Node000001_Node000008"><a xlink:title=" ">
<path fill="none" stroke="#63b8ff" d="M74.04,-292.42C85.05,-328.2 116.09,-413.59 172.75,-459 174.87,-460.7 177.09,-462.28 179.41,-463.75"/>
<polygon fill="#63b8ff" stroke="#63b8ff" points="177.58,-466.74 188.03,-468.5 180.96,-460.61 177.58,-466.74"/>
</a>
</g>
</g>
<!-- Node11 -->
<g id="Node000011" class="node">
<title>Node11</title>
<g id="a_Node000011"><a xlink:href="classtop_1_1_t_o_p_t_w_solution.html#a0c4692927923549f0e137ea74850a8b6" target="_top" xlink:title="Obtiene el índice del nodo que actúa como depósito para una ruta específica.">
<polygon fill="white" stroke="#666666" points="328.25,-412 184,-412 184,-380 328.25,-380 328.25,-412"/>
<text xml:space="preserve" text-anchor="start" x="192" y="-398.5" font-family="Helvetica,sans-Serif" font-size="10.00">top.TOPTWSolution.getIndex</text>
<text xml:space="preserve" text-anchor="middle" x="256.12" y="-386.5" font-family="Helvetica,sans-Serif" font-size="10.00">Route</text>
</a>
</g>
</g>
<!-- Node1&#45;&gt;Node11 -->
<g id="edge12_Node000001_Node000011" class="edge">
<title>Node1&#45;&gt;Node11</title>
<g id="a_edge12_Node000001_Node000011"><a xlink:title=" ">
<path fill="none" stroke="#63b8ff" d="M82.75,-292.16C101,-313.22 135.71,-349.84 172.75,-371 175.25,-372.43 177.84,-373.78 180.49,-375.06"/>
<polygon fill="#63b8ff" stroke="#63b8ff" points="179.01,-378.24 189.58,-379.06 181.83,-371.83 179.01,-378.24"/>
</a>
</g>
</g>
<!-- Node12 -->
<g id="Node000012" class="node">
<title>Node12</title>
<g id="a_Node000012"><a xlink:href="classtop_1_1_t_o_p_t_w.html#a2880cd94f79a8eeb732e99af69cdbbde" target="_top" xlink:title="Obtiene el número máximo de rutas (vehículos) permitidas.">
<polygon fill="white" stroke="#666666" points="323.38,-362 188.88,-362 188.88,-342 323.38,-342 323.38,-362"/>
<text xml:space="preserve" text-anchor="middle" x="256.12" y="-348.5" font-family="Helvetica,sans-Serif" font-size="10.00">top.TOPTW.getMaxRoutes</text>
</a>
</g>
</g>
<!-- Node1&#45;&gt;Node12 -->
<g id="edge13_Node000001_Node000012" class="edge">
<title>Node1&#45;&gt;Node12</title>
<g id="a_edge13_Node000001_Node000012"><a xlink:title=" ">
<path fill="none" stroke="#63b8ff" d="M94.33,-292.35C114.7,-305.04 144.61,-322.24 172.75,-333 178.01,-335.01 183.55,-336.85 189.16,-338.52"/>
<polygon fill="#63b8ff" stroke="#63b8ff" points="187.96,-341.82 198.53,-341.11 189.83,-335.07 187.96,-341.82"/>
</a>
</g>
</g>
<!-- Node13 -->
<g id="Node000013" class="node">
<title>Node13</title>
<g id="a_Node000013"><a xlink:href="classtop_1_1_t_o_p_t_w.html#a9363c6b94f247ce746510fe1036d143a" target="_top" xlink:title="Obtiene el tiempo máximo permitido por ruta.">
<polygon fill="white" stroke="#666666" points="339.12,-324 173.12,-324 173.12,-304 339.12,-304 339.12,-324"/>
<text xml:space="preserve" text-anchor="middle" x="256.12" y="-310.5" font-family="Helvetica,sans-Serif" font-size="10.00">top.TOPTW.getMaxTimePerRoute</text>
</a>
</g>
</g>
<!-- Node1&#45;&gt;Node13 -->
<g id="edge14_Node000001_Node000013" class="edge">
<title>Node1&#45;&gt;Node13</title>
<g id="a_edge14_Node000001_Node000013"><a xlink:title=" ">
<path fill="none" stroke="#63b8ff" d="M137.22,-289.88C155.42,-293.6 175,-297.61 192.87,-301.26"/>
<polygon fill="#63b8ff" stroke="#63b8ff" points="192.06,-304.67 202.56,-303.25 193.47,-297.81 192.06,-304.67"/>
</a>
</g>
</g>
<!-- Node14 -->
<g id="Node000014" class="node">
<title>Node14</title>
<g id="a_Node000014"><a xlink:href="classtop_1_1_t_o_p_t_w.html#a98907c6bbeba9aba86727ecad5058261" target="_top" xlink:title="Obtiene el número de Puntos de Interés (POIs), sin contar el depósito.">
<polygon fill="white" stroke="#666666" points="309.5,-286 202.75,-286 202.75,-266 309.5,-266 309.5,-286"/>
<text xml:space="preserve" text-anchor="middle" x="256.12" y="-272.5" font-family="Helvetica,sans-Serif" font-size="10.00">top.TOPTW.getPOIs</text>
</a>
</g>
</g>
<!-- Node1&#45;&gt;Node14 -->
<g id="edge15_Node000001_Node000014" class="edge">
<title>Node1&#45;&gt;Node14</title>
<g id="a_edge15_Node000001_Node000014"><a xlink:title=" ">
<path fill="none" stroke="#63b8ff" d="M137.22,-276C154.82,-276 173.71,-276 191.11,-276"/>
<polygon fill="#63b8ff" stroke="#63b8ff" points="190.78,-279.5 200.78,-276 190.78,-272.5 190.78,-279.5"/>
</a>
</g>
</g>
<!-- Node15 -->
<g id="Node000015" class="node">
<title>Node15</title>
<g id="a_Node000015"><a xlink:href="classtop_1_1_t_o_p_t_w_solution.html#a4ed9a239d683e7770681aba78e8121a3" target="_top" xlink:title="Obtiene la instancia del problema asociada a esta solución.">
<polygon fill="white" stroke="#666666" points="334.25,-248 178,-248 178,-228 334.25,-228 334.25,-248"/>
<text xml:space="preserve" text-anchor="middle" x="256.12" y="-234.5" font-family="Helvetica,sans-Serif" font-size="10.00">top.TOPTWSolution.getProblem</text>
</a>
</g>
</g>
<!-- Node1&#45;&gt;Node15 -->
<g id="edge16_Node000001_Node000015" class="edge">
<title>Node1&#45;&gt;Node15</title>
<g id="a_edge16_Node000001_Node000015"><a xlink:title=" ">
<path fill="none" stroke="#63b8ff" d="M137.22,-262.12C155.42,-258.4 175,-254.39 192.87,-250.74"/>
<polygon fill="#63b8ff" stroke="#63b8ff" points="193.47,-254.19 202.56,-248.75 192.06,-247.33 193.47,-254.19"/>
</a>
</g>
</g>
<!-- Node16 -->
<g id="Node000016" class="node">
<title>Node16</title>
<g id="a_Node000016"><a xlink:href="classtop_1_1_t_o_p_t_w.html#a4e74b10708b232a801a4ad147892b70a" target="_top" xlink:title="Obtiene el tiempo de inicio de la ventana de tiempo (ready time) de un nodo.">
<polygon fill="white" stroke="#666666" points="323.38,-210 188.88,-210 188.88,-190 323.38,-190 323.38,-210"/>
<text xml:space="preserve" text-anchor="middle" x="256.12" y="-196.5" font-family="Helvetica,sans-Serif" font-size="10.00">top.TOPTW.getReadyTime</text>
</a>
</g>
</g>
<!-- Node1&#45;&gt;Node16 -->
<g id="edge17_Node000001_Node000016" class="edge">
<title>Node1&#45;&gt;Node16</title>
<g id="a_edge17_Node000001_Node000016"><a xlink:title=" ">
<path fill="none" stroke="#63b8ff" d="M94.33,-259.65C114.7,-246.96 144.61,-229.76 172.75,-219 178.01,-216.99 183.55,-215.15 189.16,-213.48"/>
<polygon fill="#63b8ff" stroke="#63b8ff" points="189.83,-216.93 198.53,-210.89 187.96,-210.18 189.83,-216.93"/>
</a>
</g>
</g>
<!-- Node17 -->
<g id="Node000017" class="node">
<title>Node17</title>
<g id="a_Node000017"><a xlink:href="classtop_1_1_t_o_p_t_w.html#ad028d42f72214373efca074483462837" target="_top" xlink:title="Obtiene la puntuación (score) de un nodo.">
<polygon fill="white" stroke="#666666" points="311,-172 201.25,-172 201.25,-152 311,-152 311,-172"/>
<text xml:space="preserve" text-anchor="middle" x="256.12" y="-158.5" font-family="Helvetica,sans-Serif" font-size="10.00">top.TOPTW.getScore</text>
</a>
</g>
</g>
<!-- Node1&#45;&gt;Node17 -->
<g id="edge19_Node000001_Node000017" class="edge">
<title>Node1&#45;&gt;Node17</title>
<g id="a_edge19_Node000001_Node000017"><a xlink:title=" ">
<path fill="none" stroke="#63b8ff" d="M82.23,-259.83C100.17,-238.4 134.8,-201 172.75,-181 178.19,-178.14 184.05,-175.7 190.05,-173.63"/>
<polygon fill="#63b8ff" stroke="#63b8ff" points="190.97,-177.01 199.5,-170.73 188.92,-170.32 190.97,-177.01"/>
</a>
</g>
</g>
<!-- Node18 -->
<g id="Node000018" class="node">
<title>Node18</title>
<g id="a_Node000018"><a xlink:href="classtop_1_1_t_o_p_t_w.html#a06b2b40d137f16bdda21c734d3ea8ac7" target="_top" xlink:title="Obtiene el tiempo de servicio requerido en un nodo.">
<polygon fill="white" stroke="#666666" points="325.62,-134 186.62,-134 186.62,-114 325.62,-114 325.62,-134"/>
<text xml:space="preserve" text-anchor="middle" x="256.12" y="-120.5" font-family="Helvetica,sans-Serif" font-size="10.00">top.TOPTW.getServiceTime</text>
</a>
</g>
</g>
<!-- Node1&#45;&gt;Node18 -->
<g id="edge21_Node000001_Node000018" class="edge">
<title>Node1&#45;&gt;Node18</title>
<g id="a_edge21_Node000001_Node000018"><a xlink:title=" ">
<path fill="none" stroke="#63b8ff" d="M77.34,-259.55C92.02,-231.07 126.17,-172.75 172.75,-143 175.05,-141.53 177.44,-140.18 179.91,-138.93"/>
<polygon fill="#63b8ff" stroke="#63b8ff" points="181.25,-142.16 189.02,-134.96 178.46,-135.75 181.25,-142.16"/>
</a>
</g>
</g>
<!-- Node19 -->
<g id="Node000019" class="node">
<title>Node19</title>
<g id="a_Node000019"><a xlink:href="classtop_1_1_t_o_p_t_w_solution.html#a559f4d8cc4b93d998243d7479fd6da8d" target="_top" xlink:title="Obtiene el sucesor de un cliente en su ruta.">
<polygon fill="white" stroke="#666666" points="339.5,-96 172.75,-96 172.75,-76 339.5,-76 339.5,-96"/>
<text xml:space="preserve" text-anchor="middle" x="256.12" y="-82.5" font-family="Helvetica,sans-Serif" font-size="10.00">top.TOPTWSolution.getSuccessor</text>
</a>
</g>
</g>
<!-- Node1&#45;&gt;Node19 -->
<g id="edge23_Node000001_Node000019" class="edge">
<title>Node1&#45;&gt;Node19</title>
<g id="a_edge23_Node000001_Node000019"><a xlink:title=" ">
<path fill="none" stroke="#63b8ff" d="M74.41,-259.59C85.86,-225.15 117.26,-145.19 172.75,-105 174.53,-103.71 176.39,-102.5 178.31,-101.38"/>
<polygon fill="#63b8ff" stroke="#63b8ff" points="179.56,-104.66 186.95,-97.07 176.44,-98.4 179.56,-104.66"/>
</a>
</g>
</g>
<!-- Node20 -->
<g id="Node000020" class="node">
<title>Node20</title>
<g id="a_Node000020"><a xlink:href="classtop_1_1_t_o_p_t_w.html#ab17563354a34944d14e4ac57f6613da6" target="_top" xlink:title="Obtiene la coordenada X de un nodo.">
<polygon fill="white" stroke="#666666" points="301.62,-58 210.62,-58 210.62,-38 301.62,-38 301.62,-58"/>
<text xml:space="preserve" text-anchor="middle" x="256.12" y="-44.5" font-family="Helvetica,sans-Serif" font-size="10.00">top.TOPTW.getX</text>
</a>
</g>
</g>
<!-- Node1&#45;&gt;Node20 -->
<g id="edge24_Node000001_Node000020" class="edge">
<title>Node1&#45;&gt;Node20</title>
<g id="a_edge24_Node000001_Node000020"><a xlink:title=" ">
<path fill="none" stroke="#63b8ff" d="M72.48,-259.68C80.92,-220.02 108.13,-118.1 172.75,-67 180.53,-60.85 189.94,-56.62 199.58,-53.73"/>
<polygon fill="#63b8ff" stroke="#63b8ff" points="200.17,-57.19 209.02,-51.37 198.47,-50.4 200.17,-57.19"/>
</a>
</g>
</g>
<!-- Node21 -->
<g id="Node000021" class="node">
<title>Node21</title>
<g id="a_Node000021"><a xlink:href="classtop_1_1_t_o_p_t_w.html#a3a39395dfc3d6360273580f177bede7a" target="_top" xlink:title="Obtiene la coordenada Y de un nodo.">
<polygon fill="white" stroke="#666666" points="301.62,-20 210.62,-20 210.62,0 301.62,0 301.62,-20"/>
<text xml:space="preserve" text-anchor="middle" x="256.12" y="-6.5" font-family="Helvetica,sans-Serif" font-size="10.00">top.TOPTW.getY</text>
</a>
</g>
</g>
<!-- Node1&#45;&gt;Node21 -->
<g id="edge26_Node000001_Node000021" class="edge">
<title>Node1&#45;&gt;Node21</title>
<g id="a_edge26_Node000001_Node000021"><a xlink:title=" ">
<path fill="none" stroke="#63b8ff" d="M71.12,-259.78C76.79,-215.43 98.83,-91.33 172.75,-29 180.33,-22.61 189.65,-18.27 199.26,-15.34"/>
<polygon fill="#63b8ff" stroke="#63b8ff" points="199.84,-18.8 208.69,-12.97 198.14,-12.01 199.84,-18.8"/>
</a>
</g>
</g>
<!-- Node3 -->
<g id="Node000003" class="node">
<title>Node3</title>
<g id="a_Node000003"><a xlink:href="classtop_1_1_t_o_p_t_w.html#abfba541876921de9ec5a63373c056446" target="_top" xlink:title="Obtiene el número de vehículos disponibles.">
<polygon fill="white" stroke="#666666" points="502.5,-609 381.5,-609 381.5,-589 502.5,-589 502.5,-609"/>
<text xml:space="preserve" text-anchor="middle" x="442" y="-595.5" font-family="Helvetica,sans-Serif" font-size="10.00">top.TOPTW.getVehicles</text>
</a>
</g>
</g>
<!-- Node2&#45;&gt;Node3 -->
<g id="edge2_Node000002_Node000003" class="edge">
<title>Node2&#45;&gt;Node3</title>
<g id="a_edge2_Node000002_Node000003"><a xlink:title=" ">
<path fill="none" stroke="#63b8ff" d="M333.77,-597.25C345.8,-597.45 358.18,-597.65 370.06,-597.84"/>
<polygon fill="#63b8ff" stroke="#63b8ff" points="369.71,-601.34 379.77,-598 369.83,-594.34 369.71,-601.34"/>
</a>
</g>
</g>
<!-- Node5 -->
<g id="Node000005" class="node">
<title>Node5</title>
<g id="a_Node000005"><a xlink:href="classtop_1_1_t_o_p_t_w.html#a137f100c5711b4b93cb5ae1711ddaf9a" target="_top" xlink:title="Calcula la distancia total de una ruta representada por un array de enteros.">
<polygon fill="white" stroke="#666666" points="503.62,-553 380.38,-553 380.38,-533 503.62,-533 503.62,-553"/>
<text xml:space="preserve" text-anchor="middle" x="442" y="-539.5" font-family="Helvetica,sans-Serif" font-size="10.00">top.TOPTW.getDistance</text>
</a>
</g>
</g>
<!-- Node4&#45;&gt;Node5 -->
<g id="edge4_Node000004_Node000005" class="edge">
<title>Node4&#45;&gt;Node5</title>
<g id="a_edge4_Node000004_Node000005"><a xlink:title=" ">
<path fill="none" stroke="#63b8ff" d="M336.17,-544.71C346.97,-544.53 358,-544.35 368.67,-544.18"/>
<polygon fill="#63b8ff" stroke="#63b8ff" points="368.61,-547.68 378.55,-544.02 368.5,-540.68 368.61,-547.68"/>
</a>
</g>
</g>
<!-- Node5&#45;&gt;Node5 -->
<g id="edge5_Node000005_Node000005" class="edge">
<title>Node5&#45;&gt;Node5</title>
<g id="a_edge5_Node000005_Node000005"><a xlink:title=" ">
<path fill="none" stroke="#63b8ff" d="M412.47,-553.34C399.85,-561.98 409.69,-571 442,-571 460.17,-571 471.24,-568.14 475.2,-564.11"/>
<polygon fill="#63b8ff" stroke="#63b8ff" points="478.56,-563.11 472.02,-554.77 471.93,-565.37 478.56,-563.11"/>
</a>
</g>
</g>
<!-- Node7 -->
<g id="Node000007" class="node">
<title>Node7</title>
<g id="a_Node000007"><a xlink:href="classtop_1_1_t_o_p_t_w.html#a642e958056dc77c10d72831d633e2f49" target="_top" xlink:title="Comprueba si un índice de nodo corresponde a un depósito.">
<polygon fill="white" stroke="#666666" points="494.25,-153 389.75,-153 389.75,-133 494.25,-133 494.25,-153"/>
<text xml:space="preserve" text-anchor="middle" x="442" y="-139.5" font-family="Helvetica,sans-Serif" font-size="10.00">top.TOPTW.isDepot</text>
</a>
</g>
</g>
<!-- Node6&#45;&gt;Node7 -->
<g id="edge7_Node000006_Node000007" class="edge">
<title>Node6&#45;&gt;Node7</title>
<g id="a_edge7_Node000006_Node000007"><a xlink:title=" ">
<path fill="none" stroke="#63b8ff" d="M318.54,-433.14C326.2,-430.27 333.45,-426.35 339.5,-421 417.93,-351.7 435.81,-216.66 439.84,-164.39"/>
<polygon fill="#63b8ff" stroke="#63b8ff" points="443.31,-164.95 440.48,-154.74 436.33,-164.48 443.31,-164.95"/>
</a>
</g>
</g>
<!-- Node8&#45;&gt;Node8 -->
<g id="edge9_Node000008_Node000008" class="edge">
<title>Node8&#45;&gt;Node8</title>
<g id="a_edge9_Node000008_Node000008"><a xlink:title=" ">
<path fill="none" stroke="#63b8ff" d="M222.94,-500.44C216.75,-509.58 227.81,-518 256.12,-518 271.61,-518 281.94,-515.48 287.1,-511.71"/>
<polygon fill="#63b8ff" stroke="#63b8ff" points="290.53,-512.41 289.02,-501.93 283.66,-511.07 290.53,-512.41"/>
</a>
</g>
</g>
<!-- Node9 -->
<g id="Node000009" class="node">
<title>Node9</title>
<g id="a_Node000009"><a xlink:href="classes_1_1ull_1_1esit_1_1utilities_1_1_exposito_utilities.html#aea4db414c92e2fc046f76ef43fcf1214" target="_top" xlink:title="Comprueba si una cadena puede ser parseada como un doble.">
<polygon fill="white" stroke="#666666" points="508.5,-509 375.5,-509 375.5,-477 508.5,-477 508.5,-509"/>
<text xml:space="preserve" text-anchor="start" x="383.5" y="-495.5" font-family="Helvetica,sans-Serif" font-size="10.00">es.ull.esit.utilities.Exposito</text>
<text xml:space="preserve" text-anchor="middle" x="442" y="-483.5" font-family="Helvetica,sans-Serif" font-size="10.00">Utilities.isDouble</text>
</a>
</g>
</g>
<!-- Node8&#45;&gt;Node9 -->
<g id="edge10_Node000008_Node000009" class="edge">
<title>Node8&#45;&gt;Node9</title>
<g id="a_edge10_Node000008_Node000009"><a xlink:title=" ">
<path fill="none" stroke="#63b8ff" d="M322.99,-487.22C336.27,-487.87 350.35,-488.56 363.97,-489.23"/>
<polygon fill="#63b8ff" stroke="#63b8ff" points="363.62,-492.72 373.78,-489.71 363.96,-485.72 363.62,-492.72"/>
</a>
</g>
</g>
<!-- Node10 -->
<g id="Node000010" class="node">
<title>Node10</title>
<g id="a_Node000010"><a xlink:href="classes_1_1ull_1_1esit_1_1utilities_1_1_exposito_utilities.html#a3aa6195e3bb8c5393a84ab3ff7b3f18a" target="_top" xlink:title="Comprueba si una cadena puede ser parseada como un entero.">
<polygon fill="white" stroke="#666666" points="508.5,-459 375.5,-459 375.5,-427 508.5,-427 508.5,-459"/>
<text xml:space="preserve" text-anchor="start" x="383.5" y="-445.5" font-family="Helvetica,sans-Serif" font-size="10.00">es.ull.esit.utilities.Exposito</text>
<text xml:space="preserve" text-anchor="middle" x="442" y="-433.5" font-family="Helvetica,sans-Serif" font-size="10.00">Utilities.isInteger</text>
</a>
</g>
</g>
<!-- Node8&#45;&gt;Node10 -->
<g id="edge11_Node000008_Node000010" class="edge">
<title>Node8&#45;&gt;Node10</title>
<g id="a_edge11_Node000008_Node000010"><a xlink:title=" ">
<path fill="none" stroke="#63b8ff" d="M322.99,-469.31C336.41,-466.32 350.63,-463.15 364.38,-460.08"/>
<polygon fill="#63b8ff" stroke="#63b8ff" points="364.81,-463.57 373.81,-457.98 363.29,-456.74 364.81,-463.57"/>
</a>
</g>
</g>
<!-- Node16&#45;&gt;Node7 -->
<g id="edge18_Node000016_Node000007" class="edge">
<title>Node16&#45;&gt;Node7</title>
<g id="a_edge18_Node000016_Node000007"><a xlink:title=" ">
<path fill="none" stroke="#63b8ff" d="M307.06,-189.59C317.83,-187.04 329.1,-184.13 339.5,-181 361.74,-174.3 386.14,-165.23 405.44,-157.63"/>
<polygon fill="#63b8ff" stroke="#63b8ff" points="406.47,-160.98 414.47,-154.02 403.88,-154.48 406.47,-160.98"/>
</a>
</g>
</g>
<!-- Node17&#45;&gt;Node7 -->
<g id="edge20_Node000017_Node000007" class="edge">
<title>Node17&#45;&gt;Node7</title>
<g id="a_edge20_Node000017_Node000007"><a xlink:title=" ">
<path fill="none" stroke="#63b8ff" d="M311.3,-156.4C332.22,-154.24 356.3,-151.75 377.99,-149.51"/>
<polygon fill="#63b8ff" stroke="#63b8ff" points="378.33,-152.99 387.92,-148.49 377.61,-146.03 378.33,-152.99"/>
</a>
</g>
</g>
<!-- Node18&#45;&gt;Node7 -->
<g id="edge22_Node000018_Node000007" class="edge">
<title>Node18&#45;&gt;Node7</title>
<g id="a_edge22_Node000018_Node000007"><a xlink:title=" ">
<path fill="none" stroke="#63b8ff" d="M326.12,-131.13C343.17,-132.89 361.35,-134.77 378.1,-136.5"/>
<polygon fill="#63b8ff" stroke="#63b8ff" points="377.63,-139.97 387.93,-137.52 378.35,-133.01 377.63,-139.97"/>
</a>
</g>
</g>
<!-- Node20&#45;&gt;Node7 -->
<g id="edge25_Node000020_Node000007" class="edge">
<title>Node20&#45;&gt;Node7</title>
<g id="a_edge25_Node000020_Node000007"><a xlink:title=" ">
<path fill="none" stroke="#63b8ff" d="M301.86,-54.78C314.39,-57.62 327.79,-61.56 339.5,-67 371.24,-81.74 402.71,-107.48 421.99,-124.88"/>
<polygon fill="#63b8ff" stroke="#63b8ff" points="419.6,-127.43 429.32,-131.64 424.34,-122.28 419.6,-127.43"/>
</a>
</g>
</g>
<!-- Node21&#45;&gt;Node7 -->
<g id="edge27_Node000021_Node000007" class="edge">
<title>Node21&#45;&gt;Node7</title>
<g id="a_edge27_Node000021_Node000007"><a xlink:title=" ">
<path fill="none" stroke="#63b8ff" d="M301.78,-15.11C314.58,-17.92 328.14,-22.27 339.5,-29 379.37,-52.63 412.14,-97.18 428.9,-123.04"/>
<polygon fill="#63b8ff" stroke="#63b8ff" points="425.8,-124.68 434.09,-131.28 431.72,-120.95 425.8,-124.68"/>
</a>
</g>
</g>
</g>
</svg>
