<?xml version="1.0" encoding="UTF-8" standalone="no"?>
<!DOCTYPE svg PUBLIC "-//W3C//DTD SVG 1.1//EN"
 "http://www.w3.org/Graphics/SVG/1.1/DTD/svg11.dtd">
<!-- Generated by graphviz version 14.0.1 (20251006.0113)
 -->
<!-- Title: top.TOPTWSolution.TOPTWSolution Pages: 1 -->
<svg width="343pt" height="66pt"
 viewBox="0.00 0.00 343.00 66.00" xmlns="http://www.w3.org/2000/svg" xmlns:xlink="http://www.w3.org/1999/xlink">
<g id="graph0" class="graph" transform="scale(1 1) rotate(0) translate(4 62)">
<title>top.TOPTWSolution.TOPTWSolution</title>
<!-- Node1 -->
<g id="Node000001" class="node">
<title>Node1</title>
<g id="a_Node000001"><a xlink:title="Constructor de la clase TOPTWSolution.">
<polygon fill="#999999" stroke="#666666" points="178,-39 0,-39 0,-19 178,-19 178,-39"/>
<text xml:space="preserve" text-anchor="middle" x="89" y="-25.5" font-family="Helvetica,sans-Serif" font-size="10.00">top.TOPTWSolution.TOPTWSolution</text>
</a>
</g>
</g>
<!-- Node1&#45;&gt;Node1 -->
<g id="edge3_Node000001_Node000001" class="edge">
<title>Node1&#45;&gt;Node1</title>
<g id="a_edge3_Node000001_Node000001"><a xlink:title=" ">
<path fill="none" stroke="#63b8ff" d="M59.53,-39.34C46.93,-47.98 56.75,-57 89,-57 107.14,-57 118.18,-54.14 122.13,-50.11"/>
<polygon fill="#63b8ff" stroke="#63b8ff" points="125.49,-49.12 118.96,-40.77 118.86,-51.37 125.49,-49.12"/>
</a>
</g>
</g>
<!-- Node2 -->
<g id="Node000002" class="node">
<title>Node2</title>
<g id="a_Node000002"><a xlink:href="classtop_1_1_t_o_p_t_w.html#a98907c6bbeba9aba86727ecad5058261" target="_top" xlink:title="Obtiene el número de Puntos de Interés (POIs), sin contar el depósito.">
<polygon fill="white" stroke="#666666" points="327.88,-58 221.12,-58 221.12,-38 327.88,-38 327.88,-58"/>
<text xml:space="preserve" text-anchor="middle" x="274.5" y="-44.5" font-family="Helvetica,sans-Serif" font-size="10.00">top.TOPTW.getPOIs</text>
</a>
</g>
</g>
<!-- Node1&#45;&gt;Node2 -->
<g id="edge1_Node000001_Node000002" class="edge">
<title>Node1&#45;&gt;Node2</title>
<g id="a_edge1_Node000001_Node000002"><a xlink:title=" ">
<path fill="none" stroke="#63b8ff" d="M178.26,-38.14C188.8,-39.23 199.4,-40.33 209.5,-41.37"/>
<polygon fill="#63b8ff" stroke="#63b8ff" points="208.86,-44.83 219.17,-42.37 209.58,-37.86 208.86,-44.83"/>
</a>
</g>
</g>
<!-- Node3 -->
<g id="Node000003" class="node">
<title>Node3</title>
<g id="a_Node000003"><a xlink:href="classtop_1_1_t_o_p_t_w.html#abfba541876921de9ec5a63373c056446" target="_top" xlink:title="Obtiene el número de vehículos disponibles.">
<polygon fill="white" stroke="#666666" points="335,-20 214,-20 214,0 335,0 335,-20"/>
<text xml:space="preserve" text-anchor="middle" x="274.5" y="-6.5" font-family="Helvetica,sans-Serif" font-size="10.00">top.TOPTW.getVehicles</text>
</a>
</g>
</g>
<!-- Node1&#45;&gt;Node3 -->
<g id="edge2_Node000001_Node000003" class="edge">
<title>Node1&#45;&gt;Node3</title>
<g id="a_edge2_Node000001_Node000003"><a xlink:title=" ">
<path fill="none" stroke="#63b8ff" d="M178.26,-19.86C186.34,-19.02 194.45,-18.18 202.36,-17.37"/>
<polygon fill="#63b8ff" stroke="#63b8ff" points="202.66,-20.85 212.25,-16.34 201.94,-13.89 202.66,-20.85"/>
</a>
</g>
</g>
</g>
</svg>
