<?xml version="1.0" encoding="UTF-8" standalone="no"?>
<!DOCTYPE svg PUBLIC "-//W3C//DTD SVG 1.1//EN"
 "http://www.w3.org/Graphics/SVG/1.1/DTD/svg11.dtd">
<!-- Generated by graphviz version 14.0.1 (20251006.0113)
 -->
<!-- Title: top.TOPTWGRASP.updateSolution Pages: 1 -->
<svg width="548pt" height="362pt"
 viewBox="0.00 0.00 548.00 362.00" xmlns="http://www.w3.org/2000/svg" xmlns:xlink="http://www.w3.org/1999/xlink">
<g id="graph0" class="graph" transform="scale(1 1) rotate(0) translate(4 358)">
<title>top.TOPTWGRASP.updateSolution</title>
<!-- Node1 -->
<g id="Node000001" class="node">
<title>Node1</title>
<g id="a_Node000001"><a xlink:title="Actualiza la solución insertando un candidato seleccionado.">
<polygon fill="#999999" stroke="#666666" points="169.75,-172 0,-172 0,-152 169.75,-152 169.75,-172"/>
<text xml:space="preserve" text-anchor="middle" x="84.88" y="-158.5" font-family="Helvetica,sans-Serif" font-size="10.00">top.TOPTWGRASP.updateSolution</text>
</a>
</g>
</g>
<!-- Node2 -->
<g id="Node000002" class="node">
<title>Node2</title>
<g id="a_Node000002"><a xlink:href="classtop_1_1_t_o_p_t_w_solution.html#a822040f322ba94a35ed101f6c53f0b33" target="_top" xlink:title="Obtiene la distancia entre dos nodos consultando el problema asociado.">
<polygon fill="white" stroke="#666666" points="372.88,-336 213.62,-336 213.62,-316 372.88,-316 372.88,-336"/>
<text xml:space="preserve" text-anchor="middle" x="293.25" y="-322.5" font-family="Helvetica,sans-Serif" font-size="10.00">top.TOPTWSolution.getDistance</text>
</a>
</g>
</g>
<!-- Node1&#45;&gt;Node2 -->
<g id="edge1_Node000001_Node000002" class="edge">
<title>Node1&#45;&gt;Node2</title>
<g id="a_edge1_Node000001_Node000002"><a xlink:title=" ">
<path fill="none" stroke="#63b8ff" d="M91.24,-172.42C105.7,-199.41 148.32,-271.94 205.75,-307 208.22,-308.51 210.79,-309.9 213.44,-311.17"/>
<polygon fill="#63b8ff" stroke="#63b8ff" points="212,-314.36 222.57,-315 214.7,-307.91 212,-314.36"/>
</a>
</g>
</g>
<!-- Node4 -->
<g id="Node000004" class="node">
<title>Node4</title>
<g id="a_Node000004"><a xlink:href="classtop_1_1_t_o_p_t_w_solution.html#a0c4692927923549f0e137ea74850a8b6" target="_top" xlink:title="Obtiene el índice del nodo que actúa como depósito para una ruta específica.">
<polygon fill="white" stroke="#666666" points="365.38,-298 221.12,-298 221.12,-266 365.38,-266 365.38,-298"/>
<text xml:space="preserve" text-anchor="start" x="229.12" y="-284.5" font-family="Helvetica,sans-Serif" font-size="10.00">top.TOPTWSolution.getIndex</text>
<text xml:space="preserve" text-anchor="middle" x="293.25" y="-272.5" font-family="Helvetica,sans-Serif" font-size="10.00">Route</text>
</a>
</g>
</g>
<!-- Node1&#45;&gt;Node4 -->
<g id="edge4_Node000001_Node000004" class="edge">
<title>Node1&#45;&gt;Node4</title>
<g id="a_edge4_Node000001_Node000004"><a xlink:title=" ">
<path fill="none" stroke="#63b8ff" d="M96.11,-172.47C115.66,-191.89 160.43,-233.65 205.75,-257 208.78,-258.56 211.92,-260.04 215.13,-261.43"/>
<polygon fill="#63b8ff" stroke="#63b8ff" points="213.58,-264.58 224.17,-265.05 216.18,-258.08 213.58,-264.58"/>
</a>
</g>
</g>
<!-- Node5 -->
<g id="Node000005" class="node">
<title>Node5</title>
<g id="a_Node000005"><a xlink:href="classtop_1_1_t_o_p_t_w_solution.html#a4ed9a239d683e7770681aba78e8121a3" target="_top" xlink:title="Obtiene la instancia del problema asociada a esta solución.">
<polygon fill="white" stroke="#666666" points="371.38,-248 215.12,-248 215.12,-228 371.38,-228 371.38,-248"/>
<text xml:space="preserve" text-anchor="middle" x="293.25" y="-234.5" font-family="Helvetica,sans-Serif" font-size="10.00">top.TOPTWSolution.getProblem</text>
</a>
</g>
</g>
<!-- Node1&#45;&gt;Node5 -->
<g id="edge5_Node000001_Node000005" class="edge">
<title>Node1&#45;&gt;Node5</title>
<g id="a_edge5_Node000001_Node000005"><a xlink:title=" ">
<path fill="none" stroke="#63b8ff" d="M104.42,-172.46C127.51,-185.09 168.47,-206.23 205.75,-219 211.9,-221.11 218.38,-223.04 224.91,-224.79"/>
<polygon fill="#63b8ff" stroke="#63b8ff" points="223.88,-228.14 234.43,-227.2 225.6,-221.35 223.88,-228.14"/>
</a>
</g>
</g>
<!-- Node6 -->
<g id="Node000006" class="node">
<title>Node6</title>
<g id="a_Node000006"><a xlink:href="classtop_1_1_t_o_p_t_w.html#a4e74b10708b232a801a4ad147892b70a" target="_top" xlink:title="Obtiene el tiempo de inicio de la ventana de tiempo (ready time) de un nodo.">
<polygon fill="white" stroke="#666666" points="360.5,-210 226,-210 226,-190 360.5,-190 360.5,-210"/>
<text xml:space="preserve" text-anchor="middle" x="293.25" y="-196.5" font-family="Helvetica,sans-Serif" font-size="10.00">top.TOPTW.getReadyTime</text>
</a>
</g>
</g>
<!-- Node1&#45;&gt;Node6 -->
<g id="edge6_Node000001_Node000006" class="edge">
<title>Node1&#45;&gt;Node6</title>
<g id="a_edge6_Node000001_Node000006"><a xlink:title=" ">
<path fill="none" stroke="#63b8ff" d="M142.81,-172.48C168.08,-177.14 198,-182.65 224.42,-187.51"/>
<polygon fill="#63b8ff" stroke="#63b8ff" points="223.54,-190.91 234.01,-189.28 224.81,-184.02 223.54,-190.91"/>
</a>
</g>
</g>
<!-- Node8 -->
<g id="Node000008" class="node">
<title>Node8</title>
<g id="a_Node000008"><a xlink:href="classtop_1_1_t_o_p_t_w.html#a06b2b40d137f16bdda21c734d3ea8ac7" target="_top" xlink:title="Obtiene el tiempo de servicio requerido en un nodo.">
<polygon fill="white" stroke="#666666" points="362.75,-172 223.75,-172 223.75,-152 362.75,-152 362.75,-172"/>
<text xml:space="preserve" text-anchor="middle" x="293.25" y="-158.5" font-family="Helvetica,sans-Serif" font-size="10.00">top.TOPTW.getServiceTime</text>
</a>
</g>
</g>
<!-- Node1&#45;&gt;Node8 -->
<g id="edge8_Node000001_Node000008" class="edge">
<title>Node1&#45;&gt;Node8</title>
<g id="a_edge8_Node000001_Node000008"><a xlink:title=" ">
<path fill="none" stroke="#63b8ff" d="M170.11,-162C183.96,-162 198.27,-162 212.02,-162"/>
<polygon fill="#63b8ff" stroke="#63b8ff" points="211.89,-165.5 221.89,-162 211.89,-158.5 211.89,-165.5"/>
</a>
</g>
</g>
<!-- Node9 -->
<g id="Node000009" class="node">
<title>Node9</title>
<g id="a_Node000009"><a xlink:href="classtop_1_1_t_o_p_t_w_solution.html#a559f4d8cc4b93d998243d7479fd6da8d" target="_top" xlink:title="Obtiene el sucesor de un cliente en su ruta.">
<polygon fill="white" stroke="#666666" points="376.62,-134 209.88,-134 209.88,-114 376.62,-114 376.62,-134"/>
<text xml:space="preserve" text-anchor="middle" x="293.25" y="-120.5" font-family="Helvetica,sans-Serif" font-size="10.00">top.TOPTWSolution.getSuccessor</text>
</a>
</g>
</g>
<!-- Node1&#45;&gt;Node9 -->
<g id="edge10_Node000001_Node000009" class="edge">
<title>Node1&#45;&gt;Node9</title>
<g id="a_edge10_Node000001_Node000009"><a xlink:title=" ">
<path fill="none" stroke="#63b8ff" d="M142.81,-151.52C168.08,-146.86 198,-141.35 224.42,-136.49"/>
<polygon fill="#63b8ff" stroke="#63b8ff" points="224.81,-139.98 234.01,-134.72 223.54,-133.09 224.81,-139.98"/>
</a>
</g>
</g>
<!-- Node10 -->
<g id="Node000010" class="node">
<title>Node10</title>
<g id="a_Node000010"><a xlink:href="classtop_1_1_t_o_p_t_w_solution.html#a56640aeccb436bb9dbb33381c274443f" target="_top" xlink:title="Comprueba si un nodo es un depósito.">
<polygon fill="white" stroke="#666666" points="363.5,-96 223,-96 223,-76 363.5,-76 363.5,-96"/>
<text xml:space="preserve" text-anchor="middle" x="293.25" y="-82.5" font-family="Helvetica,sans-Serif" font-size="10.00">top.TOPTWSolution.isDepot</text>
</a>
</g>
</g>
<!-- Node1&#45;&gt;Node10 -->
<g id="edge11_Node000001_Node000010" class="edge">
<title>Node1&#45;&gt;Node10</title>
<g id="a_edge11_Node000001_Node000010"><a xlink:title=" ">
<path fill="none" stroke="#63b8ff" d="M104.42,-151.54C127.51,-138.91 168.47,-117.77 205.75,-105 211.9,-102.89 218.38,-100.96 224.91,-99.21"/>
<polygon fill="#63b8ff" stroke="#63b8ff" points="225.6,-102.65 234.43,-96.8 223.88,-95.86 225.6,-102.65"/>
</a>
</g>
</g>
<!-- Node11 -->
<g id="Node000011" class="node">
<title>Node11</title>
<g id="a_Node000011"><a xlink:href="classtop_1_1_t_o_p_t_w_solution.html#a77bd60e16c5a4672e71d5f525cbe5e25" target="_top" xlink:title="Establece el predecesor de un nodo.">
<polygon fill="white" stroke="#666666" points="380.75,-58 205.75,-58 205.75,-38 380.75,-38 380.75,-58"/>
<text xml:space="preserve" text-anchor="middle" x="293.25" y="-44.5" font-family="Helvetica,sans-Serif" font-size="10.00">top.TOPTWSolution.setPredecessor</text>
</a>
</g>
</g>
<!-- Node1&#45;&gt;Node11 -->
<g id="edge12_Node000001_Node000011" class="edge">
<title>Node1&#45;&gt;Node11</title>
<g id="a_edge12_Node000001_Node000011"><a xlink:title=" ">
<path fill="none" stroke="#63b8ff" d="M95.67,-151.56C114.83,-131.81 159.45,-88.98 205.75,-67 209.7,-65.13 213.84,-63.43 218.08,-61.9"/>
<polygon fill="#63b8ff" stroke="#63b8ff" points="218.9,-65.32 227.33,-58.9 216.73,-58.66 218.9,-65.32"/>
</a>
</g>
</g>
<!-- Node12 -->
<g id="Node000012" class="node">
<title>Node12</title>
<g id="a_Node000012"><a xlink:href="classtop_1_1_t_o_p_t_w_solution.html#a2b1fb005fd139112ce576687b1dd7c34" target="_top" xlink:title="Establece el sucesor de un nodo.">
<polygon fill="white" stroke="#666666" points="376.62,-20 209.88,-20 209.88,0 376.62,0 376.62,-20"/>
<text xml:space="preserve" text-anchor="middle" x="293.25" y="-6.5" font-family="Helvetica,sans-Serif" font-size="10.00">top.TOPTWSolution.setSuccessor</text>
</a>
</g>
</g>
<!-- Node1&#45;&gt;Node12 -->
<g id="edge13_Node000001_Node000012" class="edge">
<title>Node1&#45;&gt;Node12</title>
<g id="a_edge13_Node000001_Node000012"><a xlink:title=" ">
<path fill="none" stroke="#63b8ff" d="M91.92,-151.71C107.36,-126.41 150.93,-60.88 205.75,-29 208.55,-27.37 211.48,-25.88 214.5,-24.52"/>
<polygon fill="#63b8ff" stroke="#63b8ff" points="215.6,-27.84 223.61,-20.91 213.02,-21.33 215.6,-27.84"/>
</a>
</g>
</g>
<!-- Node3 -->
<g id="Node000003" class="node">
<title>Node3</title>
<g id="a_Node000003"><a xlink:href="classtop_1_1_t_o_p_t_w.html#a137f100c5711b4b93cb5ae1711ddaf9a" target="_top" xlink:title="Calcula la distancia total de una ruta representada por un array de enteros.">
<polygon fill="white" stroke="#666666" points="540,-336 416.75,-336 416.75,-316 540,-316 540,-336"/>
<text xml:space="preserve" text-anchor="middle" x="478.38" y="-322.5" font-family="Helvetica,sans-Serif" font-size="10.00">top.TOPTW.getDistance</text>
</a>
</g>
</g>
<!-- Node2&#45;&gt;Node3 -->
<g id="edge2_Node000002_Node000003" class="edge">
<title>Node2&#45;&gt;Node3</title>
<g id="a_edge2_Node000002_Node000003"><a xlink:title=" ">
<path fill="none" stroke="#63b8ff" d="M373.24,-326C383.83,-326 394.65,-326 405.12,-326"/>
<polygon fill="#63b8ff" stroke="#63b8ff" points="404.8,-329.5 414.8,-326 404.8,-322.5 404.8,-329.5"/>
</a>
</g>
</g>
<!-- Node3&#45;&gt;Node3 -->
<g id="edge3_Node000003_Node000003" class="edge">
<title>Node3&#45;&gt;Node3</title>
<g id="a_edge3_Node000003_Node000003"><a xlink:title=" ">
<path fill="none" stroke="#63b8ff" d="M448.96,-336.34C436.39,-344.98 446.2,-354 478.38,-354 496.48,-354 507.5,-351.14 511.44,-347.11"/>
<polygon fill="#63b8ff" stroke="#63b8ff" points="514.8,-346.12 508.28,-337.77 508.17,-348.37 514.8,-346.12"/>
</a>
</g>
</g>
<!-- Node7 -->
<g id="Node000007" class="node">
<title>Node7</title>
<g id="a_Node000007"><a xlink:href="classtop_1_1_t_o_p_t_w.html#a642e958056dc77c10d72831d633e2f49" target="_top" xlink:title="Comprueba si un índice de nodo corresponde a un depósito.">
<polygon fill="white" stroke="#666666" points="530.62,-191 426.12,-191 426.12,-171 530.62,-171 530.62,-191"/>
<text xml:space="preserve" text-anchor="middle" x="478.38" y="-177.5" font-family="Helvetica,sans-Serif" font-size="10.00">top.TOPTW.isDepot</text>
</a>
</g>
</g>
<!-- Node6&#45;&gt;Node7 -->
<g id="edge7_Node000006_Node000007" class="edge">
<title>Node6&#45;&gt;Node7</title>
<g id="a_edge7_Node000006_Node000007"><a xlink:title=" ">
<path fill="none" stroke="#63b8ff" d="M360.88,-193.09C378.41,-191.27 397.27,-189.31 414.59,-187.51"/>
<polygon fill="#63b8ff" stroke="#63b8ff" points="414.63,-191.03 424.22,-186.52 413.91,-184.07 414.63,-191.03"/>
</a>
</g>
</g>
<!-- Node8&#45;&gt;Node7 -->
<g id="edge9_Node000008_Node000007" class="edge">
<title>Node8&#45;&gt;Node7</title>
<g id="a_edge9_Node000008_Node000007"><a xlink:title=" ">
<path fill="none" stroke="#63b8ff" d="M363.22,-169.16C380.11,-170.91 398.09,-172.77 414.66,-174.49"/>
<polygon fill="#63b8ff" stroke="#63b8ff" points="414.07,-177.95 424.38,-175.5 414.79,-170.99 414.07,-177.95"/>
</a>
</g>
</g>
</g>
</svg>
