<?xml version="1.0" encoding="UTF-8" standalone="no"?>
<!DOCTYPE svg PUBLIC "-//W3C//DTD SVG 1.1//EN"
 "http://www.w3.org/Graphics/SVG/1.1/DTD/svg11.dtd">
<!-- Generated by graphviz version 14.0.1 (20251006.0113)
 -->
<!-- Title: top.TOPTWSolution.getDistance Pages: 1 -->
<svg width="327pt" height="46pt"
 viewBox="0.00 0.00 327.00 46.00" xmlns="http://www.w3.org/2000/svg" xmlns:xlink="http://www.w3.org/1999/xlink">
<g id="graph0" class="graph" transform="scale(1 1) rotate(0) translate(4 42)">
<title>top.TOPTWSolution.getDistance</title>
<!-- Node1 -->
<g id="Node000001" class="node">
<title>Node1</title>
<g id="a_Node000001"><a xlink:title="Obtiene la distancia entre dos nodos consultando el problema asociado.">
<polygon fill="#999999" stroke="#666666" points="159.25,-20 0,-20 0,0 159.25,0 159.25,-20"/>
<text xml:space="preserve" text-anchor="middle" x="79.62" y="-6.5" font-family="Helvetica,sans-Serif" font-size="10.00">top.TOPTWSolution.getDistance</text>
</a>
</g>
</g>
<!-- Node2 -->
<g id="Node000002" class="node">
<title>Node2</title>
<g id="a_Node000002"><a xlink:href="classtop_1_1_t_o_p_t_w.html#a137f100c5711b4b93cb5ae1711ddaf9a" target="_top" xlink:title="Calcula la distancia total de una ruta representada por un array de enteros.">
<polygon fill="white" stroke="#666666" points="318.5,-20 195.25,-20 195.25,0 318.5,0 318.5,-20"/>
<text xml:space="preserve" text-anchor="middle" x="256.88" y="-6.5" font-family="Helvetica,sans-Serif" font-size="10.00">top.TOPTW.getDistance</text>
</a>
</g>
</g>
<!-- Node1&#45;&gt;Node2 -->
<g id="edge1_Node000001_Node000002" class="edge">
<title>Node1&#45;&gt;Node2</title>
<g id="a_edge1_Node000001_Node000002"><a xlink:title=" ">
<path fill="none" stroke="#63b8ff" d="M159.53,-10C167.53,-10 175.63,-10 183.55,-10"/>
<polygon fill="#63b8ff" stroke="#63b8ff" points="183.49,-13.5 193.49,-10 183.49,-6.5 183.49,-13.5"/>
</a>
</g>
</g>
<!-- Node2&#45;&gt;Node2 -->
<g id="edge2_Node000002_Node000002" class="edge">
<title>Node2&#45;&gt;Node2</title>
<g id="a_edge2_Node000002_Node000002"><a xlink:title=" ">
<path fill="none" stroke="#63b8ff" d="M228.71,-20.34C216.68,-28.98 226.06,-38 256.88,-38 274.21,-38 284.76,-35.14 288.53,-31.11"/>
<polygon fill="#63b8ff" stroke="#63b8ff" points="291.92,-30.21 285.51,-21.78 285.26,-32.37 291.92,-30.21"/>
</a>
</g>
</g>
</g>
</svg>
