<?xml version="1.0" encoding="UTF-8" standalone="no"?>
<!DOCTYPE svg PUBLIC "-//W3C//DTD SVG 1.1//EN"
 "http://www.w3.org/Graphics/SVG/1.1/DTD/svg11.dtd">
<!-- Generated by graphviz version 14.0.1 (20251006.0113)
 -->
<!-- Title: top.TOPTWSolution.getSuccessor Pages: 1 -->
<svg width="918pt" height="210pt"
 viewBox="0.00 0.00 918.00 210.00" xmlns="http://www.w3.org/2000/svg" xmlns:xlink="http://www.w3.org/1999/xlink">
<g id="graph0" class="graph" transform="scale(1 1) rotate(0) translate(4 206)">
<title>top.TOPTWSolution.getSuccessor</title>
<!-- Node1 -->
<g id="Node000001" class="node">
<title>Node1</title>
<g id="a_Node000001"><a xlink:title="Obtiene el sucesor de un cliente en su ruta.">
<polygon fill="#999999" stroke="#666666" points="909.5,-108 742.75,-108 742.75,-88 909.5,-88 909.5,-108"/>
<text xml:space="preserve" text-anchor="middle" x="826.12" y="-94.5" font-family="Helvetica,sans-Serif" font-size="10.00">top.TOPTWSolution.getSuccessor</text>
</a>
</g>
</g>
<!-- Node2 -->
<g id="Node000002" class="node">
<title>Node2</title>
<g id="a_Node000002"><a xlink:href="classtop_1_1_t_o_p_t_w_g_r_a_s_p.html#ae706fe2d8478acf0a026bb40e8fc9df7" target="_top" xlink:title="Evalúa de forma exhaustiva todos los posibles movimientos de inserción para los clientes disponibles.">
<polygon fill="white" stroke="#666666" points="706.75,-202 535.5,-202 535.5,-170 706.75,-170 706.75,-202"/>
<text xml:space="preserve" text-anchor="start" x="543.5" y="-188.5" font-family="Helvetica,sans-Serif" font-size="10.00">top.TOPTWGRASP.comprehensive</text>
<text xml:space="preserve" text-anchor="middle" x="621.12" y="-176.5" font-family="Helvetica,sans-Serif" font-size="10.00">Evaluation</text>
</a>
</g>
</g>
<!-- Node1&#45;&gt;Node2 -->
<g id="edge1_Node000001_Node000002" class="edge">
<title>Node1&#45;&gt;Node2</title>
<g id="a_edge1_Node000001_Node000002"><a xlink:title=" ">
<path fill="none" stroke="#63b8ff" d="M798.81,-113.99C775.3,-127.79 739.6,-147.57 706.75,-161 699.23,-164.07 691.2,-166.95 683.19,-169.57"/>
<polygon fill="#63b8ff" stroke="#63b8ff" points="800.29,-117.19 807.1,-109.07 796.71,-111.17 800.29,-117.19"/>
</a>
</g>
</g>
<!-- Node6 -->
<g id="Node000006" class="node">
<title>Node6</title>
<g id="a_Node000006"><a xlink:href="classtop_1_1_t_o_p_t_w_solution.html#a07ec0a724167095ad061040e11136a19" target="_top" xlink:title="Evalúa la función objetivo de la solución (puntuación total).">
<polygon fill="white" stroke="#666666" points="692.88,-114 549.38,-114 549.38,-82 692.88,-82 692.88,-114"/>
<text xml:space="preserve" text-anchor="start" x="557.38" y="-100.5" font-family="Helvetica,sans-Serif" font-size="10.00">top.TOPTWSolution.evaluate</text>
<text xml:space="preserve" text-anchor="middle" x="621.12" y="-88.5" font-family="Helvetica,sans-Serif" font-size="10.00">Fitness</text>
</a>
</g>
</g>
<!-- Node1&#45;&gt;Node6 -->
<g id="edge5_Node000001_Node000006" class="edge">
<title>Node1&#45;&gt;Node6</title>
<g id="a_edge5_Node000001_Node000006"><a xlink:title=" ">
<path fill="none" stroke="#63b8ff" d="M730.77,-98C718.18,-98 705.45,-98 693.35,-98"/>
<polygon fill="#63b8ff" stroke="#63b8ff" points="730.75,-101.5 740.75,-98 730.75,-94.5 730.75,-101.5"/>
</a>
</g>
</g>
<!-- Node7 -->
<g id="Node000007" class="node">
<title>Node7</title>
<g id="a_Node000007"><a xlink:href="classtop_1_1_t_o_p_t_w_solution.html#a5df1eb3b6f4bc1265f12ffc201d86b0d" target="_top" xlink:title="Imprime la solución en la consola y devuelve la puntuación.">
<polygon fill="white" stroke="#666666" points="492.75,-70 332,-70 332,-50 492.75,-50 492.75,-70"/>
<text xml:space="preserve" text-anchor="middle" x="412.38" y="-56.5" font-family="Helvetica,sans-Serif" font-size="10.00">top.TOPTWSolution.printSolution</text>
</a>
</g>
</g>
<!-- Node1&#45;&gt;Node7 -->
<g id="edge10_Node000001_Node000007" class="edge">
<title>Node1&#45;&gt;Node7</title>
<g id="a_edge10_Node000001_Node000007"><a xlink:title=" ">
<path fill="none" stroke="#63b8ff" d="M772.77,-85.02C752.3,-80.45 728.55,-75.77 706.75,-73 634.8,-63.87 552.23,-60.87 493.05,-60.01"/>
<polygon fill="#63b8ff" stroke="#63b8ff" points="771.77,-88.38 782.3,-87.19 773.33,-81.55 771.77,-88.38"/>
</a>
</g>
</g>
<!-- Node8 -->
<g id="Node000008" class="node">
<title>Node8</title>
<g id="a_Node000008"><a xlink:href="classtop_1_1_t_o_p_t_w_solution.html#a82688039e6f671f6d2f57a1888fe3c21" target="_top" xlink:title="Genera una cadena con información detallada de la solución.">
<polygon fill="white" stroke="#666666" points="480.75,-32 344,-32 344,0 480.75,0 480.75,-32"/>
<text xml:space="preserve" text-anchor="start" x="352" y="-18.5" font-family="Helvetica,sans-Serif" font-size="10.00">top.TOPTWSolution.getInfo</text>
<text xml:space="preserve" text-anchor="middle" x="412.38" y="-6.5" font-family="Helvetica,sans-Serif" font-size="10.00">Solution</text>
</a>
</g>
</g>
<!-- Node1&#45;&gt;Node8 -->
<g id="edge8_Node000001_Node000008" class="edge">
<title>Node1&#45;&gt;Node8</title>
<g id="a_edge8_Node000001_Node000008"><a xlink:title=" ">
<path fill="none" stroke="#63b8ff" d="M788.99,-83.43C765.82,-74.6 734.92,-63.78 706.75,-57 630.5,-38.65 540.99,-27.61 481.07,-21.69"/>
<polygon fill="#63b8ff" stroke="#63b8ff" points="787.69,-86.68 798.28,-87.03 790.22,-80.15 787.69,-86.68"/>
</a>
</g>
</g>
<!-- Node9 -->
<g id="Node000009" class="node">
<title>Node9</title>
<g id="a_Node000009"><a xlink:href="classtop_1_1_t_o_p_t_w_g_r_a_s_p.html#adaccdd26e4ad89ffb3e86c780dcd90d7" target="_top" xlink:title="Actualiza la solución insertando un candidato seleccionado.">
<polygon fill="white" stroke="#666666" points="706,-152 536.25,-152 536.25,-132 706,-132 706,-152"/>
<text xml:space="preserve" text-anchor="middle" x="621.12" y="-138.5" font-family="Helvetica,sans-Serif" font-size="10.00">top.TOPTWGRASP.updateSolution</text>
</a>
</g>
</g>
<!-- Node1&#45;&gt;Node9 -->
<g id="edge11_Node000001_Node000009" class="edge">
<title>Node1&#45;&gt;Node9</title>
<g id="a_edge11_Node000001_Node000009"><a xlink:title=" ">
<path fill="none" stroke="#63b8ff" d="M765.89,-110.84C735.55,-117.41 699.09,-125.32 670.47,-131.52"/>
<polygon fill="#63b8ff" stroke="#63b8ff" points="766.25,-114.34 775.28,-108.8 764.77,-107.5 766.25,-114.34"/>
</a>
</g>
</g>
<!-- Node3 -->
<g id="Node000003" class="node">
<title>Node3</title>
<g id="a_Node000003"><a xlink:href="classtop_1_1_t_o_p_t_w_g_r_a_s_p.html#ade97c51a7d20660d7d306b756b4a6302" target="_top" xlink:title="Construye una solución greedy aleatorizada.">
<polygon fill="white" stroke="#666666" points="499.5,-158 325.25,-158 325.25,-126 499.5,-126 499.5,-158"/>
<text xml:space="preserve" text-anchor="start" x="333.25" y="-144.5" font-family="Helvetica,sans-Serif" font-size="10.00">top.TOPTWGRASP.computeGreedy</text>
<text xml:space="preserve" text-anchor="middle" x="412.38" y="-132.5" font-family="Helvetica,sans-Serif" font-size="10.00">Solution</text>
</a>
</g>
</g>
<!-- Node2&#45;&gt;Node3 -->
<g id="edge2_Node000002_Node000003" class="edge">
<title>Node2&#45;&gt;Node3</title>
<g id="a_edge2_Node000002_Node000003"><a xlink:title=" ">
<path fill="none" stroke="#63b8ff" d="M531.99,-167.24C518.33,-164.34 504.31,-161.35 490.91,-158.5"/>
<polygon fill="#63b8ff" stroke="#63b8ff" points="530.86,-170.58 541.36,-169.24 532.31,-163.73 530.86,-170.58"/>
</a>
</g>
</g>
<!-- Node4 -->
<g id="Node000004" class="node">
<title>Node4</title>
<g id="a_Node000004"><a xlink:href="classtop_1_1_t_o_p_t_w_g_r_a_s_p.html#a11242fc809f6a16ff81136c4785fdc3e" target="_top" xlink:title="Ejecuta el algoritmo GRASP durante un número determinado de iteraciones.">
<polygon fill="white" stroke="#666666" points="289.25,-108 148.75,-108 148.75,-88 289.25,-88 289.25,-108"/>
<text xml:space="preserve" text-anchor="middle" x="219" y="-94.5" font-family="Helvetica,sans-Serif" font-size="10.00">top.TOPTWGRASP.GRASP</text>
</a>
</g>
</g>
<!-- Node3&#45;&gt;Node4 -->
<g id="edge3_Node000003_Node000004" class="edge">
<title>Node3&#45;&gt;Node4</title>
<g id="a_edge3_Node000003_Node000004"><a xlink:title=" ">
<path fill="none" stroke="#63b8ff" d="M328.65,-122.98C307.04,-118.01 284.54,-112.84 265.65,-108.5"/>
<polygon fill="#63b8ff" stroke="#63b8ff" points="327.84,-126.38 338.37,-125.21 329.41,-119.56 327.84,-126.38"/>
</a>
</g>
</g>
<!-- Node5 -->
<g id="Node000005" class="node">
<title>Node5</title>
<g id="a_Node000005"><a xlink:href="classtop_1_1main_t_o_p_t_w.html#a6b155cf80c78f50335adf5a91762e0eb" target="_top" xlink:title="Método principal que ejecuta el solver TOPTW GRASP.">
<polygon fill="white" stroke="#666666" points="112.75,-108 0,-108 0,-88 112.75,-88 112.75,-108"/>
<text xml:space="preserve" text-anchor="middle" x="56.38" y="-94.5" font-family="Helvetica,sans-Serif" font-size="10.00">top.mainTOPTW.main</text>
</a>
</g>
</g>
<!-- Node4&#45;&gt;Node5 -->
<g id="edge4_Node000004_Node000005" class="edge">
<title>Node4&#45;&gt;Node5</title>
<g id="a_edge4_Node000004_Node000005"><a xlink:title=" ">
<path fill="none" stroke="#63b8ff" d="M137.01,-98C128.88,-98 120.75,-98 112.97,-98"/>
<polygon fill="#63b8ff" stroke="#63b8ff" points="136.97,-101.5 146.97,-98 136.97,-94.5 136.97,-101.5"/>
</a>
</g>
</g>
<!-- Node6&#45;&gt;Node4 -->
<g id="edge6_Node000006_Node000004" class="edge">
<title>Node6&#45;&gt;Node4</title>
<g id="a_edge6_Node000006_Node000004"><a xlink:title=" ">
<path fill="none" stroke="#63b8ff" d="M537.6,-98C464.43,-98 358.77,-98 289.74,-98"/>
<polygon fill="#63b8ff" stroke="#63b8ff" points="537.54,-101.5 547.54,-98 537.54,-94.5 537.54,-101.5"/>
</a>
</g>
</g>
<!-- Node6&#45;&gt;Node7 -->
<g id="edge7_Node000006_Node000007" class="edge">
<title>Node6&#45;&gt;Node7</title>
<g id="a_edge7_Node000006_Node000007"><a xlink:title=" ">
<path fill="none" stroke="#63b8ff" d="M537.67,-82.84C515.08,-78.69 491.11,-74.29 470.31,-70.46"/>
<polygon fill="#63b8ff" stroke="#63b8ff" points="537.02,-86.28 547.48,-84.65 538.28,-79.4 537.02,-86.28"/>
</a>
</g>
</g>
<!-- Node8&#45;&gt;Node4 -->
<g id="edge9_Node000008_Node000004" class="edge">
<title>Node8&#45;&gt;Node4</title>
<g id="a_edge9_Node000008_Node000004"><a xlink:title=" ">
<path fill="none" stroke="#63b8ff" d="M337.91,-36.16C333.59,-37.7 329.35,-39.32 325.25,-41 292.57,-54.41 256.88,-75.15 236.59,-87.56"/>
<polygon fill="#63b8ff" stroke="#63b8ff" points="338.97,-39.5 347.3,-32.96 336.71,-32.87 338.97,-39.5"/>
</a>
</g>
</g>
<!-- Node9&#45;&gt;Node3 -->
<g id="edge12_Node000009_Node000003" class="edge">
<title>Node9&#45;&gt;Node3</title>
<g id="a_edge12_Node000009_Node000003"><a xlink:title=" ">
<path fill="none" stroke="#63b8ff" d="M524.73,-142C516.4,-142 508,-142 499.75,-142"/>
<polygon fill="#63b8ff" stroke="#63b8ff" points="524.52,-145.5 534.52,-142 524.52,-138.5 524.52,-145.5"/>
</a>
</g>
</g>
</g>
</svg>
