<?xml version="1.0" encoding="UTF-8" standalone="no"?>
<!DOCTYPE svg PUBLIC "-//W3C//DTD SVG 1.1//EN"
 "http://www.w3.org/Graphics/SVG/1.1/DTD/svg11.dtd">
<!-- Generated by graphviz version 14.0.1 (20251006.0113)
 -->
<!-- Title: top.TOPTW.setReadyTime Pages: 1 -->
<svg width="485pt" height="28pt"
 viewBox="0.00 0.00 485.00 28.00" xmlns="http://www.w3.org/2000/svg" xmlns:xlink="http://www.w3.org/1999/xlink">
<g id="graph0" class="graph" transform="scale(1 1) rotate(0) translate(4 24)">
<title>top.TOPTW.setReadyTime</title>
<!-- Node1 -->
<g id="Node000001" class="node">
<title>Node1</title>
<g id="a_Node000001"><a xlink:title="Establece el tiempo de inicio de la ventana de tiempo (ready time) de un nodo.">
<polygon fill="#999999" stroke="#666666" points="477,-20 342.5,-20 342.5,0 477,0 477,-20"/>
<text xml:space="preserve" text-anchor="middle" x="409.75" y="-6.5" font-family="Helvetica,sans-Serif" font-size="10.00">top.TOPTW.setReadyTime</text>
</a>
</g>
</g>
<!-- Node2 -->
<g id="Node000002" class="node">
<title>Node2</title>
<g id="a_Node000002"><a xlink:href="classtop_1_1_t_o_p_t_w_reader.html#abad17029fc8928818483c5053dde0fa2" target="_top" xlink:title="Lee una instancia del problema TOPTW desde un archivo.">
<polygon fill="white" stroke="#666666" points="306.5,-20 148.75,-20 148.75,0 306.5,0 306.5,-20"/>
<text xml:space="preserve" text-anchor="middle" x="227.62" y="-6.5" font-family="Helvetica,sans-Serif" font-size="10.00">top.TOPTWReader.readProblem</text>
</a>
</g>
</g>
<!-- Node1&#45;&gt;Node2 -->
<g id="edge1_Node000001_Node000002" class="edge">
<title>Node1&#45;&gt;Node2</title>
<g id="a_edge1_Node000001_Node000002"><a xlink:title=" ">
<path fill="none" stroke="#63b8ff" d="M330.7,-10C322.77,-10 314.72,-10 306.79,-10"/>
<polygon fill="#63b8ff" stroke="#63b8ff" points="330.68,-13.5 340.68,-10 330.68,-6.5 330.68,-13.5"/>
</a>
</g>
</g>
<!-- Node3 -->
<g id="Node000003" class="node">
<title>Node3</title>
<g id="a_Node000003"><a xlink:href="classtop_1_1main_t_o_p_t_w.html#a6b155cf80c78f50335adf5a91762e0eb" target="_top" xlink:title="Método principal que ejecuta el solver TOPTW GRASP.">
<polygon fill="white" stroke="#666666" points="112.75,-20 0,-20 0,0 112.75,0 112.75,-20"/>
<text xml:space="preserve" text-anchor="middle" x="56.38" y="-6.5" font-family="Helvetica,sans-Serif" font-size="10.00">top.mainTOPTW.main</text>
</a>
</g>
</g>
<!-- Node2&#45;&gt;Node3 -->
<g id="edge2_Node000002_Node000003" class="edge">
<title>Node2&#45;&gt;Node3</title>
<g id="a_edge2_Node000002_Node000003"><a xlink:title=" ">
<path fill="none" stroke="#63b8ff" d="M136.93,-10C128.8,-10 120.73,-10 113.03,-10"/>
<polygon fill="#63b8ff" stroke="#63b8ff" points="136.93,-13.5 146.93,-10 136.93,-6.5 136.93,-13.5"/>
</a>
</g>
</g>
</g>
</svg>
