<?xml version="1.0" encoding="UTF-8" standalone="no"?>
<!DOCTYPE svg PUBLIC "-//W3C//DTD SVG 1.1//EN"
 "http://www.w3.org/Graphics/SVG/1.1/DTD/svg11.dtd">
<!-- Generated by graphviz version 14.0.1 (20251006.0113)
 -->
<!-- Title: top.TOPTW.getVehicles Pages: 1 -->
<svg width="1086pt" height="371pt"
 viewBox="0.00 0.00 1086.00 371.00" xmlns="http://www.w3.org/2000/svg" xmlns:xlink="http://www.w3.org/1999/xlink">
<g id="graph0" class="graph" transform="scale(1 1) rotate(0) translate(4 367)">
<title>top.TOPTW.getVehicles</title>
<!-- Node1 -->
<g id="Node000001" class="node">
<title>Node1</title>
<g id="a_Node000001"><a xlink:title="Obtiene el número de vehículos disponibles.">
<polygon fill="#999999" stroke="#666666" points="1077.75,-124 956.75,-124 956.75,-104 1077.75,-104 1077.75,-124"/>
<text xml:space="preserve" text-anchor="middle" x="1017.25" y="-110.5" font-family="Helvetica,sans-Serif" font-size="10.00">top.TOPTW.getVehicles</text>
</a>
</g>
</g>
<!-- Node2 -->
<g id="Node000002" class="node">
<title>Node2</title>
<g id="a_Node000002"><a xlink:href="classtop_1_1_t_o_p_t_w_g_r_a_s_p.html#ade97c51a7d20660d7d306b756b4a6302" target="_top" xlink:title="Construye una solución greedy aleatorizada.">
<polygon fill="white" stroke="#666666" points="499.5,-187 325.25,-187 325.25,-155 499.5,-155 499.5,-187"/>
<text xml:space="preserve" text-anchor="start" x="333.25" y="-173.5" font-family="Helvetica,sans-Serif" font-size="10.00">top.TOPTWGRASP.computeGreedy</text>
<text xml:space="preserve" text-anchor="middle" x="412.38" y="-161.5" font-family="Helvetica,sans-Serif" font-size="10.00">Solution</text>
</a>
</g>
</g>
<!-- Node1&#45;&gt;Node2 -->
<g id="edge1_Node000001_Node000002" class="edge">
<title>Node1&#45;&gt;Node2</title>
<g id="a_edge1_Node000001_Node000002"><a xlink:title=" ">
<path fill="none" stroke="#63b8ff" d="M945.12,-120.72C834.08,-131.22 619.86,-151.48 499.99,-162.81"/>
<polygon fill="#63b8ff" stroke="#63b8ff" points="945.38,-124.22 955.01,-119.79 944.73,-117.25 945.38,-124.22"/>
</a>
</g>
</g>
<!-- Node5 -->
<g id="Node000005" class="node">
<title>Node5</title>
<g id="a_Node000005"><a xlink:href="classtop_1_1_t_o_p_t_w_solution.html#a42484d84c9770ebbb8778fc149abbb58" target="_top" xlink:title="Obtiene el número de rutas que han sido creadas en la solución.">
<polygon fill="white" stroke="#666666" points="909.12,-256 754.38,-256 754.38,-224 909.12,-224 909.12,-256"/>
<text xml:space="preserve" text-anchor="start" x="762.38" y="-242.5" font-family="Helvetica,sans-Serif" font-size="10.00">top.TOPTWSolution.getCreated</text>
<text xml:space="preserve" text-anchor="middle" x="831.75" y="-230.5" font-family="Helvetica,sans-Serif" font-size="10.00">Routes</text>
</a>
</g>
</g>
<!-- Node1&#45;&gt;Node5 -->
<g id="edge4_Node000001_Node000005" class="edge">
<title>Node1&#45;&gt;Node5</title>
<g id="a_edge4_Node000001_Node000005"><a xlink:title=" ">
<path fill="none" stroke="#63b8ff" d="M992.13,-130.56C956.85,-154.79 891.58,-199.6 856.51,-223.69"/>
<polygon fill="#63b8ff" stroke="#63b8ff" points="993.72,-133.71 999.99,-125.17 989.76,-127.94 993.72,-133.71"/>
</a>
</g>
</g>
<!-- Node10 -->
<g id="Node000010" class="node">
<title>Node10</title>
<g id="a_Node000010"><a xlink:href="classtop_1_1_t_o_p_t_w_solution.html#ae2cebb1c58169b05b0dcccd65eabc654" target="_top" xlink:title="Inicializa o resetea la solución a un estado básico.">
<polygon fill="white" stroke="#666666" points="698.5,-105 543.75,-105 543.75,-85 698.5,-85 698.5,-105"/>
<text xml:space="preserve" text-anchor="middle" x="621.12" y="-91.5" font-family="Helvetica,sans-Serif" font-size="10.00">top.TOPTWSolution.initSolution</text>
</a>
</g>
</g>
<!-- Node1&#45;&gt;Node10 -->
<g id="edge14_Node000001_Node000010" class="edge">
<title>Node1&#45;&gt;Node10</title>
<g id="a_edge14_Node000001_Node000010"><a xlink:title=" ">
<path fill="none" stroke="#63b8ff" d="M945.13,-110.57C875.63,-107.22 770.16,-102.14 698.82,-98.7"/>
<polygon fill="#63b8ff" stroke="#63b8ff" points="944.72,-114.06 954.88,-111.04 945.06,-107.06 944.72,-114.06"/>
</a>
</g>
</g>
<!-- Node11 -->
<g id="Node000011" class="node">
<title>Node11</title>
<g id="a_Node000011"><a xlink:href="classtop_1_1_t_o_p_t_w_solution.html#a45192e5d12a12ec58030397041b4a369" target="_top" xlink:title="Constructor de la clase TOPTWSolution.">
<polygon fill="white" stroke="#666666" points="920.75,-49 742.75,-49 742.75,-29 920.75,-29 920.75,-49"/>
<text xml:space="preserve" text-anchor="middle" x="831.75" y="-35.5" font-family="Helvetica,sans-Serif" font-size="10.00">top.TOPTWSolution.TOPTWSolution</text>
</a>
</g>
</g>
<!-- Node1&#45;&gt;Node11 -->
<g id="edge16_Node000001_Node000011" class="edge">
<title>Node1&#45;&gt;Node11</title>
<g id="a_edge16_Node000001_Node000011"><a xlink:title=" ">
<path fill="none" stroke="#63b8ff" d="M980.22,-99.28C944.31,-84.6 890.06,-62.42 858.34,-49.46"/>
<polygon fill="#63b8ff" stroke="#63b8ff" points="978.75,-102.46 989.33,-103 981.4,-95.98 978.75,-102.46"/>
</a>
</g>
</g>
<!-- Node3 -->
<g id="Node000003" class="node">
<title>Node3</title>
<g id="a_Node000003"><a xlink:href="classtop_1_1_t_o_p_t_w_g_r_a_s_p.html#a11242fc809f6a16ff81136c4785fdc3e" target="_top" xlink:title="Ejecuta el algoritmo GRASP durante un número determinado de iteraciones.">
<polygon fill="white" stroke="#666666" points="289.25,-275 148.75,-275 148.75,-255 289.25,-255 289.25,-275"/>
<text xml:space="preserve" text-anchor="middle" x="219" y="-261.5" font-family="Helvetica,sans-Serif" font-size="10.00">top.TOPTWGRASP.GRASP</text>
</a>
</g>
</g>
<!-- Node2&#45;&gt;Node3 -->
<g id="edge2_Node000002_Node000003" class="edge">
<title>Node2&#45;&gt;Node3</title>
<g id="a_edge2_Node000002_Node000003"><a xlink:title=" ">
<path fill="none" stroke="#63b8ff" d="M367.87,-192.37C328.28,-211.82 271.51,-239.7 241.12,-254.63"/>
<polygon fill="#63b8ff" stroke="#63b8ff" points="369.25,-195.59 376.68,-188.04 366.16,-189.31 369.25,-195.59"/>
</a>
</g>
</g>
<!-- Node4 -->
<g id="Node000004" class="node">
<title>Node4</title>
<g id="a_Node000004"><a xlink:href="classtop_1_1main_t_o_p_t_w.html#a6b155cf80c78f50335adf5a91762e0eb" target="_top" xlink:title="Método principal que ejecuta el solver TOPTW GRASP.">
<polygon fill="white" stroke="#666666" points="112.75,-275 0,-275 0,-255 112.75,-255 112.75,-275"/>
<text xml:space="preserve" text-anchor="middle" x="56.38" y="-261.5" font-family="Helvetica,sans-Serif" font-size="10.00">top.mainTOPTW.main</text>
</a>
</g>
</g>
<!-- Node3&#45;&gt;Node4 -->
<g id="edge3_Node000003_Node000004" class="edge">
<title>Node3&#45;&gt;Node4</title>
<g id="a_edge3_Node000003_Node000004"><a xlink:title=" ">
<path fill="none" stroke="#63b8ff" d="M137.01,-265C128.88,-265 120.75,-265 112.97,-265"/>
<polygon fill="#63b8ff" stroke="#63b8ff" points="136.97,-268.5 146.97,-265 136.97,-261.5 136.97,-268.5"/>
</a>
</g>
</g>
<!-- Node5&#45;&gt;Node2 -->
<g id="edge7_Node000005_Node000002" class="edge">
<title>Node5&#45;&gt;Node2</title>
<g id="a_edge7_Node000005_Node000002"><a xlink:title=" ">
<path fill="none" stroke="#63b8ff" d="M787.99,-218.82C764.58,-208.24 734.72,-196.37 706.75,-190 638.32,-174.41 558.77,-170.09 499.78,-169.42"/>
<polygon fill="#63b8ff" stroke="#63b8ff" points="786.34,-221.91 796.88,-222.93 789.27,-215.56 786.34,-221.91"/>
</a>
</g>
</g>
<!-- Node6 -->
<g id="Node000006" class="node">
<title>Node6</title>
<g id="a_Node000006"><a xlink:href="classtop_1_1_t_o_p_t_w_g_r_a_s_p.html#ae706fe2d8478acf0a026bb40e8fc9df7" target="_top" xlink:title="Evalúa de forma exhaustiva todos los posibles movimientos de inserción para los clientes disponibles.">
<polygon fill="white" stroke="#666666" points="706.75,-231 535.5,-231 535.5,-199 706.75,-199 706.75,-231"/>
<text xml:space="preserve" text-anchor="start" x="543.5" y="-217.5" font-family="Helvetica,sans-Serif" font-size="10.00">top.TOPTWGRASP.comprehensive</text>
<text xml:space="preserve" text-anchor="middle" x="621.12" y="-205.5" font-family="Helvetica,sans-Serif" font-size="10.00">Evaluation</text>
</a>
</g>
</g>
<!-- Node5&#45;&gt;Node6 -->
<g id="edge5_Node000005_Node000006" class="edge">
<title>Node5&#45;&gt;Node6</title>
<g id="a_edge5_Node000005_Node000006"><a xlink:title=" ">
<path fill="none" stroke="#63b8ff" d="M742.77,-229.46C730.99,-228.05 718.92,-226.6 707.2,-225.19"/>
<polygon fill="#63b8ff" stroke="#63b8ff" points="742.11,-232.9 752.45,-230.62 742.94,-225.95 742.11,-232.9"/>
</a>
</g>
</g>
<!-- Node7 -->
<g id="Node000007" class="node">
<title>Node7</title>
<g id="a_Node000007"><a xlink:href="classtop_1_1_t_o_p_t_w_solution.html#a07ec0a724167095ad061040e11136a19" target="_top" xlink:title="Evalúa la función objetivo de la solución (puntuación total).">
<polygon fill="white" stroke="#666666" points="692.88,-281 549.38,-281 549.38,-249 692.88,-249 692.88,-281"/>
<text xml:space="preserve" text-anchor="start" x="557.38" y="-267.5" font-family="Helvetica,sans-Serif" font-size="10.00">top.TOPTWSolution.evaluate</text>
<text xml:space="preserve" text-anchor="middle" x="621.12" y="-255.5" font-family="Helvetica,sans-Serif" font-size="10.00">Fitness</text>
</a>
</g>
</g>
<!-- Node5&#45;&gt;Node7 -->
<g id="edge8_Node000005_Node000007" class="edge">
<title>Node5&#45;&gt;Node7</title>
<g id="a_edge8_Node000005_Node000007"><a xlink:title=" ">
<path fill="none" stroke="#63b8ff" d="M742.65,-250.56C726.16,-252.53 709.12,-254.58 693.22,-256.48"/>
<polygon fill="#63b8ff" stroke="#63b8ff" points="742.94,-254.05 752.45,-249.38 742.11,-247.1 742.94,-254.05"/>
</a>
</g>
</g>
<!-- Node8 -->
<g id="Node000008" class="node">
<title>Node8</title>
<g id="a_Node000008"><a xlink:href="classtop_1_1_t_o_p_t_w_solution.html#a5df1eb3b6f4bc1265f12ffc201d86b0d" target="_top" xlink:title="Imprime la solución en la consola y devuelve la puntuación.">
<polygon fill="white" stroke="#666666" points="492.75,-313 332,-313 332,-293 492.75,-293 492.75,-313"/>
<text xml:space="preserve" text-anchor="middle" x="412.38" y="-299.5" font-family="Helvetica,sans-Serif" font-size="10.00">top.TOPTWSolution.printSolution</text>
</a>
</g>
</g>
<!-- Node5&#45;&gt;Node8 -->
<g id="edge13_Node000005_Node000008" class="edge">
<title>Node5&#45;&gt;Node8</title>
<g id="a_edge13_Node000005_Node000008"><a xlink:title=" ">
<path fill="none" stroke="#63b8ff" d="M788.53,-261.19C765.06,-271.89 734.98,-283.87 706.75,-290 635.63,-305.44 552.6,-307.7 493.06,-306.68"/>
<polygon fill="#63b8ff" stroke="#63b8ff" points="789.86,-264.43 797.44,-257.03 786.9,-258.08 789.86,-264.43"/>
</a>
</g>
</g>
<!-- Node9 -->
<g id="Node000009" class="node">
<title>Node9</title>
<g id="a_Node000009"><a xlink:href="classtop_1_1_t_o_p_t_w_solution.html#a82688039e6f671f6d2f57a1888fe3c21" target="_top" xlink:title="Genera una cadena con información detallada de la solución.">
<polygon fill="white" stroke="#666666" points="480.75,-363 344,-363 344,-331 480.75,-331 480.75,-363"/>
<text xml:space="preserve" text-anchor="start" x="352" y="-349.5" font-family="Helvetica,sans-Serif" font-size="10.00">top.TOPTWSolution.getInfo</text>
<text xml:space="preserve" text-anchor="middle" x="412.38" y="-337.5" font-family="Helvetica,sans-Serif" font-size="10.00">Solution</text>
</a>
</g>
</g>
<!-- Node5&#45;&gt;Node9 -->
<g id="edge11_Node000005_Node000009" class="edge">
<title>Node5&#45;&gt;Node9</title>
<g id="a_edge11_Node000005_Node000009"><a xlink:title=" ">
<path fill="none" stroke="#63b8ff" d="M799.91,-262.71C775.8,-279.24 740.78,-300.63 706.75,-312 632.19,-336.91 541.77,-344.54 481.19,-346.65"/>
<polygon fill="#63b8ff" stroke="#63b8ff" points="801.79,-265.67 807.98,-257.07 797.78,-259.93 801.79,-265.67"/>
</a>
</g>
</g>
<!-- Node6&#45;&gt;Node2 -->
<g id="edge6_Node000006_Node000002" class="edge">
<title>Node6&#45;&gt;Node2</title>
<g id="a_edge6_Node000006_Node000002"><a xlink:title=" ">
<path fill="none" stroke="#63b8ff" d="M531.99,-196.24C518.33,-193.34 504.31,-190.35 490.91,-187.5"/>
<polygon fill="#63b8ff" stroke="#63b8ff" points="530.86,-199.58 541.36,-198.24 532.31,-192.73 530.86,-199.58"/>
</a>
</g>
</g>
<!-- Node7&#45;&gt;Node3 -->
<g id="edge9_Node000007_Node000003" class="edge">
<title>Node7&#45;&gt;Node3</title>
<g id="a_edge9_Node000007_Node000003"><a xlink:title=" ">
<path fill="none" stroke="#63b8ff" d="M537.6,-265C464.43,-265 358.77,-265 289.74,-265"/>
<polygon fill="#63b8ff" stroke="#63b8ff" points="537.54,-268.5 547.54,-265 537.54,-261.5 537.54,-268.5"/>
</a>
</g>
</g>
<!-- Node7&#45;&gt;Node8 -->
<g id="edge10_Node000007_Node000008" class="edge">
<title>Node7&#45;&gt;Node8</title>
<g id="a_edge10_Node000007_Node000008"><a xlink:title=" ">
<path fill="none" stroke="#63b8ff" d="M537.67,-280.16C515.08,-284.31 491.11,-288.71 470.31,-292.54"/>
<polygon fill="#63b8ff" stroke="#63b8ff" points="538.28,-283.6 547.48,-278.35 537.02,-276.72 538.28,-283.6"/>
</a>
</g>
</g>
<!-- Node9&#45;&gt;Node3 -->
<g id="edge12_Node000009_Node000003" class="edge">
<title>Node9&#45;&gt;Node3</title>
<g id="a_edge12_Node000009_Node000003"><a xlink:title=" ">
<path fill="none" stroke="#63b8ff" d="M337.91,-326.84C333.59,-325.3 329.35,-323.68 325.25,-322 292.57,-308.59 256.88,-287.85 236.59,-275.44"/>
<polygon fill="#63b8ff" stroke="#63b8ff" points="336.71,-330.13 347.3,-330.04 338.97,-323.5 336.71,-330.13"/>
</a>
</g>
</g>
<!-- Node10&#45;&gt;Node2 -->
<g id="edge15_Node000010_Node000002" class="edge">
<title>Node10&#45;&gt;Node2</title>
<g id="a_edge15_Node000010_Node000002"><a xlink:title=" ">
<path fill="none" stroke="#63b8ff" d="M568.56,-108.5C557.57,-111.69 546.08,-115.26 535.5,-119 505.73,-129.51 472.85,-143.67 448.71,-154.55"/>
<polygon fill="#63b8ff" stroke="#63b8ff" points="569.21,-111.96 577.88,-105.86 567.3,-105.22 569.21,-111.96"/>
</a>
</g>
</g>
<!-- Node11&#45;&gt;Node10 -->
<g id="edge19_Node000011_Node000010" class="edge">
<title>Node11&#45;&gt;Node10</title>
<g id="a_edge19_Node000011_Node000010"><a xlink:title=" ">
<path fill="none" stroke="#63b8ff" d="M781.03,-52.35C744.27,-62.21 694.92,-75.46 661.02,-84.56"/>
<polygon fill="#63b8ff" stroke="#63b8ff" points="781.79,-55.77 790.54,-49.79 779.97,-49.01 781.79,-55.77"/>
</a>
</g>
</g>
<!-- Node11&#45;&gt;Node11 -->
<g id="edge20_Node000011_Node000011" class="edge">
<title>Node11&#45;&gt;Node11</title>
<g id="a_edge20_Node000011_Node000011"><a xlink:title=" ">
<path fill="none" stroke="#63b8ff" d="M864.88,-60.11C860.93,-64.14 849.89,-67 831.75,-67 799.5,-67 789.68,-57.98 802.28,-49.34"/>
<polygon fill="#63b8ff" stroke="#63b8ff" points="868.24,-59.12 861.71,-50.77 861.61,-61.37 868.24,-59.12"/>
</a>
</g>
</g>
<!-- Node12 -->
<g id="Node000012" class="node">
<title>Node12</title>
<g id="a_Node000012"><a xlink:href="classtop_1_1_t_o_p_t_w_solution.html#a07a1d5a4428fa39c60fc25b993d571c0" target="_top" xlink:title="Compara si dos soluciones son iguales basándose en sus arrays de predecesores.">
<polygon fill="white" stroke="#666666" points="688.75,-20 553.5,-20 553.5,0 688.75,0 688.75,-20"/>
<text xml:space="preserve" text-anchor="middle" x="621.12" y="-6.5" font-family="Helvetica,sans-Serif" font-size="10.00">top.TOPTWSolution.equals</text>
</a>
</g>
</g>
<!-- Node11&#45;&gt;Node12 -->
<g id="edge17_Node000011_Node000012" class="edge">
<title>Node11&#45;&gt;Node12</title>
<g id="a_edge17_Node000011_Node000012"><a xlink:title=" ">
<path fill="none" stroke="#63b8ff" d="M744.1,-26.95C725.7,-24.4 706.56,-21.74 689.03,-19.3"/>
<polygon fill="#63b8ff" stroke="#63b8ff" points="743.55,-30.41 753.93,-28.32 744.51,-23.48 743.55,-30.41"/>
</a>
</g>
</g>
<!-- Node13 -->
<g id="Node000013" class="node">
<title>Node13</title>
<g id="a_Node000013"><a xlink:href="classtop_1_1_t_o_p_t_w_solution.html#a05b3fa5facafa4a4defb17ef0c280e52" target="_top" xlink:title="Compara si dos soluciones son iguales basándose en sus arrays de predecesores.">
<polygon fill="white" stroke="#666666" points="688.75,-58 553.5,-58 553.5,-38 688.75,-38 688.75,-58"/>
<text xml:space="preserve" text-anchor="middle" x="621.12" y="-44.5" font-family="Helvetica,sans-Serif" font-size="10.00">top.TOPTWSolution.equals</text>
</a>
</g>
</g>
<!-- Node11&#45;&gt;Node13 -->
<g id="edge18_Node000011_Node000013" class="edge">
<title>Node11&#45;&gt;Node13</title>
<g id="a_edge18_Node000011_Node000013"><a xlink:title=" ">
<path fill="none" stroke="#63b8ff" d="M730.97,-43.3C716.81,-43.92 702.54,-44.53 689.21,-45.11"/>
<polygon fill="#63b8ff" stroke="#63b8ff" points="730.92,-46.81 740.76,-42.88 730.62,-39.82 730.92,-46.81"/>
</a>
</g>
</g>
</g>
</svg>
