<?xml version="1.0" encoding="UTF-8" standalone="no"?>
<!DOCTYPE svg PUBLIC "-//W3C//DTD SVG 1.1//EN"
 "http://www.w3.org/Graphics/SVG/1.1/DTD/svg11.dtd">
<!-- Generated by graphviz version 14.0.1 (20251006.0113)
 -->
<!-- Title: top.TOPTWSolution.getProblem Pages: 1 -->
<svg width="907pt" height="165pt"
 viewBox="0.00 0.00 907.00 165.00" xmlns="http://www.w3.org/2000/svg" xmlns:xlink="http://www.w3.org/1999/xlink">
<g id="graph0" class="graph" transform="scale(1 1) rotate(0) translate(4 161.2)">
<title>top.TOPTWSolution.getProblem</title>
<!-- Node1 -->
<g id="Node000001" class="node">
<title>Node1</title>
<g id="a_Node000001"><a xlink:title="Obtiene la instancia del problema asociada a esta solución.">
<polygon fill="#999999" stroke="#666666" points="899,-92 742.75,-92 742.75,-72 899,-72 899,-92"/>
<text xml:space="preserve" text-anchor="middle" x="820.88" y="-78.5" font-family="Helvetica,sans-Serif" font-size="10.00">top.TOPTWSolution.getProblem</text>
</a>
</g>
</g>
<!-- Node2 -->
<g id="Node000002" class="node">
<title>Node2</title>
<g id="a_Node000002"><a xlink:href="classtop_1_1_t_o_p_t_w_g_r_a_s_p.html#ae706fe2d8478acf0a026bb40e8fc9df7" target="_top" xlink:title="Evalúa de forma exhaustiva todos los posibles movimientos de inserción para los clientes disponibles.">
<polygon fill="white" stroke="#666666" points="706.75,-98 535.5,-98 535.5,-66 706.75,-66 706.75,-98"/>
<text xml:space="preserve" text-anchor="start" x="543.5" y="-84.5" font-family="Helvetica,sans-Serif" font-size="10.00">top.TOPTWGRASP.comprehensive</text>
<text xml:space="preserve" text-anchor="middle" x="621.12" y="-72.5" font-family="Helvetica,sans-Serif" font-size="10.00">Evaluation</text>
</a>
</g>
</g>
<!-- Node1&#45;&gt;Node2 -->
<g id="edge1_Node000001_Node000002" class="edge">
<title>Node1&#45;&gt;Node2</title>
<g id="a_edge1_Node000001_Node000002"><a xlink:title=" ">
<path fill="none" stroke="#63b8ff" d="M730.78,-82C722.87,-82 714.88,-82 707,-82"/>
<polygon fill="#63b8ff" stroke="#63b8ff" points="730.77,-85.5 740.77,-82 730.77,-78.5 730.77,-85.5"/>
</a>
</g>
</g>
<!-- Node3 -->
<g id="Node000003" class="node">
<title>Node3</title>
<g id="a_Node000003"><a xlink:href="classtop_1_1_t_o_p_t_w_g_r_a_s_p.html#ade97c51a7d20660d7d306b756b4a6302" target="_top" xlink:title="Construye una solución greedy aleatorizada.">
<polygon fill="white" stroke="#666666" points="499.5,-120 325.25,-120 325.25,-88 499.5,-88 499.5,-120"/>
<text xml:space="preserve" text-anchor="start" x="333.25" y="-106.5" font-family="Helvetica,sans-Serif" font-size="10.00">top.TOPTWGRASP.computeGreedy</text>
<text xml:space="preserve" text-anchor="middle" x="412.38" y="-94.5" font-family="Helvetica,sans-Serif" font-size="10.00">Solution</text>
</a>
</g>
</g>
<!-- Node1&#45;&gt;Node3 -->
<g id="edge5_Node000001_Node000003" class="edge">
<title>Node1&#45;&gt;Node3</title>
<g id="a_edge5_Node000001_Node000003"><a xlink:title=" ">
<path fill="none" stroke="#63b8ff" d="M797.52,-99.01C775.7,-114.45 740.9,-136.13 706.75,-145 633.08,-164.13 610.62,-157.27 535.5,-145 506.58,-140.28 475.28,-129.65 451.61,-120.4"/>
<polygon fill="#63b8ff" stroke="#63b8ff" points="799.32,-102.02 805.35,-93.31 795.21,-96.36 799.32,-102.02"/>
</a>
</g>
</g>
<!-- Node6 -->
<g id="Node000006" class="node">
<title>Node6</title>
<g id="a_Node000006"><a xlink:href="classtop_1_1_t_o_p_t_w_solution.html#a82688039e6f671f6d2f57a1888fe3c21" target="_top" xlink:title="Genera una cadena con información detallada de la solución.">
<polygon fill="white" stroke="#666666" points="480.75,-32 344,-32 344,0 480.75,0 480.75,-32"/>
<text xml:space="preserve" text-anchor="start" x="352" y="-18.5" font-family="Helvetica,sans-Serif" font-size="10.00">top.TOPTWSolution.getInfo</text>
<text xml:space="preserve" text-anchor="middle" x="412.38" y="-6.5" font-family="Helvetica,sans-Serif" font-size="10.00">Solution</text>
</a>
</g>
</g>
<!-- Node1&#45;&gt;Node6 -->
<g id="edge6_Node000001_Node000006" class="edge">
<title>Node1&#45;&gt;Node6</title>
<g id="a_edge6_Node000001_Node000006"><a xlink:title=" ">
<path fill="none" stroke="#63b8ff" d="M797.5,-65.07C775.67,-49.68 740.86,-28.04 706.75,-19 631.42,0.97 541.34,-1.86 481.05,-7.37"/>
<polygon fill="#63b8ff" stroke="#63b8ff" points="795.18,-67.72 805.34,-70.74 799.29,-62.05 795.18,-67.72"/>
</a>
</g>
</g>
<!-- Node7 -->
<g id="Node000007" class="node">
<title>Node7</title>
<g id="a_Node000007"><a xlink:href="classtop_1_1_t_o_p_t_w_g_r_a_s_p.html#ae0fad47956718e9e96ee5fb6022d9f5b" target="_top" xlink:title="Obtiene la máxima puntuación posible entre todos los nodos del problema.">
<polygon fill="white" stroke="#666666" points="702.62,-48 539.62,-48 539.62,-28 702.62,-28 702.62,-48"/>
<text xml:space="preserve" text-anchor="middle" x="621.12" y="-34.5" font-family="Helvetica,sans-Serif" font-size="10.00">top.TOPTWGRASP.getMaxScore</text>
</a>
</g>
</g>
<!-- Node1&#45;&gt;Node7 -->
<g id="edge8_Node000001_Node000007" class="edge">
<title>Node1&#45;&gt;Node7</title>
<g id="a_edge8_Node000001_Node000007"><a xlink:title=" ">
<path fill="none" stroke="#63b8ff" d="M761.78,-69.07C732.31,-62.52 696.97,-54.65 669.22,-48.48"/>
<polygon fill="#63b8ff" stroke="#63b8ff" points="760.76,-72.43 771.28,-71.19 762.28,-65.6 760.76,-72.43"/>
</a>
</g>
</g>
<!-- Node8 -->
<g id="Node000008" class="node">
<title>Node8</title>
<g id="a_Node000008"><a xlink:href="classtop_1_1_t_o_p_t_w_g_r_a_s_p.html#adaccdd26e4ad89ffb3e86c780dcd90d7" target="_top" xlink:title="Actualiza la solución insertando un candidato seleccionado.">
<polygon fill="white" stroke="#666666" points="706,-136 536.25,-136 536.25,-116 706,-116 706,-136"/>
<text xml:space="preserve" text-anchor="middle" x="621.12" y="-122.5" font-family="Helvetica,sans-Serif" font-size="10.00">top.TOPTWGRASP.updateSolution</text>
</a>
</g>
</g>
<!-- Node1&#45;&gt;Node8 -->
<g id="edge9_Node000001_Node000008" class="edge">
<title>Node1&#45;&gt;Node8</title>
<g id="a_edge9_Node000001_Node000008"><a xlink:title=" ">
<path fill="none" stroke="#63b8ff" d="M761.78,-94.93C732.31,-101.48 696.97,-109.35 669.22,-115.52"/>
<polygon fill="#63b8ff" stroke="#63b8ff" points="762.28,-98.4 771.28,-92.81 760.76,-91.57 762.28,-98.4"/>
</a>
</g>
</g>
<!-- Node2&#45;&gt;Node3 -->
<g id="edge2_Node000002_Node000003" class="edge">
<title>Node2&#45;&gt;Node3</title>
<g id="a_edge2_Node000002_Node000003"><a xlink:title=" ">
<path fill="none" stroke="#63b8ff" d="M523.82,-92.25C515.77,-93.1 507.67,-93.97 499.71,-94.81"/>
<polygon fill="#63b8ff" stroke="#63b8ff" points="524.06,-95.74 533.63,-91.2 523.32,-88.78 524.06,-95.74"/>
</a>
</g>
</g>
<!-- Node4 -->
<g id="Node000004" class="node">
<title>Node4</title>
<g id="a_Node000004"><a xlink:href="classtop_1_1_t_o_p_t_w_g_r_a_s_p.html#a11242fc809f6a16ff81136c4785fdc3e" target="_top" xlink:title="Ejecuta el algoritmo GRASP durante un número determinado de iteraciones.">
<polygon fill="white" stroke="#666666" points="289.25,-67 148.75,-67 148.75,-47 289.25,-47 289.25,-67"/>
<text xml:space="preserve" text-anchor="middle" x="219" y="-53.5" font-family="Helvetica,sans-Serif" font-size="10.00">top.TOPTWGRASP.GRASP</text>
</a>
</g>
</g>
<!-- Node3&#45;&gt;Node4 -->
<g id="edge3_Node000003_Node000004" class="edge">
<title>Node3&#45;&gt;Node4</title>
<g id="a_edge3_Node000003_Node000004"><a xlink:title=" ">
<path fill="none" stroke="#63b8ff" d="M333.46,-84.87C309.27,-78.92 283.52,-72.6 262.67,-67.48"/>
<polygon fill="#63b8ff" stroke="#63b8ff" points="332.43,-88.21 342.97,-87.2 334.09,-81.42 332.43,-88.21"/>
</a>
</g>
</g>
<!-- Node5 -->
<g id="Node000005" class="node">
<title>Node5</title>
<g id="a_Node000005"><a xlink:href="classtop_1_1main_t_o_p_t_w.html#a6b155cf80c78f50335adf5a91762e0eb" target="_top" xlink:title="Método principal que ejecuta el solver TOPTW GRASP.">
<polygon fill="white" stroke="#666666" points="112.75,-67 0,-67 0,-47 112.75,-47 112.75,-67"/>
<text xml:space="preserve" text-anchor="middle" x="56.38" y="-53.5" font-family="Helvetica,sans-Serif" font-size="10.00">top.mainTOPTW.main</text>
</a>
</g>
</g>
<!-- Node4&#45;&gt;Node5 -->
<g id="edge4_Node000004_Node000005" class="edge">
<title>Node4&#45;&gt;Node5</title>
<g id="a_edge4_Node000004_Node000005"><a xlink:title=" ">
<path fill="none" stroke="#63b8ff" d="M137.01,-57C128.88,-57 120.75,-57 112.97,-57"/>
<polygon fill="#63b8ff" stroke="#63b8ff" points="136.97,-60.5 146.97,-57 136.97,-53.5 136.97,-60.5"/>
</a>
</g>
</g>
<!-- Node6&#45;&gt;Node4 -->
<g id="edge7_Node000006_Node000004" class="edge">
<title>Node6&#45;&gt;Node4</title>
<g id="a_edge7_Node000006_Node000004"><a xlink:title=" ">
<path fill="none" stroke="#63b8ff" d="M332.51,-32.9C311,-37.5 288.31,-42.36 268.99,-46.5"/>
<polygon fill="#63b8ff" stroke="#63b8ff" points="333.11,-36.35 342.15,-30.83 331.64,-29.5 333.11,-36.35"/>
</a>
</g>
</g>
<!-- Node8&#45;&gt;Node3 -->
<g id="edge10_Node000008_Node000003" class="edge">
<title>Node8&#45;&gt;Node3</title>
<g id="a_edge10_Node000008_Node000003"><a xlink:title=" ">
<path fill="none" stroke="#63b8ff" d="M524.73,-115.85C516.4,-114.96 508,-114.07 499.75,-113.19"/>
<polygon fill="#63b8ff" stroke="#63b8ff" points="524.21,-119.31 534.53,-116.89 524.95,-112.35 524.21,-119.31"/>
</a>
</g>
</g>
</g>
</svg>
