<?xml version="1.0" encoding="UTF-8" standalone="no"?>
<!DOCTYPE svg PUBLIC "-//W3C//DTD SVG 1.1//EN"
 "http://www.w3.org/Graphics/SVG/1.1/DTD/svg11.dtd">
<!-- Generated by graphviz version 14.0.1 (20251006.0113)
 -->
<!-- Title: top.TOPTW.isDepot Pages: 1 -->
<svg width="1048pt" height="294pt"
 viewBox="0.00 0.00 1048.00 294.00" xmlns="http://www.w3.org/2000/svg" xmlns:xlink="http://www.w3.org/1999/xlink">
<g id="graph0" class="graph" transform="scale(1 1) rotate(0) translate(4 290)">
<title>top.TOPTW.isDepot</title>
<!-- Node1 -->
<g id="Node000001" class="node">
<title>Node1</title>
<g id="a_Node000001"><a xlink:title="Comprueba si un índice de nodo corresponde a un depósito.">
<polygon fill="#999999" stroke="#666666" points="1039.5,-153 935,-153 935,-133 1039.5,-133 1039.5,-153"/>
<text xml:space="preserve" text-anchor="middle" x="987.25" y="-139.5" font-family="Helvetica,sans-Serif" font-size="10.00">top.TOPTW.isDepot</text>
</a>
</g>
</g>
<!-- Node2 -->
<g id="Node000002" class="node">
<title>Node2</title>
<g id="a_Node000002"><a xlink:href="classtop_1_1_t_o_p_t_w.html#aa48886efb5544475f15787bf2bee9242" target="_top" xlink:title="Obtiene la distancia entre dos nodos.">
<polygon fill="white" stroke="#666666" points="891.12,-286 767.88,-286 767.88,-266 891.12,-266 891.12,-286"/>
<text xml:space="preserve" text-anchor="middle" x="829.5" y="-272.5" font-family="Helvetica,sans-Serif" font-size="10.00">top.TOPTW.getDistance</text>
</a>
</g>
</g>
<!-- Node1&#45;&gt;Node2 -->
<g id="edge1_Node000001_Node000002" class="edge">
<title>Node1&#45;&gt;Node2</title>
<g id="a_edge1_Node000001_Node000002"><a xlink:title=" ">
<path fill="none" stroke="#63b8ff" d="M976.03,-163.41C962.12,-189.11 934.8,-232.82 899,-257 893.89,-260.45 888.16,-263.28 882.25,-265.6"/>
<polygon fill="#63b8ff" stroke="#63b8ff" points="979.08,-165.14 980.61,-154.65 972.88,-161.89 979.08,-165.14"/>
</a>
</g>
</g>
<!-- Node3 -->
<g id="Node000003" class="node">
<title>Node3</title>
<g id="a_Node000003"><a xlink:href="classtop_1_1_t_o_p_t_w.html#a0d14aca2e33a8fb1eb08013c3d55abfa" target="_top" xlink:title="Obtiene el tiempo de fin de la ventana de tiempo (due time) de un nodo.">
<polygon fill="white" stroke="#666666" points="891.5,-248 767.5,-248 767.5,-228 891.5,-228 891.5,-248"/>
<text xml:space="preserve" text-anchor="middle" x="829.5" y="-234.5" font-family="Helvetica,sans-Serif" font-size="10.00">top.TOPTW.getDueTime</text>
</a>
</g>
</g>
<!-- Node1&#45;&gt;Node3 -->
<g id="edge2_Node000001_Node000003" class="edge">
<title>Node1&#45;&gt;Node3</title>
<g id="a_edge2_Node000001_Node000003"><a xlink:title=" ">
<path fill="none" stroke="#63b8ff" d="M969.56,-161.71C953.19,-178.96 926.72,-204.09 899,-219 892.7,-222.39 885.73,-225.22 878.73,-227.57"/>
<polygon fill="#63b8ff" stroke="#63b8ff" points="971.9,-164.33 976.12,-154.61 966.76,-159.57 971.9,-164.33"/>
</a>
</g>
</g>
<!-- Node10 -->
<g id="Node000010" class="node">
<title>Node10</title>
<g id="a_Node000010"><a xlink:href="classtop_1_1_t_o_p_t_w.html#a4e74b10708b232a801a4ad147892b70a" target="_top" xlink:title="Obtiene el tiempo de inicio de la ventana de tiempo (ready time) de un nodo.">
<polygon fill="white" stroke="#666666" points="896.75,-172 762.25,-172 762.25,-152 896.75,-152 896.75,-172"/>
<text xml:space="preserve" text-anchor="middle" x="829.5" y="-158.5" font-family="Helvetica,sans-Serif" font-size="10.00">top.TOPTW.getReadyTime</text>
</a>
</g>
</g>
<!-- Node1&#45;&gt;Node10 -->
<g id="edge11_Node000001_Node000010" class="edge">
<title>Node1&#45;&gt;Node10</title>
<g id="a_edge11_Node000001_Node000010"><a xlink:title=" ">
<path fill="none" stroke="#63b8ff" d="M923.58,-150.65C914.88,-151.71 905.92,-152.8 897.15,-153.87"/>
<polygon fill="#63b8ff" stroke="#63b8ff" points="923.82,-154.14 933.32,-149.46 922.97,-147.19 923.82,-154.14"/>
</a>
</g>
</g>
<!-- Node12 -->
<g id="Node000012" class="node">
<title>Node12</title>
<g id="a_Node000012"><a xlink:href="classtop_1_1_t_o_p_t_w.html#ad028d42f72214373efca074483462837" target="_top" xlink:title="Obtiene la puntuación (score) de un nodo.">
<polygon fill="white" stroke="#666666" points="884.38,-58 774.62,-58 774.62,-38 884.38,-38 884.38,-58"/>
<text xml:space="preserve" text-anchor="middle" x="829.5" y="-44.5" font-family="Helvetica,sans-Serif" font-size="10.00">top.TOPTW.getScore</text>
</a>
</g>
</g>
<!-- Node1&#45;&gt;Node12 -->
<g id="edge16_Node000001_Node000012" class="edge">
<title>Node1&#45;&gt;Node12</title>
<g id="a_edge16_Node000001_Node000012"><a xlink:title=" ">
<path fill="none" stroke="#63b8ff" d="M969.56,-124.29C953.19,-107.04 926.72,-81.91 899,-67 892.7,-63.61 885.73,-60.78 878.73,-58.43"/>
<polygon fill="#63b8ff" stroke="#63b8ff" points="966.76,-126.43 976.12,-131.39 971.9,-121.67 966.76,-126.43"/>
</a>
</g>
</g>
<!-- Node16 -->
<g id="Node000016" class="node">
<title>Node16</title>
<g id="a_Node000016"><a xlink:href="classtop_1_1_t_o_p_t_w.html#a06b2b40d137f16bdda21c734d3ea8ac7" target="_top" xlink:title="Obtiene el tiempo de servicio requerido en un nodo.">
<polygon fill="white" stroke="#666666" points="899,-210 760,-210 760,-190 899,-190 899,-210"/>
<text xml:space="preserve" text-anchor="middle" x="829.5" y="-196.5" font-family="Helvetica,sans-Serif" font-size="10.00">top.TOPTW.getServiceTime</text>
</a>
</g>
</g>
<!-- Node1&#45;&gt;Node16 -->
<g id="edge23_Node000001_Node000016" class="edge">
<title>Node1&#45;&gt;Node16</title>
<g id="a_edge23_Node000001_Node000016"><a xlink:title=" ">
<path fill="none" stroke="#63b8ff" d="M954.6,-158.06C938.22,-165.53 917.78,-174.34 899,-181 890.28,-184.09 880.78,-187 871.72,-189.57"/>
<polygon fill="#63b8ff" stroke="#63b8ff" points="955.73,-161.39 963.34,-154.02 952.8,-155.04 955.73,-161.39"/>
</a>
</g>
</g>
<!-- Node17 -->
<g id="Node000017" class="node">
<title>Node17</title>
<g id="a_Node000017"><a xlink:href="classtop_1_1_t_o_p_t_w.html#a3f724d2f10d5174c70748449a291ad86" target="_top" xlink:title="Obtiene el tiempo de viaje entre dos nodos, que es igual a la distancia.">
<polygon fill="white" stroke="#666666" points="882.5,-20 776.5,-20 776.5,0 882.5,0 882.5,-20"/>
<text xml:space="preserve" text-anchor="middle" x="829.5" y="-6.5" font-family="Helvetica,sans-Serif" font-size="10.00">top.TOPTW.getTime</text>
</a>
</g>
</g>
<!-- Node1&#45;&gt;Node17 -->
<g id="edge27_Node000001_Node000017" class="edge">
<title>Node1&#45;&gt;Node17</title>
<g id="a_edge27_Node000001_Node000017"><a xlink:title=" ">
<path fill="none" stroke="#63b8ff" d="M976.03,-122.59C962.12,-96.89 934.8,-53.18 899,-29 893.89,-25.55 888.16,-22.72 882.25,-20.4"/>
<polygon fill="#63b8ff" stroke="#63b8ff" points="972.88,-124.11 980.61,-131.35 979.08,-120.86 972.88,-124.11"/>
</a>
</g>
</g>
<!-- Node18 -->
<g id="Node000018" class="node">
<title>Node18</title>
<g id="a_Node000018"><a xlink:href="classtop_1_1_t_o_p_t_w.html#ab17563354a34944d14e4ac57f6613da6" target="_top" xlink:title="Obtiene la coordenada X de un nodo.">
<polygon fill="white" stroke="#666666" points="875,-134 784,-134 784,-114 875,-114 875,-134"/>
<text xml:space="preserve" text-anchor="middle" x="829.5" y="-120.5" font-family="Helvetica,sans-Serif" font-size="10.00">top.TOPTW.getX</text>
</a>
</g>
</g>
<!-- Node1&#45;&gt;Node18 -->
<g id="edge28_Node000001_Node000018" class="edge">
<title>Node1&#45;&gt;Node18</title>
<g id="a_edge28_Node000001_Node000018"><a xlink:title=" ">
<path fill="none" stroke="#63b8ff" d="M923.78,-135.38C907.58,-133.4 890.44,-131.31 875.34,-129.47"/>
<polygon fill="#63b8ff" stroke="#63b8ff" points="922.97,-138.81 933.32,-136.54 923.82,-131.86 922.97,-138.81"/>
</a>
</g>
</g>
<!-- Node19 -->
<g id="Node000019" class="node">
<title>Node19</title>
<g id="a_Node000019"><a xlink:href="classtop_1_1_t_o_p_t_w.html#a3a39395dfc3d6360273580f177bede7a" target="_top" xlink:title="Obtiene la coordenada Y de un nodo.">
<polygon fill="white" stroke="#666666" points="875,-96 784,-96 784,-76 875,-76 875,-96"/>
<text xml:space="preserve" text-anchor="middle" x="829.5" y="-82.5" font-family="Helvetica,sans-Serif" font-size="10.00">top.TOPTW.getY</text>
</a>
</g>
</g>
<!-- Node1&#45;&gt;Node19 -->
<g id="edge30_Node000001_Node000019" class="edge">
<title>Node1&#45;&gt;Node19</title>
<g id="a_edge30_Node000001_Node000019"><a xlink:title=" ">
<path fill="none" stroke="#63b8ff" d="M954.6,-127.94C938.22,-120.47 917.78,-111.66 899,-105 890.28,-101.91 880.78,-99 871.72,-96.43"/>
<polygon fill="#63b8ff" stroke="#63b8ff" points="952.8,-130.96 963.34,-131.98 955.73,-124.61 952.8,-130.96"/>
</a>
</g>
</g>
<!-- Node4 -->
<g id="Node000004" class="node">
<title>Node4</title>
<g id="a_Node000004"><a xlink:href="classtop_1_1_t_o_p_t_w_g_r_a_s_p.html#ae706fe2d8478acf0a026bb40e8fc9df7" target="_top" xlink:title="Evalúa de forma exhaustiva todos los posibles movimientos de inserción para los clientes disponibles.">
<polygon fill="white" stroke="#666666" points="724,-222 552.75,-222 552.75,-190 724,-190 724,-222"/>
<text xml:space="preserve" text-anchor="start" x="560.75" y="-208.5" font-family="Helvetica,sans-Serif" font-size="10.00">top.TOPTWGRASP.comprehensive</text>
<text xml:space="preserve" text-anchor="middle" x="638.38" y="-196.5" font-family="Helvetica,sans-Serif" font-size="10.00">Evaluation</text>
</a>
</g>
</g>
<!-- Node3&#45;&gt;Node4 -->
<g id="edge3_Node000003_Node000004" class="edge">
<title>Node3&#45;&gt;Node4</title>
<g id="a_edge3_Node000003_Node000004"><a xlink:title=" ">
<path fill="none" stroke="#63b8ff" d="M755.98,-225.73C745.58,-223.97 734.8,-222.15 724.18,-220.35"/>
<polygon fill="#63b8ff" stroke="#63b8ff" points="755.16,-229.14 765.6,-227.36 756.33,-222.24 755.16,-229.14"/>
</a>
</g>
</g>
<!-- Node8 -->
<g id="Node000008" class="node">
<title>Node8</title>
<g id="a_Node000008"><a xlink:href="classtop_1_1_t_o_p_t_w_solution.html#a82688039e6f671f6d2f57a1888fe3c21" target="_top" xlink:title="Genera una cadena con información detallada de la solución.">
<polygon fill="white" stroke="#666666" points="706.75,-134 570,-134 570,-102 706.75,-102 706.75,-134"/>
<text xml:space="preserve" text-anchor="start" x="578" y="-120.5" font-family="Helvetica,sans-Serif" font-size="10.00">top.TOPTWSolution.getInfo</text>
<text xml:space="preserve" text-anchor="middle" x="638.38" y="-108.5" font-family="Helvetica,sans-Serif" font-size="10.00">Solution</text>
</a>
</g>
</g>
<!-- Node3&#45;&gt;Node8 -->
<g id="edge7_Node000003_Node000008" class="edge">
<title>Node3&#45;&gt;Node8</title>
<g id="a_edge7_Node000003_Node000008"><a xlink:title=" ">
<path fill="none" stroke="#63b8ff" d="M763.96,-222.03C762.59,-221.08 761.27,-220.07 760,-219 731.4,-194.94 752.4,-167.3 724,-143 719,-138.72 713.28,-135.17 707.25,-132.23"/>
<polygon fill="#63b8ff" stroke="#63b8ff" points="761.85,-224.85 772.27,-226.77 765.32,-218.77 761.85,-224.85"/>
</a>
</g>
</g>
<!-- Node9 -->
<g id="Node000009" class="node">
<title>Node9</title>
<g id="a_Node000009"><a xlink:href="classtop_1_1_t_o_p_t_w_reader.html#abad17029fc8928818483c5053dde0fa2" target="_top" xlink:title="Lee una instancia del problema TOPTW desde un archivo.">
<polygon fill="white" stroke="#666666" points="306.5,-228 148.75,-228 148.75,-208 306.5,-208 306.5,-228"/>
<text xml:space="preserve" text-anchor="middle" x="227.62" y="-214.5" font-family="Helvetica,sans-Serif" font-size="10.00">top.TOPTWReader.readProblem</text>
</a>
</g>
</g>
<!-- Node3&#45;&gt;Node9 -->
<g id="edge9_Node000003_Node000009" class="edge">
<title>Node3&#45;&gt;Node9</title>
<g id="a_edge9_Node000003_Node000009"><a xlink:title=" ">
<path fill="none" stroke="#63b8ff" d="M755.66,-236.44C700.06,-235.18 621.56,-233.25 552.75,-231 468.74,-228.25 372.52,-224.29 306.88,-221.46"/>
<polygon fill="#63b8ff" stroke="#63b8ff" points="755.57,-239.94 765.65,-236.67 755.73,-232.94 755.57,-239.94"/>
</a>
</g>
</g>
<!-- Node5 -->
<g id="Node000005" class="node">
<title>Node5</title>
<g id="a_Node000005"><a xlink:href="classtop_1_1_t_o_p_t_w_g_r_a_s_p.html#ade97c51a7d20660d7d306b756b4a6302" target="_top" xlink:title="Construye una solución greedy aleatorizada.">
<polygon fill="white" stroke="#666666" points="516.75,-186 342.5,-186 342.5,-154 516.75,-154 516.75,-186"/>
<text xml:space="preserve" text-anchor="start" x="350.5" y="-172.5" font-family="Helvetica,sans-Serif" font-size="10.00">top.TOPTWGRASP.computeGreedy</text>
<text xml:space="preserve" text-anchor="middle" x="429.62" y="-160.5" font-family="Helvetica,sans-Serif" font-size="10.00">Solution</text>
</a>
</g>
</g>
<!-- Node4&#45;&gt;Node5 -->
<g id="edge4_Node000004_Node000005" class="edge">
<title>Node4&#45;&gt;Node5</title>
<g id="a_edge4_Node000004_Node000005"><a xlink:title=" ">
<path fill="none" stroke="#63b8ff" d="M541.07,-189.23C533.02,-187.83 524.92,-186.42 516.96,-185.03"/>
<polygon fill="#63b8ff" stroke="#63b8ff" points="540.44,-192.67 550.9,-190.94 541.64,-185.78 540.44,-192.67"/>
</a>
</g>
</g>
<!-- Node6 -->
<g id="Node000006" class="node">
<title>Node6</title>
<g id="a_Node000006"><a xlink:href="classtop_1_1_t_o_p_t_w_g_r_a_s_p.html#a11242fc809f6a16ff81136c4785fdc3e" target="_top" xlink:title="Ejecuta el algoritmo GRASP durante un número determinado de iteraciones.">
<polygon fill="white" stroke="#666666" points="297.88,-158 157.38,-158 157.38,-138 297.88,-138 297.88,-158"/>
<text xml:space="preserve" text-anchor="middle" x="227.62" y="-144.5" font-family="Helvetica,sans-Serif" font-size="10.00">top.TOPTWGRASP.GRASP</text>
</a>
</g>
</g>
<!-- Node5&#45;&gt;Node6 -->
<g id="edge5_Node000005_Node000006" class="edge">
<title>Node5&#45;&gt;Node6</title>
<g id="a_edge5_Node000005_Node000006"><a xlink:title=" ">
<path fill="none" stroke="#63b8ff" d="M330.66,-159.22C319.68,-158.02 308.67,-156.81 298.16,-155.65"/>
<polygon fill="#63b8ff" stroke="#63b8ff" points="330.24,-162.7 340.56,-160.31 331,-155.74 330.24,-162.7"/>
</a>
</g>
</g>
<!-- Node7 -->
<g id="Node000007" class="node">
<title>Node7</title>
<g id="a_Node000007"><a xlink:href="classtop_1_1main_t_o_p_t_w.html#a6b155cf80c78f50335adf5a91762e0eb" target="_top" xlink:title="Método principal que ejecuta el solver TOPTW GRASP.">
<polygon fill="white" stroke="#666666" points="112.75,-177 0,-177 0,-157 112.75,-157 112.75,-177"/>
<text xml:space="preserve" text-anchor="middle" x="56.38" y="-163.5" font-family="Helvetica,sans-Serif" font-size="10.00">top.mainTOPTW.main</text>
</a>
</g>
</g>
<!-- Node6&#45;&gt;Node7 -->
<g id="edge6_Node000006_Node000007" class="edge">
<title>Node6&#45;&gt;Node7</title>
<g id="a_edge6_Node000006_Node000007"><a xlink:title=" ">
<path fill="none" stroke="#63b8ff" d="M146.18,-157.03C135.01,-158.29 123.73,-159.55 113.15,-160.74"/>
<polygon fill="#63b8ff" stroke="#63b8ff" points="146.25,-160.55 155.79,-155.95 145.46,-153.59 146.25,-160.55"/>
</a>
</g>
</g>
<!-- Node8&#45;&gt;Node6 -->
<g id="edge8_Node000008_Node000006" class="edge">
<title>Node8&#45;&gt;Node6</title>
<g id="a_edge8_Node000008_Node000006"><a xlink:title=" ">
<path fill="none" stroke="#63b8ff" d="M558.57,-123.78C483.15,-129.32 370.48,-137.59 298.28,-142.89"/>
<polygon fill="#63b8ff" stroke="#63b8ff" points="558.65,-127.29 568.37,-123.06 558.14,-120.31 558.65,-127.29"/>
</a>
</g>
</g>
<!-- Node9&#45;&gt;Node7 -->
<g id="edge10_Node000009_Node000007" class="edge">
<title>Node9&#45;&gt;Node7</title>
<g id="a_edge10_Node000009_Node000007"><a xlink:title=" ">
<path fill="none" stroke="#63b8ff" d="M181.23,-204.32C153.18,-195.87 117.76,-185.2 91.99,-177.43"/>
<polygon fill="#63b8ff" stroke="#63b8ff" points="179.93,-207.59 190.52,-207.12 181.95,-200.88 179.93,-207.59"/>
</a>
</g>
</g>
<!-- Node10&#45;&gt;Node4 -->
<g id="edge12_Node000010_Node000004" class="edge">
<title>Node10&#45;&gt;Node4</title>
<g id="a_edge12_Node000010_Node000004"><a xlink:title=" ">
<path fill="none" stroke="#63b8ff" d="M772.5,-175.03C752.94,-179.58 730.72,-184.75 710.12,-189.54"/>
<polygon fill="#63b8ff" stroke="#63b8ff" points="773.26,-178.45 782.21,-172.77 771.67,-171.63 773.26,-178.45"/>
</a>
</g>
</g>
<!-- Node10&#45;&gt;Node8 -->
<g id="edge13_Node000010_Node000008" class="edge">
<title>Node10&#45;&gt;Node8</title>
<g id="a_edge13_Node000010_Node000008"><a xlink:title=" ">
<path fill="none" stroke="#63b8ff" d="M772.61,-149C752.1,-144.22 728.64,-138.77 707.19,-133.78"/>
<polygon fill="#63b8ff" stroke="#63b8ff" points="771.67,-152.37 782.21,-151.23 773.26,-145.55 771.67,-152.37"/>
</a>
</g>
</g>
<!-- Node11 -->
<g id="Node000011" class="node">
<title>Node11</title>
<g id="a_Node000011"><a xlink:href="classtop_1_1_t_o_p_t_w_g_r_a_s_p.html#adaccdd26e4ad89ffb3e86c780dcd90d7" target="_top" xlink:title="Actualiza la solución insertando un candidato seleccionado.">
<polygon fill="white" stroke="#666666" points="723.25,-172 553.5,-172 553.5,-152 723.25,-152 723.25,-172"/>
<text xml:space="preserve" text-anchor="middle" x="638.38" y="-158.5" font-family="Helvetica,sans-Serif" font-size="10.00">top.TOPTWGRASP.updateSolution</text>
</a>
</g>
</g>
<!-- Node10&#45;&gt;Node11 -->
<g id="edge14_Node000010_Node000011" class="edge">
<title>Node10&#45;&gt;Node11</title>
<g id="a_edge14_Node000010_Node000011"><a xlink:title=" ">
<path fill="none" stroke="#63b8ff" d="M750.38,-162C741.57,-162 732.56,-162 723.67,-162"/>
<polygon fill="#63b8ff" stroke="#63b8ff" points="750.31,-165.5 760.31,-162 750.31,-158.5 750.31,-165.5"/>
</a>
</g>
</g>
<!-- Node11&#45;&gt;Node5 -->
<g id="edge15_Node000011_Node000005" class="edge">
<title>Node11&#45;&gt;Node5</title>
<g id="a_edge15_Node000011_Node000005"><a xlink:title=" ">
<path fill="none" stroke="#63b8ff" d="M541.98,-165.69C533.65,-166.01 525.25,-166.34 517,-166.66"/>
<polygon fill="#63b8ff" stroke="#63b8ff" points="541.91,-169.2 551.77,-165.31 541.64,-162.2 541.91,-169.2"/>
</a>
</g>
</g>
<!-- Node12&#45;&gt;Node4 -->
<g id="edge17_Node000012_Node000004" class="edge">
<title>Node12&#45;&gt;Node4</title>
<g id="a_edge17_Node000012_Node000004"><a xlink:title=" ">
<path fill="none" stroke="#63b8ff" d="M764.56,-63.14C762.96,-64.33 761.43,-65.62 760,-67 721.77,-103.9 761.92,-143.78 724,-181 720.61,-184.33 716.8,-187.21 712.72,-189.72"/>
<polygon fill="#63b8ff" stroke="#63b8ff" points="766.33,-66.16 773.12,-58.03 762.74,-60.15 766.33,-66.16"/>
</a>
</g>
</g>
<!-- Node12&#45;&gt;Node8 -->
<g id="edge21_Node000012_Node000008" class="edge">
<title>Node12&#45;&gt;Node8</title>
<g id="a_edge21_Node000012_Node000008"><a xlink:title=" ">
<path fill="none" stroke="#63b8ff" d="M775.87,-61.74C770.47,-63.41 765.1,-65.17 760,-67 743.52,-72.91 740.09,-76.1 724,-83 709.53,-89.2 693.6,-95.84 679.5,-101.66"/>
<polygon fill="#63b8ff" stroke="#63b8ff" points="776.85,-65.1 785.45,-58.91 774.86,-58.39 776.85,-65.1"/>
</a>
</g>
</g>
<!-- Node13 -->
<g id="Node000013" class="node">
<title>Node13</title>
<g id="a_Node000013"><a xlink:href="classtop_1_1_t_o_p_t_w_solution.html#a07ec0a724167095ad061040e11136a19" target="_top" xlink:title="Evalúa la función objetivo de la solución (puntuación total).">
<polygon fill="white" stroke="#666666" points="710.12,-74 566.62,-74 566.62,-42 710.12,-42 710.12,-74"/>
<text xml:space="preserve" text-anchor="start" x="574.62" y="-60.5" font-family="Helvetica,sans-Serif" font-size="10.00">top.TOPTWSolution.evaluate</text>
<text xml:space="preserve" text-anchor="middle" x="638.38" y="-48.5" font-family="Helvetica,sans-Serif" font-size="10.00">Fitness</text>
</a>
</g>
</g>
<!-- Node12&#45;&gt;Node13 -->
<g id="edge18_Node000012_Node000013" class="edge">
<title>Node12&#45;&gt;Node13</title>
<g id="a_edge18_Node000012_Node000013"><a xlink:title=" ">
<path fill="none" stroke="#63b8ff" d="M762.85,-51.47C745.95,-52.36 727.69,-53.33 710.52,-54.24"/>
<polygon fill="#63b8ff" stroke="#63b8ff" points="762.99,-54.97 772.79,-50.95 762.62,-47.98 762.99,-54.97"/>
</a>
</g>
</g>
<!-- Node15 -->
<g id="Node000015" class="node">
<title>Node15</title>
<g id="a_Node000015"><a xlink:href="classtop_1_1_t_o_p_t_w_g_r_a_s_p.html#ae0fad47956718e9e96ee5fb6022d9f5b" target="_top" xlink:title="Obtiene la máxima puntuación posible entre todos los nodos del problema.">
<polygon fill="white" stroke="#666666" points="719.88,-24 556.88,-24 556.88,-4 719.88,-4 719.88,-24"/>
<text xml:space="preserve" text-anchor="middle" x="638.38" y="-10.5" font-family="Helvetica,sans-Serif" font-size="10.00">top.TOPTWGRASP.getMaxScore</text>
</a>
</g>
</g>
<!-- Node12&#45;&gt;Node15 -->
<g id="edge22_Node000012_Node000015" class="edge">
<title>Node12&#45;&gt;Node15</title>
<g id="a_edge22_Node000012_Node000015"><a xlink:title=" ">
<path fill="none" stroke="#63b8ff" d="M763.06,-36.24C741.76,-32.41 718.28,-28.18 697.55,-24.46"/>
<polygon fill="#63b8ff" stroke="#63b8ff" points="762.35,-39.66 772.81,-37.99 763.59,-32.77 762.35,-39.66"/>
</a>
</g>
</g>
<!-- Node13&#45;&gt;Node6 -->
<g id="edge19_Node000013_Node000006" class="edge">
<title>Node13&#45;&gt;Node6</title>
<g id="a_edge19_Node000013_Node000006"><a xlink:title=" ">
<path fill="none" stroke="#63b8ff" d="M554.9,-48.9C494.52,-45.12 411.44,-46.01 342.5,-69 299.36,-83.39 257.85,-119.59 239.08,-137.56"/>
<polygon fill="#63b8ff" stroke="#63b8ff" points="554.56,-52.38 564.77,-49.58 555.04,-45.4 554.56,-52.38"/>
</a>
</g>
</g>
<!-- Node14 -->
<g id="Node000014" class="node">
<title>Node14</title>
<g id="a_Node000014"><a xlink:href="classtop_1_1_t_o_p_t_w_solution.html#a5df1eb3b6f4bc1265f12ffc201d86b0d" target="_top" xlink:title="Imprime la solución en la consola y devuelve la puntuación.">
<polygon fill="white" stroke="#666666" points="510,-98 349.25,-98 349.25,-78 510,-78 510,-98"/>
<text xml:space="preserve" text-anchor="middle" x="429.62" y="-84.5" font-family="Helvetica,sans-Serif" font-size="10.00">top.TOPTWSolution.printSolution</text>
</a>
</g>
</g>
<!-- Node13&#45;&gt;Node14 -->
<g id="edge20_Node000013_Node000014" class="edge">
<title>Node13&#45;&gt;Node14</title>
<g id="a_edge20_Node000013_Node000014"><a xlink:title=" ">
<path fill="none" stroke="#63b8ff" d="M555.04,-69.95C537.82,-72.45 519.79,-75.06 502.96,-77.5"/>
<polygon fill="#63b8ff" stroke="#63b8ff" points="555.33,-73.44 564.73,-68.54 554.33,-66.51 555.33,-73.44"/>
</a>
</g>
</g>
<!-- Node16&#45;&gt;Node4 -->
<g id="edge24_Node000016_Node000004" class="edge">
<title>Node16&#45;&gt;Node4</title>
<g id="a_edge24_Node000016_Node000004"><a xlink:title=" ">
<path fill="none" stroke="#63b8ff" d="M748.2,-202.55C740.28,-202.8 732.22,-203.05 724.25,-203.31"/>
<polygon fill="#63b8ff" stroke="#63b8ff" points="748.29,-206.05 758.17,-202.23 748.07,-199.05 748.29,-206.05"/>
</a>
</g>
</g>
<!-- Node16&#45;&gt;Node8 -->
<g id="edge25_Node000016_Node000008" class="edge">
<title>Node16&#45;&gt;Node8</title>
<g id="a_edge25_Node000016_Node000008"><a xlink:title=" ">
<path fill="none" stroke="#63b8ff" d="M768.11,-185.31C765.31,-183.99 762.59,-182.56 760,-181 740.06,-169.01 743.84,-155.16 724,-143 718.64,-139.72 712.83,-136.85 706.85,-134.34"/>
<polygon fill="#63b8ff" stroke="#63b8ff" points="766.55,-188.45 777.13,-189.02 769.21,-181.98 766.55,-188.45"/>
</a>
</g>
</g>
<!-- Node16&#45;&gt;Node11 -->
<g id="edge26_Node000016_Node000011" class="edge">
<title>Node16&#45;&gt;Node11</title>
<g id="a_edge26_Node000016_Node000011"><a xlink:title=" ">
<path fill="none" stroke="#63b8ff" d="M765.18,-187.28C741.2,-182.46 714.21,-177.04 691.38,-172.45"/>
<polygon fill="#63b8ff" stroke="#63b8ff" points="764.34,-190.68 774.84,-189.22 765.72,-183.82 764.34,-190.68"/>
</a>
</g>
</g>
<!-- Node18&#45;&gt;Node8 -->
<g id="edge29_Node000018_Node000008" class="edge">
<title>Node18&#45;&gt;Node8</title>
<g id="a_edge29_Node000018_Node000008"><a xlink:title=" ">
<path fill="none" stroke="#63b8ff" d="M772.33,-122.22C751.88,-121.57 728.54,-120.83 707.19,-120.15"/>
<polygon fill="#63b8ff" stroke="#63b8ff" points="772.06,-125.71 782.17,-122.53 772.28,-118.71 772.06,-125.71"/>
</a>
</g>
</g>
<!-- Node19&#45;&gt;Node8 -->
<g id="edge31_Node000019_Node000008" class="edge">
<title>Node19&#45;&gt;Node8</title>
<g id="a_edge31_Node000019_Node000008"><a xlink:title=" ">
<path fill="none" stroke="#63b8ff" d="M772.33,-95.5C751.88,-98.96 728.54,-102.91 707.19,-106.53"/>
<polygon fill="#63b8ff" stroke="#63b8ff" points="772.91,-98.96 782.19,-93.84 771.74,-92.05 772.91,-98.96"/>
</a>
</g>
</g>
</g>
</svg>
