<?xml version="1.0" encoding="UTF-8" standalone="no"?>
<!DOCTYPE svg PUBLIC "-//W3C//DTD SVG 1.1//EN"
 "http://www.w3.org/Graphics/SVG/1.1/DTD/svg11.dtd">
<!-- Generated by graphviz version 14.0.1 (20251006.0113)
 -->
<!-- Title: top.TOPTW.getMaxTimePerRoute Pages: 1 -->
<svg width="917pt" height="90pt"
 viewBox="0.00 0.00 917.00 90.00" xmlns="http://www.w3.org/2000/svg" xmlns:xlink="http://www.w3.org/1999/xlink">
<g id="graph0" class="graph" transform="scale(1 1) rotate(0) translate(4 86)">
<title>top.TOPTW.getMaxTimePerRoute</title>
<!-- Node1 -->
<g id="Node000001" class="node">
<title>Node1</title>
<g id="a_Node000001"><a xlink:title="Obtiene el tiempo máximo permitido por ruta.">
<polygon fill="#999999" stroke="#666666" points="908.75,-51 742.75,-51 742.75,-31 908.75,-31 908.75,-51"/>
<text xml:space="preserve" text-anchor="middle" x="825.75" y="-37.5" font-family="Helvetica,sans-Serif" font-size="10.00">top.TOPTW.getMaxTimePerRoute</text>
</a>
</g>
</g>
<!-- Node2 -->
<g id="Node000002" class="node">
<title>Node2</title>
<g id="a_Node000002"><a xlink:href="classtop_1_1_t_o_p_t_w_g_r_a_s_p.html#ae706fe2d8478acf0a026bb40e8fc9df7" target="_top" xlink:title="Evalúa de forma exhaustiva todos los posibles movimientos de inserción para los clientes disponibles.">
<polygon fill="white" stroke="#666666" points="706.75,-80 535.5,-80 535.5,-48 706.75,-48 706.75,-80"/>
<text xml:space="preserve" text-anchor="start" x="543.5" y="-66.5" font-family="Helvetica,sans-Serif" font-size="10.00">top.TOPTWGRASP.comprehensive</text>
<text xml:space="preserve" text-anchor="middle" x="621.12" y="-54.5" font-family="Helvetica,sans-Serif" font-size="10.00">Evaluation</text>
</a>
</g>
</g>
<!-- Node1&#45;&gt;Node2 -->
<g id="edge1_Node000001_Node000002" class="edge">
<title>Node1&#45;&gt;Node2</title>
<g id="a_edge1_Node000001_Node000002"><a xlink:title=" ">
<path fill="none" stroke="#63b8ff" d="M731.09,-51.63C723.09,-52.54 715.03,-53.45 707.1,-54.35"/>
<polygon fill="#63b8ff" stroke="#63b8ff" points="731.29,-55.13 740.83,-50.53 730.5,-48.18 731.29,-55.13"/>
</a>
</g>
</g>
<!-- Node6 -->
<g id="Node000006" class="node">
<title>Node6</title>
<g id="a_Node000006"><a xlink:href="classtop_1_1_t_o_p_t_w_solution.html#a82688039e6f671f6d2f57a1888fe3c21" target="_top" xlink:title="Genera una cadena con información detallada de la solución.">
<polygon fill="white" stroke="#666666" points="480.75,-32 344,-32 344,0 480.75,0 480.75,-32"/>
<text xml:space="preserve" text-anchor="start" x="352" y="-18.5" font-family="Helvetica,sans-Serif" font-size="10.00">top.TOPTWSolution.getInfo</text>
<text xml:space="preserve" text-anchor="middle" x="412.38" y="-6.5" font-family="Helvetica,sans-Serif" font-size="10.00">Solution</text>
</a>
</g>
</g>
<!-- Node1&#45;&gt;Node6 -->
<g id="edge5_Node000001_Node000006" class="edge">
<title>Node1&#45;&gt;Node6</title>
<g id="a_edge5_Node000001_Node000006"><a xlink:title=" ">
<path fill="none" stroke="#63b8ff" d="M731.01,-35.3C654.88,-30.68 549.34,-24.26 481.2,-20.12"/>
<polygon fill="#63b8ff" stroke="#63b8ff" points="730.79,-38.8 740.98,-35.91 731.21,-31.81 730.79,-38.8"/>
</a>
</g>
</g>
<!-- Node3 -->
<g id="Node000003" class="node">
<title>Node3</title>
<g id="a_Node000003"><a xlink:href="classtop_1_1_t_o_p_t_w_g_r_a_s_p.html#ade97c51a7d20660d7d306b756b4a6302" target="_top" xlink:title="Construye una solución greedy aleatorizada.">
<polygon fill="white" stroke="#666666" points="499.5,-82 325.25,-82 325.25,-50 499.5,-50 499.5,-82"/>
<text xml:space="preserve" text-anchor="start" x="333.25" y="-68.5" font-family="Helvetica,sans-Serif" font-size="10.00">top.TOPTWGRASP.computeGreedy</text>
<text xml:space="preserve" text-anchor="middle" x="412.38" y="-56.5" font-family="Helvetica,sans-Serif" font-size="10.00">Solution</text>
</a>
</g>
</g>
<!-- Node2&#45;&gt;Node3 -->
<g id="edge2_Node000002_Node000003" class="edge">
<title>Node2&#45;&gt;Node3</title>
<g id="a_edge2_Node000002_Node000003"><a xlink:title=" ">
<path fill="none" stroke="#63b8ff" d="M523.82,-64.93C515.77,-65.01 507.67,-65.09 499.71,-65.16"/>
<polygon fill="#63b8ff" stroke="#63b8ff" points="523.66,-68.43 533.62,-64.84 523.59,-61.43 523.66,-68.43"/>
</a>
</g>
</g>
<!-- Node4 -->
<g id="Node000004" class="node">
<title>Node4</title>
<g id="a_Node000004"><a xlink:href="classtop_1_1_t_o_p_t_w_g_r_a_s_p.html#a11242fc809f6a16ff81136c4785fdc3e" target="_top" xlink:title="Ejecuta el algoritmo GRASP durante un número determinado de iteraciones.">
<polygon fill="white" stroke="#666666" points="289.25,-51 148.75,-51 148.75,-31 289.25,-31 289.25,-51"/>
<text xml:space="preserve" text-anchor="middle" x="219" y="-37.5" font-family="Helvetica,sans-Serif" font-size="10.00">top.TOPTWGRASP.GRASP</text>
</a>
</g>
</g>
<!-- Node3&#45;&gt;Node4 -->
<g id="edge3_Node000003_Node000004" class="edge">
<title>Node3&#45;&gt;Node4</title>
<g id="a_edge3_Node000003_Node000004"><a xlink:title=" ">
<path fill="none" stroke="#63b8ff" d="M313.56,-53.22C305.52,-52.17 297.5,-51.12 289.72,-50.11"/>
<polygon fill="#63b8ff" stroke="#63b8ff" points="313.06,-56.69 323.42,-54.51 313.96,-49.74 313.06,-56.69"/>
</a>
</g>
</g>
<!-- Node5 -->
<g id="Node000005" class="node">
<title>Node5</title>
<g id="a_Node000005"><a xlink:href="classtop_1_1main_t_o_p_t_w.html#a6b155cf80c78f50335adf5a91762e0eb" target="_top" xlink:title="Método principal que ejecuta el solver TOPTW GRASP.">
<polygon fill="white" stroke="#666666" points="112.75,-51 0,-51 0,-31 112.75,-31 112.75,-51"/>
<text xml:space="preserve" text-anchor="middle" x="56.38" y="-37.5" font-family="Helvetica,sans-Serif" font-size="10.00">top.mainTOPTW.main</text>
</a>
</g>
</g>
<!-- Node4&#45;&gt;Node5 -->
<g id="edge4_Node000004_Node000005" class="edge">
<title>Node4&#45;&gt;Node5</title>
<g id="a_edge4_Node000004_Node000005"><a xlink:title=" ">
<path fill="none" stroke="#63b8ff" d="M137.01,-41C128.88,-41 120.75,-41 112.97,-41"/>
<polygon fill="#63b8ff" stroke="#63b8ff" points="136.97,-44.5 146.97,-41 136.97,-37.5 136.97,-44.5"/>
</a>
</g>
</g>
<!-- Node6&#45;&gt;Node4 -->
<g id="edge6_Node000006_Node000004" class="edge">
<title>Node6&#45;&gt;Node4</title>
<g id="a_edge6_Node000006_Node000004"><a xlink:title=" ">
<path fill="none" stroke="#63b8ff" d="M332.38,-26.32C318.19,-28.17 303.49,-30.09 289.59,-31.91"/>
<polygon fill="#63b8ff" stroke="#63b8ff" points="332.67,-29.81 342.13,-25.05 331.76,-22.87 332.67,-29.81"/>
</a>
</g>
</g>
</g>
</svg>
