<?xml version="1.0" encoding="UTF-8" standalone="no"?>
<!DOCTYPE svg PUBLIC "-//W3C//DTD SVG 1.1//EN"
 "http://www.w3.org/Graphics/SVG/1.1/DTD/svg11.dtd">
<!-- Generated by graphviz version 14.0.1 (20251006.0113)
 -->
<!-- Title: top.TOPTWSolution.TOPTWSolution Pages: 1 -->
<svg width="912pt" height="110pt"
 viewBox="0.00 0.00 912.00 110.00" xmlns="http://www.w3.org/2000/svg" xmlns:xlink="http://www.w3.org/1999/xlink">
<g id="graph0" class="graph" transform="scale(1 1) rotate(0) translate(4 106)">
<title>top.TOPTWSolution.TOPTWSolution</title>
<!-- Node1 -->
<g id="Node000001" class="node">
<title>Node1</title>
<g id="a_Node000001"><a xlink:title="Constructor de la clase TOPTWSolution.">
<polygon fill="#999999" stroke="#666666" points="904.25,-64 726.25,-64 726.25,-44 904.25,-44 904.25,-64"/>
<text xml:space="preserve" text-anchor="middle" x="815.25" y="-50.5" font-family="Helvetica,sans-Serif" font-size="10.00">top.TOPTWSolution.TOPTWSolution</text>
</a>
</g>
</g>
<!-- Node1&#45;&gt;Node1 -->
<g id="edge7_Node000001_Node000001" class="edge">
<title>Node1&#45;&gt;Node1</title>
<g id="a_edge7_Node000001_Node000001"><a xlink:title=" ">
<path fill="none" stroke="#63b8ff" d="M851.4,-75.11C847.09,-79.14 835.04,-82 815.25,-82 780.07,-82 769.35,-72.98 783.09,-64.34"/>
<polygon fill="#63b8ff" stroke="#63b8ff" points="854.69,-73.92 847.93,-65.76 848.12,-76.35 854.69,-73.92"/>
</a>
</g>
</g>
<!-- Node2 -->
<g id="Node000002" class="node">
<title>Node2</title>
<g id="a_Node000002"><a xlink:href="classtop_1_1_t_o_p_t_w_solution.html#a07a1d5a4428fa39c60fc25b993d571c0" target="_top" xlink:title="Compara si dos soluciones son iguales basándose en sus arrays de predecesores.">
<polygon fill="white" stroke="#666666" points="680.5,-102 545.25,-102 545.25,-82 680.5,-82 680.5,-102"/>
<text xml:space="preserve" text-anchor="middle" x="612.88" y="-88.5" font-family="Helvetica,sans-Serif" font-size="10.00">top.TOPTWSolution.equals</text>
</a>
</g>
</g>
<!-- Node1&#45;&gt;Node2 -->
<g id="edge1_Node000001_Node000002" class="edge">
<title>Node1&#45;&gt;Node2</title>
<g id="a_edge1_Node000001_Node000002"><a xlink:title=" ">
<path fill="none" stroke="#63b8ff" d="M747.86,-66.59C722.28,-71.44 693.38,-76.92 668.98,-81.55"/>
<polygon fill="#63b8ff" stroke="#63b8ff" points="748.31,-70.07 757.48,-64.77 747,-63.19 748.31,-70.07"/>
</a>
</g>
</g>
<!-- Node3 -->
<g id="Node000003" class="node">
<title>Node3</title>
<g id="a_Node000003"><a xlink:href="classtop_1_1_t_o_p_t_w_solution.html#a05b3fa5facafa4a4defb17ef0c280e52" target="_top" xlink:title="Compara si dos soluciones son iguales basándose en sus arrays de predecesores.">
<polygon fill="white" stroke="#666666" points="680.5,-64 545.25,-64 545.25,-44 680.5,-44 680.5,-64"/>
<text xml:space="preserve" text-anchor="middle" x="612.88" y="-50.5" font-family="Helvetica,sans-Serif" font-size="10.00">top.TOPTWSolution.equals</text>
</a>
</g>
</g>
<!-- Node1&#45;&gt;Node3 -->
<g id="edge2_Node000001_Node000003" class="edge">
<title>Node1&#45;&gt;Node3</title>
<g id="a_edge2_Node000001_Node000003"><a xlink:title=" ">
<path fill="none" stroke="#63b8ff" d="M714.41,-54C703.02,-54 691.62,-54 680.81,-54"/>
<polygon fill="#63b8ff" stroke="#63b8ff" points="714.27,-57.5 724.27,-54 714.27,-50.5 714.27,-57.5"/>
</a>
</g>
</g>
<!-- Node4 -->
<g id="Node000004" class="node">
<title>Node4</title>
<g id="a_Node000004"><a xlink:href="classtop_1_1_t_o_p_t_w_solution.html#ae2cebb1c58169b05b0dcccd65eabc654" target="_top" xlink:title="Inicializa o resetea la solución a un estado básico.">
<polygon fill="white" stroke="#666666" points="690.25,-26 535.5,-26 535.5,-6 690.25,-6 690.25,-26"/>
<text xml:space="preserve" text-anchor="middle" x="612.88" y="-12.5" font-family="Helvetica,sans-Serif" font-size="10.00">top.TOPTWSolution.initSolution</text>
</a>
</g>
</g>
<!-- Node1&#45;&gt;Node4 -->
<g id="edge3_Node000001_Node000004" class="edge">
<title>Node1&#45;&gt;Node4</title>
<g id="a_edge3_Node000001_Node000004"><a xlink:title=" ">
<path fill="none" stroke="#63b8ff" d="M747.86,-41.41C722.28,-36.56 693.38,-31.08 668.98,-26.45"/>
<polygon fill="#63b8ff" stroke="#63b8ff" points="747,-44.81 757.48,-43.23 748.31,-37.93 747,-44.81"/>
</a>
</g>
</g>
<!-- Node5 -->
<g id="Node000005" class="node">
<title>Node5</title>
<g id="a_Node000005"><a xlink:href="classtop_1_1_t_o_p_t_w_g_r_a_s_p.html#ade97c51a7d20660d7d306b756b4a6302" target="_top" xlink:title="Construye una solución greedy aleatorizada.">
<polygon fill="white" stroke="#666666" points="499.5,-32 325.25,-32 325.25,0 499.5,0 499.5,-32"/>
<text xml:space="preserve" text-anchor="start" x="333.25" y="-18.5" font-family="Helvetica,sans-Serif" font-size="10.00">top.TOPTWGRASP.computeGreedy</text>
<text xml:space="preserve" text-anchor="middle" x="412.38" y="-6.5" font-family="Helvetica,sans-Serif" font-size="10.00">Solution</text>
</a>
</g>
</g>
<!-- Node4&#45;&gt;Node5 -->
<g id="edge4_Node000004_Node000005" class="edge">
<title>Node4&#45;&gt;Node5</title>
<g id="a_edge4_Node000004_Node000005"><a xlink:title=" ">
<path fill="none" stroke="#63b8ff" d="M523.63,-16C515.72,-16 507.71,-16 499.82,-16"/>
<polygon fill="#63b8ff" stroke="#63b8ff" points="523.62,-19.5 533.62,-16 523.62,-12.5 523.62,-19.5"/>
</a>
</g>
</g>
<!-- Node6 -->
<g id="Node000006" class="node">
<title>Node6</title>
<g id="a_Node000006"><a xlink:href="classtop_1_1_t_o_p_t_w_g_r_a_s_p.html#a11242fc809f6a16ff81136c4785fdc3e" target="_top" xlink:title="Ejecuta el algoritmo GRASP durante un número determinado de iteraciones.">
<polygon fill="white" stroke="#666666" points="289.25,-26 148.75,-26 148.75,-6 289.25,-6 289.25,-26"/>
<text xml:space="preserve" text-anchor="middle" x="219" y="-12.5" font-family="Helvetica,sans-Serif" font-size="10.00">top.TOPTWGRASP.GRASP</text>
</a>
</g>
</g>
<!-- Node5&#45;&gt;Node6 -->
<g id="edge5_Node000005_Node000006" class="edge">
<title>Node5&#45;&gt;Node6</title>
<g id="a_edge5_Node000005_Node000006"><a xlink:title=" ">
<path fill="none" stroke="#63b8ff" d="M313.56,-16C305.52,-16 297.5,-16 289.72,-16"/>
<polygon fill="#63b8ff" stroke="#63b8ff" points="313.41,-19.5 323.41,-16 313.41,-12.5 313.41,-19.5"/>
</a>
</g>
</g>
<!-- Node7 -->
<g id="Node000007" class="node">
<title>Node7</title>
<g id="a_Node000007"><a xlink:href="classtop_1_1main_t_o_p_t_w.html#a6b155cf80c78f50335adf5a91762e0eb" target="_top" xlink:title="Método principal que ejecuta el solver TOPTW GRASP.">
<polygon fill="white" stroke="#666666" points="112.75,-26 0,-26 0,-6 112.75,-6 112.75,-26"/>
<text xml:space="preserve" text-anchor="middle" x="56.38" y="-12.5" font-family="Helvetica,sans-Serif" font-size="10.00">top.mainTOPTW.main</text>
</a>
</g>
</g>
<!-- Node6&#45;&gt;Node7 -->
<g id="edge6_Node000006_Node000007" class="edge">
<title>Node6&#45;&gt;Node7</title>
<g id="a_edge6_Node000006_Node000007"><a xlink:title=" ">
<path fill="none" stroke="#63b8ff" d="M137.01,-16C128.88,-16 120.75,-16 112.97,-16"/>
<polygon fill="#63b8ff" stroke="#63b8ff" points="136.97,-19.5 146.97,-16 136.97,-12.5 136.97,-19.5"/>
</a>
</g>
</g>
</g>
</svg>
