<?xml version="1.0" encoding="UTF-8" standalone="no"?>
<!DOCTYPE svg PUBLIC "-//W3C//DTD SVG 1.1//EN"
 "http://www.w3.org/Graphics/SVG/1.1/DTD/svg11.dtd">
<!-- Generated by graphviz version 14.0.1 (20251006.0113)
 -->
<!-- Title: top.TOPTWSolution.initSolution Pages: 1 -->
<svg width="534pt" height="91pt"
 viewBox="0.00 0.00 534.00 91.00" xmlns="http://www.w3.org/2000/svg" xmlns:xlink="http://www.w3.org/1999/xlink">
<g id="graph0" class="graph" transform="scale(1 1) rotate(0) translate(4 86.78)">
<title>top.TOPTWSolution.initSolution</title>
<!-- Node1 -->
<g id="Node000001" class="node">
<title>Node1</title>
<g id="a_Node000001"><a xlink:title="Inicializa o resetea la solución a un estado básico.">
<polygon fill="#999999" stroke="#666666" points="154.75,-48 0,-48 0,-28 154.75,-28 154.75,-48"/>
<text xml:space="preserve" text-anchor="middle" x="77.38" y="-34.5" font-family="Helvetica,sans-Serif" font-size="10.00">top.TOPTWSolution.initSolution</text>
</a>
</g>
</g>
<!-- Node2 -->
<g id="Node000002" class="node">
<title>Node2</title>
<g id="a_Node000002"><a xlink:href="classtop_1_1_t_o_p_t_w.html#a98907c6bbeba9aba86727ecad5058261" target="_top" xlink:title="Obtiene el número de Puntos de Interés (POIs), sin contar el depósito.">
<polygon fill="white" stroke="#666666" points="518.62,-67 411.88,-67 411.88,-47 518.62,-47 518.62,-67"/>
<text xml:space="preserve" text-anchor="middle" x="465.25" y="-53.5" font-family="Helvetica,sans-Serif" font-size="10.00">top.TOPTW.getPOIs</text>
</a>
</g>
</g>
<!-- Node1&#45;&gt;Node2 -->
<g id="edge1_Node000001_Node000002" class="edge">
<title>Node1&#45;&gt;Node2</title>
<g id="a_edge1_Node000001_Node000002"><a xlink:title=" ">
<path fill="none" stroke="#63b8ff" d="M102.37,-48.38C124.75,-57.46 159.32,-69.96 190.75,-75 268.86,-87.53 289.98,-82.36 368.75,-75 381.23,-73.83 394.5,-71.83 407.06,-69.57"/>
<polygon fill="#63b8ff" stroke="#63b8ff" points="407.68,-73.02 416.86,-67.72 406.39,-66.14 407.68,-73.02"/>
</a>
</g>
</g>
<!-- Node3 -->
<g id="Node000003" class="node">
<title>Node3</title>
<g id="a_Node000003"><a xlink:href="classtop_1_1_t_o_p_t_w.html#abfba541876921de9ec5a63373c056446" target="_top" xlink:title="Obtiene el número de vehículos disponibles.">
<polygon fill="white" stroke="#666666" points="525.75,-20 404.75,-20 404.75,0 525.75,0 525.75,-20"/>
<text xml:space="preserve" text-anchor="middle" x="465.25" y="-6.5" font-family="Helvetica,sans-Serif" font-size="10.00">top.TOPTW.getVehicles</text>
</a>
</g>
</g>
<!-- Node1&#45;&gt;Node3 -->
<g id="edge2_Node000001_Node000003" class="edge">
<title>Node1&#45;&gt;Node3</title>
<g id="a_edge2_Node000001_Node000003"><a xlink:title=" ">
<path fill="none" stroke="#63b8ff" d="M131.34,-27.54C150.04,-24.24 171.26,-20.96 190.75,-19 259.15,-12.12 337.61,-10.15 392.91,-9.72"/>
<polygon fill="#63b8ff" stroke="#63b8ff" points="392.85,-13.23 402.83,-9.67 392.81,-6.23 392.85,-13.23"/>
</a>
</g>
</g>
<!-- Node4 -->
<g id="Node000004" class="node">
<title>Node4</title>
<g id="a_Node000004"><a xlink:href="classtop_1_1_t_o_p_t_w_solution.html#a45192e5d12a12ec58030397041b4a369" target="_top" xlink:title="Constructor de la clase TOPTWSolution.">
<polygon fill="white" stroke="#666666" points="368.75,-48 190.75,-48 190.75,-28 368.75,-28 368.75,-48"/>
<text xml:space="preserve" text-anchor="middle" x="279.75" y="-34.5" font-family="Helvetica,sans-Serif" font-size="10.00">top.TOPTWSolution.TOPTWSolution</text>
</a>
</g>
</g>
<!-- Node1&#45;&gt;Node4 -->
<g id="edge3_Node000001_Node000004" class="edge">
<title>Node1&#45;&gt;Node4</title>
<g id="a_edge3_Node000001_Node000004"><a xlink:title=" ">
<path fill="none" stroke="#63b8ff" d="M154.99,-38C162.87,-38 170.96,-38 179.05,-38"/>
<polygon fill="#63b8ff" stroke="#63b8ff" points="178.94,-41.5 188.94,-38 178.94,-34.5 178.94,-41.5"/>
</a>
</g>
</g>
<!-- Node4&#45;&gt;Node2 -->
<g id="edge4_Node000004_Node000002" class="edge">
<title>Node4&#45;&gt;Node2</title>
<g id="a_edge4_Node000004_Node000002"><a xlink:title=" ">
<path fill="none" stroke="#63b8ff" d="M369.01,-47.14C379.55,-48.23 390.15,-49.33 400.25,-50.37"/>
<polygon fill="#63b8ff" stroke="#63b8ff" points="399.61,-53.83 409.92,-51.37 400.33,-46.86 399.61,-53.83"/>
</a>
</g>
</g>
<!-- Node4&#45;&gt;Node3 -->
<g id="edge5_Node000004_Node000003" class="edge">
<title>Node4&#45;&gt;Node3</title>
<g id="a_edge5_Node000004_Node000003"><a xlink:title=" ">
<path fill="none" stroke="#63b8ff" d="M349.34,-27.53C363.64,-25.35 378.74,-23.05 393.13,-20.85"/>
<polygon fill="#63b8ff" stroke="#63b8ff" points="393.63,-24.32 402.99,-19.35 392.57,-17.4 393.63,-24.32"/>
</a>
</g>
</g>
<!-- Node4&#45;&gt;Node4 -->
<g id="edge6_Node000004_Node000004" class="edge">
<title>Node4&#45;&gt;Node4</title>
<g id="a_edge6_Node000004_Node000004"><a xlink:title=" ">
<path fill="none" stroke="#63b8ff" d="M250.28,-48.34C237.68,-56.98 247.5,-66 279.75,-66 297.89,-66 308.93,-63.14 312.88,-59.11"/>
<polygon fill="#63b8ff" stroke="#63b8ff" points="316.24,-58.12 309.71,-49.77 309.61,-60.37 316.24,-58.12"/>
</a>
</g>
</g>
</g>
</svg>
