<?xml version="1.0" encoding="UTF-8" standalone="no"?>
<!DOCTYPE svg PUBLIC "-//W3C//DTD SVG 1.1//EN"
 "http://www.w3.org/Graphics/SVG/1.1/DTD/svg11.dtd">
<!-- Generated by graphviz version 14.0.1 (20251006.0113)
 -->
<!-- Title: top.TOPTW.getDueTime Pages: 1 -->
<svg width="892pt" height="125pt"
 viewBox="0.00 0.00 892.00 125.00" xmlns="http://www.w3.org/2000/svg" xmlns:xlink="http://www.w3.org/1999/xlink">
<g id="graph0" class="graph" transform="scale(1 1) rotate(0) translate(4 121)">
<title>top.TOPTW.getDueTime</title>
<!-- Node1 -->
<g id="Node000001" class="node">
<title>Node1</title>
<g id="a_Node000001"><a xlink:title="Obtiene el tiempo de fin de la ventana de tiempo (due time) de un nodo.">
<polygon fill="#999999" stroke="#666666" points="884,-61 760,-61 760,-41 884,-41 884,-61"/>
<text xml:space="preserve" text-anchor="middle" x="822" y="-47.5" font-family="Helvetica,sans-Serif" font-size="10.00">top.TOPTW.getDueTime</text>
</a>
</g>
</g>
<!-- Node2 -->
<g id="Node000002" class="node">
<title>Node2</title>
<g id="a_Node000002"><a xlink:href="classtop_1_1_t_o_p_t_w_g_r_a_s_p.html#ae706fe2d8478acf0a026bb40e8fc9df7" target="_top" xlink:title="Evalúa de forma exhaustiva todos los posibles movimientos de inserción para los clientes disponibles.">
<polygon fill="white" stroke="#666666" points="724,-114 552.75,-114 552.75,-82 724,-82 724,-114"/>
<text xml:space="preserve" text-anchor="start" x="560.75" y="-100.5" font-family="Helvetica,sans-Serif" font-size="10.00">top.TOPTWGRASP.comprehensive</text>
<text xml:space="preserve" text-anchor="middle" x="638.38" y="-88.5" font-family="Helvetica,sans-Serif" font-size="10.00">Evaluation</text>
</a>
</g>
</g>
<!-- Node1&#45;&gt;Node2 -->
<g id="edge1_Node000001_Node000002" class="edge">
<title>Node1&#45;&gt;Node2</title>
<g id="a_edge1_Node000001_Node000002"><a xlink:title=" ">
<path fill="none" stroke="#63b8ff" d="M769.59,-64.3C748.92,-69.65 724.88,-75.87 703.11,-81.51"/>
<polygon fill="#63b8ff" stroke="#63b8ff" points="770.42,-67.7 779.23,-61.81 768.67,-60.93 770.42,-67.7"/>
</a>
</g>
</g>
<!-- Node6 -->
<g id="Node000006" class="node">
<title>Node6</title>
<g id="a_Node000006"><a xlink:href="classtop_1_1_t_o_p_t_w_solution.html#a82688039e6f671f6d2f57a1888fe3c21" target="_top" xlink:title="Genera una cadena con información detallada de la solución.">
<polygon fill="white" stroke="#666666" points="498,-67 361.25,-67 361.25,-35 498,-35 498,-67"/>
<text xml:space="preserve" text-anchor="start" x="369.25" y="-53.5" font-family="Helvetica,sans-Serif" font-size="10.00">top.TOPTWSolution.getInfo</text>
<text xml:space="preserve" text-anchor="middle" x="429.62" y="-41.5" font-family="Helvetica,sans-Serif" font-size="10.00">Solution</text>
</a>
</g>
</g>
<!-- Node1&#45;&gt;Node6 -->
<g id="edge5_Node000001_Node000006" class="edge">
<title>Node1&#45;&gt;Node6</title>
<g id="a_edge5_Node000001_Node000006"><a xlink:title=" ">
<path fill="none" stroke="#63b8ff" d="M748.41,-51C676.77,-51 568.11,-51 498.24,-51"/>
<polygon fill="#63b8ff" stroke="#63b8ff" points="748.06,-54.5 758.06,-51 748.06,-47.5 748.06,-54.5"/>
</a>
</g>
</g>
<!-- Node7 -->
<g id="Node000007" class="node">
<title>Node7</title>
<g id="a_Node000007"><a xlink:href="classtop_1_1_t_o_p_t_w_reader.html#abad17029fc8928818483c5053dde0fa2" target="_top" xlink:title="Lee una instancia del problema TOPTW desde un archivo.">
<polygon fill="white" stroke="#666666" points="306.5,-20 148.75,-20 148.75,0 306.5,0 306.5,-20"/>
<text xml:space="preserve" text-anchor="middle" x="227.62" y="-6.5" font-family="Helvetica,sans-Serif" font-size="10.00">top.TOPTWReader.readProblem</text>
</a>
</g>
</g>
<!-- Node1&#45;&gt;Node7 -->
<g id="edge7_Node000001_Node000007" class="edge">
<title>Node1&#45;&gt;Node7</title>
<g id="a_edge7_Node000001_Node000007"><a xlink:title=" ">
<path fill="none" stroke="#63b8ff" d="M748.4,-44.49C686.79,-39.1 596.02,-31.46 516.75,-26 445.78,-21.11 364.89,-16.73 306.92,-13.79"/>
<polygon fill="#63b8ff" stroke="#63b8ff" points="747.78,-47.95 758.05,-45.34 748.39,-40.98 747.78,-47.95"/>
</a>
</g>
</g>
<!-- Node3 -->
<g id="Node000003" class="node">
<title>Node3</title>
<g id="a_Node000003"><a xlink:href="classtop_1_1_t_o_p_t_w_g_r_a_s_p.html#ade97c51a7d20660d7d306b756b4a6302" target="_top" xlink:title="Construye una solución greedy aleatorizada.">
<polygon fill="white" stroke="#666666" points="516.75,-117 342.5,-117 342.5,-85 516.75,-85 516.75,-117"/>
<text xml:space="preserve" text-anchor="start" x="350.5" y="-103.5" font-family="Helvetica,sans-Serif" font-size="10.00">top.TOPTWGRASP.computeGreedy</text>
<text xml:space="preserve" text-anchor="middle" x="429.62" y="-91.5" font-family="Helvetica,sans-Serif" font-size="10.00">Solution</text>
</a>
</g>
</g>
<!-- Node2&#45;&gt;Node3 -->
<g id="edge2_Node000002_Node000003" class="edge">
<title>Node2&#45;&gt;Node3</title>
<g id="a_edge2_Node000002_Node000003"><a xlink:title=" ">
<path fill="none" stroke="#63b8ff" d="M541.07,-99.4C533.02,-99.51 524.92,-99.63 516.96,-99.75"/>
<polygon fill="#63b8ff" stroke="#63b8ff" points="540.93,-102.9 550.87,-99.26 540.82,-95.9 540.93,-102.9"/>
</a>
</g>
</g>
<!-- Node4 -->
<g id="Node000004" class="node">
<title>Node4</title>
<g id="a_Node000004"><a xlink:href="classtop_1_1_t_o_p_t_w_g_r_a_s_p.html#a11242fc809f6a16ff81136c4785fdc3e" target="_top" xlink:title="Ejecuta el algoritmo GRASP durante un número determinado de iteraciones.">
<polygon fill="white" stroke="#666666" points="297.88,-61 157.38,-61 157.38,-41 297.88,-41 297.88,-61"/>
<text xml:space="preserve" text-anchor="middle" x="227.62" y="-47.5" font-family="Helvetica,sans-Serif" font-size="10.00">top.TOPTWGRASP.GRASP</text>
</a>
</g>
</g>
<!-- Node3&#45;&gt;Node4 -->
<g id="edge3_Node000003_Node000004" class="edge">
<title>Node3&#45;&gt;Node4</title>
<g id="a_edge3_Node000003_Node000004"><a xlink:title=" ">
<path fill="none" stroke="#63b8ff" d="M352,-81.84C324.33,-74.93 294.13,-67.38 270.54,-61.48"/>
<polygon fill="#63b8ff" stroke="#63b8ff" points="350.84,-85.16 361.39,-84.19 352.54,-78.37 350.84,-85.16"/>
</a>
</g>
</g>
<!-- Node5 -->
<g id="Node000005" class="node">
<title>Node5</title>
<g id="a_Node000005"><a xlink:href="classtop_1_1main_t_o_p_t_w.html#a6b155cf80c78f50335adf5a91762e0eb" target="_top" xlink:title="Método principal que ejecuta el solver TOPTW GRASP.">
<polygon fill="white" stroke="#666666" points="112.75,-39 0,-39 0,-19 112.75,-19 112.75,-39"/>
<text xml:space="preserve" text-anchor="middle" x="56.38" y="-25.5" font-family="Helvetica,sans-Serif" font-size="10.00">top.mainTOPTW.main</text>
</a>
</g>
</g>
<!-- Node4&#45;&gt;Node5 -->
<g id="edge4_Node000004_Node000005" class="edge">
<title>Node4&#45;&gt;Node5</title>
<g id="a_edge4_Node000004_Node000005"><a xlink:title=" ">
<path fill="none" stroke="#63b8ff" d="M146.18,-40.54C135.01,-39.09 123.73,-37.63 113.15,-36.25"/>
<polygon fill="#63b8ff" stroke="#63b8ff" points="145.43,-43.97 155.8,-41.79 146.33,-37.03 145.43,-43.97"/>
</a>
</g>
</g>
<!-- Node6&#45;&gt;Node4 -->
<g id="edge6_Node000006_Node000004" class="edge">
<title>Node6&#45;&gt;Node4</title>
<g id="a_edge6_Node000006_Node000004"><a xlink:title=" ">
<path fill="none" stroke="#63b8ff" d="M349.87,-51C332.85,-51 314.96,-51 298.31,-51"/>
<polygon fill="#63b8ff" stroke="#63b8ff" points="349.4,-54.5 359.4,-51 349.4,-47.5 349.4,-54.5"/>
</a>
</g>
</g>
<!-- Node7&#45;&gt;Node5 -->
<g id="edge8_Node000007_Node000005" class="edge">
<title>Node7&#45;&gt;Node5</title>
<g id="a_edge8_Node000007_Node000005"><a xlink:title=" ">
<path fill="none" stroke="#63b8ff" d="M137.21,-20.04C128.99,-20.96 120.82,-21.88 113.03,-22.75"/>
<polygon fill="#63b8ff" stroke="#63b8ff" points="137.39,-23.54 146.94,-18.95 136.61,-16.58 137.39,-23.54"/>
</a>
</g>
</g>
</g>
</svg>
