<?xml version="1.0" encoding="UTF-8" standalone="no"?>
<!DOCTYPE svg PUBLIC "-//W3C//DTD SVG 1.1//EN"
 "http://www.w3.org/Graphics/SVG/1.1/DTD/svg11.dtd">
<!-- Generated by graphviz version 14.0.1 (20251006.0113)
 -->
<!-- Title: top.TOPTWSolution.printSolution Pages: 1 -->
<svg width="708pt" height="166pt"
 viewBox="0.00 0.00 708.00 166.00" xmlns="http://www.w3.org/2000/svg" xmlns:xlink="http://www.w3.org/1999/xlink">
<g id="graph0" class="graph" transform="scale(1 1) rotate(0) translate(4 162)">
<title>top.TOPTWSolution.printSolution</title>
<!-- Node1 -->
<g id="Node000001" class="node">
<title>Node1</title>
<g id="a_Node000001"><a xlink:title="Imprime la solución en la consola y devuelve la puntuación.">
<polygon fill="#999999" stroke="#666666" points="160.75,-86 0,-86 0,-66 160.75,-66 160.75,-86"/>
<text xml:space="preserve" text-anchor="middle" x="80.38" y="-72.5" font-family="Helvetica,sans-Serif" font-size="10.00">top.TOPTWSolution.printSolution</text>
</a>
</g>
</g>
<!-- Node2 -->
<g id="Node000002" class="node">
<title>Node2</title>
<g id="a_Node000002"><a xlink:href="classtop_1_1_t_o_p_t_w_solution.html#a07ec0a724167095ad061040e11136a19" target="_top" xlink:title="Evalúa la función objetivo de la solución (puntuación total).">
<polygon fill="white" stroke="#666666" points="340.25,-70 196.75,-70 196.75,-38 340.25,-38 340.25,-70"/>
<text xml:space="preserve" text-anchor="start" x="204.75" y="-56.5" font-family="Helvetica,sans-Serif" font-size="10.00">top.TOPTWSolution.evaluate</text>
<text xml:space="preserve" text-anchor="middle" x="268.5" y="-44.5" font-family="Helvetica,sans-Serif" font-size="10.00">Fitness</text>
</a>
</g>
</g>
<!-- Node1&#45;&gt;Node2 -->
<g id="edge1_Node000001_Node000002" class="edge">
<title>Node1&#45;&gt;Node2</title>
<g id="a_edge1_Node000001_Node000002"><a xlink:title=" ">
<path fill="none" stroke="#63b8ff" d="M161.12,-66.57C169.1,-65.63 177.21,-64.67 185.22,-63.73"/>
<polygon fill="#63b8ff" stroke="#63b8ff" points="185.42,-67.23 194.94,-62.58 184.6,-60.27 185.42,-67.23"/>
</a>
</g>
</g>
<!-- Node3 -->
<g id="Node000003" class="node">
<title>Node3</title>
<g id="a_Node000003"><a xlink:href="classtop_1_1_t_o_p_t_w_solution.html#a42484d84c9770ebbb8778fc149abbb58" target="_top" xlink:title="Obtiene el número de rutas que han sido creadas en la solución.">
<polygon fill="white" stroke="#666666" points="537,-158 382.25,-158 382.25,-126 537,-126 537,-158"/>
<text xml:space="preserve" text-anchor="start" x="390.25" y="-144.5" font-family="Helvetica,sans-Serif" font-size="10.00">top.TOPTWSolution.getCreated</text>
<text xml:space="preserve" text-anchor="middle" x="459.62" y="-132.5" font-family="Helvetica,sans-Serif" font-size="10.00">Routes</text>
</a>
</g>
</g>
<!-- Node1&#45;&gt;Node3 -->
<g id="edge8_Node000001_Node000003" class="edge">
<title>Node1&#45;&gt;Node3</title>
<g id="a_edge8_Node000001_Node000003"><a xlink:title=" ">
<path fill="none" stroke="#63b8ff" d="M135.04,-86.49C154.46,-90.21 176.58,-94.38 196.75,-98 254.55,-108.36 319.66,-119.31 370.49,-127.69"/>
<polygon fill="#63b8ff" stroke="#63b8ff" points="369.84,-131.13 380.28,-129.3 370.98,-124.22 369.84,-131.13"/>
</a>
</g>
</g>
<!-- Node5 -->
<g id="Node000005" class="node">
<title>Node5</title>
<g id="a_Node000005"><a xlink:href="classtop_1_1_t_o_p_t_w_solution.html#a0c4692927923549f0e137ea74850a8b6" target="_top" xlink:title="Obtiene el índice del nodo que actúa como depósito para una ruta específica.">
<polygon fill="white" stroke="#666666" points="531.75,-108 387.5,-108 387.5,-76 531.75,-76 531.75,-108"/>
<text xml:space="preserve" text-anchor="start" x="395.5" y="-94.5" font-family="Helvetica,sans-Serif" font-size="10.00">top.TOPTWSolution.getIndex</text>
<text xml:space="preserve" text-anchor="middle" x="459.62" y="-82.5" font-family="Helvetica,sans-Serif" font-size="10.00">Route</text>
</a>
</g>
</g>
<!-- Node1&#45;&gt;Node5 -->
<g id="edge9_Node000001_Node000005" class="edge">
<title>Node1&#45;&gt;Node5</title>
<g id="a_edge9_Node000001_Node000005"><a xlink:title=" ">
<path fill="none" stroke="#63b8ff" d="M160.92,-79.37C224.04,-82.05 311.98,-85.78 375.91,-88.49"/>
<polygon fill="#63b8ff" stroke="#63b8ff" points="375.5,-91.98 385.64,-88.9 375.8,-84.98 375.5,-91.98"/>
</a>
</g>
</g>
<!-- Node8 -->
<g id="Node000008" class="node">
<title>Node8</title>
<g id="a_Node000008"><a xlink:href="classtop_1_1_t_o_p_t_w_solution.html#a559f4d8cc4b93d998243d7479fd6da8d" target="_top" xlink:title="Obtiene el sucesor de un cliente en su ruta.">
<polygon fill="white" stroke="#666666" points="543,-20 376.25,-20 376.25,0 543,0 543,-20"/>
<text xml:space="preserve" text-anchor="middle" x="459.62" y="-6.5" font-family="Helvetica,sans-Serif" font-size="10.00">top.TOPTWSolution.getSuccessor</text>
</a>
</g>
</g>
<!-- Node1&#45;&gt;Node8 -->
<g id="edge10_Node000001_Node000008" class="edge">
<title>Node1&#45;&gt;Node8</title>
<g id="a_edge10_Node000001_Node000008"><a xlink:title=" ">
<path fill="none" stroke="#63b8ff" d="M101.17,-65.69C123.66,-54.51 161.79,-37.17 196.75,-29 251.53,-16.19 314.36,-11.32 364.74,-9.71"/>
<polygon fill="#63b8ff" stroke="#63b8ff" points="364.54,-13.21 374.43,-9.44 364.34,-6.22 364.54,-13.21"/>
</a>
</g>
</g>
<!-- Node2&#45;&gt;Node3 -->
<g id="edge2_Node000002_Node000003" class="edge">
<title>Node2&#45;&gt;Node3</title>
<g id="a_edge2_Node000002_Node000003"><a xlink:title=" ">
<path fill="none" stroke="#63b8ff" d="M293.21,-70.23C314.28,-84.1 346.3,-103.84 376.25,-117 380.03,-118.66 383.95,-120.25 387.95,-121.77"/>
<polygon fill="#63b8ff" stroke="#63b8ff" points="386.6,-125.01 397.2,-125.12 388.98,-118.43 386.6,-125.01"/>
</a>
</g>
</g>
<!-- Node2&#45;&gt;Node5 -->
<g id="edge4_Node000002_Node000005" class="edge">
<title>Node2&#45;&gt;Node5</title>
<g id="a_edge4_Node000002_Node000005"><a xlink:title=" ">
<path fill="none" stroke="#63b8ff" d="M340.73,-68.31C352.24,-70.62 364.23,-73.03 375.98,-75.39"/>
<polygon fill="#63b8ff" stroke="#63b8ff" points="375.17,-78.8 385.66,-77.34 376.55,-71.94 375.17,-78.8"/>
</a>
</g>
</g>
<!-- Node6 -->
<g id="Node000006" class="node">
<title>Node6</title>
<g id="a_Node000006"><a xlink:href="classtop_1_1_t_o_p_t_w.html#ad028d42f72214373efca074483462837" target="_top" xlink:title="Obtiene la puntuación (score) de un nodo.">
<polygon fill="white" stroke="#666666" points="514.5,-58 404.75,-58 404.75,-38 514.5,-38 514.5,-58"/>
<text xml:space="preserve" text-anchor="middle" x="459.62" y="-44.5" font-family="Helvetica,sans-Serif" font-size="10.00">top.TOPTW.getScore</text>
</a>
</g>
</g>
<!-- Node2&#45;&gt;Node6 -->
<g id="edge5_Node000002_Node000006" class="edge">
<title>Node2&#45;&gt;Node6</title>
<g id="a_edge5_Node000002_Node000006"><a xlink:title=" ">
<path fill="none" stroke="#63b8ff" d="M340.73,-51.74C357.83,-51.2 376.02,-50.62 392.86,-50.09"/>
<polygon fill="#63b8ff" stroke="#63b8ff" points="392.87,-53.59 402.76,-49.77 392.65,-46.59 392.87,-53.59"/>
</a>
</g>
</g>
<!-- Node2&#45;&gt;Node8 -->
<g id="edge7_Node000002_Node000008" class="edge">
<title>Node2&#45;&gt;Node8</title>
<g id="a_edge7_Node000002_Node000008"><a xlink:title=" ">
<path fill="none" stroke="#63b8ff" d="M339.55,-37.56C351.78,-34.7 364.38,-31.76 376.25,-29 384.69,-27.04 393.63,-24.97 402.37,-22.95"/>
<polygon fill="#63b8ff" stroke="#63b8ff" points="402.87,-26.43 411.82,-20.77 401.29,-19.61 402.87,-26.43"/>
</a>
</g>
</g>
<!-- Node4 -->
<g id="Node000004" class="node">
<title>Node4</title>
<g id="a_Node000004"><a xlink:href="classtop_1_1_t_o_p_t_w.html#abfba541876921de9ec5a63373c056446" target="_top" xlink:title="Obtiene el número de vehículos disponibles.">
<polygon fill="white" stroke="#666666" points="700,-152 579,-152 579,-132 700,-132 700,-152"/>
<text xml:space="preserve" text-anchor="middle" x="639.5" y="-138.5" font-family="Helvetica,sans-Serif" font-size="10.00">top.TOPTW.getVehicles</text>
</a>
</g>
</g>
<!-- Node3&#45;&gt;Node4 -->
<g id="edge3_Node000003_Node000004" class="edge">
<title>Node3&#45;&gt;Node4</title>
<g id="a_edge3_Node000003_Node000004"><a xlink:title=" ">
<path fill="none" stroke="#63b8ff" d="M537.35,-142C547.29,-142 557.43,-142 567.27,-142"/>
<polygon fill="#63b8ff" stroke="#63b8ff" points="567.14,-145.5 577.14,-142 567.14,-138.5 567.14,-145.5"/>
</a>
</g>
</g>
<!-- Node7 -->
<g id="Node000007" class="node">
<title>Node7</title>
<g id="a_Node000007"><a xlink:href="classtop_1_1_t_o_p_t_w.html#a642e958056dc77c10d72831d633e2f49" target="_top" xlink:title="Comprueba si un índice de nodo corresponde a un depósito.">
<polygon fill="white" stroke="#666666" points="691.75,-58 587.25,-58 587.25,-38 691.75,-38 691.75,-58"/>
<text xml:space="preserve" text-anchor="middle" x="639.5" y="-44.5" font-family="Helvetica,sans-Serif" font-size="10.00">top.TOPTW.isDepot</text>
</a>
</g>
</g>
<!-- Node6&#45;&gt;Node7 -->
<g id="edge6_Node000006_Node000007" class="edge">
<title>Node6&#45;&gt;Node7</title>
<g id="a_edge6_Node000006_Node000007"><a xlink:title=" ">
<path fill="none" stroke="#63b8ff" d="M514.96,-48C534.09,-48 555.75,-48 575.53,-48"/>
<polygon fill="#63b8ff" stroke="#63b8ff" points="575.42,-51.5 585.42,-48 575.42,-44.5 575.42,-51.5"/>
</a>
</g>
</g>
</g>
</svg>
