<?xml version="1.0" encoding="UTF-8" standalone="no"?>
<!DOCTYPE svg PUBLIC "-//W3C//DTD SVG 1.1//EN"
 "http://www.w3.org/Graphics/SVG/1.1/DTD/svg11.dtd">
<!-- Generated by graphviz version 14.0.1 (20251006.0113)
 -->
<!-- Title: top.TOPTWGRASP.comprehensiveEvaluation Pages: 1 -->
<svg width="541pt" height="397pt"
 viewBox="0.00 0.00 541.00 397.00" xmlns="http://www.w3.org/2000/svg" xmlns:xlink="http://www.w3.org/1999/xlink">
<g id="graph0" class="graph" transform="scale(1 1) rotate(0) translate(4 393)">
<title>top.TOPTWGRASP.comprehensiveEvaluation</title>
<!-- Node1 -->
<g id="Node000001" class="node">
<title>Node1</title>
<g id="a_Node000001"><a xlink:title="Evalúa de forma exhaustiva todos los posibles movimientos de inserción para los clientes disponibles.">
<polygon fill="#999999" stroke="#666666" points="171.25,-197 0,-197 0,-165 171.25,-165 171.25,-197"/>
<text xml:space="preserve" text-anchor="start" x="8" y="-183.5" font-family="Helvetica,sans-Serif" font-size="10.00">top.TOPTWGRASP.comprehensive</text>
<text xml:space="preserve" text-anchor="middle" x="85.62" y="-171.5" font-family="Helvetica,sans-Serif" font-size="10.00">Evaluation</text>
</a>
</g>
</g>
<!-- Node2 -->
<g id="Node000002" class="node">
<title>Node2</title>
<g id="a_Node000002"><a xlink:href="classtop_1_1_t_o_p_t_w_solution.html#a42484d84c9770ebbb8778fc149abbb58" target="_top" xlink:title="Obtiene el número de rutas que han sido creadas en la solución.">
<polygon fill="white" stroke="#666666" points="368,-389 213.25,-389 213.25,-357 368,-357 368,-389"/>
<text xml:space="preserve" text-anchor="start" x="221.25" y="-375.5" font-family="Helvetica,sans-Serif" font-size="10.00">top.TOPTWSolution.getCreated</text>
<text xml:space="preserve" text-anchor="middle" x="290.62" y="-363.5" font-family="Helvetica,sans-Serif" font-size="10.00">Routes</text>
</a>
</g>
</g>
<!-- Node1&#45;&gt;Node2 -->
<g id="edge1_Node000001_Node000002" class="edge">
<title>Node1&#45;&gt;Node2</title>
<g id="a_edge1_Node000001_Node000002"><a xlink:title=" ">
<path fill="none" stroke="#63b8ff" d="M94.31,-197.31C110.55,-230.06 151.5,-304.17 207.25,-345 210.45,-347.35 213.87,-349.51 217.42,-351.49"/>
<polygon fill="#63b8ff" stroke="#63b8ff" points="215.85,-354.62 226.36,-355.97 218.98,-348.36 215.85,-354.62"/>
</a>
</g>
</g>
<!-- Node4 -->
<g id="Node000004" class="node">
<title>Node4</title>
<g id="a_Node000004"><a xlink:href="classtop_1_1_t_o_p_t_w_solution.html#a822040f322ba94a35ed101f6c53f0b33" target="_top" xlink:title="Obtiene la distancia entre dos nodos consultando el problema asociado.">
<polygon fill="white" stroke="#666666" points="370.25,-336 211,-336 211,-316 370.25,-316 370.25,-336"/>
<text xml:space="preserve" text-anchor="middle" x="290.62" y="-322.5" font-family="Helvetica,sans-Serif" font-size="10.00">top.TOPTWSolution.getDistance</text>
</a>
</g>
</g>
<!-- Node1&#45;&gt;Node4 -->
<g id="edge3_Node000001_Node000004" class="edge">
<title>Node1&#45;&gt;Node4</title>
<g id="a_edge3_Node000001_Node000004"><a xlink:title=" ">
<path fill="none" stroke="#63b8ff" d="M97.46,-197.43C116.35,-224.68 158.02,-279.01 207.25,-307 210.06,-308.6 213,-310.06 216.02,-311.4"/>
<polygon fill="#63b8ff" stroke="#63b8ff" points="214.55,-314.59 225.14,-314.95 217.09,-308.06 214.55,-314.59"/>
</a>
</g>
</g>
<!-- Node6 -->
<g id="Node000006" class="node">
<title>Node6</title>
<g id="a_Node000006"><a xlink:href="classtop_1_1_t_o_p_t_w.html#a0d14aca2e33a8fb1eb08013c3d55abfa" target="_top" xlink:title="Obtiene el tiempo de fin de la ventana de tiempo (due time) de un nodo.">
<polygon fill="white" stroke="#666666" points="352.62,-298 228.62,-298 228.62,-278 352.62,-278 352.62,-298"/>
<text xml:space="preserve" text-anchor="middle" x="290.62" y="-284.5" font-family="Helvetica,sans-Serif" font-size="10.00">top.TOPTW.getDueTime</text>
</a>
</g>
</g>
<!-- Node1&#45;&gt;Node6 -->
<g id="edge6_Node000001_Node000006" class="edge">
<title>Node1&#45;&gt;Node6</title>
<g id="a_edge6_Node000001_Node000006"><a xlink:title=" ">
<path fill="none" stroke="#63b8ff" d="M103.96,-197.22C126.18,-217.12 166.69,-250.47 207.25,-269 211.46,-270.92 215.87,-272.66 220.39,-274.22"/>
<polygon fill="#63b8ff" stroke="#63b8ff" points="219.01,-277.46 229.6,-277.13 221.11,-270.78 219.01,-277.46"/>
</a>
</g>
</g>
<!-- Node8 -->
<g id="Node000008" class="node">
<title>Node8</title>
<g id="a_Node000008"><a xlink:href="classtop_1_1_t_o_p_t_w_solution.html#a0c4692927923549f0e137ea74850a8b6" target="_top" xlink:title="Obtiene el índice del nodo que actúa como depósito para una ruta específica.">
<polygon fill="white" stroke="#666666" points="362.75,-260 218.5,-260 218.5,-228 362.75,-228 362.75,-260"/>
<text xml:space="preserve" text-anchor="start" x="226.5" y="-246.5" font-family="Helvetica,sans-Serif" font-size="10.00">top.TOPTWSolution.getIndex</text>
<text xml:space="preserve" text-anchor="middle" x="290.62" y="-234.5" font-family="Helvetica,sans-Serif" font-size="10.00">Route</text>
</a>
</g>
</g>
<!-- Node1&#45;&gt;Node8 -->
<g id="edge8_Node000001_Node000008" class="edge">
<title>Node1&#45;&gt;Node8</title>
<g id="a_edge8_Node000001_Node000008"><a xlink:title=" ">
<path fill="none" stroke="#63b8ff" d="M138.54,-197.49C159.82,-204.21 184.7,-212.03 207.25,-219 212.73,-220.7 218.42,-222.44 224.13,-224.19"/>
<polygon fill="#63b8ff" stroke="#63b8ff" points="223.07,-227.53 233.65,-227.1 225.11,-220.83 223.07,-227.53"/>
</a>
</g>
</g>
<!-- Node9 -->
<g id="Node000009" class="node">
<title>Node9</title>
<g id="a_Node000009"><a xlink:href="classtop_1_1_t_o_p_t_w.html#a9363c6b94f247ce746510fe1036d143a" target="_top" xlink:title="Obtiene el tiempo máximo permitido por ruta.">
<polygon fill="white" stroke="#666666" points="373.62,-210 207.62,-210 207.62,-190 373.62,-190 373.62,-210"/>
<text xml:space="preserve" text-anchor="middle" x="290.62" y="-196.5" font-family="Helvetica,sans-Serif" font-size="10.00">top.TOPTW.getMaxTimePerRoute</text>
</a>
</g>
</g>
<!-- Node1&#45;&gt;Node9 -->
<g id="edge9_Node000001_Node000009" class="edge">
<title>Node1&#45;&gt;Node9</title>
<g id="a_edge9_Node000001_Node000009"><a xlink:title=" ">
<path fill="none" stroke="#63b8ff" d="M171.54,-188.95C179.59,-189.7 187.78,-190.47 195.91,-191.23"/>
<polygon fill="#63b8ff" stroke="#63b8ff" points="195.54,-194.71 205.82,-192.16 196.19,-187.74 195.54,-194.71"/>
</a>
</g>
</g>
<!-- Node10 -->
<g id="Node000010" class="node">
<title>Node10</title>
<g id="a_Node000010"><a xlink:href="classtop_1_1_t_o_p_t_w_solution.html#a4ed9a239d683e7770681aba78e8121a3" target="_top" xlink:title="Obtiene la instancia del problema asociada a esta solución.">
<polygon fill="white" stroke="#666666" points="368.75,-172 212.5,-172 212.5,-152 368.75,-152 368.75,-172"/>
<text xml:space="preserve" text-anchor="middle" x="290.62" y="-158.5" font-family="Helvetica,sans-Serif" font-size="10.00">top.TOPTWSolution.getProblem</text>
</a>
</g>
</g>
<!-- Node1&#45;&gt;Node10 -->
<g id="edge10_Node000001_Node000010" class="edge">
<title>Node1&#45;&gt;Node10</title>
<g id="a_edge10_Node000001_Node000010"><a xlink:title=" ">
<path fill="none" stroke="#63b8ff" d="M171.54,-173.05C181.22,-172.15 191.11,-171.22 200.84,-170.31"/>
<polygon fill="#63b8ff" stroke="#63b8ff" points="201.04,-173.81 210.67,-169.39 200.38,-166.84 201.04,-173.81"/>
</a>
</g>
</g>
<!-- Node11 -->
<g id="Node000011" class="node">
<title>Node11</title>
<g id="a_Node000011"><a xlink:href="classtop_1_1_t_o_p_t_w.html#a4e74b10708b232a801a4ad147892b70a" target="_top" xlink:title="Obtiene el tiempo de inicio de la ventana de tiempo (ready time) de un nodo.">
<polygon fill="white" stroke="#666666" points="357.88,-134 223.38,-134 223.38,-114 357.88,-114 357.88,-134"/>
<text xml:space="preserve" text-anchor="middle" x="290.62" y="-120.5" font-family="Helvetica,sans-Serif" font-size="10.00">top.TOPTW.getReadyTime</text>
</a>
</g>
</g>
<!-- Node1&#45;&gt;Node11 -->
<g id="edge11_Node000001_Node000011" class="edge">
<title>Node1&#45;&gt;Node11</title>
<g id="a_edge11_Node000001_Node000011"><a xlink:title=" ">
<path fill="none" stroke="#63b8ff" d="M135.67,-164.59C157.47,-157.54 183.52,-149.46 207.25,-143 214.76,-140.96 222.69,-138.94 230.55,-137.04"/>
<polygon fill="#63b8ff" stroke="#63b8ff" points="231.16,-140.49 240.08,-134.77 229.54,-133.68 231.16,-140.49"/>
</a>
</g>
</g>
<!-- Node12 -->
<g id="Node000012" class="node">
<title>Node12</title>
<g id="a_Node000012"><a xlink:href="classtop_1_1_t_o_p_t_w.html#ad028d42f72214373efca074483462837" target="_top" xlink:title="Obtiene la puntuación (score) de un nodo.">
<polygon fill="white" stroke="#666666" points="345.5,-96 235.75,-96 235.75,-76 345.5,-76 345.5,-96"/>
<text xml:space="preserve" text-anchor="middle" x="290.62" y="-82.5" font-family="Helvetica,sans-Serif" font-size="10.00">top.TOPTW.getScore</text>
</a>
</g>
</g>
<!-- Node1&#45;&gt;Node12 -->
<g id="edge13_Node000001_Node000012" class="edge">
<title>Node1&#45;&gt;Node12</title>
<g id="a_edge13_Node000001_Node000012"><a xlink:title=" ">
<path fill="none" stroke="#63b8ff" d="M107.64,-164.65C130.81,-147.4 169.77,-120.6 207.25,-105 212.84,-102.67 218.77,-100.6 224.78,-98.77"/>
<polygon fill="#63b8ff" stroke="#63b8ff" points="225.5,-102.2 234.17,-96.12 223.6,-95.46 225.5,-102.2"/>
</a>
</g>
</g>
<!-- Node13 -->
<g id="Node000013" class="node">
<title>Node13</title>
<g id="a_Node000013"><a xlink:href="classtop_1_1_t_o_p_t_w.html#a06b2b40d137f16bdda21c734d3ea8ac7" target="_top" xlink:title="Obtiene el tiempo de servicio requerido en un nodo.">
<polygon fill="white" stroke="#666666" points="360.12,-58 221.12,-58 221.12,-38 360.12,-38 360.12,-58"/>
<text xml:space="preserve" text-anchor="middle" x="290.62" y="-44.5" font-family="Helvetica,sans-Serif" font-size="10.00">top.TOPTW.getServiceTime</text>
</a>
</g>
</g>
<!-- Node1&#45;&gt;Node13 -->
<g id="edge15_Node000001_Node000013" class="edge">
<title>Node1&#45;&gt;Node13</title>
<g id="a_edge15_Node000001_Node000013"><a xlink:title=" ">
<path fill="none" stroke="#63b8ff" d="M99.12,-164.55C119.1,-139.46 160.77,-91.91 207.25,-67 210.48,-65.27 213.87,-63.69 217.35,-62.26"/>
<polygon fill="#63b8ff" stroke="#63b8ff" points="218.39,-65.6 226.59,-58.89 216,-59.03 218.39,-65.6"/>
</a>
</g>
</g>
<!-- Node14 -->
<g id="Node000014" class="node">
<title>Node14</title>
<g id="a_Node000014"><a xlink:href="classtop_1_1_t_o_p_t_w_solution.html#a559f4d8cc4b93d998243d7479fd6da8d" target="_top" xlink:title="Obtiene el sucesor de un cliente en su ruta.">
<polygon fill="white" stroke="#666666" points="374,-20 207.25,-20 207.25,0 374,0 374,-20"/>
<text xml:space="preserve" text-anchor="middle" x="290.62" y="-6.5" font-family="Helvetica,sans-Serif" font-size="10.00">top.TOPTWSolution.getSuccessor</text>
</a>
</g>
</g>
<!-- Node1&#45;&gt;Node14 -->
<g id="edge17_Node000001_Node000014" class="edge">
<title>Node1&#45;&gt;Node14</title>
<g id="a_edge17_Node000001_Node000014"><a xlink:title=" ">
<path fill="none" stroke="#63b8ff" d="M94.7,-164.71C111.21,-133.2 151.99,-63.9 207.25,-29 209.55,-27.55 211.96,-26.2 214.43,-24.96"/>
<polygon fill="#63b8ff" stroke="#63b8ff" points="215.77,-28.2 223.56,-21.01 212.99,-21.77 215.77,-28.2"/>
</a>
</g>
</g>
<!-- Node3 -->
<g id="Node000003" class="node">
<title>Node3</title>
<g id="a_Node000003"><a xlink:href="classtop_1_1_t_o_p_t_w.html#abfba541876921de9ec5a63373c056446" target="_top" xlink:title="Obtiene el número de vehículos disponibles.">
<polygon fill="white" stroke="#666666" points="532.12,-389 411.12,-389 411.12,-369 532.12,-369 532.12,-389"/>
<text xml:space="preserve" text-anchor="middle" x="471.62" y="-375.5" font-family="Helvetica,sans-Serif" font-size="10.00">top.TOPTW.getVehicles</text>
</a>
</g>
</g>
<!-- Node2&#45;&gt;Node3 -->
<g id="edge2_Node000002_Node000003" class="edge">
<title>Node2&#45;&gt;Node3</title>
<g id="a_edge2_Node000002_Node000003"><a xlink:title=" ">
<path fill="none" stroke="#63b8ff" d="M368.32,-375.57C378.66,-375.92 389.23,-376.27 399.47,-376.61"/>
<polygon fill="#63b8ff" stroke="#63b8ff" points="399.24,-380.11 409.35,-376.95 399.47,-373.11 399.24,-380.11"/>
</a>
</g>
</g>
<!-- Node5 -->
<g id="Node000005" class="node">
<title>Node5</title>
<g id="a_Node000005"><a xlink:href="classtop_1_1_t_o_p_t_w.html#a137f100c5711b4b93cb5ae1711ddaf9a" target="_top" xlink:title="Calcula la distancia total de una ruta representada por un array de enteros.">
<polygon fill="white" stroke="#666666" points="533.25,-333 410,-333 410,-313 533.25,-313 533.25,-333"/>
<text xml:space="preserve" text-anchor="middle" x="471.62" y="-319.5" font-family="Helvetica,sans-Serif" font-size="10.00">top.TOPTW.getDistance</text>
</a>
</g>
</g>
<!-- Node4&#45;&gt;Node5 -->
<g id="edge4_Node000004_Node000005" class="edge">
<title>Node4&#45;&gt;Node5</title>
<g id="a_edge4_Node000004_Node000005"><a xlink:title=" ">
<path fill="none" stroke="#63b8ff" d="M370.66,-324.68C379.88,-324.52 389.25,-324.36 398.37,-324.21"/>
<polygon fill="#63b8ff" stroke="#63b8ff" points="398.31,-327.71 408.25,-324.05 398.19,-320.71 398.31,-327.71"/>
</a>
</g>
</g>
<!-- Node5&#45;&gt;Node5 -->
<g id="edge5_Node000005_Node000005" class="edge">
<title>Node5&#45;&gt;Node5</title>
<g id="a_edge5_Node000005_Node000005"><a xlink:title=" ">
<path fill="none" stroke="#63b8ff" d="M442.87,-333.34C430.58,-341.98 440.16,-351 471.62,-351 489.32,-351 500.1,-348.14 503.95,-344.11"/>
<polygon fill="#63b8ff" stroke="#63b8ff" points="507.33,-343.17 500.86,-334.78 500.68,-345.37 507.33,-343.17"/>
</a>
</g>
</g>
<!-- Node7 -->
<g id="Node000007" class="node">
<title>Node7</title>
<g id="a_Node000007"><a xlink:href="classtop_1_1_t_o_p_t_w.html#a642e958056dc77c10d72831d633e2f49" target="_top" xlink:title="Comprueba si un índice de nodo corresponde a un depósito.">
<polygon fill="white" stroke="#666666" points="523.88,-115 419.38,-115 419.38,-95 523.88,-95 523.88,-115"/>
<text xml:space="preserve" text-anchor="middle" x="471.62" y="-101.5" font-family="Helvetica,sans-Serif" font-size="10.00">top.TOPTW.isDepot</text>
</a>
</g>
</g>
<!-- Node6&#45;&gt;Node7 -->
<g id="edge7_Node000006_Node000007" class="edge">
<title>Node6&#45;&gt;Node7</title>
<g id="a_edge7_Node000006_Node000007"><a xlink:title=" ">
<path fill="none" stroke="#63b8ff" d="M353.03,-279.78C360.52,-277.11 367.73,-273.6 374,-269 423.83,-232.47 452.41,-161.83 464.2,-126.38"/>
<polygon fill="#63b8ff" stroke="#63b8ff" points="467.54,-127.46 467.23,-116.87 460.86,-125.34 467.54,-127.46"/>
</a>
</g>
</g>
<!-- Node11&#45;&gt;Node7 -->
<g id="edge12_Node000011_Node000007" class="edge">
<title>Node11&#45;&gt;Node7</title>
<g id="a_edge12_Node000011_Node000007"><a xlink:title=" ">
<path fill="none" stroke="#63b8ff" d="M358.28,-116.93C374.43,-115.21 391.66,-113.38 407.64,-111.69"/>
<polygon fill="#63b8ff" stroke="#63b8ff" points="407.94,-115.17 417.52,-110.64 407.2,-108.21 407.94,-115.17"/>
</a>
</g>
</g>
<!-- Node12&#45;&gt;Node7 -->
<g id="edge14_Node000012_Node000007" class="edge">
<title>Node12&#45;&gt;Node7</title>
<g id="a_edge14_Node000012_Node000007"><a xlink:title=" ">
<path fill="none" stroke="#63b8ff" d="M345.82,-91.75C365.35,-93.83 387.55,-96.18 407.76,-98.33"/>
<polygon fill="#63b8ff" stroke="#63b8ff" points="407.25,-101.79 417.57,-99.37 407.99,-94.83 407.25,-101.79"/>
</a>
</g>
</g>
<!-- Node13&#45;&gt;Node7 -->
<g id="edge16_Node000013_Node000007" class="edge">
<title>Node13&#45;&gt;Node7</title>
<g id="a_edge16_Node000013_Node000007"><a xlink:title=" ">
<path fill="none" stroke="#63b8ff" d="M342.47,-58.49C352.98,-61 363.91,-63.87 374,-67 395.2,-73.57 418.36,-82.62 436.69,-90.23"/>
<polygon fill="#63b8ff" stroke="#63b8ff" points="435.18,-93.39 445.75,-94.05 437.9,-86.94 435.18,-93.39"/>
</a>
</g>
</g>
</g>
</svg>
