<?xml version="1.0" encoding="UTF-8" standalone="no"?>
<!DOCTYPE svg PUBLIC "-//W3C//DTD SVG 1.1//EN"
 "http://www.w3.org/Graphics/SVG/1.1/DTD/svg11.dtd">
<!-- Generated by graphviz version 14.0.1 (20251006.0113)
 -->
<!-- Title: top.TOPTW.getScore Pages: 1 -->
<svg width="861pt" height="190pt"
 viewBox="0.00 0.00 861.00 190.00" xmlns="http://www.w3.org/2000/svg" xmlns:xlink="http://www.w3.org/1999/xlink">
<g id="graph0" class="graph" transform="scale(1 1) rotate(0) translate(4 186)">
<title>top.TOPTW.getScore</title>
<!-- Node1 -->
<g id="Node000001" class="node">
<title>Node1</title>
<g id="a_Node000001"><a xlink:title="Obtiene la puntuación (score) de un nodo.">
<polygon fill="#999999" stroke="#666666" points="852.5,-80 742.75,-80 742.75,-60 852.5,-60 852.5,-80"/>
<text xml:space="preserve" text-anchor="middle" x="797.62" y="-66.5" font-family="Helvetica,sans-Serif" font-size="10.00">top.TOPTW.getScore</text>
</a>
</g>
</g>
<!-- Node2 -->
<g id="Node000002" class="node">
<title>Node2</title>
<g id="a_Node000002"><a xlink:href="classtop_1_1_t_o_p_t_w_g_r_a_s_p.html#ae706fe2d8478acf0a026bb40e8fc9df7" target="_top" xlink:title="Evalúa de forma exhaustiva todos los posibles movimientos de inserción para los clientes disponibles.">
<polygon fill="white" stroke="#666666" points="706.75,-174 535.5,-174 535.5,-142 706.75,-142 706.75,-174"/>
<text xml:space="preserve" text-anchor="start" x="543.5" y="-160.5" font-family="Helvetica,sans-Serif" font-size="10.00">top.TOPTWGRASP.comprehensive</text>
<text xml:space="preserve" text-anchor="middle" x="621.12" y="-148.5" font-family="Helvetica,sans-Serif" font-size="10.00">Evaluation</text>
</a>
</g>
</g>
<!-- Node1&#45;&gt;Node2 -->
<g id="edge1_Node000001_Node000002" class="edge">
<title>Node1&#45;&gt;Node2</title>
<g id="a_edge1_Node000001_Node000002"><a xlink:title=" ">
<path fill="none" stroke="#63b8ff" d="M766.93,-85.82C749.47,-95.05 726.94,-106.83 706.75,-117 690.27,-125.3 671.85,-134.26 656.42,-141.68"/>
<polygon fill="#63b8ff" stroke="#63b8ff" points="768.54,-88.93 775.74,-81.15 765.27,-82.74 768.54,-88.93"/>
</a>
</g>
</g>
<!-- Node6 -->
<g id="Node000006" class="node">
<title>Node6</title>
<g id="a_Node000006"><a xlink:href="classtop_1_1_t_o_p_t_w_solution.html#a07ec0a724167095ad061040e11136a19" target="_top" xlink:title="Evalúa la función objetivo de la solución (puntuación total).">
<polygon fill="white" stroke="#666666" points="692.88,-108 549.38,-108 549.38,-76 692.88,-76 692.88,-108"/>
<text xml:space="preserve" text-anchor="start" x="557.38" y="-94.5" font-family="Helvetica,sans-Serif" font-size="10.00">top.TOPTWSolution.evaluate</text>
<text xml:space="preserve" text-anchor="middle" x="621.12" y="-82.5" font-family="Helvetica,sans-Serif" font-size="10.00">Fitness</text>
</a>
</g>
</g>
<!-- Node1&#45;&gt;Node6 -->
<g id="edge5_Node000001_Node000006" class="edge">
<title>Node1&#45;&gt;Node6</title>
<g id="a_edge5_Node000001_Node000006"><a xlink:title=" ">
<path fill="none" stroke="#63b8ff" d="M731.23,-78.24C718.87,-79.8 705.89,-81.44 693.36,-83.02"/>
<polygon fill="#63b8ff" stroke="#63b8ff" points="731.38,-81.75 740.87,-77.03 730.51,-74.81 731.38,-81.75"/>
</a>
</g>
</g>
<!-- Node8 -->
<g id="Node000008" class="node">
<title>Node8</title>
<g id="a_Node000008"><a xlink:href="classtop_1_1_t_o_p_t_w_solution.html#a82688039e6f671f6d2f57a1888fe3c21" target="_top" xlink:title="Genera una cadena con información detallada de la solución.">
<polygon fill="white" stroke="#666666" points="480.75,-56 344,-56 344,-24 480.75,-24 480.75,-56"/>
<text xml:space="preserve" text-anchor="start" x="352" y="-42.5" font-family="Helvetica,sans-Serif" font-size="10.00">top.TOPTWSolution.getInfo</text>
<text xml:space="preserve" text-anchor="middle" x="412.38" y="-30.5" font-family="Helvetica,sans-Serif" font-size="10.00">Solution</text>
</a>
</g>
</g>
<!-- Node1&#45;&gt;Node8 -->
<g id="edge8_Node000001_Node000008" class="edge">
<title>Node1&#45;&gt;Node8</title>
<g id="a_edge8_Node000001_Node000008"><a xlink:title=" ">
<path fill="none" stroke="#63b8ff" d="M731.27,-64.88C661.56,-59.43 551.68,-50.83 481.08,-45.3"/>
<polygon fill="#63b8ff" stroke="#63b8ff" points="730.78,-68.36 741.02,-65.65 731.32,-61.38 730.78,-68.36"/>
</a>
</g>
</g>
<!-- Node9 -->
<g id="Node000009" class="node">
<title>Node9</title>
<g id="a_Node000009"><a xlink:href="classtop_1_1_t_o_p_t_w_g_r_a_s_p.html#ae0fad47956718e9e96ee5fb6022d9f5b" target="_top" xlink:title="Obtiene la máxima puntuación posible entre todos los nodos del problema.">
<polygon fill="white" stroke="#666666" points="702.62,-20 539.62,-20 539.62,0 702.62,0 702.62,-20"/>
<text xml:space="preserve" text-anchor="middle" x="621.12" y="-6.5" font-family="Helvetica,sans-Serif" font-size="10.00">top.TOPTWGRASP.getMaxScore</text>
</a>
</g>
</g>
<!-- Node1&#45;&gt;Node9 -->
<g id="edge10_Node000001_Node000009" class="edge">
<title>Node1&#45;&gt;Node9</title>
<g id="a_edge10_Node000001_Node000009"><a xlink:title=" ">
<path fill="none" stroke="#63b8ff" d="M762.15,-55.21C745.56,-48.34 725.28,-40.32 706.75,-34 692.3,-29.07 676.22,-24.33 662,-20.38"/>
<polygon fill="#63b8ff" stroke="#63b8ff" points="760.5,-58.31 771.07,-58.94 763.2,-51.85 760.5,-58.31"/>
</a>
</g>
</g>
<!-- Node3 -->
<g id="Node000003" class="node">
<title>Node3</title>
<g id="a_Node000003"><a xlink:href="classtop_1_1_t_o_p_t_w_g_r_a_s_p.html#ade97c51a7d20660d7d306b756b4a6302" target="_top" xlink:title="Construye una solución greedy aleatorizada.">
<polygon fill="white" stroke="#666666" points="499.5,-182 325.25,-182 325.25,-150 499.5,-150 499.5,-182"/>
<text xml:space="preserve" text-anchor="start" x="333.25" y="-168.5" font-family="Helvetica,sans-Serif" font-size="10.00">top.TOPTWGRASP.computeGreedy</text>
<text xml:space="preserve" text-anchor="middle" x="412.38" y="-156.5" font-family="Helvetica,sans-Serif" font-size="10.00">Solution</text>
</a>
</g>
</g>
<!-- Node2&#45;&gt;Node3 -->
<g id="edge2_Node000002_Node000003" class="edge">
<title>Node2&#45;&gt;Node3</title>
<g id="a_edge2_Node000002_Node000003"><a xlink:title=" ">
<path fill="none" stroke="#63b8ff" d="M523.82,-161.73C515.77,-162.04 507.67,-162.35 499.71,-162.66"/>
<polygon fill="#63b8ff" stroke="#63b8ff" points="523.77,-165.23 533.62,-161.35 523.5,-158.24 523.77,-165.23"/>
</a>
</g>
</g>
<!-- Node4 -->
<g id="Node000004" class="node">
<title>Node4</title>
<g id="a_Node000004"><a xlink:href="classtop_1_1_t_o_p_t_w_g_r_a_s_p.html#a11242fc809f6a16ff81136c4785fdc3e" target="_top" xlink:title="Ejecuta el algoritmo GRASP durante un número determinado de iteraciones.">
<polygon fill="white" stroke="#666666" points="289.25,-132 148.75,-132 148.75,-112 289.25,-112 289.25,-132"/>
<text xml:space="preserve" text-anchor="middle" x="219" y="-118.5" font-family="Helvetica,sans-Serif" font-size="10.00">top.TOPTWGRASP.GRASP</text>
</a>
</g>
</g>
<!-- Node3&#45;&gt;Node4 -->
<g id="edge3_Node000003_Node000004" class="edge">
<title>Node3&#45;&gt;Node4</title>
<g id="a_edge3_Node000003_Node000004"><a xlink:title=" ">
<path fill="none" stroke="#63b8ff" d="M328.65,-146.98C307.04,-142.01 284.54,-136.84 265.65,-132.5"/>
<polygon fill="#63b8ff" stroke="#63b8ff" points="327.84,-150.38 338.37,-149.21 329.41,-143.56 327.84,-150.38"/>
</a>
</g>
</g>
<!-- Node5 -->
<g id="Node000005" class="node">
<title>Node5</title>
<g id="a_Node000005"><a xlink:href="classtop_1_1main_t_o_p_t_w.html#a6b155cf80c78f50335adf5a91762e0eb" target="_top" xlink:title="Método principal que ejecuta el solver TOPTW GRASP.">
<polygon fill="white" stroke="#666666" points="112.75,-132 0,-132 0,-112 112.75,-112 112.75,-132"/>
<text xml:space="preserve" text-anchor="middle" x="56.38" y="-118.5" font-family="Helvetica,sans-Serif" font-size="10.00">top.mainTOPTW.main</text>
</a>
</g>
</g>
<!-- Node4&#45;&gt;Node5 -->
<g id="edge4_Node000004_Node000005" class="edge">
<title>Node4&#45;&gt;Node5</title>
<g id="a_edge4_Node000004_Node000005"><a xlink:title=" ">
<path fill="none" stroke="#63b8ff" d="M137.01,-122C128.88,-122 120.75,-122 112.97,-122"/>
<polygon fill="#63b8ff" stroke="#63b8ff" points="136.97,-125.5 146.97,-122 136.97,-118.5 136.97,-125.5"/>
</a>
</g>
</g>
<!-- Node6&#45;&gt;Node4 -->
<g id="edge6_Node000006_Node000004" class="edge">
<title>Node6&#45;&gt;Node4</title>
<g id="a_edge6_Node000006_Node000004"><a xlink:title=" ">
<path fill="none" stroke="#63b8ff" d="M537.85,-99.76C525.02,-100.89 511.9,-102.01 499.5,-103 427.99,-108.69 346.1,-114.13 289.52,-117.72"/>
<polygon fill="#63b8ff" stroke="#63b8ff" points="537.87,-103.27 547.52,-98.89 537.25,-96.3 537.87,-103.27"/>
</a>
</g>
</g>
<!-- Node7 -->
<g id="Node000007" class="node">
<title>Node7</title>
<g id="a_Node000007"><a xlink:href="classtop_1_1_t_o_p_t_w_solution.html#a5df1eb3b6f4bc1265f12ffc201d86b0d" target="_top" xlink:title="Imprime la solución en la consola y devuelve la puntuación.">
<polygon fill="white" stroke="#666666" points="492.75,-94 332,-94 332,-74 492.75,-74 492.75,-94"/>
<text xml:space="preserve" text-anchor="middle" x="412.38" y="-80.5" font-family="Helvetica,sans-Serif" font-size="10.00">top.TOPTWSolution.printSolution</text>
</a>
</g>
</g>
<!-- Node6&#45;&gt;Node7 -->
<g id="edge7_Node000006_Node000007" class="edge">
<title>Node6&#45;&gt;Node7</title>
<g id="a_edge7_Node000006_Node000007"><a xlink:title=" ">
<path fill="none" stroke="#63b8ff" d="M537.85,-88.82C523.13,-88.25 507.82,-87.65 493.17,-87.09"/>
<polygon fill="#63b8ff" stroke="#63b8ff" points="537.33,-92.3 547.46,-89.19 537.6,-85.3 537.33,-92.3"/>
</a>
</g>
</g>
<!-- Node8&#45;&gt;Node4 -->
<g id="edge9_Node000008_Node000004" class="edge">
<title>Node8&#45;&gt;Node4</title>
<g id="a_edge9_Node000008_Node000004"><a xlink:title=" ">
<path fill="none" stroke="#63b8ff" d="M337.91,-60.16C333.59,-61.7 329.35,-63.32 325.25,-65 292.57,-78.41 256.88,-99.15 236.59,-111.56"/>
<polygon fill="#63b8ff" stroke="#63b8ff" points="338.97,-63.5 347.3,-56.96 336.71,-56.87 338.97,-63.5"/>
</a>
</g>
</g>
</g>
</svg>
