<?xml version="1.0" encoding="UTF-8" standalone="no"?>
<!DOCTYPE svg PUBLIC "-//W3C//DTD SVG 1.1//EN"
 "http://www.w3.org/Graphics/SVG/1.1/DTD/svg11.dtd">
<!-- Generated by graphviz version 14.0.1 (20251006.0113)
 -->
<!-- Title: es.ull.esit.utilities.ExpositoUtilities.simplifyString Pages: 1 -->
<svg width="484pt" height="40pt"
 viewBox="0.00 0.00 484.00 40.00" xmlns="http://www.w3.org/2000/svg" xmlns:xlink="http://www.w3.org/1999/xlink">
<g id="graph0" class="graph" transform="scale(1 1) rotate(0) translate(4 36)">
<title>es.ull.esit.utilities.ExpositoUtilities.simplifyString</title>
<!-- Node1 -->
<g id="Node000001" class="node">
<title>Node1</title>
<g id="a_Node000001"><a xlink:title="Simplifica una cadena de texto.">
<polygon fill="#999999" stroke="#666666" points="475.5,-32 342.5,-32 342.5,0 475.5,0 475.5,-32"/>
<text xml:space="preserve" text-anchor="start" x="350.5" y="-18.5" font-family="Helvetica,sans-Serif" font-size="10.00">es.ull.esit.utilities.Exposito</text>
<text xml:space="preserve" text-anchor="middle" x="409" y="-6.5" font-family="Helvetica,sans-Serif" font-size="10.00">Utilities.simplifyString</text>
</a>
</g>
</g>
<!-- Node2 -->
<g id="Node000002" class="node">
<title>Node2</title>
<g id="a_Node000002"><a xlink:href="classtop_1_1_t_o_p_t_w_reader.html#abad17029fc8928818483c5053dde0fa2" target="_top" xlink:title="Lee una instancia del problema TOPTW desde un archivo.">
<polygon fill="white" stroke="#666666" points="306.5,-26 148.75,-26 148.75,-6 306.5,-6 306.5,-26"/>
<text xml:space="preserve" text-anchor="middle" x="227.62" y="-12.5" font-family="Helvetica,sans-Serif" font-size="10.00">top.TOPTWReader.readProblem</text>
</a>
</g>
</g>
<!-- Node1&#45;&gt;Node2 -->
<g id="edge1_Node000001_Node000002" class="edge">
<title>Node1&#45;&gt;Node2</title>
<g id="a_edge1_Node000001_Node000002"><a xlink:title=" ">
<path fill="none" stroke="#63b8ff" d="M330.75,-16C322.84,-16 314.79,-16 306.87,-16"/>
<polygon fill="#63b8ff" stroke="#63b8ff" points="330.71,-19.5 340.71,-16 330.71,-12.5 330.71,-19.5"/>
</a>
</g>
</g>
<!-- Node3 -->
<g id="Node000003" class="node">
<title>Node3</title>
<g id="a_Node000003"><a xlink:href="classtop_1_1main_t_o_p_t_w.html#a6b155cf80c78f50335adf5a91762e0eb" target="_top" xlink:title="Método principal que ejecuta el solver TOPTW GRASP.">
<polygon fill="white" stroke="#666666" points="112.75,-26 0,-26 0,-6 112.75,-6 112.75,-26"/>
<text xml:space="preserve" text-anchor="middle" x="56.38" y="-12.5" font-family="Helvetica,sans-Serif" font-size="10.00">top.mainTOPTW.main</text>
</a>
</g>
</g>
<!-- Node2&#45;&gt;Node3 -->
<g id="edge2_Node000002_Node000003" class="edge">
<title>Node2&#45;&gt;Node3</title>
<g id="a_edge2_Node000002_Node000003"><a xlink:title=" ">
<path fill="none" stroke="#63b8ff" d="M136.93,-16C128.8,-16 120.73,-16 113.03,-16"/>
<polygon fill="#63b8ff" stroke="#63b8ff" points="136.93,-19.5 146.93,-16 136.93,-12.5 136.93,-19.5"/>
</a>
</g>
</g>
</g>
</svg>
