<?xml version="1.0" encoding="UTF-8" standalone="no"?>
<!DOCTYPE svg PUBLIC "-//W3C//DTD SVG 1.1//EN"
 "http://www.w3.org/Graphics/SVG/1.1/DTD/svg11.dtd">
<!-- Generated by graphviz version 14.0.1 (20251006.0113)
 -->
<!-- Title: top.TOPTWSolution.evaluateFitness Pages: 1 -->
<svg width="511pt" height="166pt"
 viewBox="0.00 0.00 511.00 166.00" xmlns="http://www.w3.org/2000/svg" xmlns:xlink="http://www.w3.org/1999/xlink">
<g id="graph0" class="graph" transform="scale(1 1) rotate(0) translate(4 162)">
<title>top.TOPTWSolution.evaluateFitness</title>
<!-- Node1 -->
<g id="Node000001" class="node">
<title>Node1</title>
<g id="a_Node000001"><a xlink:title="Evalúa la función objetivo de la solución (puntuación total).">
<polygon fill="#999999" stroke="#666666" points="143.5,-86 0,-86 0,-54 143.5,-54 143.5,-86"/>
<text xml:space="preserve" text-anchor="start" x="8" y="-72.5" font-family="Helvetica,sans-Serif" font-size="10.00">top.TOPTWSolution.evaluate</text>
<text xml:space="preserve" text-anchor="middle" x="71.75" y="-60.5" font-family="Helvetica,sans-Serif" font-size="10.00">Fitness</text>
</a>
</g>
</g>
<!-- Node2 -->
<g id="Node000002" class="node">
<title>Node2</title>
<g id="a_Node000002"><a xlink:href="classtop_1_1_t_o_p_t_w_solution.html#a42484d84c9770ebbb8778fc149abbb58" target="_top" xlink:title="Obtiene el número de rutas que han sido creadas en la solución.">
<polygon fill="white" stroke="#666666" points="340.25,-158 185.5,-158 185.5,-126 340.25,-126 340.25,-158"/>
<text xml:space="preserve" text-anchor="start" x="193.5" y="-144.5" font-family="Helvetica,sans-Serif" font-size="10.00">top.TOPTWSolution.getCreated</text>
<text xml:space="preserve" text-anchor="middle" x="262.88" y="-132.5" font-family="Helvetica,sans-Serif" font-size="10.00">Routes</text>
</a>
</g>
</g>
<!-- Node1&#45;&gt;Node2 -->
<g id="edge1_Node000001_Node000002" class="edge">
<title>Node1&#45;&gt;Node2</title>
<g id="a_edge1_Node000001_Node000002"><a xlink:title=" ">
<path fill="none" stroke="#63b8ff" d="M106.93,-86.3C127.67,-95.88 154.81,-107.86 179.5,-117 184.12,-118.71 188.91,-120.39 193.76,-122.03"/>
<polygon fill="#63b8ff" stroke="#63b8ff" points="192.38,-125.26 202.98,-125.06 194.57,-118.61 192.38,-125.26"/>
</a>
</g>
</g>
<!-- Node4 -->
<g id="Node000004" class="node">
<title>Node4</title>
<g id="a_Node000004"><a xlink:href="classtop_1_1_t_o_p_t_w_solution.html#a0c4692927923549f0e137ea74850a8b6" target="_top" xlink:title="Obtiene el índice del nodo que actúa como depósito para una ruta específica.">
<polygon fill="white" stroke="#666666" points="335,-108 190.75,-108 190.75,-76 335,-76 335,-108"/>
<text xml:space="preserve" text-anchor="start" x="198.75" y="-94.5" font-family="Helvetica,sans-Serif" font-size="10.00">top.TOPTWSolution.getIndex</text>
<text xml:space="preserve" text-anchor="middle" x="262.88" y="-82.5" font-family="Helvetica,sans-Serif" font-size="10.00">Route</text>
</a>
</g>
</g>
<!-- Node1&#45;&gt;Node4 -->
<g id="edge3_Node000001_Node000004" class="edge">
<title>Node1&#45;&gt;Node4</title>
<g id="a_edge3_Node000001_Node000004"><a xlink:title=" ">
<path fill="none" stroke="#63b8ff" d="M143.98,-78.29C155.49,-79.62 167.48,-81.02 179.23,-82.39"/>
<polygon fill="#63b8ff" stroke="#63b8ff" points="178.55,-85.83 188.89,-83.51 179.36,-78.88 178.55,-85.83"/>
</a>
</g>
</g>
<!-- Node5 -->
<g id="Node000005" class="node">
<title>Node5</title>
<g id="a_Node000005"><a xlink:href="classtop_1_1_t_o_p_t_w.html#ad028d42f72214373efca074483462837" target="_top" xlink:title="Obtiene la puntuación (score) de un nodo.">
<polygon fill="white" stroke="#666666" points="317.75,-58 208,-58 208,-38 317.75,-38 317.75,-58"/>
<text xml:space="preserve" text-anchor="middle" x="262.88" y="-44.5" font-family="Helvetica,sans-Serif" font-size="10.00">top.TOPTW.getScore</text>
</a>
</g>
</g>
<!-- Node1&#45;&gt;Node5 -->
<g id="edge4_Node000001_Node000005" class="edge">
<title>Node1&#45;&gt;Node5</title>
<g id="a_edge4_Node000001_Node000005"><a xlink:title=" ">
<path fill="none" stroke="#63b8ff" d="M143.98,-61.71C161.08,-59.72 179.27,-57.61 196.11,-55.65"/>
<polygon fill="#63b8ff" stroke="#63b8ff" points="196.49,-59.13 206.02,-54.5 195.68,-52.18 196.49,-59.13"/>
</a>
</g>
</g>
<!-- Node7 -->
<g id="Node000007" class="node">
<title>Node7</title>
<g id="a_Node000007"><a xlink:href="classtop_1_1_t_o_p_t_w_solution.html#a559f4d8cc4b93d998243d7479fd6da8d" target="_top" xlink:title="Obtiene el sucesor de un cliente en su ruta.">
<polygon fill="white" stroke="#666666" points="346.25,-20 179.5,-20 179.5,0 346.25,0 346.25,-20"/>
<text xml:space="preserve" text-anchor="middle" x="262.88" y="-6.5" font-family="Helvetica,sans-Serif" font-size="10.00">top.TOPTWSolution.getSuccessor</text>
</a>
</g>
</g>
<!-- Node1&#45;&gt;Node7 -->
<g id="edge6_Node000001_Node000007" class="edge">
<title>Node1&#45;&gt;Node7</title>
<g id="a_edge6_Node000001_Node000007"><a xlink:title=" ">
<path fill="none" stroke="#63b8ff" d="M111.33,-53.68C131.42,-45.57 156.53,-36.02 179.5,-29 186.22,-26.94 193.32,-24.99 200.4,-23.18"/>
<polygon fill="#63b8ff" stroke="#63b8ff" points="201.14,-26.6 210.01,-20.81 199.46,-19.8 201.14,-26.6"/>
</a>
</g>
</g>
<!-- Node3 -->
<g id="Node000003" class="node">
<title>Node3</title>
<g id="a_Node000003"><a xlink:href="classtop_1_1_t_o_p_t_w.html#abfba541876921de9ec5a63373c056446" target="_top" xlink:title="Obtiene el número de vehículos disponibles.">
<polygon fill="white" stroke="#666666" points="503.25,-152 382.25,-152 382.25,-132 503.25,-132 503.25,-152"/>
<text xml:space="preserve" text-anchor="middle" x="442.75" y="-138.5" font-family="Helvetica,sans-Serif" font-size="10.00">top.TOPTW.getVehicles</text>
</a>
</g>
</g>
<!-- Node2&#45;&gt;Node3 -->
<g id="edge2_Node000002_Node000003" class="edge">
<title>Node2&#45;&gt;Node3</title>
<g id="a_edge2_Node000002_Node000003"><a xlink:title=" ">
<path fill="none" stroke="#63b8ff" d="M340.6,-142C350.54,-142 360.68,-142 370.52,-142"/>
<polygon fill="#63b8ff" stroke="#63b8ff" points="370.39,-145.5 380.39,-142 370.39,-138.5 370.39,-145.5"/>
</a>
</g>
</g>
<!-- Node6 -->
<g id="Node000006" class="node">
<title>Node6</title>
<g id="a_Node000006"><a xlink:href="classtop_1_1_t_o_p_t_w.html#a642e958056dc77c10d72831d633e2f49" target="_top" xlink:title="Comprueba si un índice de nodo corresponde a un depósito.">
<polygon fill="white" stroke="#666666" points="495,-58 390.5,-58 390.5,-38 495,-38 495,-58"/>
<text xml:space="preserve" text-anchor="middle" x="442.75" y="-44.5" font-family="Helvetica,sans-Serif" font-size="10.00">top.TOPTW.isDepot</text>
</a>
</g>
</g>
<!-- Node5&#45;&gt;Node6 -->
<g id="edge5_Node000005_Node000006" class="edge">
<title>Node5&#45;&gt;Node6</title>
<g id="a_edge5_Node000005_Node000006"><a xlink:title=" ">
<path fill="none" stroke="#63b8ff" d="M318.21,-48C337.34,-48 359,-48 378.78,-48"/>
<polygon fill="#63b8ff" stroke="#63b8ff" points="378.67,-51.5 388.67,-48 378.67,-44.5 378.67,-51.5"/>
</a>
</g>
</g>
</g>
</svg>
