<?xml version="1.0" encoding="UTF-8" standalone="no"?>
<!DOCTYPE svg PUBLIC "-//W3C//DTD SVG 1.1//EN"
 "http://www.w3.org/Graphics/SVG/1.1/DTD/svg11.dtd">
<!-- Generated by graphviz version 14.0.1 (20251006.0113)
 -->
<!-- Title: top.TOPTWSolution.equals Pages: 1 -->
<svg width="514pt" height="66pt"
 viewBox="0.00 0.00 514.00 66.00" xmlns="http://www.w3.org/2000/svg" xmlns:xlink="http://www.w3.org/1999/xlink">
<g id="graph0" class="graph" transform="scale(1 1) rotate(0) translate(4 62)">
<title>top.TOPTWSolution.equals</title>
<!-- Node1 -->
<g id="Node000001" class="node">
<title>Node1</title>
<g id="a_Node000001"><a xlink:title="Compara si dos soluciones son iguales basándose en sus arrays de predecesores.">
<polygon fill="#999999" stroke="#666666" points="135.25,-39 0,-39 0,-19 135.25,-19 135.25,-39"/>
<text xml:space="preserve" text-anchor="middle" x="67.62" y="-25.5" font-family="Helvetica,sans-Serif" font-size="10.00">top.TOPTWSolution.equals</text>
</a>
</g>
</g>
<!-- Node2 -->
<g id="Node000002" class="node">
<title>Node2</title>
<g id="a_Node000002"><a xlink:href="classtop_1_1_t_o_p_t_w_solution.html#a45192e5d12a12ec58030397041b4a369" target="_top" xlink:title="Constructor de la clase TOPTWSolution.">
<polygon fill="white" stroke="#666666" points="349.25,-39 171.25,-39 171.25,-19 349.25,-19 349.25,-39"/>
<text xml:space="preserve" text-anchor="middle" x="260.25" y="-25.5" font-family="Helvetica,sans-Serif" font-size="10.00">top.TOPTWSolution.TOPTWSolution</text>
</a>
</g>
</g>
<!-- Node1&#45;&gt;Node2 -->
<g id="edge1_Node000001_Node000002" class="edge">
<title>Node1&#45;&gt;Node2</title>
<g id="a_edge1_Node000001_Node000002"><a xlink:title=" ">
<path fill="none" stroke="#63b8ff" d="M135.56,-29C143.37,-29 151.45,-29 159.57,-29"/>
<polygon fill="#63b8ff" stroke="#63b8ff" points="159.55,-32.5 169.55,-29 159.55,-25.5 159.55,-32.5"/>
</a>
</g>
</g>
<!-- Node2&#45;&gt;Node2 -->
<g id="edge4_Node000002_Node000002" class="edge">
<title>Node2&#45;&gt;Node2</title>
<g id="a_edge4_Node000002_Node000002"><a xlink:title=" ">
<path fill="none" stroke="#63b8ff" d="M230.78,-39.34C218.18,-47.98 228,-57 260.25,-57 278.39,-57 289.43,-54.14 293.38,-50.11"/>
<polygon fill="#63b8ff" stroke="#63b8ff" points="296.74,-49.12 290.21,-40.77 290.11,-51.37 296.74,-49.12"/>
</a>
</g>
</g>
<!-- Node3 -->
<g id="Node000003" class="node">
<title>Node3</title>
<g id="a_Node000003"><a xlink:href="classtop_1_1_t_o_p_t_w.html#a98907c6bbeba9aba86727ecad5058261" target="_top" xlink:title="Obtiene el número de Puntos de Interés (POIs), sin contar el depósito.">
<polygon fill="white" stroke="#666666" points="499.12,-58 392.38,-58 392.38,-38 499.12,-38 499.12,-58"/>
<text xml:space="preserve" text-anchor="middle" x="445.75" y="-44.5" font-family="Helvetica,sans-Serif" font-size="10.00">top.TOPTW.getPOIs</text>
</a>
</g>
</g>
<!-- Node2&#45;&gt;Node3 -->
<g id="edge2_Node000002_Node000003" class="edge">
<title>Node2&#45;&gt;Node3</title>
<g id="a_edge2_Node000002_Node000003"><a xlink:title=" ">
<path fill="none" stroke="#63b8ff" d="M349.51,-38.14C360.05,-39.23 370.65,-40.33 380.75,-41.37"/>
<polygon fill="#63b8ff" stroke="#63b8ff" points="380.11,-44.83 390.42,-42.37 380.83,-37.86 380.11,-44.83"/>
</a>
</g>
</g>
<!-- Node4 -->
<g id="Node000004" class="node">
<title>Node4</title>
<g id="a_Node000004"><a xlink:href="classtop_1_1_t_o_p_t_w.html#abfba541876921de9ec5a63373c056446" target="_top" xlink:title="Obtiene el número de vehículos disponibles.">
<polygon fill="white" stroke="#666666" points="506.25,-20 385.25,-20 385.25,0 506.25,0 506.25,-20"/>
<text xml:space="preserve" text-anchor="middle" x="445.75" y="-6.5" font-family="Helvetica,sans-Serif" font-size="10.00">top.TOPTW.getVehicles</text>
</a>
</g>
</g>
<!-- Node2&#45;&gt;Node4 -->
<g id="edge3_Node000002_Node000004" class="edge">
<title>Node2&#45;&gt;Node4</title>
<g id="a_edge3_Node000002_Node000004"><a xlink:title=" ">
<path fill="none" stroke="#63b8ff" d="M349.51,-19.86C357.59,-19.02 365.7,-18.18 373.61,-17.37"/>
<polygon fill="#63b8ff" stroke="#63b8ff" points="373.91,-20.85 383.5,-16.34 373.19,-13.89 373.91,-20.85"/>
</a>
</g>
</g>
</g>
</svg>
