<?xml version="1.0" encoding="UTF-8" standalone="no"?>
<!DOCTYPE svg PUBLIC "-//W3C//DTD SVG 1.1//EN"
 "http://www.w3.org/Graphics/SVG/1.1/DTD/svg11.dtd">
<!-- Generated by graphviz version 14.0.1 (20251006.0113)
 -->
<!-- Title: top.TOPTW.getDistance Pages: 1 -->
<svg width="291pt" height="46pt"
 viewBox="0.00 0.00 291.00 46.00" xmlns="http://www.w3.org/2000/svg" xmlns:xlink="http://www.w3.org/1999/xlink">
<g id="graph0" class="graph" transform="scale(1 1) rotate(0) translate(4 42)">
<title>top.TOPTW.getDistance</title>
<!-- Node1 -->
<g id="Node000001" class="node">
<title>Node1</title>
<g id="a_Node000001"><a xlink:title="Calcula la distancia total de una ruta representada por un ArrayList de enteros.">
<polygon fill="#999999" stroke="#666666" points="123.25,-20 0,-20 0,0 123.25,0 123.25,-20"/>
<text xml:space="preserve" text-anchor="middle" x="61.62" y="-6.5" font-family="Helvetica,sans-Serif" font-size="10.00">top.TOPTW.getDistance</text>
</a>
</g>
</g>
<!-- Node2 -->
<g id="Node000002" class="node">
<title>Node2</title>
<g id="a_Node000002"><a xlink:href="classtop_1_1_t_o_p_t_w.html#a137f100c5711b4b93cb5ae1711ddaf9a" target="_top" xlink:title="Calcula la distancia total de una ruta representada por un array de enteros.">
<polygon fill="white" stroke="#666666" points="282.5,-20 159.25,-20 159.25,0 282.5,0 282.5,-20"/>
<text xml:space="preserve" text-anchor="middle" x="220.88" y="-6.5" font-family="Helvetica,sans-Serif" font-size="10.00">top.TOPTW.getDistance</text>
</a>
</g>
</g>
<!-- Node1&#45;&gt;Node2 -->
<g id="edge1_Node000001_Node000002" class="edge">
<title>Node1&#45;&gt;Node2</title>
<g id="a_edge1_Node000001_Node000002"><a xlink:title=" ">
<path fill="none" stroke="#63b8ff" d="M123.42,-10C131.35,-10 139.54,-10 147.63,-10"/>
<polygon fill="#63b8ff" stroke="#63b8ff" points="147.47,-13.5 157.47,-10 147.47,-6.5 147.47,-13.5"/>
</a>
</g>
</g>
<!-- Node2&#45;&gt;Node2 -->
<g id="edge2_Node000002_Node000002" class="edge">
<title>Node2&#45;&gt;Node2</title>
<g id="a_edge2_Node000002_Node000002"><a xlink:title=" ">
<path fill="none" stroke="#63b8ff" d="M195.57,-20.34C184.76,-28.98 193.19,-38 220.88,-38 236.01,-38 245.4,-35.3 249.02,-31.44"/>
<polygon fill="#63b8ff" stroke="#63b8ff" points="252.43,-30.62 246.55,-21.8 245.64,-32.36 252.43,-30.62"/>
</a>
</g>
</g>
</g>
</svg>
