<?xml version="1.0" encoding="UTF-8" standalone="no"?>
<!DOCTYPE svg PUBLIC "-//W3C//DTD SVG 1.1//EN"
 "http://www.w3.org/Graphics/SVG/1.1/DTD/svg11.dtd">
<!-- Generated by graphviz version 14.0.1 (20251006.0113)
 -->
<!-- Title: top.TOPTW.getServiceTime Pages: 1 -->
<svg width="890pt" height="122pt"
 viewBox="0.00 0.00 890.00 122.00" xmlns="http://www.w3.org/2000/svg" xmlns:xlink="http://www.w3.org/1999/xlink">
<g id="graph0" class="graph" transform="scale(1 1) rotate(0) translate(4 118)">
<title>top.TOPTW.getServiceTime</title>
<!-- Node1 -->
<g id="Node000001" class="node">
<title>Node1</title>
<g id="a_Node000001"><a xlink:title="Obtiene el tiempo de servicio requerido en un nodo.">
<polygon fill="#999999" stroke="#666666" points="881.75,-64 742.75,-64 742.75,-44 881.75,-44 881.75,-64"/>
<text xml:space="preserve" text-anchor="middle" x="812.25" y="-50.5" font-family="Helvetica,sans-Serif" font-size="10.00">top.TOPTW.getServiceTime</text>
</a>
</g>
</g>
<!-- Node2 -->
<g id="Node000002" class="node">
<title>Node2</title>
<g id="a_Node000002"><a xlink:href="classtop_1_1_t_o_p_t_w_g_r_a_s_p.html#ae706fe2d8478acf0a026bb40e8fc9df7" target="_top" xlink:title="Evalúa de forma exhaustiva todos los posibles movimientos de inserción para los clientes disponibles.">
<polygon fill="white" stroke="#666666" points="706.75,-114 535.5,-114 535.5,-82 706.75,-82 706.75,-114"/>
<text xml:space="preserve" text-anchor="start" x="543.5" y="-100.5" font-family="Helvetica,sans-Serif" font-size="10.00">top.TOPTWGRASP.comprehensive</text>
<text xml:space="preserve" text-anchor="middle" x="621.12" y="-88.5" font-family="Helvetica,sans-Serif" font-size="10.00">Evaluation</text>
</a>
</g>
</g>
<!-- Node1&#45;&gt;Node2 -->
<g id="edge1_Node000001_Node000002" class="edge">
<title>Node1&#45;&gt;Node2</title>
<g id="a_edge1_Node000001_Node000002"><a xlink:title=" ">
<path fill="none" stroke="#63b8ff" d="M755.25,-67.03C735.69,-71.58 713.47,-76.75 692.87,-81.54"/>
<polygon fill="#63b8ff" stroke="#63b8ff" points="756.01,-70.45 764.96,-64.77 754.42,-63.63 756.01,-70.45"/>
</a>
</g>
</g>
<!-- Node6 -->
<g id="Node000006" class="node">
<title>Node6</title>
<g id="a_Node000006"><a xlink:href="classtop_1_1_t_o_p_t_w_solution.html#a82688039e6f671f6d2f57a1888fe3c21" target="_top" xlink:title="Genera una cadena con información detallada de la solución.">
<polygon fill="white" stroke="#666666" points="480.75,-32 344,-32 344,0 480.75,0 480.75,-32"/>
<text xml:space="preserve" text-anchor="start" x="352" y="-18.5" font-family="Helvetica,sans-Serif" font-size="10.00">top.TOPTWSolution.getInfo</text>
<text xml:space="preserve" text-anchor="middle" x="412.38" y="-6.5" font-family="Helvetica,sans-Serif" font-size="10.00">Solution</text>
</a>
</g>
</g>
<!-- Node1&#45;&gt;Node6 -->
<g id="edge5_Node000001_Node000006" class="edge">
<title>Node1&#45;&gt;Node6</title>
<g id="a_edge5_Node000001_Node000006"><a xlink:title=" ">
<path fill="none" stroke="#63b8ff" d="M749.4,-41.54C735.42,-39.06 720.61,-36.7 706.75,-35 629.75,-25.54 540.76,-20.61 481.17,-18.17"/>
<polygon fill="#63b8ff" stroke="#63b8ff" points="748.45,-44.92 758.92,-43.27 749.7,-38.04 748.45,-44.92"/>
</a>
</g>
</g>
<!-- Node7 -->
<g id="Node000007" class="node">
<title>Node7</title>
<g id="a_Node000007"><a xlink:href="classtop_1_1_t_o_p_t_w_g_r_a_s_p.html#adaccdd26e4ad89ffb3e86c780dcd90d7" target="_top" xlink:title="Actualiza la solución insertando un candidato seleccionado.">
<polygon fill="white" stroke="#666666" points="706,-64 536.25,-64 536.25,-44 706,-44 706,-64"/>
<text xml:space="preserve" text-anchor="middle" x="621.12" y="-50.5" font-family="Helvetica,sans-Serif" font-size="10.00">top.TOPTWGRASP.updateSolution</text>
</a>
</g>
</g>
<!-- Node1&#45;&gt;Node7 -->
<g id="edge7_Node000001_Node000007" class="edge">
<title>Node1&#45;&gt;Node7</title>
<g id="a_edge7_Node000001_Node000007"><a xlink:title=" ">
<path fill="none" stroke="#63b8ff" d="M731.02,-54C722.86,-54 714.55,-54 706.35,-54"/>
<polygon fill="#63b8ff" stroke="#63b8ff" points="730.92,-57.5 740.92,-54 730.92,-50.5 730.92,-57.5"/>
</a>
</g>
</g>
<!-- Node3 -->
<g id="Node000003" class="node">
<title>Node3</title>
<g id="a_Node000003"><a xlink:href="classtop_1_1_t_o_p_t_w_g_r_a_s_p.html#ade97c51a7d20660d7d306b756b4a6302" target="_top" xlink:title="Construye una solución greedy aleatorizada.">
<polygon fill="white" stroke="#666666" points="499.5,-82 325.25,-82 325.25,-50 499.5,-50 499.5,-82"/>
<text xml:space="preserve" text-anchor="start" x="333.25" y="-68.5" font-family="Helvetica,sans-Serif" font-size="10.00">top.TOPTWGRASP.computeGreedy</text>
<text xml:space="preserve" text-anchor="middle" x="412.38" y="-56.5" font-family="Helvetica,sans-Serif" font-size="10.00">Solution</text>
</a>
</g>
</g>
<!-- Node2&#45;&gt;Node3 -->
<g id="edge2_Node000002_Node000003" class="edge">
<title>Node2&#45;&gt;Node3</title>
<g id="a_edge2_Node000002_Node000003"><a xlink:title=" ">
<path fill="none" stroke="#63b8ff" d="M523.82,-83.09C515.77,-81.85 507.67,-80.59 499.71,-79.36"/>
<polygon fill="#63b8ff" stroke="#63b8ff" points="523.22,-86.54 533.64,-84.61 524.29,-79.63 523.22,-86.54"/>
</a>
</g>
</g>
<!-- Node4 -->
<g id="Node000004" class="node">
<title>Node4</title>
<g id="a_Node000004"><a xlink:href="classtop_1_1_t_o_p_t_w_g_r_a_s_p.html#a11242fc809f6a16ff81136c4785fdc3e" target="_top" xlink:title="Ejecuta el algoritmo GRASP durante un número determinado de iteraciones.">
<polygon fill="white" stroke="#666666" points="289.25,-51 148.75,-51 148.75,-31 289.25,-31 289.25,-51"/>
<text xml:space="preserve" text-anchor="middle" x="219" y="-37.5" font-family="Helvetica,sans-Serif" font-size="10.00">top.TOPTWGRASP.GRASP</text>
</a>
</g>
</g>
<!-- Node3&#45;&gt;Node4 -->
<g id="edge3_Node000003_Node000004" class="edge">
<title>Node3&#45;&gt;Node4</title>
<g id="a_edge3_Node000003_Node000004"><a xlink:title=" ">
<path fill="none" stroke="#63b8ff" d="M313.56,-53.22C305.52,-52.17 297.5,-51.12 289.72,-50.11"/>
<polygon fill="#63b8ff" stroke="#63b8ff" points="313.06,-56.69 323.42,-54.51 313.96,-49.74 313.06,-56.69"/>
</a>
</g>
</g>
<!-- Node5 -->
<g id="Node000005" class="node">
<title>Node5</title>
<g id="a_Node000005"><a xlink:href="classtop_1_1main_t_o_p_t_w.html#a6b155cf80c78f50335adf5a91762e0eb" target="_top" xlink:title="Método principal que ejecuta el solver TOPTW GRASP.">
<polygon fill="white" stroke="#666666" points="112.75,-51 0,-51 0,-31 112.75,-31 112.75,-51"/>
<text xml:space="preserve" text-anchor="middle" x="56.38" y="-37.5" font-family="Helvetica,sans-Serif" font-size="10.00">top.mainTOPTW.main</text>
</a>
</g>
</g>
<!-- Node4&#45;&gt;Node5 -->
<g id="edge4_Node000004_Node000005" class="edge">
<title>Node4&#45;&gt;Node5</title>
<g id="a_edge4_Node000004_Node000005"><a xlink:title=" ">
<path fill="none" stroke="#63b8ff" d="M137.01,-41C128.88,-41 120.75,-41 112.97,-41"/>
<polygon fill="#63b8ff" stroke="#63b8ff" points="136.97,-44.5 146.97,-41 136.97,-37.5 136.97,-44.5"/>
</a>
</g>
</g>
<!-- Node6&#45;&gt;Node4 -->
<g id="edge6_Node000006_Node000004" class="edge">
<title>Node6&#45;&gt;Node4</title>
<g id="a_edge6_Node000006_Node000004"><a xlink:title=" ">
<path fill="none" stroke="#63b8ff" d="M332.38,-26.32C318.19,-28.17 303.49,-30.09 289.59,-31.91"/>
<polygon fill="#63b8ff" stroke="#63b8ff" points="332.67,-29.81 342.13,-25.05 331.76,-22.87 332.67,-29.81"/>
</a>
</g>
</g>
<!-- Node7&#45;&gt;Node3 -->
<g id="edge8_Node000007_Node000003" class="edge">
<title>Node7&#45;&gt;Node3</title>
<g id="a_edge8_Node000007_Node000003"><a xlink:title=" ">
<path fill="none" stroke="#63b8ff" d="M524.73,-59.54C516.4,-60.02 508,-60.51 499.75,-60.99"/>
<polygon fill="#63b8ff" stroke="#63b8ff" points="524.74,-63.04 534.52,-58.97 524.33,-56.05 524.74,-63.04"/>
</a>
</g>
</g>
</g>
</svg>
