<?xml version="1.0" encoding="UTF-8" standalone="no"?>
<!DOCTYPE svg PUBLIC "-//W3C//DTD SVG 1.1//EN"
 "http://www.w3.org/Graphics/SVG/1.1/DTD/svg11.dtd">
<!-- Generated by graphviz version 14.0.1 (20251006.0113)
 -->
<!-- Title: top.TOPTW.getPOIs Pages: 1 -->
<svg width="1072pt" height="218pt"
 viewBox="0.00 0.00 1072.00 218.00" xmlns="http://www.w3.org/2000/svg" xmlns:xlink="http://www.w3.org/1999/xlink">
<g id="graph0" class="graph" transform="scale(1 1) rotate(0) translate(4 214.28)">
<title>top.TOPTW.getPOIs</title>
<!-- Node1 -->
<g id="Node000001" class="node">
<title>Node1</title>
<g id="a_Node000001"><a xlink:title="Obtiene el número de Puntos de Interés (POIs), sin contar el depósito.">
<polygon fill="#999999" stroke="#666666" points="1064.25,-135.28 957.5,-135.28 957.5,-115.28 1064.25,-115.28 1064.25,-135.28"/>
<text xml:space="preserve" text-anchor="middle" x="1010.88" y="-121.78" font-family="Helvetica,sans-Serif" font-size="10.00">top.TOPTW.getPOIs</text>
</a>
</g>
</g>
<!-- Node2 -->
<g id="Node000002" class="node">
<title>Node2</title>
<g id="a_Node000002"><a xlink:href="classtop_1_1_t_o_p_t_w_solution.html#a74df6b4b5c27f611de4a25e34d0bd907" target="_top" xlink:title="Añade una nueva ruta a la solución.">
<polygon fill="white" stroke="#666666" points="704.5,-173.28 555.75,-173.28 555.75,-153.28 704.5,-153.28 704.5,-173.28"/>
<text xml:space="preserve" text-anchor="middle" x="630.12" y="-159.78" font-family="Helvetica,sans-Serif" font-size="10.00">top.TOPTWSolution.addRoute</text>
</a>
</g>
</g>
<!-- Node1&#45;&gt;Node2 -->
<g id="edge1_Node000001_Node000002" class="edge">
<title>Node1&#45;&gt;Node2</title>
<g id="a_edge1_Node000001_Node000002"><a xlink:title=" ">
<path fill="none" stroke="#63b8ff" d="M946.03,-135.97C937.79,-137.18 929.45,-138.32 921.5,-139.28 848.05,-148.12 763.75,-154.69 704.97,-158.7"/>
<polygon fill="#63b8ff" stroke="#63b8ff" points="946.3,-139.47 955.66,-134.52 945.25,-132.55 946.3,-139.47"/>
</a>
</g>
</g>
<!-- Node6 -->
<g id="Node000006" class="node">
<title>Node6</title>
<g id="a_Node000006"><a xlink:href="classtop_1_1_t_o_p_t_w_solution.html#a82688039e6f671f6d2f57a1888fe3c21" target="_top" xlink:title="Genera una cadena con información detallada de la solución.">
<polygon fill="white" stroke="#666666" points="498,-210.28 361.25,-210.28 361.25,-178.28 498,-178.28 498,-210.28"/>
<text xml:space="preserve" text-anchor="start" x="369.25" y="-196.78" font-family="Helvetica,sans-Serif" font-size="10.00">top.TOPTWSolution.getInfo</text>
<text xml:space="preserve" text-anchor="middle" x="429.62" y="-184.78" font-family="Helvetica,sans-Serif" font-size="10.00">Solution</text>
</a>
</g>
</g>
<!-- Node1&#45;&gt;Node6 -->
<g id="edge5_Node000001_Node000006" class="edge">
<title>Node1&#45;&gt;Node6</title>
<g id="a_edge5_Node000001_Node000006"><a xlink:title=" ">
<path fill="none" stroke="#63b8ff" d="M979.14,-140.37C962.47,-147.88 941.29,-156.39 921.5,-161.28 773.91,-197.76 594.24,-199.47 498.46,-197.12"/>
<polygon fill="#63b8ff" stroke="#63b8ff" points="980.4,-143.64 988,-136.26 977.46,-137.29 980.4,-143.64"/>
</a>
</g>
</g>
<!-- Node7 -->
<g id="Node000007" class="node">
<title>Node7</title>
<g id="a_Node000007"><a xlink:href="classtop_1_1_t_o_p_t_w_solution.html#ae2cebb1c58169b05b0dcccd65eabc654" target="_top" xlink:title="Inicializa o resetea la solución a un estado básico.">
<polygon fill="white" stroke="#666666" points="707.5,-135.28 552.75,-135.28 552.75,-115.28 707.5,-115.28 707.5,-135.28"/>
<text xml:space="preserve" text-anchor="middle" x="630.12" y="-121.78" font-family="Helvetica,sans-Serif" font-size="10.00">top.TOPTWSolution.initSolution</text>
</a>
</g>
</g>
<!-- Node1&#45;&gt;Node7 -->
<g id="edge7_Node000001_Node000007" class="edge">
<title>Node1&#45;&gt;Node7</title>
<g id="a_edge7_Node000001_Node000007"><a xlink:title=" ">
<path fill="none" stroke="#63b8ff" d="M945.79,-125.28C880.08,-125.28 777.89,-125.28 707.91,-125.28"/>
<polygon fill="#63b8ff" stroke="#63b8ff" points="945.7,-128.78 955.7,-125.28 945.7,-121.78 945.7,-128.78"/>
</a>
</g>
</g>
<!-- Node8 -->
<g id="Node000008" class="node">
<title>Node8</title>
<g id="a_Node000008"><a xlink:href="classtop_1_1_t_o_p_t_w_reader.html#abad17029fc8928818483c5053dde0fa2" target="_top" xlink:title="Lee una instancia del problema TOPTW desde un archivo.">
<polygon fill="white" stroke="#666666" points="306.5,-72.28 148.75,-72.28 148.75,-52.28 306.5,-52.28 306.5,-72.28"/>
<text xml:space="preserve" text-anchor="middle" x="227.62" y="-58.78" font-family="Helvetica,sans-Serif" font-size="10.00">top.TOPTWReader.readProblem</text>
</a>
</g>
</g>
<!-- Node1&#45;&gt;Node8 -->
<g id="edge9_Node000001_Node000008" class="edge">
<title>Node1&#45;&gt;Node8</title>
<g id="a_edge9_Node000001_Node000008"><a xlink:title=" ">
<path fill="none" stroke="#63b8ff" d="M993.94,-106.28C977.73,-88.42 950.88,-62.65 921.5,-50.28 688.37,47.86 370.82,-23.3 264.76,-51.86"/>
<polygon fill="#63b8ff" stroke="#63b8ff" points="991.18,-108.44 1000.41,-113.64 996.44,-103.82 991.18,-108.44"/>
</a>
</g>
</g>
<!-- Node9 -->
<g id="Node000009" class="node">
<title>Node9</title>
<g id="a_Node000009"><a xlink:href="classtop_1_1_t_o_p_t_w_solution.html#a45192e5d12a12ec58030397041b4a369" target="_top" xlink:title="Constructor de la clase TOPTWSolution.">
<polygon fill="white" stroke="#666666" points="921.5,-79.28 743.5,-79.28 743.5,-59.28 921.5,-59.28 921.5,-79.28"/>
<text xml:space="preserve" text-anchor="middle" x="832.5" y="-65.78" font-family="Helvetica,sans-Serif" font-size="10.00">top.TOPTWSolution.TOPTWSolution</text>
</a>
</g>
</g>
<!-- Node1&#45;&gt;Node9 -->
<g id="edge11_Node000001_Node000009" class="edge">
<title>Node1&#45;&gt;Node9</title>
<g id="a_edge11_Node000001_Node000009"><a xlink:title=" ">
<path fill="none" stroke="#63b8ff" d="M966.22,-111.42C935.33,-101.61 894.55,-88.66 866.38,-79.72"/>
<polygon fill="#63b8ff" stroke="#63b8ff" points="965.08,-114.73 975.67,-114.42 967.2,-108.06 965.08,-114.73"/>
</a>
</g>
</g>
<!-- Node3 -->
<g id="Node000003" class="node">
<title>Node3</title>
<g id="a_Node000003"><a xlink:href="classtop_1_1_t_o_p_t_w_g_r_a_s_p.html#ade97c51a7d20660d7d306b756b4a6302" target="_top" xlink:title="Construye una solución greedy aleatorizada.">
<polygon fill="white" stroke="#666666" points="516.75,-154.28 342.5,-154.28 342.5,-122.28 516.75,-122.28 516.75,-154.28"/>
<text xml:space="preserve" text-anchor="start" x="350.5" y="-140.78" font-family="Helvetica,sans-Serif" font-size="10.00">top.TOPTWGRASP.computeGreedy</text>
<text xml:space="preserve" text-anchor="middle" x="429.62" y="-128.78" font-family="Helvetica,sans-Serif" font-size="10.00">Solution</text>
</a>
</g>
</g>
<!-- Node2&#45;&gt;Node3 -->
<g id="edge2_Node000002_Node000003" class="edge">
<title>Node2&#45;&gt;Node3</title>
<g id="a_edge2_Node000002_Node000003"><a xlink:title=" ">
<path fill="none" stroke="#63b8ff" d="M544.26,-152.59C535.3,-151.46 526.19,-150.32 517.22,-149.19"/>
<polygon fill="#63b8ff" stroke="#63b8ff" points="543.63,-156.04 553.99,-153.82 544.51,-149.1 543.63,-156.04"/>
</a>
</g>
</g>
<!-- Node4 -->
<g id="Node000004" class="node">
<title>Node4</title>
<g id="a_Node000004"><a xlink:href="classtop_1_1_t_o_p_t_w_g_r_a_s_p.html#a11242fc809f6a16ff81136c4785fdc3e" target="_top" xlink:title="Ejecuta el algoritmo GRASP durante un número determinado de iteraciones.">
<polygon fill="white" stroke="#666666" points="297.88,-148.28 157.38,-148.28 157.38,-128.28 297.88,-128.28 297.88,-148.28"/>
<text xml:space="preserve" text-anchor="middle" x="227.62" y="-134.78" font-family="Helvetica,sans-Serif" font-size="10.00">top.TOPTWGRASP.GRASP</text>
</a>
</g>
</g>
<!-- Node3&#45;&gt;Node4 -->
<g id="edge3_Node000003_Node000004" class="edge">
<title>Node3&#45;&gt;Node4</title>
<g id="a_edge3_Node000003_Node000004"><a xlink:title=" ">
<path fill="none" stroke="#63b8ff" d="M330.66,-138.28C319.68,-138.28 308.67,-138.28 298.16,-138.28"/>
<polygon fill="#63b8ff" stroke="#63b8ff" points="330.55,-141.78 340.55,-138.28 330.55,-134.78 330.55,-141.78"/>
</a>
</g>
</g>
<!-- Node5 -->
<g id="Node000005" class="node">
<title>Node5</title>
<g id="a_Node000005"><a xlink:href="classtop_1_1main_t_o_p_t_w.html#a6b155cf80c78f50335adf5a91762e0eb" target="_top" xlink:title="Método principal que ejecuta el solver TOPTW GRASP.">
<polygon fill="white" stroke="#666666" points="112.75,-91.28 0,-91.28 0,-71.28 112.75,-71.28 112.75,-91.28"/>
<text xml:space="preserve" text-anchor="middle" x="56.38" y="-77.78" font-family="Helvetica,sans-Serif" font-size="10.00">top.mainTOPTW.main</text>
</a>
</g>
</g>
<!-- Node4&#45;&gt;Node5 -->
<g id="edge4_Node000004_Node000005" class="edge">
<title>Node4&#45;&gt;Node5</title>
<g id="a_edge4_Node000004_Node000005"><a xlink:title=" ">
<path fill="none" stroke="#63b8ff" d="M184.68,-124.15C154.88,-114.12 115.53,-100.87 88.51,-91.77"/>
<polygon fill="#63b8ff" stroke="#63b8ff" points="183.55,-127.47 194.15,-127.34 185.79,-120.83 183.55,-127.47"/>
</a>
</g>
</g>
<!-- Node6&#45;&gt;Node4 -->
<g id="edge6_Node000006_Node000004" class="edge">
<title>Node6&#45;&gt;Node4</title>
<g id="a_edge6_Node000006_Node000004"><a xlink:title=" ">
<path fill="none" stroke="#63b8ff" d="M358.86,-174.75C327.66,-166.01 292.11,-156.06 266.05,-148.76"/>
<polygon fill="#63b8ff" stroke="#63b8ff" points="357.67,-178.05 368.24,-177.37 359.56,-171.31 357.67,-178.05"/>
</a>
</g>
</g>
<!-- Node7&#45;&gt;Node3 -->
<g id="edge8_Node000007_Node000003" class="edge">
<title>Node7&#45;&gt;Node3</title>
<g id="a_edge8_Node000007_Node000003"><a xlink:title=" ">
<path fill="none" stroke="#63b8ff" d="M541.16,-131.04C533.16,-131.57 525.06,-132.1 517.07,-132.62"/>
<polygon fill="#63b8ff" stroke="#63b8ff" points="541.12,-134.55 550.87,-130.41 540.66,-127.57 541.12,-134.55"/>
</a>
</g>
</g>
<!-- Node8&#45;&gt;Node5 -->
<g id="edge10_Node000008_Node000005" class="edge">
<title>Node8&#45;&gt;Node5</title>
<g id="a_edge10_Node000008_Node000005"><a xlink:title=" ">
<path fill="none" stroke="#63b8ff" d="M137.21,-72.32C128.99,-73.24 120.82,-74.16 113.03,-75.03"/>
<polygon fill="#63b8ff" stroke="#63b8ff" points="137.39,-75.82 146.94,-71.23 136.61,-68.86 137.39,-75.82"/>
</a>
</g>
</g>
<!-- Node9&#45;&gt;Node7 -->
<g id="edge14_Node000009_Node000007" class="edge">
<title>Node9&#45;&gt;Node7</title>
<g id="a_edge14_Node000009_Node000007"><a xlink:title=" ">
<path fill="none" stroke="#63b8ff" d="M787.21,-83.04C763.62,-90.23 734.06,-99.02 707.5,-106.28 696.82,-109.2 685.26,-112.17 674.43,-114.88"/>
<polygon fill="#63b8ff" stroke="#63b8ff" points="787.95,-86.47 796.49,-80.2 785.9,-79.78 787.95,-86.47"/>
</a>
</g>
</g>
<!-- Node9&#45;&gt;Node9 -->
<g id="edge15_Node000009_Node000009" class="edge">
<title>Node9&#45;&gt;Node9</title>
<g id="a_edge15_Node000009_Node000009"><a xlink:title=" ">
<path fill="none" stroke="#63b8ff" d="M864.36,-90.39C860.56,-94.43 849.94,-97.28 832.5,-97.28 801.49,-97.28 792.05,-88.26 804.16,-79.62"/>
<polygon fill="#63b8ff" stroke="#63b8ff" points="867.74,-89.48 861.31,-81.06 861.09,-91.65 867.74,-89.48"/>
</a>
</g>
</g>
<!-- Node10 -->
<g id="Node000010" class="node">
<title>Node10</title>
<g id="a_Node000010"><a xlink:href="classtop_1_1_t_o_p_t_w_solution.html#a07a1d5a4428fa39c60fc25b993d571c0" target="_top" xlink:title="Compara si dos soluciones son iguales basándose en sus arrays de predecesores.">
<polygon fill="white" stroke="#666666" points="697.75,-97.28 562.5,-97.28 562.5,-77.28 697.75,-77.28 697.75,-97.28"/>
<text xml:space="preserve" text-anchor="middle" x="630.12" y="-83.78" font-family="Helvetica,sans-Serif" font-size="10.00">top.TOPTWSolution.equals</text>
</a>
</g>
</g>
<!-- Node9&#45;&gt;Node10 -->
<g id="edge12_Node000009_Node000010" class="edge">
<title>Node9&#45;&gt;Node10</title>
<g id="a_edge12_Node000009_Node000010"><a xlink:title=" ">
<path fill="none" stroke="#63b8ff" d="M731.66,-78.25C720.27,-79.27 708.87,-80.3 698.06,-81.27"/>
<polygon fill="#63b8ff" stroke="#63b8ff" points="731.88,-81.74 741.52,-77.36 731.25,-74.77 731.88,-81.74"/>
</a>
</g>
</g>
<!-- Node11 -->
<g id="Node000011" class="node">
<title>Node11</title>
<g id="a_Node000011"><a xlink:href="classtop_1_1_t_o_p_t_w_solution.html#a05b3fa5facafa4a4defb17ef0c280e52" target="_top" xlink:title="Compara si dos soluciones son iguales basándose en sus arrays de predecesores.">
<polygon fill="white" stroke="#666666" points="697.75,-59.28 562.5,-59.28 562.5,-39.28 697.75,-39.28 697.75,-59.28"/>
<text xml:space="preserve" text-anchor="middle" x="630.12" y="-45.78" font-family="Helvetica,sans-Serif" font-size="10.00">top.TOPTWSolution.equals</text>
</a>
</g>
</g>
<!-- Node9&#45;&gt;Node11 -->
<g id="edge13_Node000009_Node000011" class="edge">
<title>Node9&#45;&gt;Node11</title>
<g id="a_edge13_Node000009_Node000011"><a xlink:title=" ">
<path fill="none" stroke="#63b8ff" d="M731.66,-59.32C720.27,-58.18 708.87,-57.04 698.06,-55.96"/>
<polygon fill="#63b8ff" stroke="#63b8ff" points="731.23,-62.79 741.52,-60.3 731.92,-55.82 731.23,-62.79"/>
</a>
</g>
</g>
</g>
</svg>
