<?xml version="1.0" encoding="UTF-8" standalone="no"?>
<!DOCTYPE svg PUBLIC "-//W3C//DTD SVG 1.1//EN"
 "http://www.w3.org/Graphics/SVG/1.1/DTD/svg11.dtd">
<!-- Generated by graphviz version 14.0.1 (20251006.0113)
 -->
<!-- Title: es.ull.esit.utils.Pair.Pair Pages: 1 -->
<svg width="294pt" height="66pt"
 viewBox="0.00 0.00 294.00 66.00" xmlns="http://www.w3.org/2000/svg" xmlns:xlink="http://www.w3.org/1999/xlink">
<g id="graph0" class="graph" transform="scale(1 1) rotate(0) translate(4 62)">
<title>es.ull.esit.utils.Pair.Pair</title>
<!-- Node1 -->
<g id="Node000001" class="node">
<title>Node1</title>
<g id="a_Node000001"><a xlink:title="Constructor para crear un par.">
<polygon fill="#999999" stroke="#666666" points="286.25,-39 166.75,-39 166.75,-19 286.25,-19 286.25,-39"/>
<text xml:space="preserve" text-anchor="middle" x="226.5" y="-25.5" font-family="Helvetica,sans-Serif" font-size="10.00">es.ull.esit.utils.Pair.Pair</text>
</a>
</g>
</g>
<!-- Node2 -->
<g id="Node000002" class="node">
<title>Node2</title>
<g id="a_Node000002"><a xlink:href="classes_1_1ull_1_1esit_1_1utils_1_1_pair.html#afce45be862690691fb040d1ad3d87b5a" target="_top" xlink:title="Método de fábrica estático para crear una instancia de Pair.">
<polygon fill="white" stroke="#666666" points="130,-58 0.75,-58 0.75,-38 130,-38 130,-58"/>
<text xml:space="preserve" text-anchor="middle" x="65.38" y="-44.5" font-family="Helvetica,sans-Serif" font-size="10.00">es.ull.esit.utils.Pair.create</text>
</a>
</g>
</g>
<!-- Node1&#45;&gt;Node2 -->
<g id="edge1_Node000001_Node000002" class="edge">
<title>Node1&#45;&gt;Node2</title>
<g id="a_edge1_Node000001_Node000002"><a xlink:title=" ">
<path fill="none" stroke="#63b8ff" d="M155.42,-37.37C147.06,-38.37 138.55,-39.38 130.28,-40.37"/>
<polygon fill="#63b8ff" stroke="#63b8ff" points="155.68,-40.86 165.2,-36.2 154.85,-33.91 155.68,-40.86"/>
</a>
</g>
</g>
<!-- Node3 -->
<g id="Node000003" class="node">
<title>Node3</title>
<g id="a_Node000003"><a xlink:href="classes_1_1ull_1_1esit_1_1utils_1_1_pair.html#adb64035681885ff17048d77a16207c35" target="_top" xlink:title="Compara este par con otro objeto para ver si son iguales.">
<polygon fill="white" stroke="#666666" points="130.75,-20 0,-20 0,0 130.75,0 130.75,-20"/>
<text xml:space="preserve" text-anchor="middle" x="65.38" y="-6.5" font-family="Helvetica,sans-Serif" font-size="10.00">es.ull.esit.utils.Pair.equals</text>
</a>
</g>
</g>
<!-- Node1&#45;&gt;Node3 -->
<g id="edge2_Node000001_Node000003" class="edge">
<title>Node1&#45;&gt;Node3</title>
<g id="a_edge2_Node000001_Node000003"><a xlink:title=" ">
<path fill="none" stroke="#63b8ff" d="M155.4,-20.63C147.31,-19.66 139.1,-18.68 131.09,-17.73"/>
<polygon fill="#63b8ff" stroke="#63b8ff" points="154.85,-24.09 165.2,-21.8 155.68,-17.14 154.85,-24.09"/>
</a>
</g>
</g>
</g>
</svg>
