<?xml version="1.0" encoding="UTF-8" standalone="no"?>
<!DOCTYPE svg PUBLIC "-//W3C//DTD SVG 1.1//EN"
 "http://www.w3.org/Graphics/SVG/1.1/DTD/svg11.dtd">
<!-- Generated by graphviz version 14.0.1 (20251006.0113)
 -->
<!-- Title: es.ull.esit.utilities.PowerSet.PowerSetIterator.hasNext Pages: 1 -->
<svg width="314pt" height="58pt"
 viewBox="0.00 0.00 314.00 58.00" xmlns="http://www.w3.org/2000/svg" xmlns:xlink="http://www.w3.org/1999/xlink">
<g id="graph0" class="graph" transform="scale(1 1) rotate(0) translate(4 54)">
<title>es.ull.esit.utilities.PowerSet.PowerSetIterator.hasNext</title>
<!-- Node1 -->
<g id="Node000001" class="node">
<title>Node1</title>
<g id="a_Node000001"><a xlink:title="Comprueba si hay más subconjuntos para generar.">
<polygon fill="#999999" stroke="#666666" points="147.25,-32 0,-32 0,0 147.25,0 147.25,-32"/>
<text xml:space="preserve" text-anchor="start" x="8" y="-18.5" font-family="Helvetica,sans-Serif" font-size="10.00">es.ull.esit.utilities.Power</text>
<text xml:space="preserve" text-anchor="middle" x="73.62" y="-6.5" font-family="Helvetica,sans-Serif" font-size="10.00">Set.PowerSetIterator.hasNext</text>
</a>
</g>
</g>
<!-- Node2 -->
<g id="Node000002" class="node">
<title>Node2</title>
<g id="a_Node000002"><a xlink:href="classes_1_1ull_1_1esit_1_1utilities_1_1_power_set.html#a6b7dcc9f679ec5fd47c9267e00b35750" target="_top" xlink:title="Constructor de la clase PowerSet.">
<polygon fill="white" stroke="#666666" points="305.75,-32 183.25,-32 183.25,0 305.75,0 305.75,-32"/>
<text xml:space="preserve" text-anchor="start" x="191.25" y="-18.5" font-family="Helvetica,sans-Serif" font-size="10.00">es.ull.esit.utilities.Power</text>
<text xml:space="preserve" text-anchor="middle" x="244.5" y="-6.5" font-family="Helvetica,sans-Serif" font-size="10.00">Set.PowerSet</text>
</a>
</g>
</g>
<!-- Node1&#45;&gt;Node2 -->
<g id="edge1_Node000001_Node000002" class="edge">
<title>Node1&#45;&gt;Node2</title>
<g id="a_edge1_Node000001_Node000002"><a xlink:title=" ">
<path fill="none" stroke="#63b8ff" d="M147.71,-16C155.62,-16 163.66,-16 171.55,-16"/>
<polygon fill="#63b8ff" stroke="#63b8ff" points="171.46,-19.5 181.46,-16 171.46,-12.5 171.46,-19.5"/>
</a>
</g>
</g>
<!-- Node2&#45;&gt;Node2 -->
<g id="edge2_Node000002_Node000002" class="edge">
<title>Node2&#45;&gt;Node2</title>
<g id="a_edge2_Node000002_Node000002"><a xlink:title=" ">
<path fill="none" stroke="#63b8ff" d="M213.99,-32.44C208.3,-41.58 218.47,-50 244.5,-50 258.74,-50 268.23,-47.48 272.98,-43.71"/>
<polygon fill="#63b8ff" stroke="#63b8ff" points="276.41,-44.39 274.74,-33.93 269.52,-43.15 276.41,-44.39"/>
</a>
</g>
</g>
</g>
</svg>
