<?xml version="1.0" encoding="UTF-8" standalone="no"?>
<!DOCTYPE svg PUBLIC "-//W3C//DTD SVG 1.1//EN"
 "http://www.w3.org/Graphics/SVG/1.1/DTD/svg11.dtd">
<!-- Generated by graphviz version 14.0.1 (20251006.0113)
 -->
<!-- Title: top.TOPTWGRASP.aleatorySelectionRCL Pages: 1 -->
<svg width="950pt" height="62pt"
 viewBox="0.00 0.00 950.00 62.00" xmlns="http://www.w3.org/2000/svg" xmlns:xlink="http://www.w3.org/1999/xlink">
<g id="graph0" class="graph" transform="scale(1 1) rotate(0) translate(4 58)">
<title>top.TOPTWGRASP.aleatorySelectionRCL</title>
<!-- Node1 -->
<g id="Node000001" class="node">
<title>Node1</title>
<g id="a_Node000001"><a xlink:title="Selecciona un elemento aleatorio de la Lista Restringida de Candidatos (RCL).">
<polygon fill="#999999" stroke="#666666" points="941.75,-48 741.25,-48 741.25,-28 941.75,-28 941.75,-48"/>
<text xml:space="preserve" text-anchor="middle" x="841.5" y="-34.5" font-family="Helvetica,sans-Serif" font-size="10.00">top.TOPTWGRASP.aleatorySelectionRCL</text>
</a>
</g>
</g>
<!-- Node2 -->
<g id="Node000002" class="node">
<title>Node2</title>
<g id="a_Node000002"><a xlink:href="classtop_1_1_t_o_p_t_w_g_r_a_s_p.html#ade97c51a7d20660d7d306b756b4a6302" target="_top" xlink:title="Construye una solución greedy aleatorizada.">
<polygon fill="white" stroke="#666666" points="499.5,-54 325.25,-54 325.25,-22 499.5,-22 499.5,-54"/>
<text xml:space="preserve" text-anchor="start" x="333.25" y="-40.5" font-family="Helvetica,sans-Serif" font-size="10.00">top.TOPTWGRASP.computeGreedy</text>
<text xml:space="preserve" text-anchor="middle" x="412.38" y="-28.5" font-family="Helvetica,sans-Serif" font-size="10.00">Solution</text>
</a>
</g>
</g>
<!-- Node1&#45;&gt;Node2 -->
<g id="edge1_Node000001_Node000002" class="edge">
<title>Node1&#45;&gt;Node2</title>
<g id="a_edge1_Node000001_Node000002"><a xlink:title=" ">
<path fill="none" stroke="#63b8ff" d="M729.56,-40.66C721.33,-40.8 713.16,-40.91 705.25,-41 629.81,-41.84 610.94,-41.93 535.5,-41 523.94,-40.86 511.77,-40.64 499.77,-40.39"/>
<polygon fill="#63b8ff" stroke="#63b8ff" points="729.34,-44.16 739.28,-40.49 729.22,-37.16 729.34,-44.16"/>
</a>
</g>
</g>
<!-- Node5 -->
<g id="Node000005" class="node">
<title>Node5</title>
<g id="a_Node000005"><a xlink:href="classtop_1_1_t_o_p_t_w_g_r_a_s_p.html#a717d4390dfb843bed804afb598e27a87" target="_top" xlink:title="Selecciona un candidato de la RCL utilizando un corte alfa sobre la función de pertenencia difusa.">
<polygon fill="white" stroke="#666666" points="705.25,-32 535.5,-32 535.5,0 705.25,0 705.25,-32"/>
<text xml:space="preserve" text-anchor="start" x="543.5" y="-18.5" font-family="Helvetica,sans-Serif" font-size="10.00">top.TOPTWGRASP.fuzzySelection</text>
<text xml:space="preserve" text-anchor="middle" x="620.38" y="-6.5" font-family="Helvetica,sans-Serif" font-size="10.00">AlphaCutRCL</text>
</a>
</g>
</g>
<!-- Node1&#45;&gt;Node5 -->
<g id="edge4_Node000001_Node000005" class="edge">
<title>Node1&#45;&gt;Node5</title>
<g id="a_edge4_Node000001_Node000005"><a xlink:title=" ">
<path fill="none" stroke="#63b8ff" d="M729.55,-26.86C721.53,-26.06 713.52,-25.25 705.69,-24.46"/>
<polygon fill="#63b8ff" stroke="#63b8ff" points="729.07,-30.33 739.37,-27.85 729.77,-23.37 729.07,-30.33"/>
</a>
</g>
</g>
<!-- Node3 -->
<g id="Node000003" class="node">
<title>Node3</title>
<g id="a_Node000003"><a xlink:href="classtop_1_1_t_o_p_t_w_g_r_a_s_p.html#a11242fc809f6a16ff81136c4785fdc3e" target="_top" xlink:title="Ejecuta el algoritmo GRASP durante un número determinado de iteraciones.">
<polygon fill="white" stroke="#666666" points="289.25,-48 148.75,-48 148.75,-28 289.25,-28 289.25,-48"/>
<text xml:space="preserve" text-anchor="middle" x="219" y="-34.5" font-family="Helvetica,sans-Serif" font-size="10.00">top.TOPTWGRASP.GRASP</text>
</a>
</g>
</g>
<!-- Node2&#45;&gt;Node3 -->
<g id="edge2_Node000002_Node000003" class="edge">
<title>Node2&#45;&gt;Node3</title>
<g id="a_edge2_Node000002_Node000003"><a xlink:title=" ">
<path fill="none" stroke="#63b8ff" d="M313.56,-38C305.52,-38 297.5,-38 289.72,-38"/>
<polygon fill="#63b8ff" stroke="#63b8ff" points="313.41,-41.5 323.41,-38 313.41,-34.5 313.41,-41.5"/>
</a>
</g>
</g>
<!-- Node4 -->
<g id="Node000004" class="node">
<title>Node4</title>
<g id="a_Node000004"><a xlink:href="classtop_1_1main_t_o_p_t_w.html#a6b155cf80c78f50335adf5a91762e0eb" target="_top" xlink:title="Método principal que ejecuta el solver TOPTW GRASP.">
<polygon fill="white" stroke="#666666" points="112.75,-48 0,-48 0,-28 112.75,-28 112.75,-48"/>
<text xml:space="preserve" text-anchor="middle" x="56.38" y="-34.5" font-family="Helvetica,sans-Serif" font-size="10.00">top.mainTOPTW.main</text>
</a>
</g>
</g>
<!-- Node3&#45;&gt;Node4 -->
<g id="edge3_Node000003_Node000004" class="edge">
<title>Node3&#45;&gt;Node4</title>
<g id="a_edge3_Node000003_Node000004"><a xlink:title=" ">
<path fill="none" stroke="#63b8ff" d="M137.01,-38C128.88,-38 120.75,-38 112.97,-38"/>
<polygon fill="#63b8ff" stroke="#63b8ff" points="136.97,-41.5 146.97,-38 136.97,-34.5 136.97,-41.5"/>
</a>
</g>
</g>
<!-- Node5&#45;&gt;Node2 -->
<g id="edge5_Node000005_Node000002" class="edge">
<title>Node5&#45;&gt;Node2</title>
<g id="a_edge5_Node000005_Node000002"><a xlink:title=" ">
<path fill="none" stroke="#63b8ff" d="M523.98,-26.19C515.94,-27.05 507.84,-27.91 499.87,-28.76"/>
<polygon fill="#63b8ff" stroke="#63b8ff" points="524.21,-29.68 533.78,-25.14 523.47,-22.72 524.21,-29.68"/>
</a>
</g>
</g>
</g>
</svg>
